G04 Gerber feature grid test using OSIFONT outline stroke glyph aperture blocks*
%TF.GenerationSoftware,OpenAI,Codex,2026-05-15*%
%TF.FileFunction,Drawing,Top*%
%TF.Part,Single*%
%FSLAX35Y35*%
%MOMM*%
G75*
G01*
%LPD*%
G04 EDITING NOTES START*
G04 Units are millimeters. FSLAX35Y35 means 100000 coordinate units per mm*
G04 Table origin is X2.0 Y2.0 mm. Cell size is 24.0 x 15.0 mm*
G04 Table layout is 4 columns by 4 rows, filled from top-left to bottom-right*
G04 Search marker format: CELL NN BEGIN NAME and CELL NN END NAME*
G04 Font glyph aperture blocks are D100-D135: A-Z then 0-9, OSIFONT line/arc outline strokes*
G04 Labels are flashed with the glyph blocks and temporarily scaled by LS*
G04 Drawing apertures are D10-D30; D30 is C with a round hole*
G04 D140 marked star, D142 plain star, D143 AB clearing stack*
G04 D150 nested shape 1, D151 nested shape 2, D152 nested assembly*
G04 Aperture macro test apertures: D141 SMILE and D153 HOLESTACK*
G04 Cell order: G01 LINE, G02 ARC, G03 ARC, APERTURE*
G04 Cell order: REGION, AB CLEARING, AB BLOCK, MACRO*
G04 Cell order: ROTATION, MIRROR, SCALE, COMBO*
G04 Cell order: AB NESTED, MACRO HOLE STACK, AP HOLE*
G04 EDITING NOTES END*
G04 Glyph aperture block definitions D100-D135*
G04 Glyph source: OSIFONT outline strokes approximated with G01 lines and G02/G03 arcs*
G04 Glyph stroke aperture D90: C 0.150 mm*
%ADD90C,0.150*%
G04 GLYPH A D100*
%ABD100*%
D90*
G01*
X220197Y496553D02*
G02*
X226976Y512151I34508J-5725D01*
G02*
X241523Y514379I10611J-20675D01*
G02*
X255538Y512151I3780J-21413D01*
G02*
X262240Y496553I-28885J-21651D01*
G01*
X398425Y60949D01*
G02*
X401167Y46688I-30212J-13203D01*
G02*
X400825Y35592I-99325J-2485D01*
G02*
X398425Y29631I-9557J384D01*
G02*
X391913Y26770I-8183J9784D01*
G02*
X379231Y24972I-27728J149969D01*
G02*
X369792Y25307I-2089J74461D01*
G02*
X364265Y27646I750J9469D01*
G02*
X356382Y46364I39543J27673D01*
G01*
X325306Y148783D01*
G01*
X156522Y148783D01*
G01*
X123314Y43771D01*
G02*
X115926Y26471I-45765J9318D01*
G02*
X102597Y24000I-9804J15698D01*
G02*
X88858Y24370I-3095J140458D01*
G02*
X81803Y26958I150J11319D01*
G02*
X79204Y33982I8614J7181D01*
G02*
X78833Y47660I138259J10597D01*
G02*
X79671Y53129I16043J341D01*
G01*
X85535Y71968D01*
G01*
X220197Y496553D01*
X240305Y415850D02*
G01*
X170232Y194482D01*
G01*
X310682Y194482D01*
G01*
X240305Y415850D01*
%AB*%
G04 GLYPH B D101*
%ABD101*%
D90*
G01*
X387794Y174063D02*
G02*
X387088Y132233I-693232J-9213D01*
G02*
X382143Y106810I-79749J2321D01*
G02*
X368720Y87465I-55453J24147D01*
G02*
X342581Y63866I-290384J295359D01*
G02*
X315814Y41380I-549646J627139D01*
G02*
X297996Y29834I-57593J69356D01*
G02*
X281119Y25580I-20573J46016D01*
G02*
X257178Y24972I-18795J268549D01*
G01*
X114893Y24972D01*
G02*
X101777Y25433I-2954J102821D01*
G02*
X95042Y28659I419J9520D01*
G02*
X92560Y37415I14140J8737D01*
G02*
X92206Y54466I225133J13210D01*
G01*
X92206Y483913D01*
G02*
X92677Y501526I181212J3967D01*
G02*
X95973Y510571I14565J-186D01*
G02*
X104922Y513903I9155J-10903D01*
G02*
X122348Y514379I13501J-175027D01*
G01*
X223470Y514379D01*
G02*
X259512Y513995I7968J-941581D01*
G02*
X280878Y511300I-1341J-96702D01*
G02*
X295985Y503988I-12432J-44942D01*
G02*
X313249Y489747I-135342J-181661D01*
G02*
X341730Y463970I-415834J-488083D01*
G02*
X356356Y445182I-50367J-54294D01*
G02*
X361744Y424206I-50736J-24213D01*
G02*
X362514Y391866I-382749J-25289D01*
G02*
X361805Y356831I-485501J-7699D01*
G02*
X356842Y335227I-59803J2366D01*
G02*
X343371Y318120I-50553J25951D01*
G02*
X317138Y296577I-293124J330187D01*
G02*
X346045Y277171I-61871J-123393D01*
G02*
X367538Y246340I-129397J-113111D01*
G02*
X385262Y212754I-114535J-81915D01*
G02*
X387794Y174063I-146601J-29023D01*
X142119Y267407D02*
G01*
X142119Y70024D01*
G01*
X243241Y70024D01*
G03*
X269140Y70500I5691J395142D01*
G03*
X285132Y73832I-1689J48149D01*
G03*
X297844Y82877I-17652J38263D01*
G03*
X313897Y100490I-219450J216139D01*
G03*
X329262Y118681I-313042J279997D01*
G03*
X337152Y131767I-41706J34068D01*
G03*
X340059Y146068I-44131J16416D01*
G03*
X340474Y167905I-323957J17083D01*
G03*
X340084Y189757I-346176J4752D01*
G03*
X337355Y204165I-50788J-2160D01*
G03*
X329946Y217540I-53501J-20898D01*
G03*
X315518Y236292I-354953J-258166D01*
G03*
X300548Y254281I-214655J-163415D01*
G03*
X288130Y263518I-28502J-25350D01*
G03*
X271581Y266921I-18041J-45789D01*
G03*
X244213Y267407I-21335J-430467D01*
G01*
X142119Y267407D01*
X142119Y466087D02*
G01*
X142119Y317968D01*
G01*
X240972Y317968D01*
G03*
X262812Y318285I4820J421066D01*
G03*
X275916Y320500I-1016J45865D01*
G03*
X285525Y326514I-10213J27004D01*
G03*
X296881Y338225I-120502J128216D01*
G03*
X313188Y359718I-48340J53609D01*
G03*
X315518Y388625I-86075J21484D01*
G03*
X313046Y418220I-89077J7463D01*
G03*
X295747Y442589I-81850J-39779D01*
G03*
X283750Y456174I-165787J-134321D01*
G03*
X273910Y463150I-22346J-21092D01*
G03*
X260971Y465720I-14129J-37276D01*
G03*
X239676Y466087I-16605J-345323D01*
G01*
X142119Y466087D01*
%AB*%
G04 GLYPH C D102*
%ABD102*%
D90*
G01*
X237731Y516000D02*
G01*
X336909Y516000D01*
G02*
X350775Y515620I3123J-139268D01*
G02*
X357895Y512961I-166J-11309D01*
G02*
X360519Y505745I-9016J-7362D01*
G02*
X360893Y491692I-144603J-10888D01*
G02*
X360488Y477451I-137735J-3208D01*
G02*
X357652Y470138I-11376J205D01*
G02*
X349955Y467444I-7821J10002D01*
G02*
X334964Y467059I-11613J160208D01*
G01*
X237407Y467059D01*
G03*
X210384Y464102I-6592J-64700D01*
G03*
X184577Y443399I57629J-98276D01*
G03*
X167561Y423709I37026J-49196D01*
G03*
X165130Y394783I81298J-21397D01*
G01*
X165130Y147162D01*
G03*
X167683Y117749I84561J-7479D01*
G03*
X185549Y94656I72948J37981D01*
G03*
X207143Y74804I76079J61085D01*
G03*
X229953Y71968I17243J45540D01*
G01*
X338854Y71968D01*
G02*
X352345Y71599I3039J-135454D01*
G02*
X359273Y69011I-162J-11001D01*
G02*
X361825Y61987I-8779J-7166D01*
G02*
X362190Y48308I-140799J-10597D01*
G02*
X361820Y35379I-124420J-2912D01*
G02*
X359232Y28740I-10300J191D01*
G02*
X352208Y26294I-7133J9175D01*
G02*
X338530Y25945I-10597J146933D01*
G01*
X228008Y25945D01*
G02*
X201542Y26618I-5750J294367D01*
G02*
X184010Y31333I3055J46317D01*
G02*
X167571Y44130I33853J60442D01*
G02*
X144387Y69051I445221J437433D01*
G02*
X129022Y86822I237368J220764D01*
G02*
X121132Y100612I37879J30825D01*
G02*
X118226Y117501I57985J18675D01*
G02*
X117810Y144569I494897J21130D01*
G01*
X117810Y398348D01*
G02*
X118408Y427016I387517J6263D01*
G02*
X122591Y445384I53486J-2520D01*
G02*
X133945Y461382I54156J-26408D01*
G02*
X156055Y482941I348578J-335385D01*
G02*
X177021Y502053I314942J-324430D01*
G02*
X192518Y511868I39140J-44659D01*
G02*
X210202Y515483I20048J-52996D01*
G02*
X237731Y516000I21517J-412917D01*
%AB*%
G04 GLYPH D D103*
%ABD103*%
D90*
G01*
X140984Y71644D02*
G01*
X253451Y71644D01*
G03*
X278896Y71996I5616J513927D01*
G03*
X294147Y74460I-1151J55562D01*
G03*
X305296Y81147I-11388J31622D01*
G03*
X318435Y94170I-132724J147051D01*
G03*
X330895Y107704I-192083J189349D01*
G03*
X337294Y117972I-28061J24615D01*
G03*
X339988Y149431I-88304J23407D01*
G01*
X339988Y392838D01*
G03*
X337355Y420955I-76145J7050D01*
G03*
X318921Y444696I-80404J-43402D01*
G03*
X306200Y457999I-178881J-158317D01*
G03*
X296152Y464831I-23547J-23827D01*
G03*
X283552Y467348I-13918J-36879D01*
G03*
X263174Y467708I-15902J-323574D01*
G01*
X140984Y467708D01*
G01*
X140984Y71644D01*
X93340Y487802D02*
G02*
X93760Y503167I154525J3461D01*
G02*
X96703Y511057I12541J-183D01*
G02*
X104689Y513964I8149J-9964D01*
G02*
X120241Y514379I12049J-159819D01*
G01*
X272249Y514379D01*
G02*
X298651Y513833I5759J-359553D01*
G02*
X315741Y510004I-2460J-51035D01*
G02*
X330976Y499612I-25449J-53676D01*
G02*
X351818Y479375I-322564J-353061D01*
G02*
X371961Y458445I-338421J-345846D01*
G02*
X382305Y443197I-43843J-40873D01*
G02*
X386116Y426186I-47130J-19491D01*
G02*
X386660Y399968I-355749J-20502D01*
G01*
X386660Y138411D01*
G02*
X386113Y112201I-354317J-5717D01*
G02*
X382285Y95244I-50290J2443D01*
G02*
X371893Y80140I-53033J25360D01*
G02*
X351656Y59490I-349127J321908D01*
G02*
X330797Y39535I-379224J375523D01*
G02*
X316044Y29287I-42534J45489D01*
G02*
X300381Y25512I-18292J41512D01*
G02*
X276787Y24972I-18470J291631D01*
G01*
X115055Y24972D01*
G02*
X102501Y25423I-2827J96325D01*
G02*
X96054Y28578I429J9041D01*
G02*
X93679Y37142I14138J8532D01*
G02*
X93340Y53818I224993J12919D01*
G01*
X93340Y487802D01*
%AB*%
G04 GLYPH E D104*
%ABD104*%
D90*
G01*
X164644Y73265D02*
G01*
X337395Y73265D01*
G02*
X351261Y72900I3123J-145052D01*
G02*
X358381Y70348I-133J-11578D01*
G02*
X361005Y63420I-8295J-7102D01*
G02*
X361379Y49929I-133255J-10452D01*
G02*
X361020Y36438I-139257J-3039D01*
G02*
X358503Y29510I-11177J140D01*
G02*
X351671Y26958I-6992J8295D01*
G02*
X338368Y26593I-10307J133183D01*
G01*
X139364Y26593D01*
G02*
X126997Y26973I-2785J110832D01*
G02*
X120646Y29631I247J9503D01*
G02*
X118307Y36848I10149J7278D01*
G02*
X117972Y50901I162163J10887D01*
G01*
X117972Y490719D01*
G02*
X118423Y505335I130451J3292D01*
G02*
X121578Y512840I11209J-296D01*
G02*
X130142Y515605I8633J-12095D01*
G02*
X146818Y516000I12920J-193224D01*
G01*
X335775Y516000D01*
G02*
X350952Y515630I3419J-171373D01*
G02*
X358746Y513042I-84J-13283D01*
G02*
X361617Y506018I-7762J-7272D01*
G02*
X362028Y492340I-125122J-10598D01*
G02*
X361617Y478849I-122124J-3039D01*
G02*
X358746Y471921I-10417J259D01*
G02*
X350952Y469369I-7868J10848D01*
G02*
X335775Y469004I-11758J173382D01*
G01*
X164644Y469004D01*
G01*
X164644Y317968D01*
G01*
X289751Y317968D01*
G02*
X303429Y317604I3081J-141164D01*
G02*
X310454Y315051I-142J-11331D01*
G02*
X313041Y308124I-8413J-7090D01*
G02*
X313411Y294632I-135084J-10452D01*
G02*
X313052Y281891I-124238J-2870D01*
G02*
X310535Y275348I-10223J177D01*
G02*
X303703Y272937I-6947J8803D01*
G02*
X290399Y272593I-10307J141033D01*
G01*
X164644Y272593D01*
G01*
X164644Y73265D01*
%AB*%
G04 GLYPH F D105*
%ABD105*%
D90*
G01*
X165941Y272269D02*
G01*
X165941Y52846D01*
G02*
X165561Y37481I-170954J-3461D01*
G02*
X162902Y29591I-13322J96D01*
G02*
X155686Y26684I-7456J8100D01*
G02*
X141632Y26269I-10888J130466D01*
G02*
X127954Y26689I-3081J122520D01*
G02*
X120930Y29631I273J10508D01*
G02*
X118342Y37618I11238J8054D01*
G02*
X117972Y53170I179559J12049D01*
G01*
X117972Y493312D01*
G02*
X118367Y506429I119868J2954D01*
G02*
X121132Y513164I10176J-242D01*
G02*
X128638Y515646I7583J-10344D01*
G02*
X143253Y516000I11323J-165368D01*
G01*
X336423Y516000D01*
G02*
X351226Y515635I3335J-165284D01*
G02*
X358827Y513083I-90J-12863D01*
G02*
X361628Y506155I-7747J-7161D01*
G02*
X362028Y492664I-124803J-10452D01*
G02*
X361633Y479173I-126802J-3039D01*
G02*
X358868Y472245I-10616J221D01*
G02*
X351362Y469693I-7603J10047D01*
G02*
X336747Y469328I-11323J160767D01*
G01*
X166265Y469328D01*
G01*
X166265Y319589D01*
G01*
X336747Y319589D01*
G02*
X351362Y319219I3292J-158931D01*
G02*
X358868Y316631I-109J-12492D01*
G02*
X361633Y309607I-8076J-7235D01*
G02*
X362028Y295929I-129947J-10598D01*
G02*
X361628Y282250I-128698J-3081D01*
G02*
X358827Y275226I-10769J223D01*
G02*
X351226Y272638I-7702J10165D01*
G02*
X336423Y272269I-11468J162656D01*
G01*
X165941Y272269D01*
%AB*%
G04 GLYPH G D106*
%ABD106*%
D90*
G01*
X339664Y73265D02*
G01*
X339664Y272269D01*
G01*
X288779Y272269D01*
G02*
X275475Y272628I-2997J135422D01*
G02*
X268643Y275145I149J10934D01*
G02*
X266126Y281977I8417J6980D01*
G02*
X265767Y295281I135062J10307D01*
G02*
X266111Y308772I145381J3039D01*
G02*
X268522Y315700I11468J-107D01*
G02*
X275065Y318252I6732J-7594D01*
G02*
X287806Y318617I9872J-122154D01*
G01*
X365269Y318617D01*
G02*
X377261Y318135I2700J-82400D01*
G02*
X383419Y314768I-569J-8354D01*
G02*
X385688Y305627I-16902J-9047D01*
G02*
X386012Y287826I-268399J-13790D01*
G01*
X386012Y54791D01*
G02*
X385592Y38489I-173911J-3672D01*
G02*
X382649Y30118I-13772J138D01*
G02*
X374663Y27033I-8206J9368D01*
G02*
X359111Y26593I-12049J150615D01*
G01*
X201593Y26593D01*
G02*
X180597Y27092I-4530J251454D01*
G02*
X166103Y30583I2879J43778D01*
G02*
X151366Y40061I30380J63434D01*
G02*
X129640Y58518I394904J486863D01*
G02*
X108467Y78058I184629J221303D01*
G02*
X97594Y95122I34885J34224D01*
G02*
X93588Y119205I80406J25749D01*
G02*
X93016Y159802I803111J31623D01*
G01*
X93016Y401265D01*
G02*
X93596Y428224I353360J5886D01*
G02*
X97655Y445567I49589J-2460D01*
G02*
X108672Y460813I52058J-26015D01*
G02*
X130126Y481482I340884J-332360D01*
G02*
X152331Y501438I339112J-354991D01*
G02*
X168594Y511685I41674J-48111D01*
G02*
X186894Y515461I20837J-54763D01*
G02*
X215206Y516000I22135J-418583D01*
G01*
X358462Y516000D01*
G02*
X374952Y515635I3715J-205034D01*
G02*
X383419Y513083I-20J-15388D01*
G02*
X386539Y506155I-6913J-7279D01*
G02*
X386984Y492664I-112006J-10453D01*
G02*
X386544Y479173I-113738J-3038D01*
G02*
X383459Y472245I-10082J338D01*
G02*
X375088Y469693I-8399J12542D01*
G02*
X358787Y469328I-12629J200041D01*
G01*
X220391Y469328D01*
G03*
X199425Y468963I-4600J-338429D01*
G03*
X186360Y466411I1429J-42036D01*
G03*
X175725Y459483I14359J-33668D01*
G03*
X162051Y445992I175930J-191982D01*
G03*
X148935Y431979I201617J-201865D01*
G03*
X142200Y421400I28862J-25809D01*
G03*
X139718Y408937I37725J-13990D01*
G03*
X139364Y389273I306506J-15361D01*
G01*
X139364Y154617D01*
G03*
X139693Y133463I381483J-4643D01*
G03*
X141997Y120301I46583J1372D01*
G03*
X148251Y109631I34769J13211D01*
G03*
X160431Y95953I191109J157904D01*
G03*
X182106Y76101I69221J53819D01*
G03*
X207427Y73265I19000J55184D01*
G01*
X339664Y73265D01*
%AB*%
G04 GLYPH H D107*
%ABD107*%
D90*
G01*
X341447Y271296D02*
G01*
X140174Y271296D01*
G01*
X140174Y49929D01*
G02*
X139802Y35501I-153837J-3250D01*
G02*
X137196Y28092I-12185J123D01*
G02*
X130124Y25362I-7267J8300D01*
G02*
X116352Y24972I-10670J133449D01*
G02*
X102580Y25357I-3102J135594D01*
G02*
X95507Y28051I183J11109D01*
G02*
X92902Y35364I9328J7444D01*
G02*
X92530Y49605I149501J11033D01*
G01*
X92530Y486830D01*
G02*
X92902Y502757I187413J3588D01*
G02*
X95507Y510936I14318J-57D01*
G02*
X102580Y513949I7366J-7483D01*
G02*
X116352Y514379I10670J-120860D01*
G02*
X130124Y513949I3102J-121291D01*
G02*
X137196Y510936I-294J-10496D01*
G02*
X139802Y502757I-11712J-8236D01*
G02*
X140174Y486830I-187041J-12339D01*
G01*
X140174Y317968D01*
G01*
X341447Y317968D01*
G01*
X341447Y488775D01*
G02*
X341806Y502828I151084J3166D01*
G02*
X344323Y510044I11928J-113D01*
G02*
X351155Y512703I7027J-7949D01*
G02*
X364458Y513083I10307J-127844D01*
G02*
X377762Y512708I2997J-129950D01*
G02*
X384594Y510085I-183J-10685D01*
G02*
X387111Y502965I-9158J-7242D01*
G02*
X387470Y489099I-146729J-10742D01*
G01*
X387470Y50901D01*
G02*
X387111Y35911I-171870J-3377D01*
G02*
X384594Y28213I-13249J72D01*
G02*
X377762Y25377I-7088J7429D01*
G02*
X364458Y24972I-10307J119835D01*
G02*
X351155Y25367I-2996J123311D01*
G02*
X344323Y28132I232J10394D01*
G02*
X341806Y35638I10193J7593D01*
G02*
X341447Y50253I163035J11323D01*
G01*
X341447Y271296D01*
%AB*%
G04 GLYPH I D108*
%ABD108*%
D90*
G01*
X240000Y24972D02*
G02*
X225759Y25448I-3207J117303D01*
G02*
X218447Y28781I386J10538D01*
G02*
X215752Y37825I13879J9058D01*
G02*
X215368Y55439I221243J13645D01*
G01*
X215368Y485209D01*
G02*
X215752Y502073I203187J3799D01*
G02*
X218447Y510733I15402J-43D01*
G02*
X225759Y513924I7644J-7546D01*
G02*
X240000Y514379I11033J-122035D01*
G02*
X254241Y513908I3207J-118558D01*
G02*
X261553Y510612I-372J-10585D01*
G02*
X264248Y501663I-13582J-8969D01*
G02*
X264632Y484237I-216557J-13500D01*
G01*
X264632Y56087D01*
G02*
X264248Y38099I-231148J-4052D01*
G02*
X261553Y28862I-17178J-1D01*
G02*
X254241Y25458I-7727J7046D01*
G02*
X240000Y24972I-11034J114386D01*
%AB*%
G04 GLYPH J D109*
%ABD109*%
D90*
G01*
X290399Y489099D02*
G02*
X290764Y503714I161132J3292D01*
G02*
X293316Y511219I12599J-98D01*
G02*
X300244Y513984I7149J-7851D01*
G02*
X313735Y514379I10452J-126407D01*
G02*
X327039Y513990I2996J-124906D01*
G02*
X333871Y511260I-219J-10463D01*
G02*
X336387Y503851I-9929J-7505D01*
G02*
X336747Y489423I-158878J-11178D01*
G01*
X336747Y143597D01*
G02*
X336203Y115128I-419228J-6223D01*
G02*
X332392Y96945I-56611J2374D01*
G02*
X322048Y81223I-53688J24058D01*
G02*
X301905Y60138I-335444J300295D01*
G02*
X280982Y39808I-311506J299653D01*
G02*
X265179Y29368I-39184J42132D01*
G02*
X246551Y25522I-20937J54371D01*
G02*
X217150Y24972I-22966J442002D01*
G01*
X167237Y24972D01*
G02*
X153371Y25347I-3123J141144D01*
G02*
X146251Y27970I155J11396D01*
G02*
X143628Y35091I8772J7275D01*
G02*
X143253Y48957I140769J10743D01*
G02*
X143694Y62822I120129J3123D01*
G02*
X146778Y69943I10488J-315D01*
G02*
X155149Y72566I8418J-12193D01*
G02*
X171451Y72941I12629J-194627D01*
G01*
X219419Y72941D01*
G03*
X237349Y73288I3929J260441D01*
G03*
X248609Y75716I-1346J33561D01*
G03*
X257955Y82307I-13994J29765D01*
G03*
X270142Y95142I-175412J178757D01*
G03*
X287867Y118012I-60322J65054D01*
G03*
X290399Y144893I-69974J20151D01*
G01*
X290399Y489099D01*
%AB*%
G04 GLYPH K D110*
%ABD110*%
D90*
G01*
X115704Y25945D02*
G02*
X102775Y26416I-2911J97776D01*
G02*
X96135Y29712I462J9265D01*
G02*
X93689Y38661I14995J8907D01*
G02*
X93340Y56087I238555J13500D01*
G01*
X93340Y492988D01*
G02*
X93689Y505355I120430J2786D01*
G02*
X96135Y511706I9916J-173D01*
G02*
X102775Y514045I6751J-8566D01*
G02*
X115704Y514379I10017J-137236D01*
G02*
X129757Y514000I3166J-143051D01*
G02*
X136973Y511341I-157J-11550D01*
G02*
X139632Y504124I-8891J-7374D01*
G02*
X140012Y490071I-142671J-10888D01*
G01*
X140012Y283289D01*
G01*
X340960Y503684D01*
G02*
X352102Y514460I48396J-38886D01*
G02*
X362028Y516000I7617J-16341D01*
G02*
X371427Y514987I2381J-22019D01*
G02*
X378881Y507897I-15364J-23619D01*
G02*
X384837Y499957I-22547J-23114D01*
G02*
X385688Y491043I-23104J-6703D01*
G02*
X384229Y482049I-16436J-1950D01*
G02*
X374020Y469652I-69391J46743D01*
G01*
X239190Y320237D01*
G01*
X380502Y65162D01*
G02*
X385890Y54872I-83305J-50176D01*
G02*
X386660Y48957I-13471J-4761D01*
G02*
X385566Y39233I-21908J-2459D01*
G02*
X377909Y31455I-24919J16872D01*
G02*
X361055Y24972I-13752J10604D01*
G02*
X349549Y26795I-2929J18736D01*
G02*
X340960Y39557I29713J29268D01*
G01*
X205806Y283613D01*
G01*
X140660Y212308D01*
G01*
X140660Y57059D01*
G02*
X140270Y39071I-228153J-4052D01*
G02*
X137541Y29834I-17021J8D01*
G02*
X130132Y26431I-7811J7239D01*
G02*
X115704Y25945I-11179J117420D01*
%AB*%
G04 GLYPH L D111*
%ABD111*%
D90*
G01*
X164320Y489423D02*
G01*
X164320Y71968D01*
G01*
X333182Y71968D01*
G02*
X350233Y71601I3841J-217727D01*
G02*
X358989Y69031I-3J-16211D01*
G02*
X362215Y62055I-6767J-7363D01*
G02*
X362676Y48470I-109814J-10526D01*
G02*
X362200Y34886I-106774J-3059D01*
G02*
X358868Y27910I-9869J430D01*
G02*
X349823Y25339I-9027J14566D01*
G02*
X332209Y24972I-13645J231937D01*
G01*
X140336Y24972D01*
G02*
X127032Y25423I-2996J108135D01*
G02*
X120201Y28578I378J9791D01*
G02*
X117684Y37142I13323J8567D01*
G02*
X117324Y53818I212303J12920D01*
G01*
X117324Y489423D01*
G02*
X117691Y503851I155952J3250D01*
G02*
X120261Y511260I12287J-112D01*
G02*
X127237Y513990I7180J-8071D01*
G02*
X140822Y514379I10525J-129839D01*
G02*
X154407Y513990I3060J-130229D01*
G02*
X161383Y511260I-204J-10801D01*
G02*
X163953Y503851I-9717J-7521D01*
G02*
X164320Y489423I-155585J-11178D01*
%AB*%
G04 GLYPH M D112*
%ABD112*%
D90*
G01*
X359428Y502063D02*
G02*
X367350Y512840I29395J-13307D01*
G02*
X378927Y514379I8580J-20219D01*
G02*
X392313Y513974I3015J-121732D01*
G02*
X399187Y511138I-252J-10360D01*
G02*
X401719Y503441I-10664J-7774D01*
G02*
X402081Y488451I-170452J-11613D01*
G01*
X402081Y57059D01*
G02*
X401729Y38509I-268520J-4179D01*
G02*
X399263Y28983I-19340J-76D01*
G02*
X392570Y25474I-7241J5673D01*
G02*
X379536Y24972I-10099J92878D01*
G02*
X366502Y25474I-2935J93379D01*
G02*
X359809Y28983I548J9183D01*
G02*
X357343Y38509I16875J9450D01*
G02*
X356991Y57059I268168J14371D01*
G01*
X356991Y404830D01*
G01*
X261936Y240182D01*
G02*
X250359Y222315I-72791J34483D01*
G02*
X238781Y219763I-8833J12533D01*
G02*
X227280Y222234I-2757J15169D01*
G02*
X216236Y239534I56767J48416D01*
G01*
X123009Y404182D01*
G01*
X123009Y55439D01*
G02*
X122642Y37825I-232688J-3968D01*
G02*
X120077Y28781I-17157J-19D01*
G02*
X113112Y25448I-7396J6515D01*
G02*
X99550Y24972I-10508J105946D01*
G02*
X87044Y25438I-2816J92483D01*
G02*
X80623Y28700I479J8896D01*
G02*
X78257Y37552I15178J8799D01*
G02*
X77919Y54791I241364J13355D01*
G01*
X77919Y488775D01*
G02*
X78281Y503577I166576J3335D01*
G02*
X80813Y511179I12927J-84D01*
G02*
X87687Y513979I7113J-7624D01*
G02*
X101073Y514379I10371J-122867D01*
G02*
X112346Y512961I2926J-22251D01*
G02*
X119962Y503036I-19069J-22518D01*
G01*
X237563Y292040D01*
G01*
X359428Y502063D01*
%AB*%
G04 GLYPH N D113*
%ABD113*%
D90*
G01*
X341447Y140680D02*
G01*
X341447Y491368D01*
G02*
X341796Y505608I159618J3208D01*
G02*
X344242Y512921I12405J-84D01*
G02*
X350881Y515615I6867J-7394D01*
G02*
X363810Y516000I10017J-119143D01*
G02*
X376739Y515630I2912J-124420D01*
G02*
X383378Y513042I-191J-10300D01*
G02*
X385824Y506018I-9175J-7133D01*
G02*
X386174Y492340I-146933J-10597D01*
G01*
X386174Y53818D01*
G02*
X385840Y38266I-198966J-3504D01*
G02*
X383500Y30280I-14806J2D01*
G02*
X377149Y27337I-6705J6148D01*
G02*
X364783Y26917I-9582J99777D01*
G02*
X350522Y29105I-3648J23794D01*
G02*
X340150Y44419I34388J34458D01*
G01*
X140498Y400617D01*
G01*
X140498Y53818D01*
G02*
X140113Y38828I-160593J-3377D01*
G02*
X137419Y31130I-12697J124D01*
G02*
X130106Y28294I-7518J8540D01*
G02*
X115866Y27889I-11033J137330D01*
G02*
X103124Y28305I-2870J107637D01*
G02*
X96581Y31211I317J9530D01*
G02*
X94170Y39102I11796J7917D01*
G02*
X93826Y54466I188161J11903D01*
G01*
X93826Y487154D01*
G02*
X94191Y503831I209715J3757D01*
G02*
X96743Y512394I15685J-13D01*
G02*
X103671Y515549I7293J-6831D01*
G02*
X117162Y516000I10453J-110744D01*
G02*
X131544Y514136I3757J-27433D01*
G02*
X140822Y501091I-24500J-27245D01*
G01*
X341447Y140680D01*
%AB*%
G04 GLYPH O D114*
%ABD114*%
D90*
G01*
X141308Y162071D02*
G03*
X141815Y141379I239027J-4503D01*
G03*
X145360Y127796I36364J2237D01*
G03*
X154982Y115308I44787J24556D01*
G03*
X173719Y97897I315682J320951D01*
G03*
X190568Y83469I256592J282591D01*
G03*
X202768Y76060I31450J38038D01*
G03*
X216244Y73331I15417J41482D01*
G03*
X236921Y72941I16172J309136D01*
G03*
X260930Y73300I5271J449855D01*
G03*
X275855Y75817I-1528J54567D01*
G03*
X287923Y82649I-14517J39718D01*
G03*
X303364Y95953I-172041J215290D01*
G03*
X324162Y115364I-298780J340986D01*
G03*
X334843Y129701I-37880J39366D01*
G03*
X338778Y146043I-41670J18678D01*
G03*
X339340Y171470I-323675J19875D01*
G01*
X339340Y368530D01*
G03*
X338808Y396317I-406981J6111D01*
G03*
X335086Y413378I-49071J-1769D01*
G03*
X324983Y426733I-39072J-19061D01*
G03*
X305308Y443399I-219914J-239661D01*
G03*
X287097Y457640I-255901J-308483D01*
G03*
X273870Y464953I-32669J-43473D01*
G03*
X259183Y467647I-16715J-49742D01*
G03*
X236597Y468032I-17663J-373637D01*
G03*
X204672Y464912I-7770J-85401D01*
G03*
X173719Y443075I63276J-122545D01*
G03*
X154982Y427163I183388J-234945D01*
G03*
X145360Y414229I27481J-30490D01*
G03*
X141815Y397406I45916J-18461D01*
G03*
X141308Y369826I420109J-21509D01*
G01*
X141308Y162071D01*
X93664Y377605D02*
G02*
X94327Y409368I429075J6926D01*
G02*
X98971Y429949I61169J-2988D01*
G02*
X111576Y448342I64935J-30984D01*
G02*
X136123Y473542I429005J-393328D01*
G02*
X161818Y498088I374921J-366757D01*
G02*
X181255Y510693I47662J-52207D01*
G02*
X204216Y515337I25770J-68332D01*
G02*
X240486Y516000I28331J-557101D01*
G02*
X275065Y515342I7560J-511367D01*
G02*
X297125Y510733I-2857J-68779D01*
G02*
X316146Y498225I-28942J-64727D01*
G02*
X341609Y473866I-360942J-402789D01*
G02*
X367467Y447278I-412586J-427137D01*
G02*
X380745Y427680I-54689J-51350D01*
G02*
X385637Y405407I-62304J-25358D01*
G02*
X386336Y370798I-482436J-27053D01*
G01*
X386336Y172767D01*
G02*
X385642Y135367I-566781J-8192D01*
G02*
X380786Y111793I-73374J2829D01*
G02*
X367603Y92048I-64434J28744D01*
G02*
X341933Y66134I-386116J356822D01*
G02*
X316429Y42338I-363495J363999D01*
G02*
X297125Y30118I-46770J52528D01*
G02*
X274295Y25615I-25590J69631D01*
G02*
X238217Y24972I-28180J568549D01*
G02*
X204191Y25615I-7432J507246D01*
G02*
X182349Y30118I2915J69378D01*
G02*
X163241Y42338I29268J66813D01*
G02*
X137419Y66134I364433J421364D01*
G02*
X112123Y91359I392568J418967D01*
G02*
X99133Y109930I51096J49569D01*
G02*
X94348Y130992I57032J24033D01*
G02*
X93664Y163692I440278J25562D01*
G01*
X93664Y377605D01*
%AB*%
G04 GLYPH P D115*
%ABD115*%
D90*
G01*
X141794Y467708D02*
G01*
X141794Y269676D01*
G01*
X249399Y269676D01*
G03*
X268775Y270127I4208J235810D01*
G03*
X281648Y273282I-2183J36747D01*
G03*
X293792Y281845I-23223J45825D01*
G03*
X310980Y298522I-300489J326901D01*
G03*
X327469Y315669I-238396J245745D01*
G03*
X335937Y328745I-34496J31617D01*
G03*
X339056Y344373I-46847J17477D01*
G03*
X339502Y369178I-387656J19371D01*
G03*
X339054Y393977I-385659J5434D01*
G03*
X335917Y409570I-49393J-1826D01*
G03*
X327401Y422550I-42211J-18410D01*
G03*
X310818Y439510I-249440J-227304D01*
G03*
X293511Y455812I-224112J-220594D01*
G03*
X279926Y464183I-30737J-34672D01*
G03*
X263030Y467267I-18644J-54315D01*
G03*
X235787Y467708I-21261J-472141D01*
G01*
X141794Y467708D01*
X141794Y53494D02*
G02*
X141420Y37942I-177504J-3503D01*
G02*
X138796Y29956I-13705J78D01*
G02*
X131676Y27013I-7383J7780D01*
G02*
X117810Y26593I-10743J125472D01*
G02*
X103944Y27023I-3123J122943D01*
G02*
X96824Y30037I288J10601D01*
G02*
X94201Y38215I11631J8241D01*
G02*
X93826Y54142I185775J12339D01*
G01*
X93826Y488775D01*
G02*
X94241Y503577I145186J3334D01*
G02*
X97148Y511179I11915J-200D01*
G02*
X105038Y513979I8029J-10104D01*
G02*
X120403Y514379I11904J-161923D01*
G01*
X245834Y514379D01*
G02*
X281552Y513620I7811J-472858D01*
G02*
X304295Y508302I-3051J-64345D01*
G02*
X323818Y493869I-32485J-64360D01*
G02*
X349874Y465763I-414620J-410495D01*
G02*
X370860Y441586I-421074J-386704D01*
G02*
X381636Y424277I-54805J-46130D01*
G02*
X385607Y405509I-55912J-21632D01*
G02*
X386174Y376957I-405656J-22340D01*
G02*
X385779Y342327I-850110J-7620D01*
G02*
X383014Y321128I-96547J1813D01*
G02*
X375509Y304670I-56988J16046D01*
G02*
X360893Y284261I-271252J178814D01*
G02*
X332716Y248097I-588678J429617D01*
G02*
X311709Y229527I-63269J50402D01*
G02*
X287421Y222685I-27932J52627D01*
G02*
X249399Y221708I-29713J415831D01*
G01*
X141794Y221708D01*
G01*
X141794Y53494D01*
%AB*%
G04 GLYPH Q D116*
%ABD116*%
D90*
G01*
X309768Y154941D02*
G01*
X309768Y372095D01*
G03*
X309316Y395780I-349212J5179D01*
G03*
X306150Y410867I-46773J-1939D01*
G03*
X297558Y423826I-43783J-19701D01*
G03*
X280825Y441130I-271582J-245866D01*
G03*
X264735Y456495I-239364J-234554D01*
G03*
X252644Y464385I-30066J-32866D01*
G03*
X238496Y467292I-15930J-41650D01*
G03*
X216236Y467708I-17390J-335375D01*
G03*
X185122Y465034I-7830J-91246D01*
G03*
X159264Y446316I43473J-87279D01*
G03*
X138656Y427893I222263J-269348D01*
G03*
X128074Y413176I33014J-34902D01*
G03*
X124175Y394448I52250J-20647D01*
G03*
X123618Y363992I466265J-23760D01*
G01*
X123618Y170174D01*
G03*
X124085Y147760I304299J-4879D01*
G03*
X127350Y133063I44841J2253D01*
G03*
X136214Y119582I49842J23117D01*
G03*
X153475Y100814I337639J293208D01*
G03*
X169247Y84887I230139J212115D01*
G03*
X181390Y76708I29446J30616D01*
G03*
X196105Y73695I16412J42711D01*
G03*
X219588Y73265I18335J359464D01*
G03*
X243827Y73847I5300J284156D01*
G03*
X259270Y77924I-2204J39636D01*
G03*
X272542Y88989I-24829J43272D01*
G03*
X290270Y110538I-325012J285452D01*
G02*
X268677Y130875I98871J126605D01*
G02*
X265592Y144893I16962J11081D01*
G02*
X265935Y159883I180279J3377D01*
G02*
X268334Y167581I13674J-39D01*
G02*
X274846Y170417I6806J-6733D01*
G02*
X287528Y170822I9826J-108876D01*
G02*
X299676Y168837I3031J-19616D01*
G02*
X309768Y154941I-35681J-36526D01*
X345718Y119613D02*
G01*
X389895Y71644D01*
G02*
X400291Y59085I-52126J-53733D01*
G02*
X401777Y48957I-18192J-7841D01*
G02*
X401415Y35091I-146185J-3123D01*
G02*
X398882Y27970I-11632J127D01*
G02*
X392008Y25347I-7053J8164D01*
G02*
X378622Y24972I-10371J131188D01*
G02*
X368873Y26593I-2226J16746D01*
G02*
X357296Y37937I42315J54766D01*
G01*
X321955Y76506D01*
G02*
X311329Y61799I-55774J29104D01*
G02*
X289965Y46364I-118119J140984D01*
G02*
X257480Y27646I-81967J104708D01*
G02*
X220197Y24972I-27977J128835D01*
G02*
X183471Y25686I-8059J530333D01*
G02*
X160597Y30685I2609J66778D01*
G02*
X142008Y44252I27560J57280D01*
G02*
X118134Y70672I346404J337008D01*
G02*
X95061Y98181I458842J408292D01*
G02*
X83212Y118154I62744J50722D01*
G02*
X78847Y140315I69963J25292D01*
G02*
X78223Y174387I524755J26646D01*
G01*
X78223Y369178D01*
G02*
X78661Y396798I492733J6001D01*
G02*
X81727Y415121I72714J-2749D01*
G02*
X90048Y432349I75070J-25634D01*
G02*
X106252Y456688I494097J-311398D01*
G02*
X130283Y490041I423136J-279531D01*
G02*
X149972Y507168I50525J-38202D01*
G02*
X175830Y513478I28514J-60712D01*
G02*
X218369Y514379I33170J-561161D01*
G02*
X254533Y513681I7944J-524976D01*
G02*
X276902Y508789I-2441J-64748D01*
G02*
X294759Y495510I-26029J-53647D01*
G02*
X317385Y469652I-327283J-309206D01*
G02*
X339225Y442726I-577920J-491083D01*
G02*
X350441Y424398I-68260J-54367D01*
G02*
X354573Y406253I-53083J-21631D01*
G02*
X355163Y379874I-334630J-20684D01*
G01*
X355163Y176332D01*
G02*
X353982Y142017I-237462J-9008D01*
G02*
X345718Y119613I-81882J17477D01*
%AB*%
G04 GLYPH R D117*
%ABD117*%
D90*
G01*
X140984Y268379D02*
G01*
X246968Y268379D01*
G03*
X266982Y268881I4325J227085D01*
G03*
X280676Y272390I-2685J38946D01*
G03*
X294370Y281916I-28980J56265D01*
G03*
X314383Y300466I-379633J429657D01*
G03*
X329561Y315603I-170851J186486D01*
G03*
X337355Y327975I-28690J26715D01*
G03*
X340226Y344176I-52386J17640D01*
G03*
X340636Y370798I-483207J20760D01*
G03*
X340191Y391121I-262146J4418D01*
G03*
X337071Y404546I-39788J-2170D01*
G03*
X328604Y417060I-46919J-22626D01*
G03*
X312115Y434648I-326657J-289723D01*
G03*
X294137Y452824I-335333J-313710D01*
G03*
X281324Y462157I-37285J-37723D01*
G03*
X267539Y465596I-16063J-35046D01*
G03*
X246644Y466087I-16352J-250912D01*
G01*
X140984Y466087D01*
G01*
X140984Y268379D01*
X118621Y512435D02*
G01*
X246644Y512435D01*
G02*
X281694Y511604I7631J-417944D01*
G02*
X304620Y505791I-3665J-62562D01*
G02*
X325540Y490010I-39783J-74499D01*
G02*
X354573Y459281I-517018J-517554D01*
G02*
X373123Y438340I-336937J-317163D01*
G02*
X382649Y423021I-45827J-39117D01*
G02*
X386159Y405818I-52114J-19591D01*
G02*
X386660Y379225I-397310J-20792D01*
G02*
X384634Y336443I-228944J-10599D01*
G02*
X370455Y297549I-201405J51397D01*
G02*
X359278Y273013I-290414J117476D01*
G02*
X347888Y258048I-46309J23428D01*
G02*
X329389Y246548I-50924J61284D01*
G02*
X296881Y232403I-299499J643895D01*
G01*
X381474Y66134D01*
G02*
X385728Y56533I-65147J-34606D01*
G02*
X386336Y49605I-21916J-5413D01*
G02*
X385961Y35364I-148864J-3208D01*
G02*
X383338Y28051I-11886J137D01*
G02*
X376218Y25357I-7298J8532D01*
G02*
X362352Y24972I-10743J137057D01*
G02*
X350157Y27282I-3065J17167D01*
G02*
X340636Y43447I42951J36183D01*
G01*
X249885Y220735D01*
G01*
X140012Y220735D01*
G01*
X140012Y50577D01*
G02*
X139642Y35774I-163026J-3335D01*
G02*
X137054Y28173I-12753J100D01*
G02*
X130030Y25372I-7247J7969D01*
G02*
X116352Y24972I-10598J128298D01*
G02*
X103048Y25377I-2996J120240D01*
G02*
X96216Y28213I257J10265D01*
G02*
X93699Y35911I10732J7769D01*
G02*
X93340Y50901I171510J11613D01*
G01*
X93340Y487478D01*
G02*
X93735Y501906I144989J3250D01*
G02*
X96500Y509315I11771J-173D01*
G02*
X104005Y512045I7657J-9371D01*
G02*
X118621Y512435I11323J-150309D01*
%AB*%
G04 GLYPH S D118*
%ABD118*%
D90*
G01*
X93340Y391542D02*
G02*
X93887Y421337I456862J6516D01*
G02*
X97715Y440300I60728J-2393D01*
G02*
X108107Y456559I55368J-23938D01*
G02*
X128344Y478241I339249J-296343D01*
G02*
X149355Y499134I323048J-303876D01*
G02*
X165171Y509862I39951J-41872D01*
G02*
X183721Y513815I20906J-52607D01*
G02*
X212937Y514379I22824J-424813D01*
G02*
X280068Y511746I16832J-427898D01*
G02*
X337719Y493312I-67381J-310101D01*
G02*
X358138Y483386I-13378J-53486D01*
G02*
X360691Y477041I-8848J-7245D01*
G02*
X361055Y466411I-86361J-8284D01*
G02*
X360706Y453482I-131607J-2912D01*
G02*
X358260Y446843I-10626J144D01*
G02*
X351621Y444397I-6784J8180D01*
G02*
X338692Y444047I-10017J131258D01*
G02*
X327956Y445020I-2103J36544D01*
G02*
X309198Y451826I64230J206265D01*
G03*
X266699Y466006I-97495J-221429D01*
G03*
X220067Y468032I-35083J-269872D01*
G03*
X194984Y467556I-5530J-369701D01*
G03*
X179837Y464223I1397J-42441D01*
G03*
X168518Y455179I15626J-31159D01*
G03*
X154921Y437565I197449J-166485D01*
G03*
X143010Y417632I47822J-42102D01*
G03*
X141308Y388949I115254J-21229D01*
G03*
X142093Y364752I209643J-5310D01*
G03*
X147588Y349731I29740J2364D01*
G03*
X162502Y337628I38751J32509D01*
G03*
X191545Y322182I260787J455336D01*
G01*
X309846Y262221D01*
G02*
X354254Y238187I-301182J-609525D01*
G02*
X377058Y218223I-34669J-62609D01*
G02*
X385460Y191575I-48131J-29823D01*
G02*
X386660Y147486I-452266J-34373D01*
G02*
X386032Y114341I-490849J-7279D01*
G02*
X381636Y93805I-60646J2243D01*
G02*
X369705Y77342I-49934J23632D01*
G02*
X346470Y56411I-287368J295642D01*
G02*
X324689Y38236I-290265J325710D01*
G02*
X308347Y28902I-38533J48496D01*
G02*
X289270Y25464I-21393J64047D01*
G02*
X259285Y24972I-23427J514584D01*
G02*
X213585Y25697I-9912J816824D01*
G02*
X182957Y30766I4824J124206D01*
G02*
X153543Y44525I44981J134472D01*
G02*
X111490Y71320I548298J906928D01*
G02*
X95609Y83636I29163J54003D01*
G02*
X93340Y97897I21478J10728D01*
G02*
X93715Y110826I122745J2912D01*
G02*
X96338Y117465I10227J-203D01*
G02*
X103458Y119911I7221J-9433D01*
G02*
X117324Y120261I10742J-150990D01*
G02*
X126804Y118964I2015J-20572D01*
G02*
X140660Y109889I-47479J-87605D01*
G03*
X171385Y88716I358981J488034D01*
G03*
X194422Y77843I51136J78504D01*
G03*
X221288Y73837I29985J109007D01*
G03*
X263498Y73265I32978J875470D01*
G03*
X284039Y74359I5162J96467D01*
G03*
X301419Y82016I-22057J73619D01*
G03*
X322967Y94003I-114396J231004D01*
G03*
X334033Y104987I-16318J27504D01*
G03*
X338109Y121259I-35385J17512D01*
G03*
X338692Y149107I-370567J21680D01*
G03*
X337927Y175537I-256002J5819D01*
G03*
X332574Y191606I-33042J-2081D01*
G03*
X318045Y203846I-36321J-28370D01*
G03*
X289751Y218791I-225636J-392930D01*
G01*
X162375Y283289D01*
G02*
X122464Y304670I244278J503923D01*
G02*
X101969Y323073I29833J53837D01*
G02*
X94419Y348647I48448J28206D01*
G02*
X93340Y391542I475630J33422D01*
%AB*%
G04 GLYPH T D119*
%ABD119*%
D90*
G01*
X93988Y493636D02*
G02*
X94434Y506565I103299J2912D01*
G02*
X97553Y513205I9451J-388D01*
G02*
X106021Y515651I8460J-13408D01*
G02*
X122510Y516000I12774J-213580D01*
G01*
X362676Y516000D01*
G02*
X376167Y515635I3039J-137329D01*
G02*
X383095Y513083I-151J-11088D01*
G02*
X385647Y506155I-8535J-7079D01*
G02*
X386012Y492664I-136964J-10452D01*
G02*
X385657Y478986I-145184J-3081D01*
G02*
X383176Y471961I-11521J120D01*
G02*
X376440Y469374I-6917J7943D01*
G02*
X363324Y469004I-10162J127676D01*
G01*
X263822Y469004D01*
G01*
X263822Y50577D01*
G02*
X263452Y35774I-163026J-3335D01*
G02*
X260865Y28173I-12753J100D01*
G02*
X253841Y25372I-7247J7969D01*
G02*
X240162Y24972I-10598J128298D01*
G02*
X226484Y25362I-3081J132028D01*
G02*
X219459Y28092I199J10915D01*
G02*
X216872Y35501I9648J7526D01*
G02*
X216502Y49929I154518J11178D01*
G01*
X216502Y469004D01*
G01*
X121862Y469004D01*
G02*
X105747Y469389I-3630J185548D01*
G02*
X97472Y472083I74J14282D01*
G02*
X94424Y479396I7916J7592D01*
G02*
X93988Y493636I127727J11033D01*
%AB*%
G04 GLYPH U D120*
%ABD120*%
D90*
G01*
X93178Y490719D02*
G02*
X93532Y505335I165723J3292D01*
G02*
X96014Y512840I12825J-78D01*
G02*
X102749Y515605I6977J-7410D01*
G02*
X115866Y516000I10162J-119473D01*
G02*
X130106Y515605I3208J-141254D01*
G02*
X137419Y512840I-182J-11534D01*
G02*
X140113Y505335I-9499J-7646D01*
G02*
X140498Y490719I-152291J-11323D01*
G01*
X140498Y176656D01*
G03*
X141045Y146058I478867J-6744D01*
G03*
X144874Y127553I54717J1672D01*
G03*
X155265Y113667I38654J18096D01*
G03*
X175502Y96925I203204J225014D01*
G03*
X206536Y75939I91172J101383D01*
G03*
X239028Y72941I24553J88529D01*
G03*
X262961Y73447I5214J319403D01*
G03*
X278569Y76992I-2348J46469D01*
G03*
X292719Y86614I-24347J51017D01*
G03*
X312277Y105352I-309770J342909D01*
G03*
X327642Y121259I-184027J193132D01*
G03*
X335532Y134157I-30961J27802D01*
G03*
X338438Y150884I-55402J18244D01*
G03*
X338854Y178277I-505528J21363D01*
G01*
X338854Y490719D01*
G02*
X339234Y505335I154705J3292D01*
G02*
X341892Y512840I12290J-130D01*
G02*
X349109Y515605I7408J-8535D01*
G02*
X363162Y516000I10888J-137173D01*
G02*
X376841Y515554I3081J-115590D01*
G02*
X383865Y512435I-340J-10232D01*
G02*
X386452Y503967I-12655J-8497D01*
G02*
X386822Y487478I-201862J-12774D01*
G01*
X386822Y180221D01*
G02*
X386159Y139677I-694423J-8915D01*
G02*
X381515Y114751I-82307J2439D01*
G02*
X368910Y95173I-59434J24418D01*
G02*
X344364Y70672I-319465J295513D01*
G02*
X316819Y45189I-428316J435332D01*
G02*
X296598Y32103I-52224J58533D01*
G02*
X273763Y27282I-26000J66656D01*
G02*
X238379Y26593I-27662J511892D01*
G02*
X206809Y27140I-6885J513988D01*
G02*
X186360Y30968I2783J71391D01*
G02*
X168098Y41360I26867J68455D01*
G02*
X143091Y61597I329248J432433D01*
G02*
X114235Y86796I329367J406278D01*
G02*
X99417Y106405I45360J49681D01*
G02*
X93958Y130511I62862J26908D01*
G02*
X93178Y169202I538175J30201D01*
G01*
X93178Y490719D01*
%AB*%
G04 GLYPH V D121*
%ABD121*%
D90*
G01*
X239562Y122206D02*
G01*
X351867Y492988D01*
G02*
X359305Y511706I50982J-9424D01*
G02*
X364337Y514045I5836J-5970D01*
G02*
X372869Y514379I6646J-60585D01*
G02*
X385348Y514025I2811J-120880D01*
G02*
X391757Y511543I-179J-9977D01*
G02*
X394118Y504808I-8738J-6845D01*
G02*
X394455Y491692I-139971J-10162D01*
G02*
X391830Y476783I-35360J-1459D01*
G01*
X263190Y47012D01*
G02*
X255497Y27727I-47924J7942D01*
G02*
X249859Y25317I-6376J7114D01*
G02*
X240146Y24972I-7560J76092D01*
G02*
X227056Y27646I-3431J16584D01*
G02*
X219435Y46364I45769J29545D01*
G01*
X87295Y481320D01*
G02*
X85545Y492016I23260J9297D01*
G02*
X85905Y504195I113378J2743D01*
G02*
X88426Y510450I9537J-208D01*
G02*
X95267Y512754I6924J-9250D01*
G02*
X108589Y513083I10321J-147970D01*
G02*
X121169Y510247I3272J-14806D01*
G02*
X128717Y490395I-53256J-31609D01*
G01*
X239562Y122206D01*
%AB*%
G04 GLYPH W D122*
%ABD122*%
D90*
G01*
X389820Y493312D02*
G02*
X395395Y510612I39238J-3096D01*
G02*
X400403Y512774I5544J-5960D01*
G02*
X409332Y513083I6940J-71411D01*
G02*
X420934Y512769I2613J-117951D01*
G02*
X426892Y510571I-131J-9528D01*
G02*
X429087Y504605I-7360J-6095D01*
G02*
X429401Y492988I-118094J-9001D01*
G02*
X427728Y476134I-59920J-2564D01*
G01*
X345223Y48632D01*
G02*
X339648Y27930I-53358J3266D01*
G02*
X334639Y25342I-5736J4962D01*
G02*
X325711Y24972I-6941J59630D01*
G02*
X316269Y25312I-2093J73305D01*
G02*
X310799Y27687I723J9153D01*
G02*
X303412Y46688I39981J26479D01*
G01*
X239582Y268704D01*
G01*
X176030Y45391D01*
G02*
X169132Y27525I-47272J7988D01*
G02*
X155961Y24972I-9669J14638D01*
G02*
X146071Y25281I-2206J87847D01*
G02*
X140596Y27444I454J9160D01*
G02*
X137578Y33313I9395J8542D01*
G02*
X135056Y44743I140498J36990D01*
G01*
X51436Y480348D01*
G02*
X50599Y492340I46920J9297D01*
G02*
X50935Y505082I133175J2870D01*
G02*
X53282Y511625I10634J-123D01*
G02*
X59654Y514035I6531J-7636D01*
G02*
X72062Y514379I9613J-122665D01*
G02*
X80825Y514050I1952J-64837D01*
G02*
X85720Y511746I-590J-7606D01*
G02*
X91016Y493312I-38606J-21069D01*
G01*
X158749Y138411D01*
G01*
X218955Y346166D01*
G02*
X226551Y365167I48600J-8409D01*
G02*
X231969Y367542I6174J-6716D01*
G02*
X241254Y367881I7229J-70615D01*
G02*
X249094Y367512I1728J-46660D01*
G02*
X253797Y364924I-1024J-7430D01*
G02*
X261323Y344221I-57704J-32696D01*
G01*
X320973Y137115D01*
G01*
X389820Y493312D01*
%AB*%
G04 GLYPH X D123*
%ABD123*%
D90*
G01*
X213494Y269676D02*
G01*
X84012Y476134D01*
G02*
X79137Y492016I15891J13566D01*
G02*
X79490Y504383I119464J2786D01*
G02*
X81956Y510733I9873J-179D01*
G02*
X88649Y513073I6800J-8708D01*
G02*
X101683Y513407I10098J-139474D01*
G02*
X112689Y511625I2731J-18005D01*
G02*
X122095Y499146I-32690J-34427D01*
G01*
X240000Y313107D01*
G01*
X359733Y502387D01*
G02*
X368187Y512880I30118J-15614D01*
G02*
X379841Y514379I8662J-21293D01*
G02*
X392522Y514040I2857J-130395D01*
G02*
X399035Y511665I-134J-10483D01*
G02*
X401434Y505218I-7859J-6595D01*
G02*
X401777Y492664I-126170J-9726D01*
G02*
X400786Y483427I-24410J-2055D01*
G02*
X393855Y471273I-72037J33027D01*
G01*
X266810Y269676D01*
G01*
X395988Y62245D01*
G02*
X400863Y48957I-12009J-11944D01*
G02*
X400515Y35091I-152175J-3123D01*
G02*
X398083Y27970I-11919J96D01*
G02*
X391480Y25347I-6809J7518D01*
G02*
X378622Y24972I-9962J121025D01*
G02*
X366359Y26714I-3133J21976D01*
G02*
X357296Y38909I26695J29307D01*
G01*
X240000Y227542D01*
G01*
X121181Y37289D01*
G02*
X112955Y26512I-34788J18026D01*
G02*
X102901Y24972I-7535J15606D01*
G02*
X88634Y25327I-3214J157923D01*
G02*
X81308Y27808I93J12330D01*
G02*
X78609Y34544I7601J6954D01*
G02*
X78223Y47660I122399J10162D01*
G02*
X79061Y55560I21194J1747D01*
G02*
X84926Y66134I64736J-28992D01*
G01*
X213494Y269676D01*
%AB*%
G04 GLYPH Y D124*
%ABD124*%
D90*
G01*
X261294Y52522D02*
G02*
X260975Y36595I-218577J-3588D01*
G02*
X258742Y28416I-15953J-38D01*
G02*
X252680Y25403I-6485J5443D01*
G02*
X240875Y24972I-9147J88752D01*
G02*
X228564Y25413I-2772J94751D01*
G02*
X222243Y28497I417J8876D01*
G02*
X219914Y36868I13776J8342D01*
G02*
X219581Y53170I219248J12629D01*
G01*
X219581Y271621D01*
G01*
X90358Y476134D01*
G02*
X85691Y491043I14222J12637D01*
G02*
X86051Y504722I142945J3081D01*
G02*
X88571Y511746I11415J-132D01*
G02*
X95413Y514334I7012J-8200D01*
G02*
X108735Y514704I10322J-131725D01*
G02*
X118726Y512880I2463J-14788D01*
G02*
X127404Y500119I-35762J-33649D01*
G01*
X240000Y318617D01*
G01*
X353763Y503036D01*
G02*
X361748Y513245I30969J-15994D01*
G02*
X372140Y514704I7754J-17494D01*
G02*
X384956Y514354I2887J-129332D01*
G02*
X391538Y511908I-150J-10481D01*
G02*
X393963Y505269I-8254J-6777D01*
G02*
X394309Y492340I-132411J-10017D01*
G02*
X388767Y474838I-22311J-2563D01*
G01*
X261294Y270324D01*
G01*
X261294Y52522D01*
%AB*%
G04 GLYPH Z D125*
%ABD125*%
D90*
G01*
X155731Y70996D02*
G01*
X361542Y70996D01*
G02*
X376157Y70616I3292J-154705D01*
G02*
X383662Y67958I-130J-12290D01*
G02*
X386427Y60741I-8535J-7408D01*
G02*
X386822Y46688I-137173J-10888D01*
G02*
X386422Y34134I-108451J-2827D01*
G02*
X383622Y27687I-9483J288D01*
G02*
X376020Y25312I-7642J11105D01*
G02*
X361217Y24972I-11468J177246D01*
G01*
X117810Y24972D01*
G02*
X103570Y25337I-3208J152986D01*
G02*
X96257Y27889I115J12082D01*
G02*
X93563Y34817I8067J7125D01*
G02*
X93178Y48308I129741J10452D01*
G02*
X94110Y57626I26591J2047D01*
G02*
X100632Y70348I82918J-34483D01*
G01*
X322972Y467383D01*
G01*
X121051Y467383D01*
G02*
X105312Y467783I-3546J170325D01*
G02*
X97229Y470584I121J13413D01*
G02*
X94251Y478185I8784J7825D01*
G02*
X93826Y492988I141317J11469D01*
G02*
X94267Y505355I95615J2785D01*
G02*
X97351Y511706I8931J-413D01*
G02*
X105722Y514045I8345J-13712D01*
G02*
X122024Y514379I12629J-218251D01*
G01*
X355383Y514379D01*
G02*
X372997Y514045I3968J-255140D01*
G02*
X382042Y511706I72J-18374D01*
G02*
X385374Y505355I-5379J-6872D01*
G02*
X385850Y492988I-88062J-9582D01*
G02*
X380664Y473866I-26446J-3093D01*
G01*
X155731Y70996D01*
%AB*%
G04 GLYPH 0 D126*
%ABD126*%
D90*
G01*
X172789Y467708D02*
G03*
X159896Y467404I-2852J-152698D01*
G03*
X152289Y465277I690J-17133D01*
G03*
X146992Y459503I9356J-13901D01*
G03*
X141026Y448261I126559J-74360D01*
G03*
X117447Y396525I318063J-176200D01*
G03*
X104078Y333850I493980J-138137D01*
G03*
X98568Y272593I221468J-50797D01*
G03*
X101485Y227542I232149J-7589D01*
G03*
X112545Y157047I622331J61527D01*
G03*
X133572Y103083I329133J97165D01*
G03*
X141837Y85282I272452J115679D01*
G03*
X148643Y76141I25470J11860D01*
G03*
X157637Y72774I10279J13759D01*
G03*
X172465Y72292I11563J127621D01*
G03*
X186746Y72728I3137J131489D01*
G03*
X195558Y75777I-1280J17959D01*
G03*
X202547Y84052I-17285J21687D01*
G03*
X211358Y100166I-240063J141739D01*
G03*
X231413Y145177I-197911J115151D01*
G03*
X243445Y213281I-590744J139488D01*
G03*
X247983Y272917I-268324J50407D01*
G03*
X243445Y328664I-223359J9878D01*
G03*
X229914Y394985I-517227J-70990D01*
G03*
X205200Y448909I-335992J-121361D01*
G03*
X199224Y459777I-122511J-60287D01*
G03*
X193856Y465358I-14082J-8174D01*
G03*
X172789Y467708I-15427J-42697D01*
X174410Y514379D02*
G02*
X200445Y513843I5739J-353292D01*
G02*
X216179Y510085I-1530J-41228D01*
G02*
X227964Y499886I-17803J-32478D01*
G02*
X242149Y480024I-229586J-178961D01*
G02*
X263165Y447982I-520560J-364358D01*
G02*
X275370Y421805I-112867J-68557D01*
G02*
X283443Y387546I-225260J-71158D01*
G02*
X292062Y331257I-2047579J-342343D01*
G02*
X296275Y272917I-264785J-48445D01*
G02*
X291738Y211012I-282977J-10377D01*
G02*
X283144Y155083I-2170180J304841D01*
G02*
X275249Y120909I-248368J39382D01*
G02*
X263525Y94514I-134955J44142D01*
G02*
X243445Y61921I-590132J341078D01*
G02*
X229043Y40560I-259791J159629D01*
G02*
X216949Y29591I-30936J21955D01*
G02*
X200602Y25550I-17921J37410D01*
G02*
X173437Y24972I-21173J356884D01*
G02*
X146637Y25570I-5906J336406D01*
G02*
X130412Y29753I1678J40068D01*
G02*
X118197Y41107I20218J33998D01*
G02*
X103429Y63217I265429J193263D01*
G02*
X85912Y91754I451258J296646D01*
G02*
X75110Y116493I119590J66946D01*
G02*
X66557Y151137I298153J91990D01*
G02*
X55785Y209391I2915887J569294D01*
G02*
X50599Y268379I216941J48794D01*
G02*
X56109Y331581I246458J10355D01*
G02*
X66471Y389420I3103105J-526054D01*
G02*
X74584Y423588I317481J-57335D01*
G02*
X100837Y474514I191888J-66691D01*
G02*
X115842Y497561I280053J-165925D01*
G02*
X128508Y509396I32886J-22499D01*
G02*
X145731Y513757I18883J-38392D01*
G02*
X174410Y514379I22352J-368577D01*
%AB*%
G04 GLYPH 1 D127*
%ABD127*%
D90*
G01*
X149129Y504008D02*
G02*
X160270Y513083I35780J-32550D01*
G02*
X172141Y514379I8963J-27077D01*
G02*
X186194Y513959I3165J-129311D01*
G02*
X193411Y511017I-252J-10940D01*
G02*
X196069Y503031I-10929J-8074D01*
G02*
X196449Y487478I-174763J-12049D01*
G01*
X196449Y54142D01*
G02*
X196085Y38215I-191308J-3588D01*
G02*
X193532Y30037I-14516J42D01*
G02*
X186604Y27023I-7239J7172D01*
G02*
X173113Y26593I-10453J115971D01*
G02*
X159247Y27028I-3123J121520D01*
G02*
X152127Y30077I301J10543D01*
G02*
X149504Y38352I11910J8329D01*
G02*
X149129Y54466I190175J12484D01*
G01*
X149129Y436593D01*
G01*
X92734Y380198D01*
G02*
X83983Y372541I-31351J27000D01*
G02*
X75232Y371447I-6643J17593D01*
G02*
X60991Y371786I-3208J164370D01*
G02*
X53678Y374161I64J12641D01*
G02*
X50984Y380608I6961J6695D01*
G02*
X50599Y393162I112328J9727D01*
G02*
X51774Y403979I25696J2681D01*
G02*
X59999Y413581I33827J-20651D01*
G01*
X149129Y504008D01*
%AB*%
G04 GLYPH 2 D128*
%ABD128*%
D90*
G01*
X75880Y394134D02*
G02*
X61265Y394489I-3292J165723D01*
G02*
X53760Y396970I78J12825D01*
G02*
X50994Y403706I7410J6977D01*
G02*
X50599Y416822I119473J10162D01*
G02*
X51329Y424520I23519J1655D01*
G02*
X56433Y435621I82119J-31039D01*
G02*
X77622Y472934I203306J-90777D01*
G02*
X103429Y492988I74697J-69493D01*
G02*
X136934Y511706I88226J-118582D01*
G02*
X173113Y514379I27265J-122810D01*
G02*
X209262Y513645I7954J-498572D01*
G02*
X231372Y508505I-2306J-60044D01*
G02*
X248499Y494553I-25807J-49168D01*
G02*
X269698Y467383I-329683J-279087D01*
G02*
X284501Y446904I-387147J-295419D01*
G02*
X292102Y432379I-52850J-36911D01*
G02*
X294903Y416883I-54466J-17844D01*
G02*
X295303Y393486I-386597J-18312D01*
G02*
X292629Y358806I-117375J-8393D01*
G02*
X273912Y324126I-156415J62029D01*
G01*
X116718Y70348D01*
G01*
X270346Y70348D01*
G02*
X284400Y69968I3166J-143051D01*
G02*
X291616Y67309I-157J-11550D01*
G02*
X294275Y60093I-8891J-7374D01*
G02*
X294655Y46040I-142671J-10888D01*
G02*
X294240Y33860I-98371J-2743D01*
G02*
X291333Y27606I-8941J353D01*
G02*
X283443Y25302I-7890J12355D01*
G02*
X268078Y24972I-11903J196858D01*
G01*
X79769Y24972D01*
G02*
X63093Y25296I-3757J235876D01*
G02*
X54529Y27565I-56J17084D01*
G02*
X51374Y33723I5352J6629D01*
G02*
X50924Y45715I87466J9292D01*
G02*
X55137Y61597I19903J3219D01*
G01*
X229509Y342601D01*
G03*
X245106Y370596I-138942J95756D01*
G03*
X247335Y393486I-62764J17663D01*
G03*
X245106Y420468I-81682J6838D01*
G03*
X229509Y442103I-70575J-34443D01*
G03*
X216387Y456718I-194177J-161131D01*
G03*
X205970Y464223I-24949J-23648D01*
G03*
X192818Y466988I-14534J-36468D01*
G03*
X171493Y467383I-16639J-322435D01*
G03*
X145012Y466553I-5813J-237247D01*
G03*
X128589Y460739I2499J-33164D01*
G03*
X115386Y444959I33848J-41732D01*
G03*
X98568Y414229I471447J-277989D01*
G02*
X87710Y396646I-66379J28846D01*
G02*
X75880Y394134I-8964J13102D01*
%AB*%
G04 GLYPH 3 D129*
%ABD129*%
D90*
G01*
X82038Y516000D02*
G01*
X183485Y516000D01*
G02*
X209515Y515407I5673J-322824D01*
G02*
X226429Y511260I-2579J-47081D01*
G02*
X241642Y500002I-27675J-53306D01*
G02*
X262568Y478079I-357152J-361847D01*
G02*
X281305Y457108I-323189J-307628D01*
G02*
X290928Y441576I-45137J-38709D01*
G02*
X294472Y423796I-54546J-20119D01*
G02*
X294979Y396079I-426867J-21662D01*
G02*
X294189Y361323I-430458J-7602D01*
G02*
X288659Y339238I-58945J3025D01*
G02*
X273648Y320374I-61220J33309D01*
G02*
X244418Y295281I-395625J431286D01*
G02*
X272899Y273854I-308691J-439966D01*
G02*
X287524Y257562I-36978J-47907D01*
G02*
X292913Y238171I-41947J-22100D01*
G02*
X293682Y207447I-344278J-23997D01*
G01*
X293682Y136142D01*
G02*
X293120Y111409I-307878J-5376D01*
G02*
X289185Y95061I-47082J2686D01*
G02*
X278505Y79808I-56793J28400D01*
G02*
X257706Y58356I-398959J366001D01*
G02*
X238543Y39993I-252562J244387D01*
G02*
X223512Y30563I-34304J37986D01*
G02*
X204836Y27089I-20626J58944D01*
G02*
X174734Y26593I-23492J511743D01*
G01*
X78149Y26593D01*
G02*
X62222Y26968I-3588J186150D01*
G02*
X54043Y29591I62J14254D01*
G02*
X51030Y36711I7587J7409D01*
G02*
X50599Y50577I122513J10743D01*
G02*
X51055Y63131I95261J2827D01*
G02*
X54246Y69578I9007J-444D01*
G02*
X62906Y71953I8622J-14461D01*
G02*
X79769Y72292I13065J-230081D01*
G01*
X165335Y72292D01*
G03*
X188362Y72657I5065J407424D01*
G03*
X202486Y75209I-1343J47790D01*
G03*
X213511Y82137I-13324J33440D01*
G03*
X227240Y95628I-160040J176594D01*
G03*
X239419Y108730I-167626J168045D01*
G03*
X245674Y119005I-26479J23158D01*
G03*
X247978Y131772I-41523J14086D01*
G03*
X248307Y152348I-360505J16058D01*
G01*
X248307Y194482D01*
G03*
X245876Y225961I-99303J8165D01*
G03*
X228860Y247960I-62279J-30592D01*
G03*
X204795Y269797I-80704J-64760D01*
G03*
X194221Y272527I-12403J-26203D01*
G03*
X178299Y272917I-12464J-183674D01*
G01*
X129034Y272917D01*
G02*
X113482Y273297I-3503J175143D01*
G02*
X105496Y275956I88J13588D01*
G02*
X102553Y283172I7997J7469D01*
G02*
X102133Y297225I128891J10888D01*
G02*
X102558Y309592I99011J2785D01*
G02*
X105536Y315943I9048J-369D01*
G02*
X113619Y318282I8077J-12772D01*
G02*
X129358Y318617I12194J-203450D01*
G01*
X173113Y318617D01*
G03*
X202486Y321372I7479J78216D01*
G03*
X225295Y340656I-40256J70745D01*
G03*
X245430Y364802I-59928J70442D01*
G03*
X247947Y376207I-32013J13045D01*
G03*
X248307Y393810I-242787J13764D01*
G03*
X245998Y422818I-88834J7524D01*
G03*
X229833Y443075I-57125J-29007D01*
G03*
X204390Y465479I-88301J-74628D01*
G03*
X193735Y468280I-12664J-26512D01*
G03*
X177975Y468680I-12348J-175791D01*
G01*
X82038Y468680D01*
G02*
X64612Y469060I-3926J219828D01*
G02*
X55664Y471718I11J16426D01*
G02*
X52367Y478935I7092J7601D01*
G02*
X51896Y492988I114995J10888D01*
G02*
X52367Y506292I103509J2996D01*
G02*
X55664Y513124I9629J-435D01*
G02*
X64612Y515640I8924J-14563D01*
G02*
X82038Y516000I13500J-231828D01*
%AB*%
G04 GLYPH 4 D130*
%ABD130*%
D90*
G01*
X148481Y497850D02*
G02*
X151773Y508343I114904J-30283D01*
G02*
X155368Y513731I11338J-3672D01*
G02*
X161516Y515716I6570J-9834D01*
G02*
X172465Y516000I8511J-117077D01*
G02*
X185394Y515651I2912J-131607D01*
G02*
X192033Y513205I-144J-10626D01*
G02*
X194479Y506565I-8180J-6784D01*
G02*
X194829Y493636I-131258J-10017D01*
G02*
X192560Y480672I-30208J-1394D01*
G01*
X104078Y172119D01*
G01*
X222378Y172119D01*
G01*
X222378Y242775D01*
G02*
X222748Y258514I184285J3546D01*
G02*
X225336Y266597I14103J-60D01*
G02*
X232360Y269575I7310J-7471D01*
G02*
X246038Y270000I10598J-120643D01*
G02*
X259342Y269544I2996J-106940D01*
G02*
X266174Y266354I-392J-9748D01*
G02*
X268690Y257694I-13628J-8656D01*
G02*
X269050Y240830I-217104J-13065D01*
G01*
X269050Y171794D01*
G01*
X318963Y171794D01*
G02*
X332642Y171394I3081J-128698D01*
G02*
X339666Y168594I-223J-10769D01*
G02*
X342253Y160992I-10165J-7702D01*
G02*
X342623Y146190I-162656J-11468D01*
G02*
X342238Y134198I-102866J-2701D01*
G02*
X339544Y128040I-9030J282D01*
G02*
X332231Y125771I-7347J10762D01*
G02*
X317991Y125447I-11033J171731D01*
G01*
X269050Y125447D01*
G01*
X269050Y52198D01*
G02*
X268675Y37020I-169063J-3419D01*
G02*
X266052Y29226I-13169J94D01*
G02*
X258932Y26355I-7358J7982D01*
G02*
X245066Y25945I-10743J128578D01*
G02*
X231949Y26340I-2954J119868D01*
G02*
X225214Y29105I242J10176D01*
G02*
X222733Y36610I10344J7583D01*
G02*
X222378Y51225I165368J11323D01*
G01*
X222378Y124474D01*
G01*
X73611Y124474D01*
G02*
X60308Y124814I-2997J143481D01*
G02*
X53476Y127189I105J11314D01*
G02*
X50959Y133635I7476J6634D01*
G02*
X50599Y146190I120258J9727D01*
G02*
X51167Y154455I37455J1581D01*
G02*
X55137Y169526I226714J-51667D01*
G01*
X148481Y497850D01*
%AB*%
G04 GLYPH 5 D131*
%ABD131*%
D90*
G01*
X50599Y489747D02*
G02*
X51040Y503988I126695J3207D01*
G02*
X54124Y511300I10905J-292D01*
G02*
X62495Y513995I8437J-11863D01*
G02*
X78797Y514379I12629J-189498D01*
G01*
X269374Y514379D01*
G02*
X284926Y514015I3504J-182422D01*
G02*
X292913Y511462I-58J-13952D01*
G02*
X295855Y504535I-7355J-7212D01*
G02*
X296275Y491043I-118773J-10453D01*
G02*
X295875Y477552I-125203J-3039D01*
G02*
X293075Y470625I-10547J234D01*
G02*
X285473Y468072I-7691J10311D01*
G02*
X270671Y467708I-11468J164919D01*
G01*
X98244Y467708D01*
G01*
X98244Y317644D01*
G01*
X170196Y317644D01*
G02*
X206952Y316915I8075J-519675D01*
G02*
X229671Y311810I-2499J-64225D01*
G02*
X247770Y297955I-27018J-54043D01*
G02*
X270671Y270972I-341915J-313401D01*
G02*
X285286Y252306I-284737J-237993D01*
G02*
X292791Y238318I-43455J-32324D01*
G02*
X295556Y222021I-58165J-18252D01*
G02*
X295951Y196427I-466309J-19997D01*
G01*
X295951Y144245D01*
G02*
X295399Y113753I-472783J-6692D01*
G02*
X291535Y94778I-58791J2090D01*
G02*
X281047Y79387I-47951J21409D01*
G02*
X260623Y59652I-275591J264773D01*
G02*
X238371Y39603I-362593J380061D01*
G02*
X222378Y29307I-42937J49127D01*
G02*
X204927Y25514I-20100J50433D01*
G02*
X178299Y24972I-20832J369156D01*
G01*
X77177Y24972D01*
G02*
X62749Y25327I-3250J161506D01*
G02*
X55340Y27808I86J12558D01*
G02*
X52610Y34544I7512J6965D01*
G02*
X52220Y47660I121029J10162D01*
G02*
X52645Y60964I114539J2996D01*
G02*
X55623Y67795I10034J-309D01*
G02*
X63706Y70312I8123J-11849D01*
G02*
X79445Y70672I12194J-189104D01*
G01*
X169548Y70672D01*
G03*
X193497Y71107I5278J368453D01*
G03*
X207996Y74156I-1332J42335D01*
G03*
X218909Y82431I-14489J30443D01*
G03*
X232101Y98545I-180883J161540D01*
G03*
X246281Y120220I-57664J53200D01*
G03*
X248307Y147486I-89287J20342D01*
G01*
X248307Y196427D01*
G03*
X245917Y224625I-83067J7158D01*
G03*
X229184Y246988I-71693J-36199D01*
G03*
X216129Y260854I-151945J-129987D01*
G03*
X204957Y267974I-22922J-23640D01*
G03*
X189532Y270598I-16579J-50824D01*
G03*
X163714Y270972I-20116J-496367D01*
G01*
X74260Y270972D01*
G02*
X60581Y271403I-3081J119650D01*
G02*
X53557Y274416I299J10392D01*
G02*
X50969Y282595I11795J8231D01*
G02*
X50599Y298522I188324J12339D01*
G01*
X50599Y489747D01*
%AB*%
G04 GLYPH 6 D132*
%ABD132*%
D90*
G01*
X100512Y317320D02*
G01*
X172141Y317320D01*
G02*
X204187Y316687I7023J-455968D01*
G02*
X224323Y312256I-2434J-59023D01*
G02*
X241055Y300228I-25533J-53172D01*
G02*
X262892Y276806I-321484J-321618D01*
G02*
X281255Y255759I-386658J-355883D01*
G02*
X290684Y240911I-48446J-41185D01*
G02*
X294158Y225212I-45382J-18277D01*
G02*
X294655Y201613I-317178J-18475D01*
G01*
X294655Y136142D01*
G02*
X294022Y111358I-275280J-5369D01*
G02*
X289591Y94656I-45443J3118D01*
G02*
X277563Y78440I-63024J34178D01*
G02*
X254141Y55115I-470723J449243D01*
G02*
X235267Y37689I-215094J214038D01*
G02*
X219826Y28740I-32216J37793D01*
G02*
X199584Y25443I-21983J71183D01*
G02*
X166307Y24972I-25948J657543D01*
G02*
X139335Y25509I-5884J382216D01*
G02*
X121904Y29267I2453J53688D01*
G02*
X106417Y39466I24996J54810D01*
G02*
X85279Y59328I314380J355759D01*
G02*
X65230Y79489I322758J341024D01*
G02*
X54934Y94210I41383J39902D01*
G02*
X51141Y110695I44386J18892D01*
G02*
X50599Y136142I336653J19898D01*
G01*
X50599Y305328D01*
G02*
X51486Y349088I611893J9497D01*
G02*
X57689Y378293I94462J-4804D01*
G02*
X74528Y406101I111219J-48345D01*
G02*
X107319Y445668I777449J-610938D01*
G02*
X128264Y469450I489297J-409833D01*
G02*
X144835Y483994I76692J-70662D01*
G02*
X165659Y495257I71296J-106938D01*
G02*
X199366Y509194I388055J-890820D01*
G02*
X221406Y514379I20000J-35575D01*
G02*
X234897Y513984I3039J-126802D01*
G02*
X241825Y511219I-221J-10616D01*
G02*
X244377Y503714I-10047J-7603D01*
G02*
X244742Y489099I-160767J-11323D01*
G02*
X242189Y475162I-19311J-3666D01*
G02*
X224323Y467059I-28893J39960D01*
G03*
X181054Y449881I74579J-250937D01*
G03*
X152370Y424925I80958J-122012D01*
G03*
X126401Y398267I436433J-451135D01*
G03*
X112343Y378172I63739J-59556D01*
G03*
X105334Y354552I80431J-36717D01*
G03*
X100512Y317320I636288J-101320D01*
X96947Y141004D02*
G03*
X97373Y124500I181412J-3582D01*
G03*
X100350Y113495I29139J1980D01*
G03*
X108433Y103037I39199J21944D01*
G03*
X124173Y88174I287879J289082D01*
G03*
X144632Y72860I49181J44382D01*
G03*
X173113Y70672I21125J88530D01*
G03*
X196773Y73548I5354J54708D01*
G03*
X226267Y93684I-83322J153719D01*
G03*
X238634Y103559I-102755J141363D01*
G03*
X244985Y111915I-16239J18933D01*
G03*
X247324Y123310I-31263J12357D01*
G03*
X247659Y142300I-301235J14800D01*
G01*
X247659Y191565D01*
G03*
X244904Y222599I-87514J7870D01*
G03*
X225619Y247312I-79045J-41800D01*
G03*
X212943Y260429I-191257J-172150D01*
G03*
X203215Y267164I-24037J-24325D01*
G03*
X191481Y269646I-13121J-33061D01*
G03*
X172789Y270000I-14595J-276610D01*
G01*
X96947Y270000D01*
G01*
X96947Y141004D01*
%AB*%
G04 GLYPH 7 D133*
%ABD133*%
D90*
G01*
X266133Y514379D02*
G02*
X281873Y514025I3546J-192164D01*
G02*
X289955Y511543I-31J-14505D01*
G02*
X292933Y504808I-6853J-7056D01*
G02*
X293358Y491692I-110918J-10162D01*
G02*
X292508Y481604I-45349J-1255D01*
G02*
X286552Y453771I-911542J180493D01*
G01*
X196773Y47660D01*
G02*
X193689Y34544I-184041J36354D01*
G02*
X190332Y27808I-15464J3504D01*
G02*
X184604Y25327I-6351J6808D01*
G02*
X174410Y24972I-7925J81142D01*
G02*
X159982Y25307I-3250J171268D01*
G02*
X152573Y27646I46J13046D01*
G02*
X149843Y33997I6657J6623D01*
G02*
X149453Y46364I107576J9582D01*
G02*
X150426Y55439I28862J1497D01*
G01*
X241825Y466735D01*
G01*
X96623Y466735D01*
G01*
X96623Y442427D01*
G02*
X96253Y429123I-131724J-2997D01*
G02*
X93666Y422292I-10764J172D01*
G02*
X86642Y419775I-7155J8907D01*
G02*
X72963Y419415I-10597J142786D01*
G02*
X60034Y419790I-2912J122745D01*
G02*
X53395Y422413I203J10227D01*
G02*
X50949Y429533I9433J7221D01*
G02*
X50599Y443399I150990J10742D01*
G01*
X50599Y492664D01*
G02*
X51005Y505218I107101J2827D01*
G02*
X53841Y511665I9430J-301D01*
G02*
X61538Y514040I7730J-11392D01*
G02*
X76528Y514379I11613J-181765D01*
G01*
X266133Y514379D01*
%AB*%
G04 GLYPH 8 D134*
%ABD134*%
D90*
G01*
X172141Y271296D02*
G03*
X144146Y268704I-7063J-76166D01*
G03*
X121256Y250553I40787J-74948D01*
G03*
X107390Y236981I215967J-234510D01*
G03*
X100269Y227055I27424J-27189D01*
G03*
X97646Y215914I29286J-12775D01*
G03*
X97271Y198696I222818J-13463D01*
G01*
X97271Y139708D01*
G03*
X100796Y115399I46101J-5725D01*
G03*
X125469Y89146I112355J80873D01*
G03*
X143984Y75250I40983J35321D01*
G03*
X172465Y73265I21011J96148D01*
G03*
X198678Y75898I6345J68613D01*
G03*
X224647Y94332I-54973J104955D01*
G03*
X237951Y105737I-128618J163497D01*
G03*
X244782Y115075I-19732J21603D01*
G03*
X247299Y127331I-34181J13406D01*
G03*
X247659Y147486I-315910J15717D01*
G01*
X247659Y195779D01*
G03*
X244742Y223207I-67752J6664D01*
G03*
X224323Y249905I-104363J-58659D01*
G03*
X212933Y262272I-155222J-131526D01*
G03*
X203701Y268623I-20979J-20612D01*
G03*
X191734Y270962I-13103J-35247D01*
G03*
X172141Y271296I-15281J-321330D01*
X121256Y448585D02*
G03*
X100553Y423588I70666J-79597D01*
G03*
X97595Y396403I61982J-20496D01*
G03*
X99662Y370717I82370J-6300D01*
G03*
X114125Y346490I98389J42307D01*
G03*
X125596Y330750I179287J118609D01*
G03*
X135395Y322668I23033J17944D01*
G03*
X148901Y319690I14657J34362D01*
G03*
X171493Y319265I17604J334785D01*
G03*
X193355Y319619I4817J377266D01*
G03*
X206618Y322101I-1175J42964D01*
G03*
X216661Y328836I-12051J28822D01*
G03*
X228860Y341953I-145962J147994D01*
G03*
X246160Y365977I-66000J65765D01*
G03*
X248631Y394134I-78854J21108D01*
G03*
X248231Y411738I-218572J3839D01*
G03*
X245430Y423142I-31602J-1714D01*
G03*
X237829Y433332I-35341J-18435D01*
G03*
X223026Y447289I-238307J-237919D01*
G03*
X199488Y465155I-64124J-60042D01*
G03*
X170845Y467708I-21421J-78398D01*
G03*
X141310Y465317I-7692J-88615D01*
G03*
X121256Y448585I28850J-54962D01*
X99540Y295605D02*
G02*
X71246Y318581I268277J359274D01*
G02*
X56717Y337212I38826J45259D01*
G02*
X51364Y361374I62816J26590D01*
G02*
X50599Y400941I572664J30859D01*
G02*
X51283Y432562I410431J6944D01*
G02*
X56069Y452150I51823J-2282D01*
G02*
X69059Y467849I46935J-25612D01*
G02*
X94354Y487802I281122J-330386D01*
G02*
X116561Y504104I329133J-425077D01*
G02*
X132235Y512475I40516J-57001D01*
G02*
X148820Y515559I19167J-56934D01*
G02*
X173762Y516000I19525J-399120D01*
G02*
X207550Y514055I8610J-144913D01*
G02*
X234046Y500443I-32269J-95402D01*
G02*
X269273Y477633I-275016J-463342D01*
G02*
X287362Y458957I-34865J-51867D01*
G02*
X294027Y434446I-51690J-27216D01*
G02*
X294979Y394134I-477072J-31434D01*
G02*
X294214Y356482I-519126J-8291D01*
G02*
X288861Y333566I-61633J2314D01*
G02*
X274332Y316059I-49399J26215D01*
G02*
X246038Y294632I-276423J335620D01*
G02*
X274707Y270876I-338880J-438130D01*
G02*
X289428Y252863I-42696J-49916D01*
G02*
X294852Y231507I-50604J-24219D01*
G02*
X295627Y197723I-413656J-26388D01*
G01*
X295627Y142300D01*
G02*
X294974Y114518I-333998J-6045D01*
G02*
X290401Y96277I-50453J2954D01*
G02*
X277988Y79494I-60625J31856D01*
G02*
X253817Y56087I-423602J413257D01*
G02*
X234715Y38848I-256682J265229D01*
G02*
X220109Y29996I-34172J39905D01*
G02*
X202587Y26735I-19526J56205D01*
G02*
X174734Y26269I-21750J467492D01*
G02*
X143194Y26699I-6955J646078D01*
G02*
X124173Y29712I1508J71064D01*
G02*
X110013Y37891I14597J41618D01*
G02*
X93058Y53818I169339J197258D01*
G02*
X68512Y78689I475581J493931D01*
G02*
X55907Y95993I54736J53114D01*
G02*
X51263Y113844I44647J21144D01*
G02*
X50599Y140356I299840J20767D01*
G01*
X50599Y200316D01*
G02*
X51364Y231522I359670J6799D01*
G02*
X56717Y251850I53588J-3243D01*
G02*
X71246Y270233I64288J-35877D01*
G02*
X99540Y295605I446520J-469484D01*
%AB*%
G04 GLYPH 9 D135*
%ABD135*%
D90*
G01*
X99216Y48957D02*
G02*
X99576Y58629I72781J2138D01*
G02*
X102093Y64352I9727J-863D01*
G02*
X122228Y72941I31119J-45057D01*
G03*
X153262Y84447I-52427J189009D01*
G03*
X177975Y102759I-81810J136239D01*
G03*
X211100Y131412I-449573J553209D01*
G03*
X229063Y153320I-62655J69691D01*
G03*
X238092Y179604I-78245J41573D01*
G03*
X244418Y221383I-629677J116698D01*
G01*
X165659Y221383D01*
G02*
X141340Y221834I-5297J370466D01*
G02*
X125469Y224989I2289J53014D01*
G02*
X111056Y233553I22544J54352D01*
G02*
X91113Y250229I279911J355000D01*
G02*
X67691Y271575I331841J387643D01*
G02*
X55664Y287299I41307J44058D01*
G02*
X51232Y305151I44262J20463D01*
G02*
X50599Y332877I341811J21674D01*
G01*
X50599Y401265D01*
G02*
X51425Y433159I347093J6975D01*
G02*
X57203Y453447I49029J-2998D01*
G02*
X72887Y470817I56343J-35107D01*
G02*
X103429Y493960I377744J-466781D01*
G02*
X133288Y511827I64580J-74042D01*
G02*
X175058Y514379I30963J-163651D01*
G02*
X202445Y513802I5964J-366994D01*
G02*
X220352Y509761I-2723J-53759D01*
G02*
X236679Y498792I-28136J-59514D01*
G02*
X259327Y477431I-357702J-401928D01*
G02*
X279189Y457321I-265521J-282108D01*
G02*
X289388Y441738I-39393J-36913D01*
G02*
X293146Y422692I-57134J-21166D01*
G02*
X293682Y392190I-486128J-23811D01*
G01*
X293682Y243099D01*
G02*
X291576Y196467I-256569J-11772D01*
G02*
X276829Y157858I-175469J44900D01*
G02*
X260335Y122565I-1166573J523703D01*
G02*
X248185Y101584I-134291J63753D01*
G02*
X234396Y86619I-71804J52331D01*
G02*
X212979Y69375I-293647J342787D01*
G02*
X178750Y43705I-1022296J1327473D01*
G02*
X157921Y30523I-92197J122633D01*
G02*
X142014Y25666I-21822J42994D01*
G02*
X122552Y24972I-15400J158677D01*
G02*
X109061Y25347I-3039J133630D01*
G02*
X102133Y27970I174J10918D01*
G02*
X99581Y35091I9026J7253D01*
G02*
X99216Y48957I144687J10742D01*
X245714Y389273D02*
G03*
X243243Y420549I-96971J8074D01*
G03*
X225943Y443075I-65644J-32508D01*
G03*
X212508Y456754I-206933J-189818D01*
G03*
X202324Y463778I-25632J-26269D01*
G03*
X190256Y466365I-13566J-33833D01*
G03*
X171169Y466735I-14908J-276806D01*
G03*
X143619Y464264I-6887J-78016D01*
G03*
X119959Y446964I42023J-82303D01*
G03*
X106468Y434820I148593J-178641D01*
G03*
X99540Y425168I21903J-23033D01*
G03*
X96988Y412963I33998J-13479D01*
G03*
X96623Y393162I301134J-15449D01*
G01*
X96623Y340656D01*
G03*
X97038Y321387I251404J-4221D01*
G03*
X99945Y309258I33186J1541D01*
G03*
X107835Y299135I31970J16781D01*
G03*
X123200Y285881I199097J215288D01*
G03*
X146658Y270567I46837J46120D01*
G03*
X184457Y268379I27817J152970D01*
G01*
X245714Y268379D01*
G01*
X245714Y389273D01*
%AB*%
G04 Test drawing aperture definitions*
G04 D10 grid and border stroke, C 0.060 mm*
G04 D11 feature stroke, C 0.220 mm*
G04 D12-D16 basic flash apertures: circle, rectangle, obround, polygons*
G04 D17-D29 support strokes and pads used inside cells*
G04 D30 is a standard circle aperture with a round hole: C 4.000 X 2.000*
%ADD10C,0.060*%
%ADD11C,0.220*%
%ADD12C,0.700*%
%ADD13R,1.300X0.700*%
%ADD14O,1.400X0.700*%
%ADD15P,1.050X5X0*%
%ADD16P,1.050X6X30*%
%ADD17C,0.120*%
%ADD18C,0.420*%
%ADD19C,2.800*%
%ADD20R,3.600X2.000*%
%ADD21C,1.300*%
%ADD22C,0.350*%
%ADD23C,0.180*%
%ADD24R,1.000X0.500*%
%ADD25C,0.900*%
%ADD26C,0.140*%
%ADD27C,0.500*%
%ADD28C,0.250*%
%ADD29C,0.800*%
%ADD30C,4.000X2.000*%
G04 Custom marked star aperture block D140*
G04 D140 contains a filled five-point star plus one point marker on the right vertex*
G04 The marker keeps LM and LR transforms visually distinguishable without connector lines*
%ABD140*%
G36*
G01*
X0Y135000D02*
X-34092Y46923D01*
X-128393Y41717D01*
X-55161Y-17923D01*
X-79351Y-109217D01*
X0Y-58000D01*
X79351Y-109217D01*
X55161Y-17923D01*
X128393Y41717D01*
X34092Y46923D01*
X0Y135000D01*
G37*
D29*
X128393Y41717D03*
%AB*%
G04 Custom plain star aperture block D142*
G04 D142 contains only the filled five-point star and is used by D143*
%ABD142*%
G36*
G01*
X0Y135000D02*
X-34092Y46923D01*
X-128393Y41717D01*
X-55161Y-17923D01*
X-79351Y-109217D01*
X0Y-58000D01*
X79351Y-109217D01*
X55161Y-17923D01*
X128393Y41717D01*
X34092Y46923D01*
X0Y135000D01*
G37*
%AB*%
G04 Custom AB clearing stack D143*
G04 D143 wraps ten alternating LPD/LPC D142 star flashes into one block*
G04 This tests AB object-stream clearing, not macro-style transparent holes*
G04 Rotation advances 2 degrees per step and LS decreases by 0.27 per step*
%ABD143*%
%LMN*%
%LPD*%
%LR0.0*%
%LS2.700*%
D142*
X0Y0D03*
%LPC*%
%LR2.0*%
%LS2.430*%
D142*
X0Y0D03*
%LPD*%
%LR4.0*%
%LS2.160*%
D142*
X0Y0D03*
%LPC*%
%LR6.0*%
%LS1.890*%
D142*
X0Y0D03*
%LPD*%
%LR8.0*%
%LS1.620*%
D142*
X0Y0D03*
%LPC*%
%LR10.0*%
%LS1.350*%
D142*
X0Y0D03*
%LPD*%
%LR12.0*%
%LS1.080*%
D142*
X0Y0D03*
%LPC*%
%LR14.0*%
%LS0.810*%
D142*
X0Y0D03*
%LPD*%
%LR16.0*%
%LS0.540*%
D142*
X0Y0D03*
%LPC*%
%LR18.0*%
%LS0.270*%
D142*
X0Y0D03*
%LPD*%
%LMN*%
%LR0.0*%
%LS1.000*%
%AB*%
G04 Custom nested aperture block reference shape 1 D150*
G04 D150 is a line and G03 arc path with endpoint pads*
%ABD150*%
%LMN*%
%LR0.0*%
%LS1.000*%
D11*
G01*
X-180000Y-60000D02*
X0Y-60000D01*
G03*
X120000Y60000I0J120000D01*
G01*
X180000Y60000D01*
D18*
X-180000Y-60000D03*
D18*
X180000Y60000D03*
%LR0.0*%
%LS1.000*%
%AB*%
G04 Custom nested aperture block reference shape 2 D151*
G04 D151 is a mirrored line and G02 arc path with endpoint pads*
%ABD151*%
%LMN*%
%LR0.0*%
%LS1.000*%
D11*
G01*
X-180000Y60000D02*
X-60000Y60000D01*
G02*
X60000Y-60000I0J-120000D01*
G01*
X180000Y-60000D01*
D22*
X-180000Y60000D03*
D22*
X180000Y-60000D03*
%LR0.0*%
%LS1.000*%
%AB*%
G04 Custom nested aperture block assembly D152*
G04 D152 contains D150 and D151, so this is the actual nested AB test*
%ABD152*%
%LMN*%
%LR0.0*%
%LS0.900*%
D150*
X-95000Y0D03*
%LR0.0*%
%LS0.900*%
D151*
X95000Y0D03*
%LR0.0*%
%LS1.000*%
D23*
X0Y0D03*
%LMN*%
%LR0.0*%
%LS1.000*%
%AB*%
G04 Aperture macro SMILE uses positive face and clear eyes/mouth primitives*
G04 D141 flashes a smile mark; MACRO cell rotates it with LR*
%AMSMILE*1,1,2.600,0,0,0*1,0,0.300,-0.470,0.350,0*1,0,0.300,0.470,0.350,0*20,0,0.160,-0.720,-0.300,-0.360,-0.560,0*20,0,0.160,-0.360,-0.560,0.000,-0.630,0*20,0,0.160,0.000,-0.630,0.360,-0.560,0*20,0,0.160,0.360,-0.560,0.720,-0.300,0*%
%ADD141SMILE*%
G04 Aperture macro HOLESTACK tests exposure off transparency within a macro*
G04 D153 has alternating on/off polygon primitives; holes must not clear objects below*
%AMHOLESTACK*1,1,4.000,0,0,0*5,0,5,0,0,3.400,0*5,1,5,0,0,2.800,2*5,0,5,0,0,2.200,4*5,1,5,0,0,1.600,6*5,0,5,0,0,1.000,8*%
%ADD153HOLESTACK*%
%LMN*%
%LR0*%
%LS0.420*%
D106*
X270000Y6500000D03*
D104*
X432400Y6500000D03*
D117*
X594800Y6500000D03*
D101*
X757200Y6500000D03*
D104*
X919601Y6500000D03*
D117*
X1082001Y6500000D03*
D105*
X1406801Y6500000D03*
D104*
X1569201Y6500000D03*
D100*
X1731601Y6500000D03*
D119*
X1894001Y6500000D03*
D120*
X2056402Y6500000D03*
D117*
X2218802Y6500000D03*
D104*
X2381202Y6500000D03*
D119*
X2706002Y6500000D03*
D104*
X2868402Y6500000D03*
D118*
X3030802Y6500000D03*
D119*
X3193203Y6500000D03*
%LS1.000*%
G04 Table grid outline. Change margin_x, margin_y, cell_w, cell_h in generator if needed*
D10*
G01*
X200000Y200000D02*
X200000Y6200000D01*
D10*
G01*
X2600000Y200000D02*
X2600000Y6200000D01*
D10*
G01*
X5000000Y200000D02*
X5000000Y6200000D01*
D10*
G01*
X7400000Y200000D02*
X7400000Y6200000D01*
D10*
G01*
X9800000Y200000D02*
X9800000Y6200000D01*
D10*
G01*
X200000Y200000D02*
X9800000Y200000D01*
D10*
G01*
X200000Y1700000D02*
X9800000Y1700000D01*
D10*
G01*
X200000Y3200000D02*
X9800000Y3200000D01*
D10*
G01*
X200000Y4700000D02*
X9800000Y4700000D01*
D10*
G01*
X200000Y6200000D02*
X9800000Y6200000D01*
%LMN*%
%LR0*%
%LS0.230*%
D106*
X280000Y6000000D03*
D126*
X368933Y6000000D03*
D127*
X457867Y6000000D03*
D111*
X635734Y6000000D03*
D108*
X724667Y6000000D03*
D113*
X813600Y6000000D03*
D104*
X902534Y6000000D03*
%LS1.000*%
%LMN*%
%LR0*%
%LS0.230*%
D106*
X2680000Y6000000D03*
D126*
X2768933Y6000000D03*
D128*
X2857867Y6000000D03*
D100*
X3035734Y6000000D03*
D117*
X3124667Y6000000D03*
D102*
X3213600Y6000000D03*
%LS1.000*%
%LMN*%
%LR0*%
%LS0.230*%
D106*
X5080000Y6000000D03*
D126*
X5168933Y6000000D03*
D129*
X5257867Y6000000D03*
D100*
X5435734Y6000000D03*
D117*
X5524667Y6000000D03*
D102*
X5613600Y6000000D03*
%LS1.000*%
%LMN*%
%LR0*%
%LS0.230*%
D100*
X7480000Y6000000D03*
D115*
X7568933Y6000000D03*
D104*
X7657867Y6000000D03*
D117*
X7746800Y6000000D03*
D119*
X7835734Y6000000D03*
D120*
X7924667Y6000000D03*
D117*
X8013600Y6000000D03*
D104*
X8102534Y6000000D03*
%LS1.000*%
%LMN*%
%LR0*%
%LS0.230*%
D117*
X280000Y4500000D03*
D104*
X368933Y4500000D03*
D106*
X457867Y4500000D03*
D108*
X546800Y4500000D03*
D114*
X635734Y4500000D03*
D113*
X724667Y4500000D03*
%LS1.000*%
%LMN*%
%LR0*%
%LS0.230*%
D100*
X2680000Y4500000D03*
D101*
X2768933Y4500000D03*
D102*
X2946800Y4500000D03*
D111*
X3035734Y4500000D03*
D104*
X3124667Y4500000D03*
D100*
X3213600Y4500000D03*
D117*
X3302534Y4500000D03*
D108*
X3391467Y4500000D03*
D113*
X3480401Y4500000D03*
D106*
X3569334Y4500000D03*
%LS1.000*%
%LMN*%
%LR0*%
%LS0.230*%
D100*
X5080000Y4500000D03*
D101*
X5168933Y4500000D03*
D101*
X5346800Y4500000D03*
D111*
X5435734Y4500000D03*
D114*
X5524667Y4500000D03*
D102*
X5613600Y4500000D03*
D110*
X5702534Y4500000D03*
%LS1.000*%
%LMN*%
%LR0*%
%LS0.230*%
D112*
X7480000Y4500000D03*
D100*
X7568933Y4500000D03*
D102*
X7657867Y4500000D03*
D117*
X7746800Y4500000D03*
D114*
X7835734Y4500000D03*
%LS1.000*%
%LMN*%
%LR0*%
%LS0.230*%
D117*
X280000Y3000000D03*
D114*
X368933Y3000000D03*
D119*
X457867Y3000000D03*
D100*
X546800Y3000000D03*
D119*
X635734Y3000000D03*
D108*
X724667Y3000000D03*
D114*
X813600Y3000000D03*
D113*
X902534Y3000000D03*
%LS1.000*%
%LMN*%
%LR0*%
%LS0.230*%
D112*
X2680000Y3000000D03*
D108*
X2768933Y3000000D03*
D117*
X2857867Y3000000D03*
D117*
X2946800Y3000000D03*
D114*
X3035734Y3000000D03*
D117*
X3124667Y3000000D03*
%LS1.000*%
%LMN*%
%LR0*%
%LS0.230*%
D118*
X5080000Y3000000D03*
D102*
X5168933Y3000000D03*
D100*
X5257867Y3000000D03*
D111*
X5346800Y3000000D03*
D104*
X5435734Y3000000D03*
%LS1.000*%
%LMN*%
%LR0*%
%LS0.230*%
D102*
X7480000Y3000000D03*
D114*
X7568933Y3000000D03*
D112*
X7657867Y3000000D03*
D101*
X7746800Y3000000D03*
D114*
X7835734Y3000000D03*
%LS1.000*%
%LMN*%
%LR0*%
%LS0.230*%
D100*
X280000Y1500000D03*
D101*
X368933Y1500000D03*
D113*
X546800Y1500000D03*
D104*
X635734Y1500000D03*
D118*
X724667Y1500000D03*
D119*
X813600Y1500000D03*
D104*
X902534Y1500000D03*
D103*
X991467Y1500000D03*
%LS1.000*%
%LMN*%
%LR0*%
%LS0.230*%
D112*
X2680000Y1500000D03*
D100*
X2768933Y1500000D03*
D102*
X2857867Y1500000D03*
D117*
X2946800Y1500000D03*
D114*
X3035734Y1500000D03*
D107*
X3213600Y1500000D03*
D114*
X3302534Y1500000D03*
D111*
X3391467Y1500000D03*
D104*
X3480401Y1500000D03*
D118*
X3658268Y1500000D03*
D119*
X3747201Y1500000D03*
D100*
X3836134Y1500000D03*
D102*
X3925068Y1500000D03*
D110*
X4014001Y1500000D03*
%LS1.000*%
%LMN*%
%LR0*%
%LS0.230*%
D100*
X5080000Y1500000D03*
D115*
X5168933Y1500000D03*
D107*
X5346800Y1500000D03*
D114*
X5435734Y1500000D03*
D111*
X5524667Y1500000D03*
D104*
X5613600Y1500000D03*
%LS1.000*%
G04 CELL 01 BEGIN G01 LINE*
G04 Cell G01 LINE: tests linear interpolation using D01 and circular pad flashes*
D12*
X850000Y5200000D03*
D12*
X1250000Y5570000D03*
D12*
X1750000Y5270000D03*
D12*
X2000000Y5690000D03*
D11*
G01*
X850000Y5200000D02*
X1250000Y5570000D01*
D11*
G01*
X1250000Y5570000D02*
X1750000Y5270000D01*
D11*
G01*
X1750000Y5270000D02*
X2000000Y5690000D01*
G04 CELL 01 END G01 LINE*
G04 CELL 02 BEGIN G02 ARC*
G04 Cell G02 ARC: tests clockwise circular interpolation with I/J center offsets*
D11*
G02*
X3380000Y5450000D02*
X4220000Y5450000I420000J0D01*
X3980000Y5170000D02*
X3620000Y5170000I-180000J0D01*
G01*
D18*
X3380000Y5450000D03*
D18*
X4220000Y5450000D03*
D18*
X3980000Y5170000D03*
D18*
X3620000Y5170000D03*
G04 CELL 02 END G02 ARC*
G04 CELL 03 BEGIN G03 ARC*
G04 Cell G03 ARC: tests counter-clockwise circular interpolation with I/J offsets*
D11*
G03*
X5780000Y5450000D02*
X6620000Y5450000I420000J0D01*
X6380000Y5730000D02*
X6020000Y5730000I-180000J0D01*
G01*
D18*
X5780000Y5450000D03*
D18*
X6620000Y5450000D03*
D18*
X6380000Y5730000D03*
D18*
X6020000Y5730000D03*
G04 CELL 03 END G03 ARC*
G04 CELL 04 BEGIN APERTURE*
G04 Cell APERTURE: tests standard C, R, O, and P aperture flashes at 2x visual size*
%LMN*%
%LR0.0*%
%LS2.000*%
D12*
X8000000Y5450000D03*
D13*
X8400000Y5450000D03*
D14*
X8800000Y5450000D03*
D15*
X9150000Y5450000D03*
D16*
X9400000Y5450000D03*
%LS1.000*%
D17*
G01*
X7880000Y5150000D02*
X9500000Y5150000D01*
G04 CELL 04 END APERTURE*
G04 CELL 05 BEGIN REGION*
G04 Cell REGION: complex G36/G37 test with concave contour plus rounded arc contour*
G04 REGION A is a concave star-like filled contour with many vertices*
G36*
G01*
X1300000Y4325000D02*
X1197138Y4051578D01*
X905312Y4038242D01*
X1133565Y3855922D01*
X1056069Y3574258D01*
X1300000Y3735000D01*
X1543931Y3574258D01*
X1466435Y3855922D01*
X1694688Y4038242D01*
X1402862Y4051578D01*
X1300000Y4325000D01*
G37*
G04 REGION B is a rounded capsule contour using G03 arcs inside a region*
G36*
G01*
X1680000Y3710000D02*
X2120000Y3710000D01*
G03*
X2120000Y3930000I0J110000D01*
G01*
X1680000Y3930000D01*
G03*
X1680000Y3710000I0J-110000D01*
G37*
G01*
G04 CELL 05 END REGION*
G04 CELL 06 BEGIN AB CLEARING*
G04 Cell AB CLEARING: flashes D143 three times with overlapping offsets*
G04 D143 contains alternating LPD/LPC D142 stars inside one aperture block*
G04 LPC objects in AB are clear objects in the final object stream*
%LMN*%
%LR0.0*%
%LS1.000*%
D143*
X3500000Y3950000D03*
D143*
X3800000Y3950000D03*
D143*
X4100000Y3950000D03*
G04 CELL 06 END AB CLEARING*
G04 CELL 07 BEGIN AB BLOCK*
G04 Cell AB BLOCK: star badge aperture block D140 flashed with varied LR and LS*
G04 This cell checks that aperture block contents transform as a reusable block*
%LMN*%
%LR0.0*%
%LS0.750*%
D140*
X5640000Y3740000D03*
%LR20.0*%
%LS1.000*%
D140*
X6060000Y4020000D03*
%LR-25.0*%
%LS0.900*%
D140*
X6490000Y3730000D03*
%LR50.0*%
%LS0.650*%
D140*
X6800000Y4140000D03*
%LR0.0*%
%LS1.000*%
D17*
G01*
X5480000Y3540000D02*
X6930000Y3540000D01*
G04 CELL 07 END AB BLOCK*
G04 CELL 08 BEGIN MACRO*
G04 Cell MACRO: smile aperture macro D141, enlarged and rotated with LR*
G04 SMILE uses clear primitive cuts for eyes and mouth inside a positive face*
%LMN*%
%LS1.000*%
%LR0.0*%
D141*
X8150000Y3950000D03*
%LR15.0*%
D141*
X8600000Y3950000D03*
%LR-15.0*%
D141*
X9050000Y3950000D03*
%LR0.0*%
%LS1.000*%
G04 CELL 08 END MACRO*
G04 CELL 09 BEGIN ROTATION*
G04 Cell ROTATION: tests LR applied to rectangular flashes at 2x visual size*
%LMN*%
%LS2.000*%
%LR0.0*%
D24*
X920000Y2450000D03*
%LR45.0*%
D24*
X1400000Y2450000D03*
%LR90.0*%
D24*
X1880000Y2450000D03*
%LR0.0*%
%LS1.000*%
G04 CELL 09 END ROTATION*
G04 CELL 10 BEGIN MIRROR*
G04 Cell MIRROR: tests LMN, LMX, LMY, and LMXY as four separated quadrants*
G04 The center cross separates quadrants so mirrored point markers are easier to compare*
%LMN*%
%LR0.0*%
%LS1.000*%
D17*
G01*
X3800000Y2060000D02*
X3800000Y2840000D01*
D17*
G01*
X3040000Y2450000D02*
X4560000Y2450000D01*
%LMN*%
D140*
X3420000Y2750000D03*
%LMX*%
D140*
X4180000Y2750000D03*
%LMY*%
D140*
X3420000Y2150000D03*
%LMXY*%
D140*
X4180000Y2150000D03*
%LMN*%
%LR0.0*%
%LS1.000*%
G04 CELL 10 END MIRROR*
G04 CELL 11 BEGIN SCALE*
G04 Cell SCALE: tests larger LS values at 1.2x, 2.0x, and 2.8x*
%LMN*%
%LR0.0*%
%LS1.200*%
D15*
X5720000Y2450000D03*
%LS2.000*%
D15*
X6200000Y2450000D03*
%LS2.800*%
D15*
X6720000Y2450000D03*
%LS1.000*%
G04 CELL 11 END SCALE*
G04 CELL 12 BEGIN COMBO*
G04 Cell COMBO: tests LM, LR, and LS combined on aperture block D140*
%LMN*%
%LR0.0*%
%LS0.850*%
D140*
X8150000Y2450000D03*
%LMX*%
%LR35.0*%
%LS1.000*%
D140*
X8600000Y2450000D03*
%LMY*%
%LR-35.0*%
%LS1.150*%
D140*
X9050000Y2450000D03*
%LMN*%
%LR0.0*%
%LS1.000*%
%LPD*%
G04 CELL 12 END COMBO*
G04 CELL 13 BEGIN AB NESTED*
G04 Cell AB NESTED: left D150 shape 1, center D152 shape 1 plus 2, right D151 shape 2*
G04 D152 contains D150 and D151, so this is the true nested aperture block test*
%LMN*%
%LR0.0*%
%LS1.000*%
D150*
X880000Y950000D03*
D152*
X1400000Y950000D03*
D151*
X1920000Y950000D03*
%LMN*%
%LR0.0*%
%LS1.000*%
G04 CELL 13 END AB NESTED*
G04 CELL 14 BEGIN MACRO HOLE STACK*
G04 Cell MACRO HOLE STACK: D153 holes are transparent and must not clear preexisting lines*
%LPD*%
%LMN*%
%LR0.0*%
%LS1.000*%
D11*
G01*
X3000000Y660000D02*
X4600000Y1190000D01*
D17*
G01*
X2980000Y1140000D02*
X4620000Y760000D01*
%LR0.0*%
%LS0.950*%
D153*
X3500000Y950000D03*
%LR6.0*%
%LS0.900*%
D153*
X3800000Y950000D03*
%LR12.0*%
%LS0.850*%
D153*
X4100000Y950000D03*
%LR0.0*%
%LS1.000*%
G04 CELL 14 END MACRO HOLE STACK*
G04 CELL 15 BEGIN AP HOLE*
G04 Cell AP HOLE: standard C aperture with round hole per Gerber 4.4.6*
G04 Lines are drawn first; D30 hole area must leave those underlying lines visible*
%LPD*%
%LMN*%
%LR0.0*%
%LS1.000*%
D11*
G01*
X5420000Y740000D02*
X6980000Y1160000D01*
D17*
G01*
X5420000Y1160000D02*
X6980000Y740000D01*
D30*
X5920000Y950000D03*
D30*
X6480000Y950000D03*
G04 CELL 15 END AP HOLE*
G04 End of feature grid test*
M02*
