G04 Performance test generated for WASM Gerber Viewer*
G04 Uses one aperture macro star and 1000 D03 flashes*
G04 Grid: 100 columns x 10 rows*
G04 Hierarchy: 10x10 stars, then 10x10 block grouping, then 10x10 group grouping when applicable*
G04 Star pitch: 0.04 mm, 10x10 block gap: 0.16 mm, 100x100 block gap: 0.80 mm*
%TF.GenerationSoftware,OpenAI,Codex,2026-05-15*%
%TF.FileFunction,Drawing,Top*%
%TF.Part,Single*%
%FSLAX35Y35*%
%MOMM*%
G75*
G01*
%LPD*%
G04 Aperture macro STARREG is a filled 10-vertex star outline*
%AMSTARREG*4,1,10,0.000000,0.018000,-0.004467,0.006149,-0.017119,0.005562,-0.007228,-0.002349,-0.010580,-0.014562,-0.000000,-0.007600,0.010580,-0.014562,0.007228,-0.002349,0.017119,0.005562,0.004467,0.006149,0.000000,0.018000,0*%
%ADD10STARREG*%
D10*
X200000Y200000D03*
X204000Y200000D03*
X208000Y200000D03*
X212000Y200000D03*
X216000Y200000D03*
X220000Y200000D03*
X224000Y200000D03*
X228000Y200000D03*
X232000Y200000D03*
X236000Y200000D03*
X256000Y200000D03*
X260000Y200000D03*
X264000Y200000D03*
X268000Y200000D03*
X272000Y200000D03*
X276000Y200000D03*
X280000Y200000D03*
X284000Y200000D03*
X288000Y200000D03*
X292000Y200000D03*
X312000Y200000D03*
X316000Y200000D03*
X320000Y200000D03*
X324000Y200000D03*
X328000Y200000D03*
X332000Y200000D03*
X336000Y200000D03*
X340000Y200000D03*
X344000Y200000D03*
X348000Y200000D03*
X368000Y200000D03*
X372000Y200000D03*
X376000Y200000D03*
X380000Y200000D03*
X384000Y200000D03*
X388000Y200000D03*
X392000Y200000D03*
X396000Y200000D03*
X400000Y200000D03*
X404000Y200000D03*
X424000Y200000D03*
X428000Y200000D03*
X432000Y200000D03*
X436000Y200000D03*
X440000Y200000D03*
X444000Y200000D03*
X448000Y200000D03*
X452000Y200000D03*
X456000Y200000D03*
X460000Y200000D03*
X480000Y200000D03*
X484000Y200000D03*
X488000Y200000D03*
X492000Y200000D03*
X496000Y200000D03*
X500000Y200000D03*
X504000Y200000D03*
X508000Y200000D03*
X512000Y200000D03*
X516000Y200000D03*
X536000Y200000D03*
X540000Y200000D03*
X544000Y200000D03*
X548000Y200000D03*
X552000Y200000D03*
X556000Y200000D03*
X560000Y200000D03*
X564000Y200000D03*
X568000Y200000D03*
X572000Y200000D03*
X592000Y200000D03*
X596000Y200000D03*
X600000Y200000D03*
X604000Y200000D03*
X608000Y200000D03*
X612000Y200000D03*
X616000Y200000D03*
X620000Y200000D03*
X624000Y200000D03*
X628000Y200000D03*
X648000Y200000D03*
X652000Y200000D03*
X656000Y200000D03*
X660000Y200000D03*
X664000Y200000D03*
X668000Y200000D03*
X672000Y200000D03*
X676000Y200000D03*
X680000Y200000D03*
X684000Y200000D03*
X704000Y200000D03*
X708000Y200000D03*
X712000Y200000D03*
X716000Y200000D03*
X720000Y200000D03*
X724000Y200000D03*
X728000Y200000D03*
X732000Y200000D03*
X736000Y200000D03*
X740000Y200000D03*
X200000Y204000D03*
X204000Y204000D03*
X208000Y204000D03*
X212000Y204000D03*
X216000Y204000D03*
X220000Y204000D03*
X224000Y204000D03*
X228000Y204000D03*
X232000Y204000D03*
X236000Y204000D03*
X256000Y204000D03*
X260000Y204000D03*
X264000Y204000D03*
X268000Y204000D03*
X272000Y204000D03*
X276000Y204000D03*
X280000Y204000D03*
X284000Y204000D03*
X288000Y204000D03*
X292000Y204000D03*
X312000Y204000D03*
X316000Y204000D03*
X320000Y204000D03*
X324000Y204000D03*
X328000Y204000D03*
X332000Y204000D03*
X336000Y204000D03*
X340000Y204000D03*
X344000Y204000D03*
X348000Y204000D03*
X368000Y204000D03*
X372000Y204000D03*
X376000Y204000D03*
X380000Y204000D03*
X384000Y204000D03*
X388000Y204000D03*
X392000Y204000D03*
X396000Y204000D03*
X400000Y204000D03*
X404000Y204000D03*
X424000Y204000D03*
X428000Y204000D03*
X432000Y204000D03*
X436000Y204000D03*
X440000Y204000D03*
X444000Y204000D03*
X448000Y204000D03*
X452000Y204000D03*
X456000Y204000D03*
X460000Y204000D03*
X480000Y204000D03*
X484000Y204000D03*
X488000Y204000D03*
X492000Y204000D03*
X496000Y204000D03*
X500000Y204000D03*
X504000Y204000D03*
X508000Y204000D03*
X512000Y204000D03*
X516000Y204000D03*
X536000Y204000D03*
X540000Y204000D03*
X544000Y204000D03*
X548000Y204000D03*
X552000Y204000D03*
X556000Y204000D03*
X560000Y204000D03*
X564000Y204000D03*
X568000Y204000D03*
X572000Y204000D03*
X592000Y204000D03*
X596000Y204000D03*
X600000Y204000D03*
X604000Y204000D03*
X608000Y204000D03*
X612000Y204000D03*
X616000Y204000D03*
X620000Y204000D03*
X624000Y204000D03*
X628000Y204000D03*
X648000Y204000D03*
X652000Y204000D03*
X656000Y204000D03*
X660000Y204000D03*
X664000Y204000D03*
X668000Y204000D03*
X672000Y204000D03*
X676000Y204000D03*
X680000Y204000D03*
X684000Y204000D03*
X704000Y204000D03*
X708000Y204000D03*
X712000Y204000D03*
X716000Y204000D03*
X720000Y204000D03*
X724000Y204000D03*
X728000Y204000D03*
X732000Y204000D03*
X736000Y204000D03*
X740000Y204000D03*
X200000Y208000D03*
X204000Y208000D03*
X208000Y208000D03*
X212000Y208000D03*
X216000Y208000D03*
X220000Y208000D03*
X224000Y208000D03*
X228000Y208000D03*
X232000Y208000D03*
X236000Y208000D03*
X256000Y208000D03*
X260000Y208000D03*
X264000Y208000D03*
X268000Y208000D03*
X272000Y208000D03*
X276000Y208000D03*
X280000Y208000D03*
X284000Y208000D03*
X288000Y208000D03*
X292000Y208000D03*
X312000Y208000D03*
X316000Y208000D03*
X320000Y208000D03*
X324000Y208000D03*
X328000Y208000D03*
X332000Y208000D03*
X336000Y208000D03*
X340000Y208000D03*
X344000Y208000D03*
X348000Y208000D03*
X368000Y208000D03*
X372000Y208000D03*
X376000Y208000D03*
X380000Y208000D03*
X384000Y208000D03*
X388000Y208000D03*
X392000Y208000D03*
X396000Y208000D03*
X400000Y208000D03*
X404000Y208000D03*
X424000Y208000D03*
X428000Y208000D03*
X432000Y208000D03*
X436000Y208000D03*
X440000Y208000D03*
X444000Y208000D03*
X448000Y208000D03*
X452000Y208000D03*
X456000Y208000D03*
X460000Y208000D03*
X480000Y208000D03*
X484000Y208000D03*
X488000Y208000D03*
X492000Y208000D03*
X496000Y208000D03*
X500000Y208000D03*
X504000Y208000D03*
X508000Y208000D03*
X512000Y208000D03*
X516000Y208000D03*
X536000Y208000D03*
X540000Y208000D03*
X544000Y208000D03*
X548000Y208000D03*
X552000Y208000D03*
X556000Y208000D03*
X560000Y208000D03*
X564000Y208000D03*
X568000Y208000D03*
X572000Y208000D03*
X592000Y208000D03*
X596000Y208000D03*
X600000Y208000D03*
X604000Y208000D03*
X608000Y208000D03*
X612000Y208000D03*
X616000Y208000D03*
X620000Y208000D03*
X624000Y208000D03*
X628000Y208000D03*
X648000Y208000D03*
X652000Y208000D03*
X656000Y208000D03*
X660000Y208000D03*
X664000Y208000D03*
X668000Y208000D03*
X672000Y208000D03*
X676000Y208000D03*
X680000Y208000D03*
X684000Y208000D03*
X704000Y208000D03*
X708000Y208000D03*
X712000Y208000D03*
X716000Y208000D03*
X720000Y208000D03*
X724000Y208000D03*
X728000Y208000D03*
X732000Y208000D03*
X736000Y208000D03*
X740000Y208000D03*
X200000Y212000D03*
X204000Y212000D03*
X208000Y212000D03*
X212000Y212000D03*
X216000Y212000D03*
X220000Y212000D03*
X224000Y212000D03*
X228000Y212000D03*
X232000Y212000D03*
X236000Y212000D03*
X256000Y212000D03*
X260000Y212000D03*
X264000Y212000D03*
X268000Y212000D03*
X272000Y212000D03*
X276000Y212000D03*
X280000Y212000D03*
X284000Y212000D03*
X288000Y212000D03*
X292000Y212000D03*
X312000Y212000D03*
X316000Y212000D03*
X320000Y212000D03*
X324000Y212000D03*
X328000Y212000D03*
X332000Y212000D03*
X336000Y212000D03*
X340000Y212000D03*
X344000Y212000D03*
X348000Y212000D03*
X368000Y212000D03*
X372000Y212000D03*
X376000Y212000D03*
X380000Y212000D03*
X384000Y212000D03*
X388000Y212000D03*
X392000Y212000D03*
X396000Y212000D03*
X400000Y212000D03*
X404000Y212000D03*
X424000Y212000D03*
X428000Y212000D03*
X432000Y212000D03*
X436000Y212000D03*
X440000Y212000D03*
X444000Y212000D03*
X448000Y212000D03*
X452000Y212000D03*
X456000Y212000D03*
X460000Y212000D03*
X480000Y212000D03*
X484000Y212000D03*
X488000Y212000D03*
X492000Y212000D03*
X496000Y212000D03*
X500000Y212000D03*
X504000Y212000D03*
X508000Y212000D03*
X512000Y212000D03*
X516000Y212000D03*
X536000Y212000D03*
X540000Y212000D03*
X544000Y212000D03*
X548000Y212000D03*
X552000Y212000D03*
X556000Y212000D03*
X560000Y212000D03*
X564000Y212000D03*
X568000Y212000D03*
X572000Y212000D03*
X592000Y212000D03*
X596000Y212000D03*
X600000Y212000D03*
X604000Y212000D03*
X608000Y212000D03*
X612000Y212000D03*
X616000Y212000D03*
X620000Y212000D03*
X624000Y212000D03*
X628000Y212000D03*
X648000Y212000D03*
X652000Y212000D03*
X656000Y212000D03*
X660000Y212000D03*
X664000Y212000D03*
X668000Y212000D03*
X672000Y212000D03*
X676000Y212000D03*
X680000Y212000D03*
X684000Y212000D03*
X704000Y212000D03*
X708000Y212000D03*
X712000Y212000D03*
X716000Y212000D03*
X720000Y212000D03*
X724000Y212000D03*
X728000Y212000D03*
X732000Y212000D03*
X736000Y212000D03*
X740000Y212000D03*
X200000Y216000D03*
X204000Y216000D03*
X208000Y216000D03*
X212000Y216000D03*
X216000Y216000D03*
X220000Y216000D03*
X224000Y216000D03*
X228000Y216000D03*
X232000Y216000D03*
X236000Y216000D03*
X256000Y216000D03*
X260000Y216000D03*
X264000Y216000D03*
X268000Y216000D03*
X272000Y216000D03*
X276000Y216000D03*
X280000Y216000D03*
X284000Y216000D03*
X288000Y216000D03*
X292000Y216000D03*
X312000Y216000D03*
X316000Y216000D03*
X320000Y216000D03*
X324000Y216000D03*
X328000Y216000D03*
X332000Y216000D03*
X336000Y216000D03*
X340000Y216000D03*
X344000Y216000D03*
X348000Y216000D03*
X368000Y216000D03*
X372000Y216000D03*
X376000Y216000D03*
X380000Y216000D03*
X384000Y216000D03*
X388000Y216000D03*
X392000Y216000D03*
X396000Y216000D03*
X400000Y216000D03*
X404000Y216000D03*
X424000Y216000D03*
X428000Y216000D03*
X432000Y216000D03*
X436000Y216000D03*
X440000Y216000D03*
X444000Y216000D03*
X448000Y216000D03*
X452000Y216000D03*
X456000Y216000D03*
X460000Y216000D03*
X480000Y216000D03*
X484000Y216000D03*
X488000Y216000D03*
X492000Y216000D03*
X496000Y216000D03*
X500000Y216000D03*
X504000Y216000D03*
X508000Y216000D03*
X512000Y216000D03*
X516000Y216000D03*
X536000Y216000D03*
X540000Y216000D03*
X544000Y216000D03*
X548000Y216000D03*
X552000Y216000D03*
X556000Y216000D03*
X560000Y216000D03*
X564000Y216000D03*
X568000Y216000D03*
X572000Y216000D03*
X592000Y216000D03*
X596000Y216000D03*
X600000Y216000D03*
X604000Y216000D03*
X608000Y216000D03*
X612000Y216000D03*
X616000Y216000D03*
X620000Y216000D03*
X624000Y216000D03*
X628000Y216000D03*
X648000Y216000D03*
X652000Y216000D03*
X656000Y216000D03*
X660000Y216000D03*
X664000Y216000D03*
X668000Y216000D03*
X672000Y216000D03*
X676000Y216000D03*
X680000Y216000D03*
X684000Y216000D03*
X704000Y216000D03*
X708000Y216000D03*
X712000Y216000D03*
X716000Y216000D03*
X720000Y216000D03*
X724000Y216000D03*
X728000Y216000D03*
X732000Y216000D03*
X736000Y216000D03*
X740000Y216000D03*
X200000Y220000D03*
X204000Y220000D03*
X208000Y220000D03*
X212000Y220000D03*
X216000Y220000D03*
X220000Y220000D03*
X224000Y220000D03*
X228000Y220000D03*
X232000Y220000D03*
X236000Y220000D03*
X256000Y220000D03*
X260000Y220000D03*
X264000Y220000D03*
X268000Y220000D03*
X272000Y220000D03*
X276000Y220000D03*
X280000Y220000D03*
X284000Y220000D03*
X288000Y220000D03*
X292000Y220000D03*
X312000Y220000D03*
X316000Y220000D03*
X320000Y220000D03*
X324000Y220000D03*
X328000Y220000D03*
X332000Y220000D03*
X336000Y220000D03*
X340000Y220000D03*
X344000Y220000D03*
X348000Y220000D03*
X368000Y220000D03*
X372000Y220000D03*
X376000Y220000D03*
X380000Y220000D03*
X384000Y220000D03*
X388000Y220000D03*
X392000Y220000D03*
X396000Y220000D03*
X400000Y220000D03*
X404000Y220000D03*
X424000Y220000D03*
X428000Y220000D03*
X432000Y220000D03*
X436000Y220000D03*
X440000Y220000D03*
X444000Y220000D03*
X448000Y220000D03*
X452000Y220000D03*
X456000Y220000D03*
X460000Y220000D03*
X480000Y220000D03*
X484000Y220000D03*
X488000Y220000D03*
X492000Y220000D03*
X496000Y220000D03*
X500000Y220000D03*
X504000Y220000D03*
X508000Y220000D03*
X512000Y220000D03*
X516000Y220000D03*
X536000Y220000D03*
X540000Y220000D03*
X544000Y220000D03*
X548000Y220000D03*
X552000Y220000D03*
X556000Y220000D03*
X560000Y220000D03*
X564000Y220000D03*
X568000Y220000D03*
X572000Y220000D03*
X592000Y220000D03*
X596000Y220000D03*
X600000Y220000D03*
X604000Y220000D03*
X608000Y220000D03*
X612000Y220000D03*
X616000Y220000D03*
X620000Y220000D03*
X624000Y220000D03*
X628000Y220000D03*
X648000Y220000D03*
X652000Y220000D03*
X656000Y220000D03*
X660000Y220000D03*
X664000Y220000D03*
X668000Y220000D03*
X672000Y220000D03*
X676000Y220000D03*
X680000Y220000D03*
X684000Y220000D03*
X704000Y220000D03*
X708000Y220000D03*
X712000Y220000D03*
X716000Y220000D03*
X720000Y220000D03*
X724000Y220000D03*
X728000Y220000D03*
X732000Y220000D03*
X736000Y220000D03*
X740000Y220000D03*
X200000Y224000D03*
X204000Y224000D03*
X208000Y224000D03*
X212000Y224000D03*
X216000Y224000D03*
X220000Y224000D03*
X224000Y224000D03*
X228000Y224000D03*
X232000Y224000D03*
X236000Y224000D03*
X256000Y224000D03*
X260000Y224000D03*
X264000Y224000D03*
X268000Y224000D03*
X272000Y224000D03*
X276000Y224000D03*
X280000Y224000D03*
X284000Y224000D03*
X288000Y224000D03*
X292000Y224000D03*
X312000Y224000D03*
X316000Y224000D03*
X320000Y224000D03*
X324000Y224000D03*
X328000Y224000D03*
X332000Y224000D03*
X336000Y224000D03*
X340000Y224000D03*
X344000Y224000D03*
X348000Y224000D03*
X368000Y224000D03*
X372000Y224000D03*
X376000Y224000D03*
X380000Y224000D03*
X384000Y224000D03*
X388000Y224000D03*
X392000Y224000D03*
X396000Y224000D03*
X400000Y224000D03*
X404000Y224000D03*
X424000Y224000D03*
X428000Y224000D03*
X432000Y224000D03*
X436000Y224000D03*
X440000Y224000D03*
X444000Y224000D03*
X448000Y224000D03*
X452000Y224000D03*
X456000Y224000D03*
X460000Y224000D03*
X480000Y224000D03*
X484000Y224000D03*
X488000Y224000D03*
X492000Y224000D03*
X496000Y224000D03*
X500000Y224000D03*
X504000Y224000D03*
X508000Y224000D03*
X512000Y224000D03*
X516000Y224000D03*
X536000Y224000D03*
X540000Y224000D03*
X544000Y224000D03*
X548000Y224000D03*
X552000Y224000D03*
X556000Y224000D03*
X560000Y224000D03*
X564000Y224000D03*
X568000Y224000D03*
X572000Y224000D03*
X592000Y224000D03*
X596000Y224000D03*
X600000Y224000D03*
X604000Y224000D03*
X608000Y224000D03*
X612000Y224000D03*
X616000Y224000D03*
X620000Y224000D03*
X624000Y224000D03*
X628000Y224000D03*
X648000Y224000D03*
X652000Y224000D03*
X656000Y224000D03*
X660000Y224000D03*
X664000Y224000D03*
X668000Y224000D03*
X672000Y224000D03*
X676000Y224000D03*
X680000Y224000D03*
X684000Y224000D03*
X704000Y224000D03*
X708000Y224000D03*
X712000Y224000D03*
X716000Y224000D03*
X720000Y224000D03*
X724000Y224000D03*
X728000Y224000D03*
X732000Y224000D03*
X736000Y224000D03*
X740000Y224000D03*
X200000Y228000D03*
X204000Y228000D03*
X208000Y228000D03*
X212000Y228000D03*
X216000Y228000D03*
X220000Y228000D03*
X224000Y228000D03*
X228000Y228000D03*
X232000Y228000D03*
X236000Y228000D03*
X256000Y228000D03*
X260000Y228000D03*
X264000Y228000D03*
X268000Y228000D03*
X272000Y228000D03*
X276000Y228000D03*
X280000Y228000D03*
X284000Y228000D03*
X288000Y228000D03*
X292000Y228000D03*
X312000Y228000D03*
X316000Y228000D03*
X320000Y228000D03*
X324000Y228000D03*
X328000Y228000D03*
X332000Y228000D03*
X336000Y228000D03*
X340000Y228000D03*
X344000Y228000D03*
X348000Y228000D03*
X368000Y228000D03*
X372000Y228000D03*
X376000Y228000D03*
X380000Y228000D03*
X384000Y228000D03*
X388000Y228000D03*
X392000Y228000D03*
X396000Y228000D03*
X400000Y228000D03*
X404000Y228000D03*
X424000Y228000D03*
X428000Y228000D03*
X432000Y228000D03*
X436000Y228000D03*
X440000Y228000D03*
X444000Y228000D03*
X448000Y228000D03*
X452000Y228000D03*
X456000Y228000D03*
X460000Y228000D03*
X480000Y228000D03*
X484000Y228000D03*
X488000Y228000D03*
X492000Y228000D03*
X496000Y228000D03*
X500000Y228000D03*
X504000Y228000D03*
X508000Y228000D03*
X512000Y228000D03*
X516000Y228000D03*
X536000Y228000D03*
X540000Y228000D03*
X544000Y228000D03*
X548000Y228000D03*
X552000Y228000D03*
X556000Y228000D03*
X560000Y228000D03*
X564000Y228000D03*
X568000Y228000D03*
X572000Y228000D03*
X592000Y228000D03*
X596000Y228000D03*
X600000Y228000D03*
X604000Y228000D03*
X608000Y228000D03*
X612000Y228000D03*
X616000Y228000D03*
X620000Y228000D03*
X624000Y228000D03*
X628000Y228000D03*
X648000Y228000D03*
X652000Y228000D03*
X656000Y228000D03*
X660000Y228000D03*
X664000Y228000D03*
X668000Y228000D03*
X672000Y228000D03*
X676000Y228000D03*
X680000Y228000D03*
X684000Y228000D03*
X704000Y228000D03*
X708000Y228000D03*
X712000Y228000D03*
X716000Y228000D03*
X720000Y228000D03*
X724000Y228000D03*
X728000Y228000D03*
X732000Y228000D03*
X736000Y228000D03*
X740000Y228000D03*
X200000Y232000D03*
X204000Y232000D03*
X208000Y232000D03*
X212000Y232000D03*
X216000Y232000D03*
X220000Y232000D03*
X224000Y232000D03*
X228000Y232000D03*
X232000Y232000D03*
X236000Y232000D03*
X256000Y232000D03*
X260000Y232000D03*
X264000Y232000D03*
X268000Y232000D03*
X272000Y232000D03*
X276000Y232000D03*
X280000Y232000D03*
X284000Y232000D03*
X288000Y232000D03*
X292000Y232000D03*
X312000Y232000D03*
X316000Y232000D03*
X320000Y232000D03*
X324000Y232000D03*
X328000Y232000D03*
X332000Y232000D03*
X336000Y232000D03*
X340000Y232000D03*
X344000Y232000D03*
X348000Y232000D03*
X368000Y232000D03*
X372000Y232000D03*
X376000Y232000D03*
X380000Y232000D03*
X384000Y232000D03*
X388000Y232000D03*
X392000Y232000D03*
X396000Y232000D03*
X400000Y232000D03*
X404000Y232000D03*
X424000Y232000D03*
X428000Y232000D03*
X432000Y232000D03*
X436000Y232000D03*
X440000Y232000D03*
X444000Y232000D03*
X448000Y232000D03*
X452000Y232000D03*
X456000Y232000D03*
X460000Y232000D03*
X480000Y232000D03*
X484000Y232000D03*
X488000Y232000D03*
X492000Y232000D03*
X496000Y232000D03*
X500000Y232000D03*
X504000Y232000D03*
X508000Y232000D03*
X512000Y232000D03*
X516000Y232000D03*
X536000Y232000D03*
X540000Y232000D03*
X544000Y232000D03*
X548000Y232000D03*
X552000Y232000D03*
X556000Y232000D03*
X560000Y232000D03*
X564000Y232000D03*
X568000Y232000D03*
X572000Y232000D03*
X592000Y232000D03*
X596000Y232000D03*
X600000Y232000D03*
X604000Y232000D03*
X608000Y232000D03*
X612000Y232000D03*
X616000Y232000D03*
X620000Y232000D03*
X624000Y232000D03*
X628000Y232000D03*
X648000Y232000D03*
X652000Y232000D03*
X656000Y232000D03*
X660000Y232000D03*
X664000Y232000D03*
X668000Y232000D03*
X672000Y232000D03*
X676000Y232000D03*
X680000Y232000D03*
X684000Y232000D03*
X704000Y232000D03*
X708000Y232000D03*
X712000Y232000D03*
X716000Y232000D03*
X720000Y232000D03*
X724000Y232000D03*
X728000Y232000D03*
X732000Y232000D03*
X736000Y232000D03*
X740000Y232000D03*
X200000Y236000D03*
X204000Y236000D03*
X208000Y236000D03*
X212000Y236000D03*
X216000Y236000D03*
X220000Y236000D03*
X224000Y236000D03*
X228000Y236000D03*
X232000Y236000D03*
X236000Y236000D03*
X256000Y236000D03*
X260000Y236000D03*
X264000Y236000D03*
X268000Y236000D03*
X272000Y236000D03*
X276000Y236000D03*
X280000Y236000D03*
X284000Y236000D03*
X288000Y236000D03*
X292000Y236000D03*
X312000Y236000D03*
X316000Y236000D03*
X320000Y236000D03*
X324000Y236000D03*
X328000Y236000D03*
X332000Y236000D03*
X336000Y236000D03*
X340000Y236000D03*
X344000Y236000D03*
X348000Y236000D03*
X368000Y236000D03*
X372000Y236000D03*
X376000Y236000D03*
X380000Y236000D03*
X384000Y236000D03*
X388000Y236000D03*
X392000Y236000D03*
X396000Y236000D03*
X400000Y236000D03*
X404000Y236000D03*
X424000Y236000D03*
X428000Y236000D03*
X432000Y236000D03*
X436000Y236000D03*
X440000Y236000D03*
X444000Y236000D03*
X448000Y236000D03*
X452000Y236000D03*
X456000Y236000D03*
X460000Y236000D03*
X480000Y236000D03*
X484000Y236000D03*
X488000Y236000D03*
X492000Y236000D03*
X496000Y236000D03*
X500000Y236000D03*
X504000Y236000D03*
X508000Y236000D03*
X512000Y236000D03*
X516000Y236000D03*
X536000Y236000D03*
X540000Y236000D03*
X544000Y236000D03*
X548000Y236000D03*
X552000Y236000D03*
X556000Y236000D03*
X560000Y236000D03*
X564000Y236000D03*
X568000Y236000D03*
X572000Y236000D03*
X592000Y236000D03*
X596000Y236000D03*
X600000Y236000D03*
X604000Y236000D03*
X608000Y236000D03*
X612000Y236000D03*
X616000Y236000D03*
X620000Y236000D03*
X624000Y236000D03*
X628000Y236000D03*
X648000Y236000D03*
X652000Y236000D03*
X656000Y236000D03*
X660000Y236000D03*
X664000Y236000D03*
X668000Y236000D03*
X672000Y236000D03*
X676000Y236000D03*
X680000Y236000D03*
X684000Y236000D03*
X704000Y236000D03*
X708000Y236000D03*
X712000Y236000D03*
X716000Y236000D03*
X720000Y236000D03*
X724000Y236000D03*
X728000Y236000D03*
X732000Y236000D03*
X736000Y236000D03*
X740000Y236000D03*
M02*
