G04 Performance test generated for WASM Gerber Viewer*
G04 Uses one aperture macro star and 10000 D03 flashes*
G04 Grid: 100 columns x 100 rows*
G04 Hierarchy: 10x10 stars, then 10x10 block grouping, then 10x10 group grouping when applicable*
G04 Star pitch: 0.04 mm, 10x10 block gap: 0.16 mm, 100x100 block gap: 0.80 mm*
%TF.GenerationSoftware,OpenAI,Codex,2026-05-15*%
%TF.FileFunction,Drawing,Top*%
%TF.Part,Single*%
%FSLAX35Y35*%
%MOMM*%
G75*
G01*
%LPD*%
G04 Aperture macro STARREG is a filled 10-vertex star outline*
%AMSTARREG*4,1,10,0.000000,0.018000,-0.004467,0.006149,-0.017119,0.005562,-0.007228,-0.002349,-0.010580,-0.014562,-0.000000,-0.007600,0.010580,-0.014562,0.007228,-0.002349,0.017119,0.005562,0.004467,0.006149,0.000000,0.018000,0*%
%ADD10STARREG*%
D10*
X200000Y200000D03*
X204000Y200000D03*
X208000Y200000D03*
X212000Y200000D03*
X216000Y200000D03*
X220000Y200000D03*
X224000Y200000D03*
X228000Y200000D03*
X232000Y200000D03*
X236000Y200000D03*
X256000Y200000D03*
X260000Y200000D03*
X264000Y200000D03*
X268000Y200000D03*
X272000Y200000D03*
X276000Y200000D03*
X280000Y200000D03*
X284000Y200000D03*
X288000Y200000D03*
X292000Y200000D03*
X312000Y200000D03*
X316000Y200000D03*
X320000Y200000D03*
X324000Y200000D03*
X328000Y200000D03*
X332000Y200000D03*
X336000Y200000D03*
X340000Y200000D03*
X344000Y200000D03*
X348000Y200000D03*
X368000Y200000D03*
X372000Y200000D03*
X376000Y200000D03*
X380000Y200000D03*
X384000Y200000D03*
X388000Y200000D03*
X392000Y200000D03*
X396000Y200000D03*
X400000Y200000D03*
X404000Y200000D03*
X424000Y200000D03*
X428000Y200000D03*
X432000Y200000D03*
X436000Y200000D03*
X440000Y200000D03*
X444000Y200000D03*
X448000Y200000D03*
X452000Y200000D03*
X456000Y200000D03*
X460000Y200000D03*
X480000Y200000D03*
X484000Y200000D03*
X488000Y200000D03*
X492000Y200000D03*
X496000Y200000D03*
X500000Y200000D03*
X504000Y200000D03*
X508000Y200000D03*
X512000Y200000D03*
X516000Y200000D03*
X536000Y200000D03*
X540000Y200000D03*
X544000Y200000D03*
X548000Y200000D03*
X552000Y200000D03*
X556000Y200000D03*
X560000Y200000D03*
X564000Y200000D03*
X568000Y200000D03*
X572000Y200000D03*
X592000Y200000D03*
X596000Y200000D03*
X600000Y200000D03*
X604000Y200000D03*
X608000Y200000D03*
X612000Y200000D03*
X616000Y200000D03*
X620000Y200000D03*
X624000Y200000D03*
X628000Y200000D03*
X648000Y200000D03*
X652000Y200000D03*
X656000Y200000D03*
X660000Y200000D03*
X664000Y200000D03*
X668000Y200000D03*
X672000Y200000D03*
X676000Y200000D03*
X680000Y200000D03*
X684000Y200000D03*
X704000Y200000D03*
X708000Y200000D03*
X712000Y200000D03*
X716000Y200000D03*
X720000Y200000D03*
X724000Y200000D03*
X728000Y200000D03*
X732000Y200000D03*
X736000Y200000D03*
X740000Y200000D03*
X200000Y204000D03*
X204000Y204000D03*
X208000Y204000D03*
X212000Y204000D03*
X216000Y204000D03*
X220000Y204000D03*
X224000Y204000D03*
X228000Y204000D03*
X232000Y204000D03*
X236000Y204000D03*
X256000Y204000D03*
X260000Y204000D03*
X264000Y204000D03*
X268000Y204000D03*
X272000Y204000D03*
X276000Y204000D03*
X280000Y204000D03*
X284000Y204000D03*
X288000Y204000D03*
X292000Y204000D03*
X312000Y204000D03*
X316000Y204000D03*
X320000Y204000D03*
X324000Y204000D03*
X328000Y204000D03*
X332000Y204000D03*
X336000Y204000D03*
X340000Y204000D03*
X344000Y204000D03*
X348000Y204000D03*
X368000Y204000D03*
X372000Y204000D03*
X376000Y204000D03*
X380000Y204000D03*
X384000Y204000D03*
X388000Y204000D03*
X392000Y204000D03*
X396000Y204000D03*
X400000Y204000D03*
X404000Y204000D03*
X424000Y204000D03*
X428000Y204000D03*
X432000Y204000D03*
X436000Y204000D03*
X440000Y204000D03*
X444000Y204000D03*
X448000Y204000D03*
X452000Y204000D03*
X456000Y204000D03*
X460000Y204000D03*
X480000Y204000D03*
X484000Y204000D03*
X488000Y204000D03*
X492000Y204000D03*
X496000Y204000D03*
X500000Y204000D03*
X504000Y204000D03*
X508000Y204000D03*
X512000Y204000D03*
X516000Y204000D03*
X536000Y204000D03*
X540000Y204000D03*
X544000Y204000D03*
X548000Y204000D03*
X552000Y204000D03*
X556000Y204000D03*
X560000Y204000D03*
X564000Y204000D03*
X568000Y204000D03*
X572000Y204000D03*
X592000Y204000D03*
X596000Y204000D03*
X600000Y204000D03*
X604000Y204000D03*
X608000Y204000D03*
X612000Y204000D03*
X616000Y204000D03*
X620000Y204000D03*
X624000Y204000D03*
X628000Y204000D03*
X648000Y204000D03*
X652000Y204000D03*
X656000Y204000D03*
X660000Y204000D03*
X664000Y204000D03*
X668000Y204000D03*
X672000Y204000D03*
X676000Y204000D03*
X680000Y204000D03*
X684000Y204000D03*
X704000Y204000D03*
X708000Y204000D03*
X712000Y204000D03*
X716000Y204000D03*
X720000Y204000D03*
X724000Y204000D03*
X728000Y204000D03*
X732000Y204000D03*
X736000Y204000D03*
X740000Y204000D03*
X200000Y208000D03*
X204000Y208000D03*
X208000Y208000D03*
X212000Y208000D03*
X216000Y208000D03*
X220000Y208000D03*
X224000Y208000D03*
X228000Y208000D03*
X232000Y208000D03*
X236000Y208000D03*
X256000Y208000D03*
X260000Y208000D03*
X264000Y208000D03*
X268000Y208000D03*
X272000Y208000D03*
X276000Y208000D03*
X280000Y208000D03*
X284000Y208000D03*
X288000Y208000D03*
X292000Y208000D03*
X312000Y208000D03*
X316000Y208000D03*
X320000Y208000D03*
X324000Y208000D03*
X328000Y208000D03*
X332000Y208000D03*
X336000Y208000D03*
X340000Y208000D03*
X344000Y208000D03*
X348000Y208000D03*
X368000Y208000D03*
X372000Y208000D03*
X376000Y208000D03*
X380000Y208000D03*
X384000Y208000D03*
X388000Y208000D03*
X392000Y208000D03*
X396000Y208000D03*
X400000Y208000D03*
X404000Y208000D03*
X424000Y208000D03*
X428000Y208000D03*
X432000Y208000D03*
X436000Y208000D03*
X440000Y208000D03*
X444000Y208000D03*
X448000Y208000D03*
X452000Y208000D03*
X456000Y208000D03*
X460000Y208000D03*
X480000Y208000D03*
X484000Y208000D03*
X488000Y208000D03*
X492000Y208000D03*
X496000Y208000D03*
X500000Y208000D03*
X504000Y208000D03*
X508000Y208000D03*
X512000Y208000D03*
X516000Y208000D03*
X536000Y208000D03*
X540000Y208000D03*
X544000Y208000D03*
X548000Y208000D03*
X552000Y208000D03*
X556000Y208000D03*
X560000Y208000D03*
X564000Y208000D03*
X568000Y208000D03*
X572000Y208000D03*
X592000Y208000D03*
X596000Y208000D03*
X600000Y208000D03*
X604000Y208000D03*
X608000Y208000D03*
X612000Y208000D03*
X616000Y208000D03*
X620000Y208000D03*
X624000Y208000D03*
X628000Y208000D03*
X648000Y208000D03*
X652000Y208000D03*
X656000Y208000D03*
X660000Y208000D03*
X664000Y208000D03*
X668000Y208000D03*
X672000Y208000D03*
X676000Y208000D03*
X680000Y208000D03*
X684000Y208000D03*
X704000Y208000D03*
X708000Y208000D03*
X712000Y208000D03*
X716000Y208000D03*
X720000Y208000D03*
X724000Y208000D03*
X728000Y208000D03*
X732000Y208000D03*
X736000Y208000D03*
X740000Y208000D03*
X200000Y212000D03*
X204000Y212000D03*
X208000Y212000D03*
X212000Y212000D03*
X216000Y212000D03*
X220000Y212000D03*
X224000Y212000D03*
X228000Y212000D03*
X232000Y212000D03*
X236000Y212000D03*
X256000Y212000D03*
X260000Y212000D03*
X264000Y212000D03*
X268000Y212000D03*
X272000Y212000D03*
X276000Y212000D03*
X280000Y212000D03*
X284000Y212000D03*
X288000Y212000D03*
X292000Y212000D03*
X312000Y212000D03*
X316000Y212000D03*
X320000Y212000D03*
X324000Y212000D03*
X328000Y212000D03*
X332000Y212000D03*
X336000Y212000D03*
X340000Y212000D03*
X344000Y212000D03*
X348000Y212000D03*
X368000Y212000D03*
X372000Y212000D03*
X376000Y212000D03*
X380000Y212000D03*
X384000Y212000D03*
X388000Y212000D03*
X392000Y212000D03*
X396000Y212000D03*
X400000Y212000D03*
X404000Y212000D03*
X424000Y212000D03*
X428000Y212000D03*
X432000Y212000D03*
X436000Y212000D03*
X440000Y212000D03*
X444000Y212000D03*
X448000Y212000D03*
X452000Y212000D03*
X456000Y212000D03*
X460000Y212000D03*
X480000Y212000D03*
X484000Y212000D03*
X488000Y212000D03*
X492000Y212000D03*
X496000Y212000D03*
X500000Y212000D03*
X504000Y212000D03*
X508000Y212000D03*
X512000Y212000D03*
X516000Y212000D03*
X536000Y212000D03*
X540000Y212000D03*
X544000Y212000D03*
X548000Y212000D03*
X552000Y212000D03*
X556000Y212000D03*
X560000Y212000D03*
X564000Y212000D03*
X568000Y212000D03*
X572000Y212000D03*
X592000Y212000D03*
X596000Y212000D03*
X600000Y212000D03*
X604000Y212000D03*
X608000Y212000D03*
X612000Y212000D03*
X616000Y212000D03*
X620000Y212000D03*
X624000Y212000D03*
X628000Y212000D03*
X648000Y212000D03*
X652000Y212000D03*
X656000Y212000D03*
X660000Y212000D03*
X664000Y212000D03*
X668000Y212000D03*
X672000Y212000D03*
X676000Y212000D03*
X680000Y212000D03*
X684000Y212000D03*
X704000Y212000D03*
X708000Y212000D03*
X712000Y212000D03*
X716000Y212000D03*
X720000Y212000D03*
X724000Y212000D03*
X728000Y212000D03*
X732000Y212000D03*
X736000Y212000D03*
X740000Y212000D03*
X200000Y216000D03*
X204000Y216000D03*
X208000Y216000D03*
X212000Y216000D03*
X216000Y216000D03*
X220000Y216000D03*
X224000Y216000D03*
X228000Y216000D03*
X232000Y216000D03*
X236000Y216000D03*
X256000Y216000D03*
X260000Y216000D03*
X264000Y216000D03*
X268000Y216000D03*
X272000Y216000D03*
X276000Y216000D03*
X280000Y216000D03*
X284000Y216000D03*
X288000Y216000D03*
X292000Y216000D03*
X312000Y216000D03*
X316000Y216000D03*
X320000Y216000D03*
X324000Y216000D03*
X328000Y216000D03*
X332000Y216000D03*
X336000Y216000D03*
X340000Y216000D03*
X344000Y216000D03*
X348000Y216000D03*
X368000Y216000D03*
X372000Y216000D03*
X376000Y216000D03*
X380000Y216000D03*
X384000Y216000D03*
X388000Y216000D03*
X392000Y216000D03*
X396000Y216000D03*
X400000Y216000D03*
X404000Y216000D03*
X424000Y216000D03*
X428000Y216000D03*
X432000Y216000D03*
X436000Y216000D03*
X440000Y216000D03*
X444000Y216000D03*
X448000Y216000D03*
X452000Y216000D03*
X456000Y216000D03*
X460000Y216000D03*
X480000Y216000D03*
X484000Y216000D03*
X488000Y216000D03*
X492000Y216000D03*
X496000Y216000D03*
X500000Y216000D03*
X504000Y216000D03*
X508000Y216000D03*
X512000Y216000D03*
X516000Y216000D03*
X536000Y216000D03*
X540000Y216000D03*
X544000Y216000D03*
X548000Y216000D03*
X552000Y216000D03*
X556000Y216000D03*
X560000Y216000D03*
X564000Y216000D03*
X568000Y216000D03*
X572000Y216000D03*
X592000Y216000D03*
X596000Y216000D03*
X600000Y216000D03*
X604000Y216000D03*
X608000Y216000D03*
X612000Y216000D03*
X616000Y216000D03*
X620000Y216000D03*
X624000Y216000D03*
X628000Y216000D03*
X648000Y216000D03*
X652000Y216000D03*
X656000Y216000D03*
X660000Y216000D03*
X664000Y216000D03*
X668000Y216000D03*
X672000Y216000D03*
X676000Y216000D03*
X680000Y216000D03*
X684000Y216000D03*
X704000Y216000D03*
X708000Y216000D03*
X712000Y216000D03*
X716000Y216000D03*
X720000Y216000D03*
X724000Y216000D03*
X728000Y216000D03*
X732000Y216000D03*
X736000Y216000D03*
X740000Y216000D03*
X200000Y220000D03*
X204000Y220000D03*
X208000Y220000D03*
X212000Y220000D03*
X216000Y220000D03*
X220000Y220000D03*
X224000Y220000D03*
X228000Y220000D03*
X232000Y220000D03*
X236000Y220000D03*
X256000Y220000D03*
X260000Y220000D03*
X264000Y220000D03*
X268000Y220000D03*
X272000Y220000D03*
X276000Y220000D03*
X280000Y220000D03*
X284000Y220000D03*
X288000Y220000D03*
X292000Y220000D03*
X312000Y220000D03*
X316000Y220000D03*
X320000Y220000D03*
X324000Y220000D03*
X328000Y220000D03*
X332000Y220000D03*
X336000Y220000D03*
X340000Y220000D03*
X344000Y220000D03*
X348000Y220000D03*
X368000Y220000D03*
X372000Y220000D03*
X376000Y220000D03*
X380000Y220000D03*
X384000Y220000D03*
X388000Y220000D03*
X392000Y220000D03*
X396000Y220000D03*
X400000Y220000D03*
X404000Y220000D03*
X424000Y220000D03*
X428000Y220000D03*
X432000Y220000D03*
X436000Y220000D03*
X440000Y220000D03*
X444000Y220000D03*
X448000Y220000D03*
X452000Y220000D03*
X456000Y220000D03*
X460000Y220000D03*
X480000Y220000D03*
X484000Y220000D03*
X488000Y220000D03*
X492000Y220000D03*
X496000Y220000D03*
X500000Y220000D03*
X504000Y220000D03*
X508000Y220000D03*
X512000Y220000D03*
X516000Y220000D03*
X536000Y220000D03*
X540000Y220000D03*
X544000Y220000D03*
X548000Y220000D03*
X552000Y220000D03*
X556000Y220000D03*
X560000Y220000D03*
X564000Y220000D03*
X568000Y220000D03*
X572000Y220000D03*
X592000Y220000D03*
X596000Y220000D03*
X600000Y220000D03*
X604000Y220000D03*
X608000Y220000D03*
X612000Y220000D03*
X616000Y220000D03*
X620000Y220000D03*
X624000Y220000D03*
X628000Y220000D03*
X648000Y220000D03*
X652000Y220000D03*
X656000Y220000D03*
X660000Y220000D03*
X664000Y220000D03*
X668000Y220000D03*
X672000Y220000D03*
X676000Y220000D03*
X680000Y220000D03*
X684000Y220000D03*
X704000Y220000D03*
X708000Y220000D03*
X712000Y220000D03*
X716000Y220000D03*
X720000Y220000D03*
X724000Y220000D03*
X728000Y220000D03*
X732000Y220000D03*
X736000Y220000D03*
X740000Y220000D03*
X200000Y224000D03*
X204000Y224000D03*
X208000Y224000D03*
X212000Y224000D03*
X216000Y224000D03*
X220000Y224000D03*
X224000Y224000D03*
X228000Y224000D03*
X232000Y224000D03*
X236000Y224000D03*
X256000Y224000D03*
X260000Y224000D03*
X264000Y224000D03*
X268000Y224000D03*
X272000Y224000D03*
X276000Y224000D03*
X280000Y224000D03*
X284000Y224000D03*
X288000Y224000D03*
X292000Y224000D03*
X312000Y224000D03*
X316000Y224000D03*
X320000Y224000D03*
X324000Y224000D03*
X328000Y224000D03*
X332000Y224000D03*
X336000Y224000D03*
X340000Y224000D03*
X344000Y224000D03*
X348000Y224000D03*
X368000Y224000D03*
X372000Y224000D03*
X376000Y224000D03*
X380000Y224000D03*
X384000Y224000D03*
X388000Y224000D03*
X392000Y224000D03*
X396000Y224000D03*
X400000Y224000D03*
X404000Y224000D03*
X424000Y224000D03*
X428000Y224000D03*
X432000Y224000D03*
X436000Y224000D03*
X440000Y224000D03*
X444000Y224000D03*
X448000Y224000D03*
X452000Y224000D03*
X456000Y224000D03*
X460000Y224000D03*
X480000Y224000D03*
X484000Y224000D03*
X488000Y224000D03*
X492000Y224000D03*
X496000Y224000D03*
X500000Y224000D03*
X504000Y224000D03*
X508000Y224000D03*
X512000Y224000D03*
X516000Y224000D03*
X536000Y224000D03*
X540000Y224000D03*
X544000Y224000D03*
X548000Y224000D03*
X552000Y224000D03*
X556000Y224000D03*
X560000Y224000D03*
X564000Y224000D03*
X568000Y224000D03*
X572000Y224000D03*
X592000Y224000D03*
X596000Y224000D03*
X600000Y224000D03*
X604000Y224000D03*
X608000Y224000D03*
X612000Y224000D03*
X616000Y224000D03*
X620000Y224000D03*
X624000Y224000D03*
X628000Y224000D03*
X648000Y224000D03*
X652000Y224000D03*
X656000Y224000D03*
X660000Y224000D03*
X664000Y224000D03*
X668000Y224000D03*
X672000Y224000D03*
X676000Y224000D03*
X680000Y224000D03*
X684000Y224000D03*
X704000Y224000D03*
X708000Y224000D03*
X712000Y224000D03*
X716000Y224000D03*
X720000Y224000D03*
X724000Y224000D03*
X728000Y224000D03*
X732000Y224000D03*
X736000Y224000D03*
X740000Y224000D03*
X200000Y228000D03*
X204000Y228000D03*
X208000Y228000D03*
X212000Y228000D03*
X216000Y228000D03*
X220000Y228000D03*
X224000Y228000D03*
X228000Y228000D03*
X232000Y228000D03*
X236000Y228000D03*
X256000Y228000D03*
X260000Y228000D03*
X264000Y228000D03*
X268000Y228000D03*
X272000Y228000D03*
X276000Y228000D03*
X280000Y228000D03*
X284000Y228000D03*
X288000Y228000D03*
X292000Y228000D03*
X312000Y228000D03*
X316000Y228000D03*
X320000Y228000D03*
X324000Y228000D03*
X328000Y228000D03*
X332000Y228000D03*
X336000Y228000D03*
X340000Y228000D03*
X344000Y228000D03*
X348000Y228000D03*
X368000Y228000D03*
X372000Y228000D03*
X376000Y228000D03*
X380000Y228000D03*
X384000Y228000D03*
X388000Y228000D03*
X392000Y228000D03*
X396000Y228000D03*
X400000Y228000D03*
X404000Y228000D03*
X424000Y228000D03*
X428000Y228000D03*
X432000Y228000D03*
X436000Y228000D03*
X440000Y228000D03*
X444000Y228000D03*
X448000Y228000D03*
X452000Y228000D03*
X456000Y228000D03*
X460000Y228000D03*
X480000Y228000D03*
X484000Y228000D03*
X488000Y228000D03*
X492000Y228000D03*
X496000Y228000D03*
X500000Y228000D03*
X504000Y228000D03*
X508000Y228000D03*
X512000Y228000D03*
X516000Y228000D03*
X536000Y228000D03*
X540000Y228000D03*
X544000Y228000D03*
X548000Y228000D03*
X552000Y228000D03*
X556000Y228000D03*
X560000Y228000D03*
X564000Y228000D03*
X568000Y228000D03*
X572000Y228000D03*
X592000Y228000D03*
X596000Y228000D03*
X600000Y228000D03*
X604000Y228000D03*
X608000Y228000D03*
X612000Y228000D03*
X616000Y228000D03*
X620000Y228000D03*
X624000Y228000D03*
X628000Y228000D03*
X648000Y228000D03*
X652000Y228000D03*
X656000Y228000D03*
X660000Y228000D03*
X664000Y228000D03*
X668000Y228000D03*
X672000Y228000D03*
X676000Y228000D03*
X680000Y228000D03*
X684000Y228000D03*
X704000Y228000D03*
X708000Y228000D03*
X712000Y228000D03*
X716000Y228000D03*
X720000Y228000D03*
X724000Y228000D03*
X728000Y228000D03*
X732000Y228000D03*
X736000Y228000D03*
X740000Y228000D03*
X200000Y232000D03*
X204000Y232000D03*
X208000Y232000D03*
X212000Y232000D03*
X216000Y232000D03*
X220000Y232000D03*
X224000Y232000D03*
X228000Y232000D03*
X232000Y232000D03*
X236000Y232000D03*
X256000Y232000D03*
X260000Y232000D03*
X264000Y232000D03*
X268000Y232000D03*
X272000Y232000D03*
X276000Y232000D03*
X280000Y232000D03*
X284000Y232000D03*
X288000Y232000D03*
X292000Y232000D03*
X312000Y232000D03*
X316000Y232000D03*
X320000Y232000D03*
X324000Y232000D03*
X328000Y232000D03*
X332000Y232000D03*
X336000Y232000D03*
X340000Y232000D03*
X344000Y232000D03*
X348000Y232000D03*
X368000Y232000D03*
X372000Y232000D03*
X376000Y232000D03*
X380000Y232000D03*
X384000Y232000D03*
X388000Y232000D03*
X392000Y232000D03*
X396000Y232000D03*
X400000Y232000D03*
X404000Y232000D03*
X424000Y232000D03*
X428000Y232000D03*
X432000Y232000D03*
X436000Y232000D03*
X440000Y232000D03*
X444000Y232000D03*
X448000Y232000D03*
X452000Y232000D03*
X456000Y232000D03*
X460000Y232000D03*
X480000Y232000D03*
X484000Y232000D03*
X488000Y232000D03*
X492000Y232000D03*
X496000Y232000D03*
X500000Y232000D03*
X504000Y232000D03*
X508000Y232000D03*
X512000Y232000D03*
X516000Y232000D03*
X536000Y232000D03*
X540000Y232000D03*
X544000Y232000D03*
X548000Y232000D03*
X552000Y232000D03*
X556000Y232000D03*
X560000Y232000D03*
X564000Y232000D03*
X568000Y232000D03*
X572000Y232000D03*
X592000Y232000D03*
X596000Y232000D03*
X600000Y232000D03*
X604000Y232000D03*
X608000Y232000D03*
X612000Y232000D03*
X616000Y232000D03*
X620000Y232000D03*
X624000Y232000D03*
X628000Y232000D03*
X648000Y232000D03*
X652000Y232000D03*
X656000Y232000D03*
X660000Y232000D03*
X664000Y232000D03*
X668000Y232000D03*
X672000Y232000D03*
X676000Y232000D03*
X680000Y232000D03*
X684000Y232000D03*
X704000Y232000D03*
X708000Y232000D03*
X712000Y232000D03*
X716000Y232000D03*
X720000Y232000D03*
X724000Y232000D03*
X728000Y232000D03*
X732000Y232000D03*
X736000Y232000D03*
X740000Y232000D03*
X200000Y236000D03*
X204000Y236000D03*
X208000Y236000D03*
X212000Y236000D03*
X216000Y236000D03*
X220000Y236000D03*
X224000Y236000D03*
X228000Y236000D03*
X232000Y236000D03*
X236000Y236000D03*
X256000Y236000D03*
X260000Y236000D03*
X264000Y236000D03*
X268000Y236000D03*
X272000Y236000D03*
X276000Y236000D03*
X280000Y236000D03*
X284000Y236000D03*
X288000Y236000D03*
X292000Y236000D03*
X312000Y236000D03*
X316000Y236000D03*
X320000Y236000D03*
X324000Y236000D03*
X328000Y236000D03*
X332000Y236000D03*
X336000Y236000D03*
X340000Y236000D03*
X344000Y236000D03*
X348000Y236000D03*
X368000Y236000D03*
X372000Y236000D03*
X376000Y236000D03*
X380000Y236000D03*
X384000Y236000D03*
X388000Y236000D03*
X392000Y236000D03*
X396000Y236000D03*
X400000Y236000D03*
X404000Y236000D03*
X424000Y236000D03*
X428000Y236000D03*
X432000Y236000D03*
X436000Y236000D03*
X440000Y236000D03*
X444000Y236000D03*
X448000Y236000D03*
X452000Y236000D03*
X456000Y236000D03*
X460000Y236000D03*
X480000Y236000D03*
X484000Y236000D03*
X488000Y236000D03*
X492000Y236000D03*
X496000Y236000D03*
X500000Y236000D03*
X504000Y236000D03*
X508000Y236000D03*
X512000Y236000D03*
X516000Y236000D03*
X536000Y236000D03*
X540000Y236000D03*
X544000Y236000D03*
X548000Y236000D03*
X552000Y236000D03*
X556000Y236000D03*
X560000Y236000D03*
X564000Y236000D03*
X568000Y236000D03*
X572000Y236000D03*
X592000Y236000D03*
X596000Y236000D03*
X600000Y236000D03*
X604000Y236000D03*
X608000Y236000D03*
X612000Y236000D03*
X616000Y236000D03*
X620000Y236000D03*
X624000Y236000D03*
X628000Y236000D03*
X648000Y236000D03*
X652000Y236000D03*
X656000Y236000D03*
X660000Y236000D03*
X664000Y236000D03*
X668000Y236000D03*
X672000Y236000D03*
X676000Y236000D03*
X680000Y236000D03*
X684000Y236000D03*
X704000Y236000D03*
X708000Y236000D03*
X712000Y236000D03*
X716000Y236000D03*
X720000Y236000D03*
X724000Y236000D03*
X728000Y236000D03*
X732000Y236000D03*
X736000Y236000D03*
X740000Y236000D03*
X200000Y256000D03*
X204000Y256000D03*
X208000Y256000D03*
X212000Y256000D03*
X216000Y256000D03*
X220000Y256000D03*
X224000Y256000D03*
X228000Y256000D03*
X232000Y256000D03*
X236000Y256000D03*
X256000Y256000D03*
X260000Y256000D03*
X264000Y256000D03*
X268000Y256000D03*
X272000Y256000D03*
X276000Y256000D03*
X280000Y256000D03*
X284000Y256000D03*
X288000Y256000D03*
X292000Y256000D03*
X312000Y256000D03*
X316000Y256000D03*
X320000Y256000D03*
X324000Y256000D03*
X328000Y256000D03*
X332000Y256000D03*
X336000Y256000D03*
X340000Y256000D03*
X344000Y256000D03*
X348000Y256000D03*
X368000Y256000D03*
X372000Y256000D03*
X376000Y256000D03*
X380000Y256000D03*
X384000Y256000D03*
X388000Y256000D03*
X392000Y256000D03*
X396000Y256000D03*
X400000Y256000D03*
X404000Y256000D03*
X424000Y256000D03*
X428000Y256000D03*
X432000Y256000D03*
X436000Y256000D03*
X440000Y256000D03*
X444000Y256000D03*
X448000Y256000D03*
X452000Y256000D03*
X456000Y256000D03*
X460000Y256000D03*
X480000Y256000D03*
X484000Y256000D03*
X488000Y256000D03*
X492000Y256000D03*
X496000Y256000D03*
X500000Y256000D03*
X504000Y256000D03*
X508000Y256000D03*
X512000Y256000D03*
X516000Y256000D03*
X536000Y256000D03*
X540000Y256000D03*
X544000Y256000D03*
X548000Y256000D03*
X552000Y256000D03*
X556000Y256000D03*
X560000Y256000D03*
X564000Y256000D03*
X568000Y256000D03*
X572000Y256000D03*
X592000Y256000D03*
X596000Y256000D03*
X600000Y256000D03*
X604000Y256000D03*
X608000Y256000D03*
X612000Y256000D03*
X616000Y256000D03*
X620000Y256000D03*
X624000Y256000D03*
X628000Y256000D03*
X648000Y256000D03*
X652000Y256000D03*
X656000Y256000D03*
X660000Y256000D03*
X664000Y256000D03*
X668000Y256000D03*
X672000Y256000D03*
X676000Y256000D03*
X680000Y256000D03*
X684000Y256000D03*
X704000Y256000D03*
X708000Y256000D03*
X712000Y256000D03*
X716000Y256000D03*
X720000Y256000D03*
X724000Y256000D03*
X728000Y256000D03*
X732000Y256000D03*
X736000Y256000D03*
X740000Y256000D03*
X200000Y260000D03*
X204000Y260000D03*
X208000Y260000D03*
X212000Y260000D03*
X216000Y260000D03*
X220000Y260000D03*
X224000Y260000D03*
X228000Y260000D03*
X232000Y260000D03*
X236000Y260000D03*
X256000Y260000D03*
X260000Y260000D03*
X264000Y260000D03*
X268000Y260000D03*
X272000Y260000D03*
X276000Y260000D03*
X280000Y260000D03*
X284000Y260000D03*
X288000Y260000D03*
X292000Y260000D03*
X312000Y260000D03*
X316000Y260000D03*
X320000Y260000D03*
X324000Y260000D03*
X328000Y260000D03*
X332000Y260000D03*
X336000Y260000D03*
X340000Y260000D03*
X344000Y260000D03*
X348000Y260000D03*
X368000Y260000D03*
X372000Y260000D03*
X376000Y260000D03*
X380000Y260000D03*
X384000Y260000D03*
X388000Y260000D03*
X392000Y260000D03*
X396000Y260000D03*
X400000Y260000D03*
X404000Y260000D03*
X424000Y260000D03*
X428000Y260000D03*
X432000Y260000D03*
X436000Y260000D03*
X440000Y260000D03*
X444000Y260000D03*
X448000Y260000D03*
X452000Y260000D03*
X456000Y260000D03*
X460000Y260000D03*
X480000Y260000D03*
X484000Y260000D03*
X488000Y260000D03*
X492000Y260000D03*
X496000Y260000D03*
X500000Y260000D03*
X504000Y260000D03*
X508000Y260000D03*
X512000Y260000D03*
X516000Y260000D03*
X536000Y260000D03*
X540000Y260000D03*
X544000Y260000D03*
X548000Y260000D03*
X552000Y260000D03*
X556000Y260000D03*
X560000Y260000D03*
X564000Y260000D03*
X568000Y260000D03*
X572000Y260000D03*
X592000Y260000D03*
X596000Y260000D03*
X600000Y260000D03*
X604000Y260000D03*
X608000Y260000D03*
X612000Y260000D03*
X616000Y260000D03*
X620000Y260000D03*
X624000Y260000D03*
X628000Y260000D03*
X648000Y260000D03*
X652000Y260000D03*
X656000Y260000D03*
X660000Y260000D03*
X664000Y260000D03*
X668000Y260000D03*
X672000Y260000D03*
X676000Y260000D03*
X680000Y260000D03*
X684000Y260000D03*
X704000Y260000D03*
X708000Y260000D03*
X712000Y260000D03*
X716000Y260000D03*
X720000Y260000D03*
X724000Y260000D03*
X728000Y260000D03*
X732000Y260000D03*
X736000Y260000D03*
X740000Y260000D03*
X200000Y264000D03*
X204000Y264000D03*
X208000Y264000D03*
X212000Y264000D03*
X216000Y264000D03*
X220000Y264000D03*
X224000Y264000D03*
X228000Y264000D03*
X232000Y264000D03*
X236000Y264000D03*
X256000Y264000D03*
X260000Y264000D03*
X264000Y264000D03*
X268000Y264000D03*
X272000Y264000D03*
X276000Y264000D03*
X280000Y264000D03*
X284000Y264000D03*
X288000Y264000D03*
X292000Y264000D03*
X312000Y264000D03*
X316000Y264000D03*
X320000Y264000D03*
X324000Y264000D03*
X328000Y264000D03*
X332000Y264000D03*
X336000Y264000D03*
X340000Y264000D03*
X344000Y264000D03*
X348000Y264000D03*
X368000Y264000D03*
X372000Y264000D03*
X376000Y264000D03*
X380000Y264000D03*
X384000Y264000D03*
X388000Y264000D03*
X392000Y264000D03*
X396000Y264000D03*
X400000Y264000D03*
X404000Y264000D03*
X424000Y264000D03*
X428000Y264000D03*
X432000Y264000D03*
X436000Y264000D03*
X440000Y264000D03*
X444000Y264000D03*
X448000Y264000D03*
X452000Y264000D03*
X456000Y264000D03*
X460000Y264000D03*
X480000Y264000D03*
X484000Y264000D03*
X488000Y264000D03*
X492000Y264000D03*
X496000Y264000D03*
X500000Y264000D03*
X504000Y264000D03*
X508000Y264000D03*
X512000Y264000D03*
X516000Y264000D03*
X536000Y264000D03*
X540000Y264000D03*
X544000Y264000D03*
X548000Y264000D03*
X552000Y264000D03*
X556000Y264000D03*
X560000Y264000D03*
X564000Y264000D03*
X568000Y264000D03*
X572000Y264000D03*
X592000Y264000D03*
X596000Y264000D03*
X600000Y264000D03*
X604000Y264000D03*
X608000Y264000D03*
X612000Y264000D03*
X616000Y264000D03*
X620000Y264000D03*
X624000Y264000D03*
X628000Y264000D03*
X648000Y264000D03*
X652000Y264000D03*
X656000Y264000D03*
X660000Y264000D03*
X664000Y264000D03*
X668000Y264000D03*
X672000Y264000D03*
X676000Y264000D03*
X680000Y264000D03*
X684000Y264000D03*
X704000Y264000D03*
X708000Y264000D03*
X712000Y264000D03*
X716000Y264000D03*
X720000Y264000D03*
X724000Y264000D03*
X728000Y264000D03*
X732000Y264000D03*
X736000Y264000D03*
X740000Y264000D03*
X200000Y268000D03*
X204000Y268000D03*
X208000Y268000D03*
X212000Y268000D03*
X216000Y268000D03*
X220000Y268000D03*
X224000Y268000D03*
X228000Y268000D03*
X232000Y268000D03*
X236000Y268000D03*
X256000Y268000D03*
X260000Y268000D03*
X264000Y268000D03*
X268000Y268000D03*
X272000Y268000D03*
X276000Y268000D03*
X280000Y268000D03*
X284000Y268000D03*
X288000Y268000D03*
X292000Y268000D03*
X312000Y268000D03*
X316000Y268000D03*
X320000Y268000D03*
X324000Y268000D03*
X328000Y268000D03*
X332000Y268000D03*
X336000Y268000D03*
X340000Y268000D03*
X344000Y268000D03*
X348000Y268000D03*
X368000Y268000D03*
X372000Y268000D03*
X376000Y268000D03*
X380000Y268000D03*
X384000Y268000D03*
X388000Y268000D03*
X392000Y268000D03*
X396000Y268000D03*
X400000Y268000D03*
X404000Y268000D03*
X424000Y268000D03*
X428000Y268000D03*
X432000Y268000D03*
X436000Y268000D03*
X440000Y268000D03*
X444000Y268000D03*
X448000Y268000D03*
X452000Y268000D03*
X456000Y268000D03*
X460000Y268000D03*
X480000Y268000D03*
X484000Y268000D03*
X488000Y268000D03*
X492000Y268000D03*
X496000Y268000D03*
X500000Y268000D03*
X504000Y268000D03*
X508000Y268000D03*
X512000Y268000D03*
X516000Y268000D03*
X536000Y268000D03*
X540000Y268000D03*
X544000Y268000D03*
X548000Y268000D03*
X552000Y268000D03*
X556000Y268000D03*
X560000Y268000D03*
X564000Y268000D03*
X568000Y268000D03*
X572000Y268000D03*
X592000Y268000D03*
X596000Y268000D03*
X600000Y268000D03*
X604000Y268000D03*
X608000Y268000D03*
X612000Y268000D03*
X616000Y268000D03*
X620000Y268000D03*
X624000Y268000D03*
X628000Y268000D03*
X648000Y268000D03*
X652000Y268000D03*
X656000Y268000D03*
X660000Y268000D03*
X664000Y268000D03*
X668000Y268000D03*
X672000Y268000D03*
X676000Y268000D03*
X680000Y268000D03*
X684000Y268000D03*
X704000Y268000D03*
X708000Y268000D03*
X712000Y268000D03*
X716000Y268000D03*
X720000Y268000D03*
X724000Y268000D03*
X728000Y268000D03*
X732000Y268000D03*
X736000Y268000D03*
X740000Y268000D03*
X200000Y272000D03*
X204000Y272000D03*
X208000Y272000D03*
X212000Y272000D03*
X216000Y272000D03*
X220000Y272000D03*
X224000Y272000D03*
X228000Y272000D03*
X232000Y272000D03*
X236000Y272000D03*
X256000Y272000D03*
X260000Y272000D03*
X264000Y272000D03*
X268000Y272000D03*
X272000Y272000D03*
X276000Y272000D03*
X280000Y272000D03*
X284000Y272000D03*
X288000Y272000D03*
X292000Y272000D03*
X312000Y272000D03*
X316000Y272000D03*
X320000Y272000D03*
X324000Y272000D03*
X328000Y272000D03*
X332000Y272000D03*
X336000Y272000D03*
X340000Y272000D03*
X344000Y272000D03*
X348000Y272000D03*
X368000Y272000D03*
X372000Y272000D03*
X376000Y272000D03*
X380000Y272000D03*
X384000Y272000D03*
X388000Y272000D03*
X392000Y272000D03*
X396000Y272000D03*
X400000Y272000D03*
X404000Y272000D03*
X424000Y272000D03*
X428000Y272000D03*
X432000Y272000D03*
X436000Y272000D03*
X440000Y272000D03*
X444000Y272000D03*
X448000Y272000D03*
X452000Y272000D03*
X456000Y272000D03*
X460000Y272000D03*
X480000Y272000D03*
X484000Y272000D03*
X488000Y272000D03*
X492000Y272000D03*
X496000Y272000D03*
X500000Y272000D03*
X504000Y272000D03*
X508000Y272000D03*
X512000Y272000D03*
X516000Y272000D03*
X536000Y272000D03*
X540000Y272000D03*
X544000Y272000D03*
X548000Y272000D03*
X552000Y272000D03*
X556000Y272000D03*
X560000Y272000D03*
X564000Y272000D03*
X568000Y272000D03*
X572000Y272000D03*
X592000Y272000D03*
X596000Y272000D03*
X600000Y272000D03*
X604000Y272000D03*
X608000Y272000D03*
X612000Y272000D03*
X616000Y272000D03*
X620000Y272000D03*
X624000Y272000D03*
X628000Y272000D03*
X648000Y272000D03*
X652000Y272000D03*
X656000Y272000D03*
X660000Y272000D03*
X664000Y272000D03*
X668000Y272000D03*
X672000Y272000D03*
X676000Y272000D03*
X680000Y272000D03*
X684000Y272000D03*
X704000Y272000D03*
X708000Y272000D03*
X712000Y272000D03*
X716000Y272000D03*
X720000Y272000D03*
X724000Y272000D03*
X728000Y272000D03*
X732000Y272000D03*
X736000Y272000D03*
X740000Y272000D03*
X200000Y276000D03*
X204000Y276000D03*
X208000Y276000D03*
X212000Y276000D03*
X216000Y276000D03*
X220000Y276000D03*
X224000Y276000D03*
X228000Y276000D03*
X232000Y276000D03*
X236000Y276000D03*
X256000Y276000D03*
X260000Y276000D03*
X264000Y276000D03*
X268000Y276000D03*
X272000Y276000D03*
X276000Y276000D03*
X280000Y276000D03*
X284000Y276000D03*
X288000Y276000D03*
X292000Y276000D03*
X312000Y276000D03*
X316000Y276000D03*
X320000Y276000D03*
X324000Y276000D03*
X328000Y276000D03*
X332000Y276000D03*
X336000Y276000D03*
X340000Y276000D03*
X344000Y276000D03*
X348000Y276000D03*
X368000Y276000D03*
X372000Y276000D03*
X376000Y276000D03*
X380000Y276000D03*
X384000Y276000D03*
X388000Y276000D03*
X392000Y276000D03*
X396000Y276000D03*
X400000Y276000D03*
X404000Y276000D03*
X424000Y276000D03*
X428000Y276000D03*
X432000Y276000D03*
X436000Y276000D03*
X440000Y276000D03*
X444000Y276000D03*
X448000Y276000D03*
X452000Y276000D03*
X456000Y276000D03*
X460000Y276000D03*
X480000Y276000D03*
X484000Y276000D03*
X488000Y276000D03*
X492000Y276000D03*
X496000Y276000D03*
X500000Y276000D03*
X504000Y276000D03*
X508000Y276000D03*
X512000Y276000D03*
X516000Y276000D03*
X536000Y276000D03*
X540000Y276000D03*
X544000Y276000D03*
X548000Y276000D03*
X552000Y276000D03*
X556000Y276000D03*
X560000Y276000D03*
X564000Y276000D03*
X568000Y276000D03*
X572000Y276000D03*
X592000Y276000D03*
X596000Y276000D03*
X600000Y276000D03*
X604000Y276000D03*
X608000Y276000D03*
X612000Y276000D03*
X616000Y276000D03*
X620000Y276000D03*
X624000Y276000D03*
X628000Y276000D03*
X648000Y276000D03*
X652000Y276000D03*
X656000Y276000D03*
X660000Y276000D03*
X664000Y276000D03*
X668000Y276000D03*
X672000Y276000D03*
X676000Y276000D03*
X680000Y276000D03*
X684000Y276000D03*
X704000Y276000D03*
X708000Y276000D03*
X712000Y276000D03*
X716000Y276000D03*
X720000Y276000D03*
X724000Y276000D03*
X728000Y276000D03*
X732000Y276000D03*
X736000Y276000D03*
X740000Y276000D03*
X200000Y280000D03*
X204000Y280000D03*
X208000Y280000D03*
X212000Y280000D03*
X216000Y280000D03*
X220000Y280000D03*
X224000Y280000D03*
X228000Y280000D03*
X232000Y280000D03*
X236000Y280000D03*
X256000Y280000D03*
X260000Y280000D03*
X264000Y280000D03*
X268000Y280000D03*
X272000Y280000D03*
X276000Y280000D03*
X280000Y280000D03*
X284000Y280000D03*
X288000Y280000D03*
X292000Y280000D03*
X312000Y280000D03*
X316000Y280000D03*
X320000Y280000D03*
X324000Y280000D03*
X328000Y280000D03*
X332000Y280000D03*
X336000Y280000D03*
X340000Y280000D03*
X344000Y280000D03*
X348000Y280000D03*
X368000Y280000D03*
X372000Y280000D03*
X376000Y280000D03*
X380000Y280000D03*
X384000Y280000D03*
X388000Y280000D03*
X392000Y280000D03*
X396000Y280000D03*
X400000Y280000D03*
X404000Y280000D03*
X424000Y280000D03*
X428000Y280000D03*
X432000Y280000D03*
X436000Y280000D03*
X440000Y280000D03*
X444000Y280000D03*
X448000Y280000D03*
X452000Y280000D03*
X456000Y280000D03*
X460000Y280000D03*
X480000Y280000D03*
X484000Y280000D03*
X488000Y280000D03*
X492000Y280000D03*
X496000Y280000D03*
X500000Y280000D03*
X504000Y280000D03*
X508000Y280000D03*
X512000Y280000D03*
X516000Y280000D03*
X536000Y280000D03*
X540000Y280000D03*
X544000Y280000D03*
X548000Y280000D03*
X552000Y280000D03*
X556000Y280000D03*
X560000Y280000D03*
X564000Y280000D03*
X568000Y280000D03*
X572000Y280000D03*
X592000Y280000D03*
X596000Y280000D03*
X600000Y280000D03*
X604000Y280000D03*
X608000Y280000D03*
X612000Y280000D03*
X616000Y280000D03*
X620000Y280000D03*
X624000Y280000D03*
X628000Y280000D03*
X648000Y280000D03*
X652000Y280000D03*
X656000Y280000D03*
X660000Y280000D03*
X664000Y280000D03*
X668000Y280000D03*
X672000Y280000D03*
X676000Y280000D03*
X680000Y280000D03*
X684000Y280000D03*
X704000Y280000D03*
X708000Y280000D03*
X712000Y280000D03*
X716000Y280000D03*
X720000Y280000D03*
X724000Y280000D03*
X728000Y280000D03*
X732000Y280000D03*
X736000Y280000D03*
X740000Y280000D03*
X200000Y284000D03*
X204000Y284000D03*
X208000Y284000D03*
X212000Y284000D03*
X216000Y284000D03*
X220000Y284000D03*
X224000Y284000D03*
X228000Y284000D03*
X232000Y284000D03*
X236000Y284000D03*
X256000Y284000D03*
X260000Y284000D03*
X264000Y284000D03*
X268000Y284000D03*
X272000Y284000D03*
X276000Y284000D03*
X280000Y284000D03*
X284000Y284000D03*
X288000Y284000D03*
X292000Y284000D03*
X312000Y284000D03*
X316000Y284000D03*
X320000Y284000D03*
X324000Y284000D03*
X328000Y284000D03*
X332000Y284000D03*
X336000Y284000D03*
X340000Y284000D03*
X344000Y284000D03*
X348000Y284000D03*
X368000Y284000D03*
X372000Y284000D03*
X376000Y284000D03*
X380000Y284000D03*
X384000Y284000D03*
X388000Y284000D03*
X392000Y284000D03*
X396000Y284000D03*
X400000Y284000D03*
X404000Y284000D03*
X424000Y284000D03*
X428000Y284000D03*
X432000Y284000D03*
X436000Y284000D03*
X440000Y284000D03*
X444000Y284000D03*
X448000Y284000D03*
X452000Y284000D03*
X456000Y284000D03*
X460000Y284000D03*
X480000Y284000D03*
X484000Y284000D03*
X488000Y284000D03*
X492000Y284000D03*
X496000Y284000D03*
X500000Y284000D03*
X504000Y284000D03*
X508000Y284000D03*
X512000Y284000D03*
X516000Y284000D03*
X536000Y284000D03*
X540000Y284000D03*
X544000Y284000D03*
X548000Y284000D03*
X552000Y284000D03*
X556000Y284000D03*
X560000Y284000D03*
X564000Y284000D03*
X568000Y284000D03*
X572000Y284000D03*
X592000Y284000D03*
X596000Y284000D03*
X600000Y284000D03*
X604000Y284000D03*
X608000Y284000D03*
X612000Y284000D03*
X616000Y284000D03*
X620000Y284000D03*
X624000Y284000D03*
X628000Y284000D03*
X648000Y284000D03*
X652000Y284000D03*
X656000Y284000D03*
X660000Y284000D03*
X664000Y284000D03*
X668000Y284000D03*
X672000Y284000D03*
X676000Y284000D03*
X680000Y284000D03*
X684000Y284000D03*
X704000Y284000D03*
X708000Y284000D03*
X712000Y284000D03*
X716000Y284000D03*
X720000Y284000D03*
X724000Y284000D03*
X728000Y284000D03*
X732000Y284000D03*
X736000Y284000D03*
X740000Y284000D03*
X200000Y288000D03*
X204000Y288000D03*
X208000Y288000D03*
X212000Y288000D03*
X216000Y288000D03*
X220000Y288000D03*
X224000Y288000D03*
X228000Y288000D03*
X232000Y288000D03*
X236000Y288000D03*
X256000Y288000D03*
X260000Y288000D03*
X264000Y288000D03*
X268000Y288000D03*
X272000Y288000D03*
X276000Y288000D03*
X280000Y288000D03*
X284000Y288000D03*
X288000Y288000D03*
X292000Y288000D03*
X312000Y288000D03*
X316000Y288000D03*
X320000Y288000D03*
X324000Y288000D03*
X328000Y288000D03*
X332000Y288000D03*
X336000Y288000D03*
X340000Y288000D03*
X344000Y288000D03*
X348000Y288000D03*
X368000Y288000D03*
X372000Y288000D03*
X376000Y288000D03*
X380000Y288000D03*
X384000Y288000D03*
X388000Y288000D03*
X392000Y288000D03*
X396000Y288000D03*
X400000Y288000D03*
X404000Y288000D03*
X424000Y288000D03*
X428000Y288000D03*
X432000Y288000D03*
X436000Y288000D03*
X440000Y288000D03*
X444000Y288000D03*
X448000Y288000D03*
X452000Y288000D03*
X456000Y288000D03*
X460000Y288000D03*
X480000Y288000D03*
X484000Y288000D03*
X488000Y288000D03*
X492000Y288000D03*
X496000Y288000D03*
X500000Y288000D03*
X504000Y288000D03*
X508000Y288000D03*
X512000Y288000D03*
X516000Y288000D03*
X536000Y288000D03*
X540000Y288000D03*
X544000Y288000D03*
X548000Y288000D03*
X552000Y288000D03*
X556000Y288000D03*
X560000Y288000D03*
X564000Y288000D03*
X568000Y288000D03*
X572000Y288000D03*
X592000Y288000D03*
X596000Y288000D03*
X600000Y288000D03*
X604000Y288000D03*
X608000Y288000D03*
X612000Y288000D03*
X616000Y288000D03*
X620000Y288000D03*
X624000Y288000D03*
X628000Y288000D03*
X648000Y288000D03*
X652000Y288000D03*
X656000Y288000D03*
X660000Y288000D03*
X664000Y288000D03*
X668000Y288000D03*
X672000Y288000D03*
X676000Y288000D03*
X680000Y288000D03*
X684000Y288000D03*
X704000Y288000D03*
X708000Y288000D03*
X712000Y288000D03*
X716000Y288000D03*
X720000Y288000D03*
X724000Y288000D03*
X728000Y288000D03*
X732000Y288000D03*
X736000Y288000D03*
X740000Y288000D03*
X200000Y292000D03*
X204000Y292000D03*
X208000Y292000D03*
X212000Y292000D03*
X216000Y292000D03*
X220000Y292000D03*
X224000Y292000D03*
X228000Y292000D03*
X232000Y292000D03*
X236000Y292000D03*
X256000Y292000D03*
X260000Y292000D03*
X264000Y292000D03*
X268000Y292000D03*
X272000Y292000D03*
X276000Y292000D03*
X280000Y292000D03*
X284000Y292000D03*
X288000Y292000D03*
X292000Y292000D03*
X312000Y292000D03*
X316000Y292000D03*
X320000Y292000D03*
X324000Y292000D03*
X328000Y292000D03*
X332000Y292000D03*
X336000Y292000D03*
X340000Y292000D03*
X344000Y292000D03*
X348000Y292000D03*
X368000Y292000D03*
X372000Y292000D03*
X376000Y292000D03*
X380000Y292000D03*
X384000Y292000D03*
X388000Y292000D03*
X392000Y292000D03*
X396000Y292000D03*
X400000Y292000D03*
X404000Y292000D03*
X424000Y292000D03*
X428000Y292000D03*
X432000Y292000D03*
X436000Y292000D03*
X440000Y292000D03*
X444000Y292000D03*
X448000Y292000D03*
X452000Y292000D03*
X456000Y292000D03*
X460000Y292000D03*
X480000Y292000D03*
X484000Y292000D03*
X488000Y292000D03*
X492000Y292000D03*
X496000Y292000D03*
X500000Y292000D03*
X504000Y292000D03*
X508000Y292000D03*
X512000Y292000D03*
X516000Y292000D03*
X536000Y292000D03*
X540000Y292000D03*
X544000Y292000D03*
X548000Y292000D03*
X552000Y292000D03*
X556000Y292000D03*
X560000Y292000D03*
X564000Y292000D03*
X568000Y292000D03*
X572000Y292000D03*
X592000Y292000D03*
X596000Y292000D03*
X600000Y292000D03*
X604000Y292000D03*
X608000Y292000D03*
X612000Y292000D03*
X616000Y292000D03*
X620000Y292000D03*
X624000Y292000D03*
X628000Y292000D03*
X648000Y292000D03*
X652000Y292000D03*
X656000Y292000D03*
X660000Y292000D03*
X664000Y292000D03*
X668000Y292000D03*
X672000Y292000D03*
X676000Y292000D03*
X680000Y292000D03*
X684000Y292000D03*
X704000Y292000D03*
X708000Y292000D03*
X712000Y292000D03*
X716000Y292000D03*
X720000Y292000D03*
X724000Y292000D03*
X728000Y292000D03*
X732000Y292000D03*
X736000Y292000D03*
X740000Y292000D03*
X200000Y312000D03*
X204000Y312000D03*
X208000Y312000D03*
X212000Y312000D03*
X216000Y312000D03*
X220000Y312000D03*
X224000Y312000D03*
X228000Y312000D03*
X232000Y312000D03*
X236000Y312000D03*
X256000Y312000D03*
X260000Y312000D03*
X264000Y312000D03*
X268000Y312000D03*
X272000Y312000D03*
X276000Y312000D03*
X280000Y312000D03*
X284000Y312000D03*
X288000Y312000D03*
X292000Y312000D03*
X312000Y312000D03*
X316000Y312000D03*
X320000Y312000D03*
X324000Y312000D03*
X328000Y312000D03*
X332000Y312000D03*
X336000Y312000D03*
X340000Y312000D03*
X344000Y312000D03*
X348000Y312000D03*
X368000Y312000D03*
X372000Y312000D03*
X376000Y312000D03*
X380000Y312000D03*
X384000Y312000D03*
X388000Y312000D03*
X392000Y312000D03*
X396000Y312000D03*
X400000Y312000D03*
X404000Y312000D03*
X424000Y312000D03*
X428000Y312000D03*
X432000Y312000D03*
X436000Y312000D03*
X440000Y312000D03*
X444000Y312000D03*
X448000Y312000D03*
X452000Y312000D03*
X456000Y312000D03*
X460000Y312000D03*
X480000Y312000D03*
X484000Y312000D03*
X488000Y312000D03*
X492000Y312000D03*
X496000Y312000D03*
X500000Y312000D03*
X504000Y312000D03*
X508000Y312000D03*
X512000Y312000D03*
X516000Y312000D03*
X536000Y312000D03*
X540000Y312000D03*
X544000Y312000D03*
X548000Y312000D03*
X552000Y312000D03*
X556000Y312000D03*
X560000Y312000D03*
X564000Y312000D03*
X568000Y312000D03*
X572000Y312000D03*
X592000Y312000D03*
X596000Y312000D03*
X600000Y312000D03*
X604000Y312000D03*
X608000Y312000D03*
X612000Y312000D03*
X616000Y312000D03*
X620000Y312000D03*
X624000Y312000D03*
X628000Y312000D03*
X648000Y312000D03*
X652000Y312000D03*
X656000Y312000D03*
X660000Y312000D03*
X664000Y312000D03*
X668000Y312000D03*
X672000Y312000D03*
X676000Y312000D03*
X680000Y312000D03*
X684000Y312000D03*
X704000Y312000D03*
X708000Y312000D03*
X712000Y312000D03*
X716000Y312000D03*
X720000Y312000D03*
X724000Y312000D03*
X728000Y312000D03*
X732000Y312000D03*
X736000Y312000D03*
X740000Y312000D03*
X200000Y316000D03*
X204000Y316000D03*
X208000Y316000D03*
X212000Y316000D03*
X216000Y316000D03*
X220000Y316000D03*
X224000Y316000D03*
X228000Y316000D03*
X232000Y316000D03*
X236000Y316000D03*
X256000Y316000D03*
X260000Y316000D03*
X264000Y316000D03*
X268000Y316000D03*
X272000Y316000D03*
X276000Y316000D03*
X280000Y316000D03*
X284000Y316000D03*
X288000Y316000D03*
X292000Y316000D03*
X312000Y316000D03*
X316000Y316000D03*
X320000Y316000D03*
X324000Y316000D03*
X328000Y316000D03*
X332000Y316000D03*
X336000Y316000D03*
X340000Y316000D03*
X344000Y316000D03*
X348000Y316000D03*
X368000Y316000D03*
X372000Y316000D03*
X376000Y316000D03*
X380000Y316000D03*
X384000Y316000D03*
X388000Y316000D03*
X392000Y316000D03*
X396000Y316000D03*
X400000Y316000D03*
X404000Y316000D03*
X424000Y316000D03*
X428000Y316000D03*
X432000Y316000D03*
X436000Y316000D03*
X440000Y316000D03*
X444000Y316000D03*
X448000Y316000D03*
X452000Y316000D03*
X456000Y316000D03*
X460000Y316000D03*
X480000Y316000D03*
X484000Y316000D03*
X488000Y316000D03*
X492000Y316000D03*
X496000Y316000D03*
X500000Y316000D03*
X504000Y316000D03*
X508000Y316000D03*
X512000Y316000D03*
X516000Y316000D03*
X536000Y316000D03*
X540000Y316000D03*
X544000Y316000D03*
X548000Y316000D03*
X552000Y316000D03*
X556000Y316000D03*
X560000Y316000D03*
X564000Y316000D03*
X568000Y316000D03*
X572000Y316000D03*
X592000Y316000D03*
X596000Y316000D03*
X600000Y316000D03*
X604000Y316000D03*
X608000Y316000D03*
X612000Y316000D03*
X616000Y316000D03*
X620000Y316000D03*
X624000Y316000D03*
X628000Y316000D03*
X648000Y316000D03*
X652000Y316000D03*
X656000Y316000D03*
X660000Y316000D03*
X664000Y316000D03*
X668000Y316000D03*
X672000Y316000D03*
X676000Y316000D03*
X680000Y316000D03*
X684000Y316000D03*
X704000Y316000D03*
X708000Y316000D03*
X712000Y316000D03*
X716000Y316000D03*
X720000Y316000D03*
X724000Y316000D03*
X728000Y316000D03*
X732000Y316000D03*
X736000Y316000D03*
X740000Y316000D03*
X200000Y320000D03*
X204000Y320000D03*
X208000Y320000D03*
X212000Y320000D03*
X216000Y320000D03*
X220000Y320000D03*
X224000Y320000D03*
X228000Y320000D03*
X232000Y320000D03*
X236000Y320000D03*
X256000Y320000D03*
X260000Y320000D03*
X264000Y320000D03*
X268000Y320000D03*
X272000Y320000D03*
X276000Y320000D03*
X280000Y320000D03*
X284000Y320000D03*
X288000Y320000D03*
X292000Y320000D03*
X312000Y320000D03*
X316000Y320000D03*
X320000Y320000D03*
X324000Y320000D03*
X328000Y320000D03*
X332000Y320000D03*
X336000Y320000D03*
X340000Y320000D03*
X344000Y320000D03*
X348000Y320000D03*
X368000Y320000D03*
X372000Y320000D03*
X376000Y320000D03*
X380000Y320000D03*
X384000Y320000D03*
X388000Y320000D03*
X392000Y320000D03*
X396000Y320000D03*
X400000Y320000D03*
X404000Y320000D03*
X424000Y320000D03*
X428000Y320000D03*
X432000Y320000D03*
X436000Y320000D03*
X440000Y320000D03*
X444000Y320000D03*
X448000Y320000D03*
X452000Y320000D03*
X456000Y320000D03*
X460000Y320000D03*
X480000Y320000D03*
X484000Y320000D03*
X488000Y320000D03*
X492000Y320000D03*
X496000Y320000D03*
X500000Y320000D03*
X504000Y320000D03*
X508000Y320000D03*
X512000Y320000D03*
X516000Y320000D03*
X536000Y320000D03*
X540000Y320000D03*
X544000Y320000D03*
X548000Y320000D03*
X552000Y320000D03*
X556000Y320000D03*
X560000Y320000D03*
X564000Y320000D03*
X568000Y320000D03*
X572000Y320000D03*
X592000Y320000D03*
X596000Y320000D03*
X600000Y320000D03*
X604000Y320000D03*
X608000Y320000D03*
X612000Y320000D03*
X616000Y320000D03*
X620000Y320000D03*
X624000Y320000D03*
X628000Y320000D03*
X648000Y320000D03*
X652000Y320000D03*
X656000Y320000D03*
X660000Y320000D03*
X664000Y320000D03*
X668000Y320000D03*
X672000Y320000D03*
X676000Y320000D03*
X680000Y320000D03*
X684000Y320000D03*
X704000Y320000D03*
X708000Y320000D03*
X712000Y320000D03*
X716000Y320000D03*
X720000Y320000D03*
X724000Y320000D03*
X728000Y320000D03*
X732000Y320000D03*
X736000Y320000D03*
X740000Y320000D03*
X200000Y324000D03*
X204000Y324000D03*
X208000Y324000D03*
X212000Y324000D03*
X216000Y324000D03*
X220000Y324000D03*
X224000Y324000D03*
X228000Y324000D03*
X232000Y324000D03*
X236000Y324000D03*
X256000Y324000D03*
X260000Y324000D03*
X264000Y324000D03*
X268000Y324000D03*
X272000Y324000D03*
X276000Y324000D03*
X280000Y324000D03*
X284000Y324000D03*
X288000Y324000D03*
X292000Y324000D03*
X312000Y324000D03*
X316000Y324000D03*
X320000Y324000D03*
X324000Y324000D03*
X328000Y324000D03*
X332000Y324000D03*
X336000Y324000D03*
X340000Y324000D03*
X344000Y324000D03*
X348000Y324000D03*
X368000Y324000D03*
X372000Y324000D03*
X376000Y324000D03*
X380000Y324000D03*
X384000Y324000D03*
X388000Y324000D03*
X392000Y324000D03*
X396000Y324000D03*
X400000Y324000D03*
X404000Y324000D03*
X424000Y324000D03*
X428000Y324000D03*
X432000Y324000D03*
X436000Y324000D03*
X440000Y324000D03*
X444000Y324000D03*
X448000Y324000D03*
X452000Y324000D03*
X456000Y324000D03*
X460000Y324000D03*
X480000Y324000D03*
X484000Y324000D03*
X488000Y324000D03*
X492000Y324000D03*
X496000Y324000D03*
X500000Y324000D03*
X504000Y324000D03*
X508000Y324000D03*
X512000Y324000D03*
X516000Y324000D03*
X536000Y324000D03*
X540000Y324000D03*
X544000Y324000D03*
X548000Y324000D03*
X552000Y324000D03*
X556000Y324000D03*
X560000Y324000D03*
X564000Y324000D03*
X568000Y324000D03*
X572000Y324000D03*
X592000Y324000D03*
X596000Y324000D03*
X600000Y324000D03*
X604000Y324000D03*
X608000Y324000D03*
X612000Y324000D03*
X616000Y324000D03*
X620000Y324000D03*
X624000Y324000D03*
X628000Y324000D03*
X648000Y324000D03*
X652000Y324000D03*
X656000Y324000D03*
X660000Y324000D03*
X664000Y324000D03*
X668000Y324000D03*
X672000Y324000D03*
X676000Y324000D03*
X680000Y324000D03*
X684000Y324000D03*
X704000Y324000D03*
X708000Y324000D03*
X712000Y324000D03*
X716000Y324000D03*
X720000Y324000D03*
X724000Y324000D03*
X728000Y324000D03*
X732000Y324000D03*
X736000Y324000D03*
X740000Y324000D03*
X200000Y328000D03*
X204000Y328000D03*
X208000Y328000D03*
X212000Y328000D03*
X216000Y328000D03*
X220000Y328000D03*
X224000Y328000D03*
X228000Y328000D03*
X232000Y328000D03*
X236000Y328000D03*
X256000Y328000D03*
X260000Y328000D03*
X264000Y328000D03*
X268000Y328000D03*
X272000Y328000D03*
X276000Y328000D03*
X280000Y328000D03*
X284000Y328000D03*
X288000Y328000D03*
X292000Y328000D03*
X312000Y328000D03*
X316000Y328000D03*
X320000Y328000D03*
X324000Y328000D03*
X328000Y328000D03*
X332000Y328000D03*
X336000Y328000D03*
X340000Y328000D03*
X344000Y328000D03*
X348000Y328000D03*
X368000Y328000D03*
X372000Y328000D03*
X376000Y328000D03*
X380000Y328000D03*
X384000Y328000D03*
X388000Y328000D03*
X392000Y328000D03*
X396000Y328000D03*
X400000Y328000D03*
X404000Y328000D03*
X424000Y328000D03*
X428000Y328000D03*
X432000Y328000D03*
X436000Y328000D03*
X440000Y328000D03*
X444000Y328000D03*
X448000Y328000D03*
X452000Y328000D03*
X456000Y328000D03*
X460000Y328000D03*
X480000Y328000D03*
X484000Y328000D03*
X488000Y328000D03*
X492000Y328000D03*
X496000Y328000D03*
X500000Y328000D03*
X504000Y328000D03*
X508000Y328000D03*
X512000Y328000D03*
X516000Y328000D03*
X536000Y328000D03*
X540000Y328000D03*
X544000Y328000D03*
X548000Y328000D03*
X552000Y328000D03*
X556000Y328000D03*
X560000Y328000D03*
X564000Y328000D03*
X568000Y328000D03*
X572000Y328000D03*
X592000Y328000D03*
X596000Y328000D03*
X600000Y328000D03*
X604000Y328000D03*
X608000Y328000D03*
X612000Y328000D03*
X616000Y328000D03*
X620000Y328000D03*
X624000Y328000D03*
X628000Y328000D03*
X648000Y328000D03*
X652000Y328000D03*
X656000Y328000D03*
X660000Y328000D03*
X664000Y328000D03*
X668000Y328000D03*
X672000Y328000D03*
X676000Y328000D03*
X680000Y328000D03*
X684000Y328000D03*
X704000Y328000D03*
X708000Y328000D03*
X712000Y328000D03*
X716000Y328000D03*
X720000Y328000D03*
X724000Y328000D03*
X728000Y328000D03*
X732000Y328000D03*
X736000Y328000D03*
X740000Y328000D03*
X200000Y332000D03*
X204000Y332000D03*
X208000Y332000D03*
X212000Y332000D03*
X216000Y332000D03*
X220000Y332000D03*
X224000Y332000D03*
X228000Y332000D03*
X232000Y332000D03*
X236000Y332000D03*
X256000Y332000D03*
X260000Y332000D03*
X264000Y332000D03*
X268000Y332000D03*
X272000Y332000D03*
X276000Y332000D03*
X280000Y332000D03*
X284000Y332000D03*
X288000Y332000D03*
X292000Y332000D03*
X312000Y332000D03*
X316000Y332000D03*
X320000Y332000D03*
X324000Y332000D03*
X328000Y332000D03*
X332000Y332000D03*
X336000Y332000D03*
X340000Y332000D03*
X344000Y332000D03*
X348000Y332000D03*
X368000Y332000D03*
X372000Y332000D03*
X376000Y332000D03*
X380000Y332000D03*
X384000Y332000D03*
X388000Y332000D03*
X392000Y332000D03*
X396000Y332000D03*
X400000Y332000D03*
X404000Y332000D03*
X424000Y332000D03*
X428000Y332000D03*
X432000Y332000D03*
X436000Y332000D03*
X440000Y332000D03*
X444000Y332000D03*
X448000Y332000D03*
X452000Y332000D03*
X456000Y332000D03*
X460000Y332000D03*
X480000Y332000D03*
X484000Y332000D03*
X488000Y332000D03*
X492000Y332000D03*
X496000Y332000D03*
X500000Y332000D03*
X504000Y332000D03*
X508000Y332000D03*
X512000Y332000D03*
X516000Y332000D03*
X536000Y332000D03*
X540000Y332000D03*
X544000Y332000D03*
X548000Y332000D03*
X552000Y332000D03*
X556000Y332000D03*
X560000Y332000D03*
X564000Y332000D03*
X568000Y332000D03*
X572000Y332000D03*
X592000Y332000D03*
X596000Y332000D03*
X600000Y332000D03*
X604000Y332000D03*
X608000Y332000D03*
X612000Y332000D03*
X616000Y332000D03*
X620000Y332000D03*
X624000Y332000D03*
X628000Y332000D03*
X648000Y332000D03*
X652000Y332000D03*
X656000Y332000D03*
X660000Y332000D03*
X664000Y332000D03*
X668000Y332000D03*
X672000Y332000D03*
X676000Y332000D03*
X680000Y332000D03*
X684000Y332000D03*
X704000Y332000D03*
X708000Y332000D03*
X712000Y332000D03*
X716000Y332000D03*
X720000Y332000D03*
X724000Y332000D03*
X728000Y332000D03*
X732000Y332000D03*
X736000Y332000D03*
X740000Y332000D03*
X200000Y336000D03*
X204000Y336000D03*
X208000Y336000D03*
X212000Y336000D03*
X216000Y336000D03*
X220000Y336000D03*
X224000Y336000D03*
X228000Y336000D03*
X232000Y336000D03*
X236000Y336000D03*
X256000Y336000D03*
X260000Y336000D03*
X264000Y336000D03*
X268000Y336000D03*
X272000Y336000D03*
X276000Y336000D03*
X280000Y336000D03*
X284000Y336000D03*
X288000Y336000D03*
X292000Y336000D03*
X312000Y336000D03*
X316000Y336000D03*
X320000Y336000D03*
X324000Y336000D03*
X328000Y336000D03*
X332000Y336000D03*
X336000Y336000D03*
X340000Y336000D03*
X344000Y336000D03*
X348000Y336000D03*
X368000Y336000D03*
X372000Y336000D03*
X376000Y336000D03*
X380000Y336000D03*
X384000Y336000D03*
X388000Y336000D03*
X392000Y336000D03*
X396000Y336000D03*
X400000Y336000D03*
X404000Y336000D03*
X424000Y336000D03*
X428000Y336000D03*
X432000Y336000D03*
X436000Y336000D03*
X440000Y336000D03*
X444000Y336000D03*
X448000Y336000D03*
X452000Y336000D03*
X456000Y336000D03*
X460000Y336000D03*
X480000Y336000D03*
X484000Y336000D03*
X488000Y336000D03*
X492000Y336000D03*
X496000Y336000D03*
X500000Y336000D03*
X504000Y336000D03*
X508000Y336000D03*
X512000Y336000D03*
X516000Y336000D03*
X536000Y336000D03*
X540000Y336000D03*
X544000Y336000D03*
X548000Y336000D03*
X552000Y336000D03*
X556000Y336000D03*
X560000Y336000D03*
X564000Y336000D03*
X568000Y336000D03*
X572000Y336000D03*
X592000Y336000D03*
X596000Y336000D03*
X600000Y336000D03*
X604000Y336000D03*
X608000Y336000D03*
X612000Y336000D03*
X616000Y336000D03*
X620000Y336000D03*
X624000Y336000D03*
X628000Y336000D03*
X648000Y336000D03*
X652000Y336000D03*
X656000Y336000D03*
X660000Y336000D03*
X664000Y336000D03*
X668000Y336000D03*
X672000Y336000D03*
X676000Y336000D03*
X680000Y336000D03*
X684000Y336000D03*
X704000Y336000D03*
X708000Y336000D03*
X712000Y336000D03*
X716000Y336000D03*
X720000Y336000D03*
X724000Y336000D03*
X728000Y336000D03*
X732000Y336000D03*
X736000Y336000D03*
X740000Y336000D03*
X200000Y340000D03*
X204000Y340000D03*
X208000Y340000D03*
X212000Y340000D03*
X216000Y340000D03*
X220000Y340000D03*
X224000Y340000D03*
X228000Y340000D03*
X232000Y340000D03*
X236000Y340000D03*
X256000Y340000D03*
X260000Y340000D03*
X264000Y340000D03*
X268000Y340000D03*
X272000Y340000D03*
X276000Y340000D03*
X280000Y340000D03*
X284000Y340000D03*
X288000Y340000D03*
X292000Y340000D03*
X312000Y340000D03*
X316000Y340000D03*
X320000Y340000D03*
X324000Y340000D03*
X328000Y340000D03*
X332000Y340000D03*
X336000Y340000D03*
X340000Y340000D03*
X344000Y340000D03*
X348000Y340000D03*
X368000Y340000D03*
X372000Y340000D03*
X376000Y340000D03*
X380000Y340000D03*
X384000Y340000D03*
X388000Y340000D03*
X392000Y340000D03*
X396000Y340000D03*
X400000Y340000D03*
X404000Y340000D03*
X424000Y340000D03*
X428000Y340000D03*
X432000Y340000D03*
X436000Y340000D03*
X440000Y340000D03*
X444000Y340000D03*
X448000Y340000D03*
X452000Y340000D03*
X456000Y340000D03*
X460000Y340000D03*
X480000Y340000D03*
X484000Y340000D03*
X488000Y340000D03*
X492000Y340000D03*
X496000Y340000D03*
X500000Y340000D03*
X504000Y340000D03*
X508000Y340000D03*
X512000Y340000D03*
X516000Y340000D03*
X536000Y340000D03*
X540000Y340000D03*
X544000Y340000D03*
X548000Y340000D03*
X552000Y340000D03*
X556000Y340000D03*
X560000Y340000D03*
X564000Y340000D03*
X568000Y340000D03*
X572000Y340000D03*
X592000Y340000D03*
X596000Y340000D03*
X600000Y340000D03*
X604000Y340000D03*
X608000Y340000D03*
X612000Y340000D03*
X616000Y340000D03*
X620000Y340000D03*
X624000Y340000D03*
X628000Y340000D03*
X648000Y340000D03*
X652000Y340000D03*
X656000Y340000D03*
X660000Y340000D03*
X664000Y340000D03*
X668000Y340000D03*
X672000Y340000D03*
X676000Y340000D03*
X680000Y340000D03*
X684000Y340000D03*
X704000Y340000D03*
X708000Y340000D03*
X712000Y340000D03*
X716000Y340000D03*
X720000Y340000D03*
X724000Y340000D03*
X728000Y340000D03*
X732000Y340000D03*
X736000Y340000D03*
X740000Y340000D03*
X200000Y344000D03*
X204000Y344000D03*
X208000Y344000D03*
X212000Y344000D03*
X216000Y344000D03*
X220000Y344000D03*
X224000Y344000D03*
X228000Y344000D03*
X232000Y344000D03*
X236000Y344000D03*
X256000Y344000D03*
X260000Y344000D03*
X264000Y344000D03*
X268000Y344000D03*
X272000Y344000D03*
X276000Y344000D03*
X280000Y344000D03*
X284000Y344000D03*
X288000Y344000D03*
X292000Y344000D03*
X312000Y344000D03*
X316000Y344000D03*
X320000Y344000D03*
X324000Y344000D03*
X328000Y344000D03*
X332000Y344000D03*
X336000Y344000D03*
X340000Y344000D03*
X344000Y344000D03*
X348000Y344000D03*
X368000Y344000D03*
X372000Y344000D03*
X376000Y344000D03*
X380000Y344000D03*
X384000Y344000D03*
X388000Y344000D03*
X392000Y344000D03*
X396000Y344000D03*
X400000Y344000D03*
X404000Y344000D03*
X424000Y344000D03*
X428000Y344000D03*
X432000Y344000D03*
X436000Y344000D03*
X440000Y344000D03*
X444000Y344000D03*
X448000Y344000D03*
X452000Y344000D03*
X456000Y344000D03*
X460000Y344000D03*
X480000Y344000D03*
X484000Y344000D03*
X488000Y344000D03*
X492000Y344000D03*
X496000Y344000D03*
X500000Y344000D03*
X504000Y344000D03*
X508000Y344000D03*
X512000Y344000D03*
X516000Y344000D03*
X536000Y344000D03*
X540000Y344000D03*
X544000Y344000D03*
X548000Y344000D03*
X552000Y344000D03*
X556000Y344000D03*
X560000Y344000D03*
X564000Y344000D03*
X568000Y344000D03*
X572000Y344000D03*
X592000Y344000D03*
X596000Y344000D03*
X600000Y344000D03*
X604000Y344000D03*
X608000Y344000D03*
X612000Y344000D03*
X616000Y344000D03*
X620000Y344000D03*
X624000Y344000D03*
X628000Y344000D03*
X648000Y344000D03*
X652000Y344000D03*
X656000Y344000D03*
X660000Y344000D03*
X664000Y344000D03*
X668000Y344000D03*
X672000Y344000D03*
X676000Y344000D03*
X680000Y344000D03*
X684000Y344000D03*
X704000Y344000D03*
X708000Y344000D03*
X712000Y344000D03*
X716000Y344000D03*
X720000Y344000D03*
X724000Y344000D03*
X728000Y344000D03*
X732000Y344000D03*
X736000Y344000D03*
X740000Y344000D03*
X200000Y348000D03*
X204000Y348000D03*
X208000Y348000D03*
X212000Y348000D03*
X216000Y348000D03*
X220000Y348000D03*
X224000Y348000D03*
X228000Y348000D03*
X232000Y348000D03*
X236000Y348000D03*
X256000Y348000D03*
X260000Y348000D03*
X264000Y348000D03*
X268000Y348000D03*
X272000Y348000D03*
X276000Y348000D03*
X280000Y348000D03*
X284000Y348000D03*
X288000Y348000D03*
X292000Y348000D03*
X312000Y348000D03*
X316000Y348000D03*
X320000Y348000D03*
X324000Y348000D03*
X328000Y348000D03*
X332000Y348000D03*
X336000Y348000D03*
X340000Y348000D03*
X344000Y348000D03*
X348000Y348000D03*
X368000Y348000D03*
X372000Y348000D03*
X376000Y348000D03*
X380000Y348000D03*
X384000Y348000D03*
X388000Y348000D03*
X392000Y348000D03*
X396000Y348000D03*
X400000Y348000D03*
X404000Y348000D03*
X424000Y348000D03*
X428000Y348000D03*
X432000Y348000D03*
X436000Y348000D03*
X440000Y348000D03*
X444000Y348000D03*
X448000Y348000D03*
X452000Y348000D03*
X456000Y348000D03*
X460000Y348000D03*
X480000Y348000D03*
X484000Y348000D03*
X488000Y348000D03*
X492000Y348000D03*
X496000Y348000D03*
X500000Y348000D03*
X504000Y348000D03*
X508000Y348000D03*
X512000Y348000D03*
X516000Y348000D03*
X536000Y348000D03*
X540000Y348000D03*
X544000Y348000D03*
X548000Y348000D03*
X552000Y348000D03*
X556000Y348000D03*
X560000Y348000D03*
X564000Y348000D03*
X568000Y348000D03*
X572000Y348000D03*
X592000Y348000D03*
X596000Y348000D03*
X600000Y348000D03*
X604000Y348000D03*
X608000Y348000D03*
X612000Y348000D03*
X616000Y348000D03*
X620000Y348000D03*
X624000Y348000D03*
X628000Y348000D03*
X648000Y348000D03*
X652000Y348000D03*
X656000Y348000D03*
X660000Y348000D03*
X664000Y348000D03*
X668000Y348000D03*
X672000Y348000D03*
X676000Y348000D03*
X680000Y348000D03*
X684000Y348000D03*
X704000Y348000D03*
X708000Y348000D03*
X712000Y348000D03*
X716000Y348000D03*
X720000Y348000D03*
X724000Y348000D03*
X728000Y348000D03*
X732000Y348000D03*
X736000Y348000D03*
X740000Y348000D03*
X200000Y368000D03*
X204000Y368000D03*
X208000Y368000D03*
X212000Y368000D03*
X216000Y368000D03*
X220000Y368000D03*
X224000Y368000D03*
X228000Y368000D03*
X232000Y368000D03*
X236000Y368000D03*
X256000Y368000D03*
X260000Y368000D03*
X264000Y368000D03*
X268000Y368000D03*
X272000Y368000D03*
X276000Y368000D03*
X280000Y368000D03*
X284000Y368000D03*
X288000Y368000D03*
X292000Y368000D03*
X312000Y368000D03*
X316000Y368000D03*
X320000Y368000D03*
X324000Y368000D03*
X328000Y368000D03*
X332000Y368000D03*
X336000Y368000D03*
X340000Y368000D03*
X344000Y368000D03*
X348000Y368000D03*
X368000Y368000D03*
X372000Y368000D03*
X376000Y368000D03*
X380000Y368000D03*
X384000Y368000D03*
X388000Y368000D03*
X392000Y368000D03*
X396000Y368000D03*
X400000Y368000D03*
X404000Y368000D03*
X424000Y368000D03*
X428000Y368000D03*
X432000Y368000D03*
X436000Y368000D03*
X440000Y368000D03*
X444000Y368000D03*
X448000Y368000D03*
X452000Y368000D03*
X456000Y368000D03*
X460000Y368000D03*
X480000Y368000D03*
X484000Y368000D03*
X488000Y368000D03*
X492000Y368000D03*
X496000Y368000D03*
X500000Y368000D03*
X504000Y368000D03*
X508000Y368000D03*
X512000Y368000D03*
X516000Y368000D03*
X536000Y368000D03*
X540000Y368000D03*
X544000Y368000D03*
X548000Y368000D03*
X552000Y368000D03*
X556000Y368000D03*
X560000Y368000D03*
X564000Y368000D03*
X568000Y368000D03*
X572000Y368000D03*
X592000Y368000D03*
X596000Y368000D03*
X600000Y368000D03*
X604000Y368000D03*
X608000Y368000D03*
X612000Y368000D03*
X616000Y368000D03*
X620000Y368000D03*
X624000Y368000D03*
X628000Y368000D03*
X648000Y368000D03*
X652000Y368000D03*
X656000Y368000D03*
X660000Y368000D03*
X664000Y368000D03*
X668000Y368000D03*
X672000Y368000D03*
X676000Y368000D03*
X680000Y368000D03*
X684000Y368000D03*
X704000Y368000D03*
X708000Y368000D03*
X712000Y368000D03*
X716000Y368000D03*
X720000Y368000D03*
X724000Y368000D03*
X728000Y368000D03*
X732000Y368000D03*
X736000Y368000D03*
X740000Y368000D03*
X200000Y372000D03*
X204000Y372000D03*
X208000Y372000D03*
X212000Y372000D03*
X216000Y372000D03*
X220000Y372000D03*
X224000Y372000D03*
X228000Y372000D03*
X232000Y372000D03*
X236000Y372000D03*
X256000Y372000D03*
X260000Y372000D03*
X264000Y372000D03*
X268000Y372000D03*
X272000Y372000D03*
X276000Y372000D03*
X280000Y372000D03*
X284000Y372000D03*
X288000Y372000D03*
X292000Y372000D03*
X312000Y372000D03*
X316000Y372000D03*
X320000Y372000D03*
X324000Y372000D03*
X328000Y372000D03*
X332000Y372000D03*
X336000Y372000D03*
X340000Y372000D03*
X344000Y372000D03*
X348000Y372000D03*
X368000Y372000D03*
X372000Y372000D03*
X376000Y372000D03*
X380000Y372000D03*
X384000Y372000D03*
X388000Y372000D03*
X392000Y372000D03*
X396000Y372000D03*
X400000Y372000D03*
X404000Y372000D03*
X424000Y372000D03*
X428000Y372000D03*
X432000Y372000D03*
X436000Y372000D03*
X440000Y372000D03*
X444000Y372000D03*
X448000Y372000D03*
X452000Y372000D03*
X456000Y372000D03*
X460000Y372000D03*
X480000Y372000D03*
X484000Y372000D03*
X488000Y372000D03*
X492000Y372000D03*
X496000Y372000D03*
X500000Y372000D03*
X504000Y372000D03*
X508000Y372000D03*
X512000Y372000D03*
X516000Y372000D03*
X536000Y372000D03*
X540000Y372000D03*
X544000Y372000D03*
X548000Y372000D03*
X552000Y372000D03*
X556000Y372000D03*
X560000Y372000D03*
X564000Y372000D03*
X568000Y372000D03*
X572000Y372000D03*
X592000Y372000D03*
X596000Y372000D03*
X600000Y372000D03*
X604000Y372000D03*
X608000Y372000D03*
X612000Y372000D03*
X616000Y372000D03*
X620000Y372000D03*
X624000Y372000D03*
X628000Y372000D03*
X648000Y372000D03*
X652000Y372000D03*
X656000Y372000D03*
X660000Y372000D03*
X664000Y372000D03*
X668000Y372000D03*
X672000Y372000D03*
X676000Y372000D03*
X680000Y372000D03*
X684000Y372000D03*
X704000Y372000D03*
X708000Y372000D03*
X712000Y372000D03*
X716000Y372000D03*
X720000Y372000D03*
X724000Y372000D03*
X728000Y372000D03*
X732000Y372000D03*
X736000Y372000D03*
X740000Y372000D03*
X200000Y376000D03*
X204000Y376000D03*
X208000Y376000D03*
X212000Y376000D03*
X216000Y376000D03*
X220000Y376000D03*
X224000Y376000D03*
X228000Y376000D03*
X232000Y376000D03*
X236000Y376000D03*
X256000Y376000D03*
X260000Y376000D03*
X264000Y376000D03*
X268000Y376000D03*
X272000Y376000D03*
X276000Y376000D03*
X280000Y376000D03*
X284000Y376000D03*
X288000Y376000D03*
X292000Y376000D03*
X312000Y376000D03*
X316000Y376000D03*
X320000Y376000D03*
X324000Y376000D03*
X328000Y376000D03*
X332000Y376000D03*
X336000Y376000D03*
X340000Y376000D03*
X344000Y376000D03*
X348000Y376000D03*
X368000Y376000D03*
X372000Y376000D03*
X376000Y376000D03*
X380000Y376000D03*
X384000Y376000D03*
X388000Y376000D03*
X392000Y376000D03*
X396000Y376000D03*
X400000Y376000D03*
X404000Y376000D03*
X424000Y376000D03*
X428000Y376000D03*
X432000Y376000D03*
X436000Y376000D03*
X440000Y376000D03*
X444000Y376000D03*
X448000Y376000D03*
X452000Y376000D03*
X456000Y376000D03*
X460000Y376000D03*
X480000Y376000D03*
X484000Y376000D03*
X488000Y376000D03*
X492000Y376000D03*
X496000Y376000D03*
X500000Y376000D03*
X504000Y376000D03*
X508000Y376000D03*
X512000Y376000D03*
X516000Y376000D03*
X536000Y376000D03*
X540000Y376000D03*
X544000Y376000D03*
X548000Y376000D03*
X552000Y376000D03*
X556000Y376000D03*
X560000Y376000D03*
X564000Y376000D03*
X568000Y376000D03*
X572000Y376000D03*
X592000Y376000D03*
X596000Y376000D03*
X600000Y376000D03*
X604000Y376000D03*
X608000Y376000D03*
X612000Y376000D03*
X616000Y376000D03*
X620000Y376000D03*
X624000Y376000D03*
X628000Y376000D03*
X648000Y376000D03*
X652000Y376000D03*
X656000Y376000D03*
X660000Y376000D03*
X664000Y376000D03*
X668000Y376000D03*
X672000Y376000D03*
X676000Y376000D03*
X680000Y376000D03*
X684000Y376000D03*
X704000Y376000D03*
X708000Y376000D03*
X712000Y376000D03*
X716000Y376000D03*
X720000Y376000D03*
X724000Y376000D03*
X728000Y376000D03*
X732000Y376000D03*
X736000Y376000D03*
X740000Y376000D03*
X200000Y380000D03*
X204000Y380000D03*
X208000Y380000D03*
X212000Y380000D03*
X216000Y380000D03*
X220000Y380000D03*
X224000Y380000D03*
X228000Y380000D03*
X232000Y380000D03*
X236000Y380000D03*
X256000Y380000D03*
X260000Y380000D03*
X264000Y380000D03*
X268000Y380000D03*
X272000Y380000D03*
X276000Y380000D03*
X280000Y380000D03*
X284000Y380000D03*
X288000Y380000D03*
X292000Y380000D03*
X312000Y380000D03*
X316000Y380000D03*
X320000Y380000D03*
X324000Y380000D03*
X328000Y380000D03*
X332000Y380000D03*
X336000Y380000D03*
X340000Y380000D03*
X344000Y380000D03*
X348000Y380000D03*
X368000Y380000D03*
X372000Y380000D03*
X376000Y380000D03*
X380000Y380000D03*
X384000Y380000D03*
X388000Y380000D03*
X392000Y380000D03*
X396000Y380000D03*
X400000Y380000D03*
X404000Y380000D03*
X424000Y380000D03*
X428000Y380000D03*
X432000Y380000D03*
X436000Y380000D03*
X440000Y380000D03*
X444000Y380000D03*
X448000Y380000D03*
X452000Y380000D03*
X456000Y380000D03*
X460000Y380000D03*
X480000Y380000D03*
X484000Y380000D03*
X488000Y380000D03*
X492000Y380000D03*
X496000Y380000D03*
X500000Y380000D03*
X504000Y380000D03*
X508000Y380000D03*
X512000Y380000D03*
X516000Y380000D03*
X536000Y380000D03*
X540000Y380000D03*
X544000Y380000D03*
X548000Y380000D03*
X552000Y380000D03*
X556000Y380000D03*
X560000Y380000D03*
X564000Y380000D03*
X568000Y380000D03*
X572000Y380000D03*
X592000Y380000D03*
X596000Y380000D03*
X600000Y380000D03*
X604000Y380000D03*
X608000Y380000D03*
X612000Y380000D03*
X616000Y380000D03*
X620000Y380000D03*
X624000Y380000D03*
X628000Y380000D03*
X648000Y380000D03*
X652000Y380000D03*
X656000Y380000D03*
X660000Y380000D03*
X664000Y380000D03*
X668000Y380000D03*
X672000Y380000D03*
X676000Y380000D03*
X680000Y380000D03*
X684000Y380000D03*
X704000Y380000D03*
X708000Y380000D03*
X712000Y380000D03*
X716000Y380000D03*
X720000Y380000D03*
X724000Y380000D03*
X728000Y380000D03*
X732000Y380000D03*
X736000Y380000D03*
X740000Y380000D03*
X200000Y384000D03*
X204000Y384000D03*
X208000Y384000D03*
X212000Y384000D03*
X216000Y384000D03*
X220000Y384000D03*
X224000Y384000D03*
X228000Y384000D03*
X232000Y384000D03*
X236000Y384000D03*
X256000Y384000D03*
X260000Y384000D03*
X264000Y384000D03*
X268000Y384000D03*
X272000Y384000D03*
X276000Y384000D03*
X280000Y384000D03*
X284000Y384000D03*
X288000Y384000D03*
X292000Y384000D03*
X312000Y384000D03*
X316000Y384000D03*
X320000Y384000D03*
X324000Y384000D03*
X328000Y384000D03*
X332000Y384000D03*
X336000Y384000D03*
X340000Y384000D03*
X344000Y384000D03*
X348000Y384000D03*
X368000Y384000D03*
X372000Y384000D03*
X376000Y384000D03*
X380000Y384000D03*
X384000Y384000D03*
X388000Y384000D03*
X392000Y384000D03*
X396000Y384000D03*
X400000Y384000D03*
X404000Y384000D03*
X424000Y384000D03*
X428000Y384000D03*
X432000Y384000D03*
X436000Y384000D03*
X440000Y384000D03*
X444000Y384000D03*
X448000Y384000D03*
X452000Y384000D03*
X456000Y384000D03*
X460000Y384000D03*
X480000Y384000D03*
X484000Y384000D03*
X488000Y384000D03*
X492000Y384000D03*
X496000Y384000D03*
X500000Y384000D03*
X504000Y384000D03*
X508000Y384000D03*
X512000Y384000D03*
X516000Y384000D03*
X536000Y384000D03*
X540000Y384000D03*
X544000Y384000D03*
X548000Y384000D03*
X552000Y384000D03*
X556000Y384000D03*
X560000Y384000D03*
X564000Y384000D03*
X568000Y384000D03*
X572000Y384000D03*
X592000Y384000D03*
X596000Y384000D03*
X600000Y384000D03*
X604000Y384000D03*
X608000Y384000D03*
X612000Y384000D03*
X616000Y384000D03*
X620000Y384000D03*
X624000Y384000D03*
X628000Y384000D03*
X648000Y384000D03*
X652000Y384000D03*
X656000Y384000D03*
X660000Y384000D03*
X664000Y384000D03*
X668000Y384000D03*
X672000Y384000D03*
X676000Y384000D03*
X680000Y384000D03*
X684000Y384000D03*
X704000Y384000D03*
X708000Y384000D03*
X712000Y384000D03*
X716000Y384000D03*
X720000Y384000D03*
X724000Y384000D03*
X728000Y384000D03*
X732000Y384000D03*
X736000Y384000D03*
X740000Y384000D03*
X200000Y388000D03*
X204000Y388000D03*
X208000Y388000D03*
X212000Y388000D03*
X216000Y388000D03*
X220000Y388000D03*
X224000Y388000D03*
X228000Y388000D03*
X232000Y388000D03*
X236000Y388000D03*
X256000Y388000D03*
X260000Y388000D03*
X264000Y388000D03*
X268000Y388000D03*
X272000Y388000D03*
X276000Y388000D03*
X280000Y388000D03*
X284000Y388000D03*
X288000Y388000D03*
X292000Y388000D03*
X312000Y388000D03*
X316000Y388000D03*
X320000Y388000D03*
X324000Y388000D03*
X328000Y388000D03*
X332000Y388000D03*
X336000Y388000D03*
X340000Y388000D03*
X344000Y388000D03*
X348000Y388000D03*
X368000Y388000D03*
X372000Y388000D03*
X376000Y388000D03*
X380000Y388000D03*
X384000Y388000D03*
X388000Y388000D03*
X392000Y388000D03*
X396000Y388000D03*
X400000Y388000D03*
X404000Y388000D03*
X424000Y388000D03*
X428000Y388000D03*
X432000Y388000D03*
X436000Y388000D03*
X440000Y388000D03*
X444000Y388000D03*
X448000Y388000D03*
X452000Y388000D03*
X456000Y388000D03*
X460000Y388000D03*
X480000Y388000D03*
X484000Y388000D03*
X488000Y388000D03*
X492000Y388000D03*
X496000Y388000D03*
X500000Y388000D03*
X504000Y388000D03*
X508000Y388000D03*
X512000Y388000D03*
X516000Y388000D03*
X536000Y388000D03*
X540000Y388000D03*
X544000Y388000D03*
X548000Y388000D03*
X552000Y388000D03*
X556000Y388000D03*
X560000Y388000D03*
X564000Y388000D03*
X568000Y388000D03*
X572000Y388000D03*
X592000Y388000D03*
X596000Y388000D03*
X600000Y388000D03*
X604000Y388000D03*
X608000Y388000D03*
X612000Y388000D03*
X616000Y388000D03*
X620000Y388000D03*
X624000Y388000D03*
X628000Y388000D03*
X648000Y388000D03*
X652000Y388000D03*
X656000Y388000D03*
X660000Y388000D03*
X664000Y388000D03*
X668000Y388000D03*
X672000Y388000D03*
X676000Y388000D03*
X680000Y388000D03*
X684000Y388000D03*
X704000Y388000D03*
X708000Y388000D03*
X712000Y388000D03*
X716000Y388000D03*
X720000Y388000D03*
X724000Y388000D03*
X728000Y388000D03*
X732000Y388000D03*
X736000Y388000D03*
X740000Y388000D03*
X200000Y392000D03*
X204000Y392000D03*
X208000Y392000D03*
X212000Y392000D03*
X216000Y392000D03*
X220000Y392000D03*
X224000Y392000D03*
X228000Y392000D03*
X232000Y392000D03*
X236000Y392000D03*
X256000Y392000D03*
X260000Y392000D03*
X264000Y392000D03*
X268000Y392000D03*
X272000Y392000D03*
X276000Y392000D03*
X280000Y392000D03*
X284000Y392000D03*
X288000Y392000D03*
X292000Y392000D03*
X312000Y392000D03*
X316000Y392000D03*
X320000Y392000D03*
X324000Y392000D03*
X328000Y392000D03*
X332000Y392000D03*
X336000Y392000D03*
X340000Y392000D03*
X344000Y392000D03*
X348000Y392000D03*
X368000Y392000D03*
X372000Y392000D03*
X376000Y392000D03*
X380000Y392000D03*
X384000Y392000D03*
X388000Y392000D03*
X392000Y392000D03*
X396000Y392000D03*
X400000Y392000D03*
X404000Y392000D03*
X424000Y392000D03*
X428000Y392000D03*
X432000Y392000D03*
X436000Y392000D03*
X440000Y392000D03*
X444000Y392000D03*
X448000Y392000D03*
X452000Y392000D03*
X456000Y392000D03*
X460000Y392000D03*
X480000Y392000D03*
X484000Y392000D03*
X488000Y392000D03*
X492000Y392000D03*
X496000Y392000D03*
X500000Y392000D03*
X504000Y392000D03*
X508000Y392000D03*
X512000Y392000D03*
X516000Y392000D03*
X536000Y392000D03*
X540000Y392000D03*
X544000Y392000D03*
X548000Y392000D03*
X552000Y392000D03*
X556000Y392000D03*
X560000Y392000D03*
X564000Y392000D03*
X568000Y392000D03*
X572000Y392000D03*
X592000Y392000D03*
X596000Y392000D03*
X600000Y392000D03*
X604000Y392000D03*
X608000Y392000D03*
X612000Y392000D03*
X616000Y392000D03*
X620000Y392000D03*
X624000Y392000D03*
X628000Y392000D03*
X648000Y392000D03*
X652000Y392000D03*
X656000Y392000D03*
X660000Y392000D03*
X664000Y392000D03*
X668000Y392000D03*
X672000Y392000D03*
X676000Y392000D03*
X680000Y392000D03*
X684000Y392000D03*
X704000Y392000D03*
X708000Y392000D03*
X712000Y392000D03*
X716000Y392000D03*
X720000Y392000D03*
X724000Y392000D03*
X728000Y392000D03*
X732000Y392000D03*
X736000Y392000D03*
X740000Y392000D03*
X200000Y396000D03*
X204000Y396000D03*
X208000Y396000D03*
X212000Y396000D03*
X216000Y396000D03*
X220000Y396000D03*
X224000Y396000D03*
X228000Y396000D03*
X232000Y396000D03*
X236000Y396000D03*
X256000Y396000D03*
X260000Y396000D03*
X264000Y396000D03*
X268000Y396000D03*
X272000Y396000D03*
X276000Y396000D03*
X280000Y396000D03*
X284000Y396000D03*
X288000Y396000D03*
X292000Y396000D03*
X312000Y396000D03*
X316000Y396000D03*
X320000Y396000D03*
X324000Y396000D03*
X328000Y396000D03*
X332000Y396000D03*
X336000Y396000D03*
X340000Y396000D03*
X344000Y396000D03*
X348000Y396000D03*
X368000Y396000D03*
X372000Y396000D03*
X376000Y396000D03*
X380000Y396000D03*
X384000Y396000D03*
X388000Y396000D03*
X392000Y396000D03*
X396000Y396000D03*
X400000Y396000D03*
X404000Y396000D03*
X424000Y396000D03*
X428000Y396000D03*
X432000Y396000D03*
X436000Y396000D03*
X440000Y396000D03*
X444000Y396000D03*
X448000Y396000D03*
X452000Y396000D03*
X456000Y396000D03*
X460000Y396000D03*
X480000Y396000D03*
X484000Y396000D03*
X488000Y396000D03*
X492000Y396000D03*
X496000Y396000D03*
X500000Y396000D03*
X504000Y396000D03*
X508000Y396000D03*
X512000Y396000D03*
X516000Y396000D03*
X536000Y396000D03*
X540000Y396000D03*
X544000Y396000D03*
X548000Y396000D03*
X552000Y396000D03*
X556000Y396000D03*
X560000Y396000D03*
X564000Y396000D03*
X568000Y396000D03*
X572000Y396000D03*
X592000Y396000D03*
X596000Y396000D03*
X600000Y396000D03*
X604000Y396000D03*
X608000Y396000D03*
X612000Y396000D03*
X616000Y396000D03*
X620000Y396000D03*
X624000Y396000D03*
X628000Y396000D03*
X648000Y396000D03*
X652000Y396000D03*
X656000Y396000D03*
X660000Y396000D03*
X664000Y396000D03*
X668000Y396000D03*
X672000Y396000D03*
X676000Y396000D03*
X680000Y396000D03*
X684000Y396000D03*
X704000Y396000D03*
X708000Y396000D03*
X712000Y396000D03*
X716000Y396000D03*
X720000Y396000D03*
X724000Y396000D03*
X728000Y396000D03*
X732000Y396000D03*
X736000Y396000D03*
X740000Y396000D03*
X200000Y400000D03*
X204000Y400000D03*
X208000Y400000D03*
X212000Y400000D03*
X216000Y400000D03*
X220000Y400000D03*
X224000Y400000D03*
X228000Y400000D03*
X232000Y400000D03*
X236000Y400000D03*
X256000Y400000D03*
X260000Y400000D03*
X264000Y400000D03*
X268000Y400000D03*
X272000Y400000D03*
X276000Y400000D03*
X280000Y400000D03*
X284000Y400000D03*
X288000Y400000D03*
X292000Y400000D03*
X312000Y400000D03*
X316000Y400000D03*
X320000Y400000D03*
X324000Y400000D03*
X328000Y400000D03*
X332000Y400000D03*
X336000Y400000D03*
X340000Y400000D03*
X344000Y400000D03*
X348000Y400000D03*
X368000Y400000D03*
X372000Y400000D03*
X376000Y400000D03*
X380000Y400000D03*
X384000Y400000D03*
X388000Y400000D03*
X392000Y400000D03*
X396000Y400000D03*
X400000Y400000D03*
X404000Y400000D03*
X424000Y400000D03*
X428000Y400000D03*
X432000Y400000D03*
X436000Y400000D03*
X440000Y400000D03*
X444000Y400000D03*
X448000Y400000D03*
X452000Y400000D03*
X456000Y400000D03*
X460000Y400000D03*
X480000Y400000D03*
X484000Y400000D03*
X488000Y400000D03*
X492000Y400000D03*
X496000Y400000D03*
X500000Y400000D03*
X504000Y400000D03*
X508000Y400000D03*
X512000Y400000D03*
X516000Y400000D03*
X536000Y400000D03*
X540000Y400000D03*
X544000Y400000D03*
X548000Y400000D03*
X552000Y400000D03*
X556000Y400000D03*
X560000Y400000D03*
X564000Y400000D03*
X568000Y400000D03*
X572000Y400000D03*
X592000Y400000D03*
X596000Y400000D03*
X600000Y400000D03*
X604000Y400000D03*
X608000Y400000D03*
X612000Y400000D03*
X616000Y400000D03*
X620000Y400000D03*
X624000Y400000D03*
X628000Y400000D03*
X648000Y400000D03*
X652000Y400000D03*
X656000Y400000D03*
X660000Y400000D03*
X664000Y400000D03*
X668000Y400000D03*
X672000Y400000D03*
X676000Y400000D03*
X680000Y400000D03*
X684000Y400000D03*
X704000Y400000D03*
X708000Y400000D03*
X712000Y400000D03*
X716000Y400000D03*
X720000Y400000D03*
X724000Y400000D03*
X728000Y400000D03*
X732000Y400000D03*
X736000Y400000D03*
X740000Y400000D03*
X200000Y404000D03*
X204000Y404000D03*
X208000Y404000D03*
X212000Y404000D03*
X216000Y404000D03*
X220000Y404000D03*
X224000Y404000D03*
X228000Y404000D03*
X232000Y404000D03*
X236000Y404000D03*
X256000Y404000D03*
X260000Y404000D03*
X264000Y404000D03*
X268000Y404000D03*
X272000Y404000D03*
X276000Y404000D03*
X280000Y404000D03*
X284000Y404000D03*
X288000Y404000D03*
X292000Y404000D03*
X312000Y404000D03*
X316000Y404000D03*
X320000Y404000D03*
X324000Y404000D03*
X328000Y404000D03*
X332000Y404000D03*
X336000Y404000D03*
X340000Y404000D03*
X344000Y404000D03*
X348000Y404000D03*
X368000Y404000D03*
X372000Y404000D03*
X376000Y404000D03*
X380000Y404000D03*
X384000Y404000D03*
X388000Y404000D03*
X392000Y404000D03*
X396000Y404000D03*
X400000Y404000D03*
X404000Y404000D03*
X424000Y404000D03*
X428000Y404000D03*
X432000Y404000D03*
X436000Y404000D03*
X440000Y404000D03*
X444000Y404000D03*
X448000Y404000D03*
X452000Y404000D03*
X456000Y404000D03*
X460000Y404000D03*
X480000Y404000D03*
X484000Y404000D03*
X488000Y404000D03*
X492000Y404000D03*
X496000Y404000D03*
X500000Y404000D03*
X504000Y404000D03*
X508000Y404000D03*
X512000Y404000D03*
X516000Y404000D03*
X536000Y404000D03*
X540000Y404000D03*
X544000Y404000D03*
X548000Y404000D03*
X552000Y404000D03*
X556000Y404000D03*
X560000Y404000D03*
X564000Y404000D03*
X568000Y404000D03*
X572000Y404000D03*
X592000Y404000D03*
X596000Y404000D03*
X600000Y404000D03*
X604000Y404000D03*
X608000Y404000D03*
X612000Y404000D03*
X616000Y404000D03*
X620000Y404000D03*
X624000Y404000D03*
X628000Y404000D03*
X648000Y404000D03*
X652000Y404000D03*
X656000Y404000D03*
X660000Y404000D03*
X664000Y404000D03*
X668000Y404000D03*
X672000Y404000D03*
X676000Y404000D03*
X680000Y404000D03*
X684000Y404000D03*
X704000Y404000D03*
X708000Y404000D03*
X712000Y404000D03*
X716000Y404000D03*
X720000Y404000D03*
X724000Y404000D03*
X728000Y404000D03*
X732000Y404000D03*
X736000Y404000D03*
X740000Y404000D03*
X200000Y424000D03*
X204000Y424000D03*
X208000Y424000D03*
X212000Y424000D03*
X216000Y424000D03*
X220000Y424000D03*
X224000Y424000D03*
X228000Y424000D03*
X232000Y424000D03*
X236000Y424000D03*
X256000Y424000D03*
X260000Y424000D03*
X264000Y424000D03*
X268000Y424000D03*
X272000Y424000D03*
X276000Y424000D03*
X280000Y424000D03*
X284000Y424000D03*
X288000Y424000D03*
X292000Y424000D03*
X312000Y424000D03*
X316000Y424000D03*
X320000Y424000D03*
X324000Y424000D03*
X328000Y424000D03*
X332000Y424000D03*
X336000Y424000D03*
X340000Y424000D03*
X344000Y424000D03*
X348000Y424000D03*
X368000Y424000D03*
X372000Y424000D03*
X376000Y424000D03*
X380000Y424000D03*
X384000Y424000D03*
X388000Y424000D03*
X392000Y424000D03*
X396000Y424000D03*
X400000Y424000D03*
X404000Y424000D03*
X424000Y424000D03*
X428000Y424000D03*
X432000Y424000D03*
X436000Y424000D03*
X440000Y424000D03*
X444000Y424000D03*
X448000Y424000D03*
X452000Y424000D03*
X456000Y424000D03*
X460000Y424000D03*
X480000Y424000D03*
X484000Y424000D03*
X488000Y424000D03*
X492000Y424000D03*
X496000Y424000D03*
X500000Y424000D03*
X504000Y424000D03*
X508000Y424000D03*
X512000Y424000D03*
X516000Y424000D03*
X536000Y424000D03*
X540000Y424000D03*
X544000Y424000D03*
X548000Y424000D03*
X552000Y424000D03*
X556000Y424000D03*
X560000Y424000D03*
X564000Y424000D03*
X568000Y424000D03*
X572000Y424000D03*
X592000Y424000D03*
X596000Y424000D03*
X600000Y424000D03*
X604000Y424000D03*
X608000Y424000D03*
X612000Y424000D03*
X616000Y424000D03*
X620000Y424000D03*
X624000Y424000D03*
X628000Y424000D03*
X648000Y424000D03*
X652000Y424000D03*
X656000Y424000D03*
X660000Y424000D03*
X664000Y424000D03*
X668000Y424000D03*
X672000Y424000D03*
X676000Y424000D03*
X680000Y424000D03*
X684000Y424000D03*
X704000Y424000D03*
X708000Y424000D03*
X712000Y424000D03*
X716000Y424000D03*
X720000Y424000D03*
X724000Y424000D03*
X728000Y424000D03*
X732000Y424000D03*
X736000Y424000D03*
X740000Y424000D03*
X200000Y428000D03*
X204000Y428000D03*
X208000Y428000D03*
X212000Y428000D03*
X216000Y428000D03*
X220000Y428000D03*
X224000Y428000D03*
X228000Y428000D03*
X232000Y428000D03*
X236000Y428000D03*
X256000Y428000D03*
X260000Y428000D03*
X264000Y428000D03*
X268000Y428000D03*
X272000Y428000D03*
X276000Y428000D03*
X280000Y428000D03*
X284000Y428000D03*
X288000Y428000D03*
X292000Y428000D03*
X312000Y428000D03*
X316000Y428000D03*
X320000Y428000D03*
X324000Y428000D03*
X328000Y428000D03*
X332000Y428000D03*
X336000Y428000D03*
X340000Y428000D03*
X344000Y428000D03*
X348000Y428000D03*
X368000Y428000D03*
X372000Y428000D03*
X376000Y428000D03*
X380000Y428000D03*
X384000Y428000D03*
X388000Y428000D03*
X392000Y428000D03*
X396000Y428000D03*
X400000Y428000D03*
X404000Y428000D03*
X424000Y428000D03*
X428000Y428000D03*
X432000Y428000D03*
X436000Y428000D03*
X440000Y428000D03*
X444000Y428000D03*
X448000Y428000D03*
X452000Y428000D03*
X456000Y428000D03*
X460000Y428000D03*
X480000Y428000D03*
X484000Y428000D03*
X488000Y428000D03*
X492000Y428000D03*
X496000Y428000D03*
X500000Y428000D03*
X504000Y428000D03*
X508000Y428000D03*
X512000Y428000D03*
X516000Y428000D03*
X536000Y428000D03*
X540000Y428000D03*
X544000Y428000D03*
X548000Y428000D03*
X552000Y428000D03*
X556000Y428000D03*
X560000Y428000D03*
X564000Y428000D03*
X568000Y428000D03*
X572000Y428000D03*
X592000Y428000D03*
X596000Y428000D03*
X600000Y428000D03*
X604000Y428000D03*
X608000Y428000D03*
X612000Y428000D03*
X616000Y428000D03*
X620000Y428000D03*
X624000Y428000D03*
X628000Y428000D03*
X648000Y428000D03*
X652000Y428000D03*
X656000Y428000D03*
X660000Y428000D03*
X664000Y428000D03*
X668000Y428000D03*
X672000Y428000D03*
X676000Y428000D03*
X680000Y428000D03*
X684000Y428000D03*
X704000Y428000D03*
X708000Y428000D03*
X712000Y428000D03*
X716000Y428000D03*
X720000Y428000D03*
X724000Y428000D03*
X728000Y428000D03*
X732000Y428000D03*
X736000Y428000D03*
X740000Y428000D03*
X200000Y432000D03*
X204000Y432000D03*
X208000Y432000D03*
X212000Y432000D03*
X216000Y432000D03*
X220000Y432000D03*
X224000Y432000D03*
X228000Y432000D03*
X232000Y432000D03*
X236000Y432000D03*
X256000Y432000D03*
X260000Y432000D03*
X264000Y432000D03*
X268000Y432000D03*
X272000Y432000D03*
X276000Y432000D03*
X280000Y432000D03*
X284000Y432000D03*
X288000Y432000D03*
X292000Y432000D03*
X312000Y432000D03*
X316000Y432000D03*
X320000Y432000D03*
X324000Y432000D03*
X328000Y432000D03*
X332000Y432000D03*
X336000Y432000D03*
X340000Y432000D03*
X344000Y432000D03*
X348000Y432000D03*
X368000Y432000D03*
X372000Y432000D03*
X376000Y432000D03*
X380000Y432000D03*
X384000Y432000D03*
X388000Y432000D03*
X392000Y432000D03*
X396000Y432000D03*
X400000Y432000D03*
X404000Y432000D03*
X424000Y432000D03*
X428000Y432000D03*
X432000Y432000D03*
X436000Y432000D03*
X440000Y432000D03*
X444000Y432000D03*
X448000Y432000D03*
X452000Y432000D03*
X456000Y432000D03*
X460000Y432000D03*
X480000Y432000D03*
X484000Y432000D03*
X488000Y432000D03*
X492000Y432000D03*
X496000Y432000D03*
X500000Y432000D03*
X504000Y432000D03*
X508000Y432000D03*
X512000Y432000D03*
X516000Y432000D03*
X536000Y432000D03*
X540000Y432000D03*
X544000Y432000D03*
X548000Y432000D03*
X552000Y432000D03*
X556000Y432000D03*
X560000Y432000D03*
X564000Y432000D03*
X568000Y432000D03*
X572000Y432000D03*
X592000Y432000D03*
X596000Y432000D03*
X600000Y432000D03*
X604000Y432000D03*
X608000Y432000D03*
X612000Y432000D03*
X616000Y432000D03*
X620000Y432000D03*
X624000Y432000D03*
X628000Y432000D03*
X648000Y432000D03*
X652000Y432000D03*
X656000Y432000D03*
X660000Y432000D03*
X664000Y432000D03*
X668000Y432000D03*
X672000Y432000D03*
X676000Y432000D03*
X680000Y432000D03*
X684000Y432000D03*
X704000Y432000D03*
X708000Y432000D03*
X712000Y432000D03*
X716000Y432000D03*
X720000Y432000D03*
X724000Y432000D03*
X728000Y432000D03*
X732000Y432000D03*
X736000Y432000D03*
X740000Y432000D03*
X200000Y436000D03*
X204000Y436000D03*
X208000Y436000D03*
X212000Y436000D03*
X216000Y436000D03*
X220000Y436000D03*
X224000Y436000D03*
X228000Y436000D03*
X232000Y436000D03*
X236000Y436000D03*
X256000Y436000D03*
X260000Y436000D03*
X264000Y436000D03*
X268000Y436000D03*
X272000Y436000D03*
X276000Y436000D03*
X280000Y436000D03*
X284000Y436000D03*
X288000Y436000D03*
X292000Y436000D03*
X312000Y436000D03*
X316000Y436000D03*
X320000Y436000D03*
X324000Y436000D03*
X328000Y436000D03*
X332000Y436000D03*
X336000Y436000D03*
X340000Y436000D03*
X344000Y436000D03*
X348000Y436000D03*
X368000Y436000D03*
X372000Y436000D03*
X376000Y436000D03*
X380000Y436000D03*
X384000Y436000D03*
X388000Y436000D03*
X392000Y436000D03*
X396000Y436000D03*
X400000Y436000D03*
X404000Y436000D03*
X424000Y436000D03*
X428000Y436000D03*
X432000Y436000D03*
X436000Y436000D03*
X440000Y436000D03*
X444000Y436000D03*
X448000Y436000D03*
X452000Y436000D03*
X456000Y436000D03*
X460000Y436000D03*
X480000Y436000D03*
X484000Y436000D03*
X488000Y436000D03*
X492000Y436000D03*
X496000Y436000D03*
X500000Y436000D03*
X504000Y436000D03*
X508000Y436000D03*
X512000Y436000D03*
X516000Y436000D03*
X536000Y436000D03*
X540000Y436000D03*
X544000Y436000D03*
X548000Y436000D03*
X552000Y436000D03*
X556000Y436000D03*
X560000Y436000D03*
X564000Y436000D03*
X568000Y436000D03*
X572000Y436000D03*
X592000Y436000D03*
X596000Y436000D03*
X600000Y436000D03*
X604000Y436000D03*
X608000Y436000D03*
X612000Y436000D03*
X616000Y436000D03*
X620000Y436000D03*
X624000Y436000D03*
X628000Y436000D03*
X648000Y436000D03*
X652000Y436000D03*
X656000Y436000D03*
X660000Y436000D03*
X664000Y436000D03*
X668000Y436000D03*
X672000Y436000D03*
X676000Y436000D03*
X680000Y436000D03*
X684000Y436000D03*
X704000Y436000D03*
X708000Y436000D03*
X712000Y436000D03*
X716000Y436000D03*
X720000Y436000D03*
X724000Y436000D03*
X728000Y436000D03*
X732000Y436000D03*
X736000Y436000D03*
X740000Y436000D03*
X200000Y440000D03*
X204000Y440000D03*
X208000Y440000D03*
X212000Y440000D03*
X216000Y440000D03*
X220000Y440000D03*
X224000Y440000D03*
X228000Y440000D03*
X232000Y440000D03*
X236000Y440000D03*
X256000Y440000D03*
X260000Y440000D03*
X264000Y440000D03*
X268000Y440000D03*
X272000Y440000D03*
X276000Y440000D03*
X280000Y440000D03*
X284000Y440000D03*
X288000Y440000D03*
X292000Y440000D03*
X312000Y440000D03*
X316000Y440000D03*
X320000Y440000D03*
X324000Y440000D03*
X328000Y440000D03*
X332000Y440000D03*
X336000Y440000D03*
X340000Y440000D03*
X344000Y440000D03*
X348000Y440000D03*
X368000Y440000D03*
X372000Y440000D03*
X376000Y440000D03*
X380000Y440000D03*
X384000Y440000D03*
X388000Y440000D03*
X392000Y440000D03*
X396000Y440000D03*
X400000Y440000D03*
X404000Y440000D03*
X424000Y440000D03*
X428000Y440000D03*
X432000Y440000D03*
X436000Y440000D03*
X440000Y440000D03*
X444000Y440000D03*
X448000Y440000D03*
X452000Y440000D03*
X456000Y440000D03*
X460000Y440000D03*
X480000Y440000D03*
X484000Y440000D03*
X488000Y440000D03*
X492000Y440000D03*
X496000Y440000D03*
X500000Y440000D03*
X504000Y440000D03*
X508000Y440000D03*
X512000Y440000D03*
X516000Y440000D03*
X536000Y440000D03*
X540000Y440000D03*
X544000Y440000D03*
X548000Y440000D03*
X552000Y440000D03*
X556000Y440000D03*
X560000Y440000D03*
X564000Y440000D03*
X568000Y440000D03*
X572000Y440000D03*
X592000Y440000D03*
X596000Y440000D03*
X600000Y440000D03*
X604000Y440000D03*
X608000Y440000D03*
X612000Y440000D03*
X616000Y440000D03*
X620000Y440000D03*
X624000Y440000D03*
X628000Y440000D03*
X648000Y440000D03*
X652000Y440000D03*
X656000Y440000D03*
X660000Y440000D03*
X664000Y440000D03*
X668000Y440000D03*
X672000Y440000D03*
X676000Y440000D03*
X680000Y440000D03*
X684000Y440000D03*
X704000Y440000D03*
X708000Y440000D03*
X712000Y440000D03*
X716000Y440000D03*
X720000Y440000D03*
X724000Y440000D03*
X728000Y440000D03*
X732000Y440000D03*
X736000Y440000D03*
X740000Y440000D03*
X200000Y444000D03*
X204000Y444000D03*
X208000Y444000D03*
X212000Y444000D03*
X216000Y444000D03*
X220000Y444000D03*
X224000Y444000D03*
X228000Y444000D03*
X232000Y444000D03*
X236000Y444000D03*
X256000Y444000D03*
X260000Y444000D03*
X264000Y444000D03*
X268000Y444000D03*
X272000Y444000D03*
X276000Y444000D03*
X280000Y444000D03*
X284000Y444000D03*
X288000Y444000D03*
X292000Y444000D03*
X312000Y444000D03*
X316000Y444000D03*
X320000Y444000D03*
X324000Y444000D03*
X328000Y444000D03*
X332000Y444000D03*
X336000Y444000D03*
X340000Y444000D03*
X344000Y444000D03*
X348000Y444000D03*
X368000Y444000D03*
X372000Y444000D03*
X376000Y444000D03*
X380000Y444000D03*
X384000Y444000D03*
X388000Y444000D03*
X392000Y444000D03*
X396000Y444000D03*
X400000Y444000D03*
X404000Y444000D03*
X424000Y444000D03*
X428000Y444000D03*
X432000Y444000D03*
X436000Y444000D03*
X440000Y444000D03*
X444000Y444000D03*
X448000Y444000D03*
X452000Y444000D03*
X456000Y444000D03*
X460000Y444000D03*
X480000Y444000D03*
X484000Y444000D03*
X488000Y444000D03*
X492000Y444000D03*
X496000Y444000D03*
X500000Y444000D03*
X504000Y444000D03*
X508000Y444000D03*
X512000Y444000D03*
X516000Y444000D03*
X536000Y444000D03*
X540000Y444000D03*
X544000Y444000D03*
X548000Y444000D03*
X552000Y444000D03*
X556000Y444000D03*
X560000Y444000D03*
X564000Y444000D03*
X568000Y444000D03*
X572000Y444000D03*
X592000Y444000D03*
X596000Y444000D03*
X600000Y444000D03*
X604000Y444000D03*
X608000Y444000D03*
X612000Y444000D03*
X616000Y444000D03*
X620000Y444000D03*
X624000Y444000D03*
X628000Y444000D03*
X648000Y444000D03*
X652000Y444000D03*
X656000Y444000D03*
X660000Y444000D03*
X664000Y444000D03*
X668000Y444000D03*
X672000Y444000D03*
X676000Y444000D03*
X680000Y444000D03*
X684000Y444000D03*
X704000Y444000D03*
X708000Y444000D03*
X712000Y444000D03*
X716000Y444000D03*
X720000Y444000D03*
X724000Y444000D03*
X728000Y444000D03*
X732000Y444000D03*
X736000Y444000D03*
X740000Y444000D03*
X200000Y448000D03*
X204000Y448000D03*
X208000Y448000D03*
X212000Y448000D03*
X216000Y448000D03*
X220000Y448000D03*
X224000Y448000D03*
X228000Y448000D03*
X232000Y448000D03*
X236000Y448000D03*
X256000Y448000D03*
X260000Y448000D03*
X264000Y448000D03*
X268000Y448000D03*
X272000Y448000D03*
X276000Y448000D03*
X280000Y448000D03*
X284000Y448000D03*
X288000Y448000D03*
X292000Y448000D03*
X312000Y448000D03*
X316000Y448000D03*
X320000Y448000D03*
X324000Y448000D03*
X328000Y448000D03*
X332000Y448000D03*
X336000Y448000D03*
X340000Y448000D03*
X344000Y448000D03*
X348000Y448000D03*
X368000Y448000D03*
X372000Y448000D03*
X376000Y448000D03*
X380000Y448000D03*
X384000Y448000D03*
X388000Y448000D03*
X392000Y448000D03*
X396000Y448000D03*
X400000Y448000D03*
X404000Y448000D03*
X424000Y448000D03*
X428000Y448000D03*
X432000Y448000D03*
X436000Y448000D03*
X440000Y448000D03*
X444000Y448000D03*
X448000Y448000D03*
X452000Y448000D03*
X456000Y448000D03*
X460000Y448000D03*
X480000Y448000D03*
X484000Y448000D03*
X488000Y448000D03*
X492000Y448000D03*
X496000Y448000D03*
X500000Y448000D03*
X504000Y448000D03*
X508000Y448000D03*
X512000Y448000D03*
X516000Y448000D03*
X536000Y448000D03*
X540000Y448000D03*
X544000Y448000D03*
X548000Y448000D03*
X552000Y448000D03*
X556000Y448000D03*
X560000Y448000D03*
X564000Y448000D03*
X568000Y448000D03*
X572000Y448000D03*
X592000Y448000D03*
X596000Y448000D03*
X600000Y448000D03*
X604000Y448000D03*
X608000Y448000D03*
X612000Y448000D03*
X616000Y448000D03*
X620000Y448000D03*
X624000Y448000D03*
X628000Y448000D03*
X648000Y448000D03*
X652000Y448000D03*
X656000Y448000D03*
X660000Y448000D03*
X664000Y448000D03*
X668000Y448000D03*
X672000Y448000D03*
X676000Y448000D03*
X680000Y448000D03*
X684000Y448000D03*
X704000Y448000D03*
X708000Y448000D03*
X712000Y448000D03*
X716000Y448000D03*
X720000Y448000D03*
X724000Y448000D03*
X728000Y448000D03*
X732000Y448000D03*
X736000Y448000D03*
X740000Y448000D03*
X200000Y452000D03*
X204000Y452000D03*
X208000Y452000D03*
X212000Y452000D03*
X216000Y452000D03*
X220000Y452000D03*
X224000Y452000D03*
X228000Y452000D03*
X232000Y452000D03*
X236000Y452000D03*
X256000Y452000D03*
X260000Y452000D03*
X264000Y452000D03*
X268000Y452000D03*
X272000Y452000D03*
X276000Y452000D03*
X280000Y452000D03*
X284000Y452000D03*
X288000Y452000D03*
X292000Y452000D03*
X312000Y452000D03*
X316000Y452000D03*
X320000Y452000D03*
X324000Y452000D03*
X328000Y452000D03*
X332000Y452000D03*
X336000Y452000D03*
X340000Y452000D03*
X344000Y452000D03*
X348000Y452000D03*
X368000Y452000D03*
X372000Y452000D03*
X376000Y452000D03*
X380000Y452000D03*
X384000Y452000D03*
X388000Y452000D03*
X392000Y452000D03*
X396000Y452000D03*
X400000Y452000D03*
X404000Y452000D03*
X424000Y452000D03*
X428000Y452000D03*
X432000Y452000D03*
X436000Y452000D03*
X440000Y452000D03*
X444000Y452000D03*
X448000Y452000D03*
X452000Y452000D03*
X456000Y452000D03*
X460000Y452000D03*
X480000Y452000D03*
X484000Y452000D03*
X488000Y452000D03*
X492000Y452000D03*
X496000Y452000D03*
X500000Y452000D03*
X504000Y452000D03*
X508000Y452000D03*
X512000Y452000D03*
X516000Y452000D03*
X536000Y452000D03*
X540000Y452000D03*
X544000Y452000D03*
X548000Y452000D03*
X552000Y452000D03*
X556000Y452000D03*
X560000Y452000D03*
X564000Y452000D03*
X568000Y452000D03*
X572000Y452000D03*
X592000Y452000D03*
X596000Y452000D03*
X600000Y452000D03*
X604000Y452000D03*
X608000Y452000D03*
X612000Y452000D03*
X616000Y452000D03*
X620000Y452000D03*
X624000Y452000D03*
X628000Y452000D03*
X648000Y452000D03*
X652000Y452000D03*
X656000Y452000D03*
X660000Y452000D03*
X664000Y452000D03*
X668000Y452000D03*
X672000Y452000D03*
X676000Y452000D03*
X680000Y452000D03*
X684000Y452000D03*
X704000Y452000D03*
X708000Y452000D03*
X712000Y452000D03*
X716000Y452000D03*
X720000Y452000D03*
X724000Y452000D03*
X728000Y452000D03*
X732000Y452000D03*
X736000Y452000D03*
X740000Y452000D03*
X200000Y456000D03*
X204000Y456000D03*
X208000Y456000D03*
X212000Y456000D03*
X216000Y456000D03*
X220000Y456000D03*
X224000Y456000D03*
X228000Y456000D03*
X232000Y456000D03*
X236000Y456000D03*
X256000Y456000D03*
X260000Y456000D03*
X264000Y456000D03*
X268000Y456000D03*
X272000Y456000D03*
X276000Y456000D03*
X280000Y456000D03*
X284000Y456000D03*
X288000Y456000D03*
X292000Y456000D03*
X312000Y456000D03*
X316000Y456000D03*
X320000Y456000D03*
X324000Y456000D03*
X328000Y456000D03*
X332000Y456000D03*
X336000Y456000D03*
X340000Y456000D03*
X344000Y456000D03*
X348000Y456000D03*
X368000Y456000D03*
X372000Y456000D03*
X376000Y456000D03*
X380000Y456000D03*
X384000Y456000D03*
X388000Y456000D03*
X392000Y456000D03*
X396000Y456000D03*
X400000Y456000D03*
X404000Y456000D03*
X424000Y456000D03*
X428000Y456000D03*
X432000Y456000D03*
X436000Y456000D03*
X440000Y456000D03*
X444000Y456000D03*
X448000Y456000D03*
X452000Y456000D03*
X456000Y456000D03*
X460000Y456000D03*
X480000Y456000D03*
X484000Y456000D03*
X488000Y456000D03*
X492000Y456000D03*
X496000Y456000D03*
X500000Y456000D03*
X504000Y456000D03*
X508000Y456000D03*
X512000Y456000D03*
X516000Y456000D03*
X536000Y456000D03*
X540000Y456000D03*
X544000Y456000D03*
X548000Y456000D03*
X552000Y456000D03*
X556000Y456000D03*
X560000Y456000D03*
X564000Y456000D03*
X568000Y456000D03*
X572000Y456000D03*
X592000Y456000D03*
X596000Y456000D03*
X600000Y456000D03*
X604000Y456000D03*
X608000Y456000D03*
X612000Y456000D03*
X616000Y456000D03*
X620000Y456000D03*
X624000Y456000D03*
X628000Y456000D03*
X648000Y456000D03*
X652000Y456000D03*
X656000Y456000D03*
X660000Y456000D03*
X664000Y456000D03*
X668000Y456000D03*
X672000Y456000D03*
X676000Y456000D03*
X680000Y456000D03*
X684000Y456000D03*
X704000Y456000D03*
X708000Y456000D03*
X712000Y456000D03*
X716000Y456000D03*
X720000Y456000D03*
X724000Y456000D03*
X728000Y456000D03*
X732000Y456000D03*
X736000Y456000D03*
X740000Y456000D03*
X200000Y460000D03*
X204000Y460000D03*
X208000Y460000D03*
X212000Y460000D03*
X216000Y460000D03*
X220000Y460000D03*
X224000Y460000D03*
X228000Y460000D03*
X232000Y460000D03*
X236000Y460000D03*
X256000Y460000D03*
X260000Y460000D03*
X264000Y460000D03*
X268000Y460000D03*
X272000Y460000D03*
X276000Y460000D03*
X280000Y460000D03*
X284000Y460000D03*
X288000Y460000D03*
X292000Y460000D03*
X312000Y460000D03*
X316000Y460000D03*
X320000Y460000D03*
X324000Y460000D03*
X328000Y460000D03*
X332000Y460000D03*
X336000Y460000D03*
X340000Y460000D03*
X344000Y460000D03*
X348000Y460000D03*
X368000Y460000D03*
X372000Y460000D03*
X376000Y460000D03*
X380000Y460000D03*
X384000Y460000D03*
X388000Y460000D03*
X392000Y460000D03*
X396000Y460000D03*
X400000Y460000D03*
X404000Y460000D03*
X424000Y460000D03*
X428000Y460000D03*
X432000Y460000D03*
X436000Y460000D03*
X440000Y460000D03*
X444000Y460000D03*
X448000Y460000D03*
X452000Y460000D03*
X456000Y460000D03*
X460000Y460000D03*
X480000Y460000D03*
X484000Y460000D03*
X488000Y460000D03*
X492000Y460000D03*
X496000Y460000D03*
X500000Y460000D03*
X504000Y460000D03*
X508000Y460000D03*
X512000Y460000D03*
X516000Y460000D03*
X536000Y460000D03*
X540000Y460000D03*
X544000Y460000D03*
X548000Y460000D03*
X552000Y460000D03*
X556000Y460000D03*
X560000Y460000D03*
X564000Y460000D03*
X568000Y460000D03*
X572000Y460000D03*
X592000Y460000D03*
X596000Y460000D03*
X600000Y460000D03*
X604000Y460000D03*
X608000Y460000D03*
X612000Y460000D03*
X616000Y460000D03*
X620000Y460000D03*
X624000Y460000D03*
X628000Y460000D03*
X648000Y460000D03*
X652000Y460000D03*
X656000Y460000D03*
X660000Y460000D03*
X664000Y460000D03*
X668000Y460000D03*
X672000Y460000D03*
X676000Y460000D03*
X680000Y460000D03*
X684000Y460000D03*
X704000Y460000D03*
X708000Y460000D03*
X712000Y460000D03*
X716000Y460000D03*
X720000Y460000D03*
X724000Y460000D03*
X728000Y460000D03*
X732000Y460000D03*
X736000Y460000D03*
X740000Y460000D03*
X200000Y480000D03*
X204000Y480000D03*
X208000Y480000D03*
X212000Y480000D03*
X216000Y480000D03*
X220000Y480000D03*
X224000Y480000D03*
X228000Y480000D03*
X232000Y480000D03*
X236000Y480000D03*
X256000Y480000D03*
X260000Y480000D03*
X264000Y480000D03*
X268000Y480000D03*
X272000Y480000D03*
X276000Y480000D03*
X280000Y480000D03*
X284000Y480000D03*
X288000Y480000D03*
X292000Y480000D03*
X312000Y480000D03*
X316000Y480000D03*
X320000Y480000D03*
X324000Y480000D03*
X328000Y480000D03*
X332000Y480000D03*
X336000Y480000D03*
X340000Y480000D03*
X344000Y480000D03*
X348000Y480000D03*
X368000Y480000D03*
X372000Y480000D03*
X376000Y480000D03*
X380000Y480000D03*
X384000Y480000D03*
X388000Y480000D03*
X392000Y480000D03*
X396000Y480000D03*
X400000Y480000D03*
X404000Y480000D03*
X424000Y480000D03*
X428000Y480000D03*
X432000Y480000D03*
X436000Y480000D03*
X440000Y480000D03*
X444000Y480000D03*
X448000Y480000D03*
X452000Y480000D03*
X456000Y480000D03*
X460000Y480000D03*
X480000Y480000D03*
X484000Y480000D03*
X488000Y480000D03*
X492000Y480000D03*
X496000Y480000D03*
X500000Y480000D03*
X504000Y480000D03*
X508000Y480000D03*
X512000Y480000D03*
X516000Y480000D03*
X536000Y480000D03*
X540000Y480000D03*
X544000Y480000D03*
X548000Y480000D03*
X552000Y480000D03*
X556000Y480000D03*
X560000Y480000D03*
X564000Y480000D03*
X568000Y480000D03*
X572000Y480000D03*
X592000Y480000D03*
X596000Y480000D03*
X600000Y480000D03*
X604000Y480000D03*
X608000Y480000D03*
X612000Y480000D03*
X616000Y480000D03*
X620000Y480000D03*
X624000Y480000D03*
X628000Y480000D03*
X648000Y480000D03*
X652000Y480000D03*
X656000Y480000D03*
X660000Y480000D03*
X664000Y480000D03*
X668000Y480000D03*
X672000Y480000D03*
X676000Y480000D03*
X680000Y480000D03*
X684000Y480000D03*
X704000Y480000D03*
X708000Y480000D03*
X712000Y480000D03*
X716000Y480000D03*
X720000Y480000D03*
X724000Y480000D03*
X728000Y480000D03*
X732000Y480000D03*
X736000Y480000D03*
X740000Y480000D03*
X200000Y484000D03*
X204000Y484000D03*
X208000Y484000D03*
X212000Y484000D03*
X216000Y484000D03*
X220000Y484000D03*
X224000Y484000D03*
X228000Y484000D03*
X232000Y484000D03*
X236000Y484000D03*
X256000Y484000D03*
X260000Y484000D03*
X264000Y484000D03*
X268000Y484000D03*
X272000Y484000D03*
X276000Y484000D03*
X280000Y484000D03*
X284000Y484000D03*
X288000Y484000D03*
X292000Y484000D03*
X312000Y484000D03*
X316000Y484000D03*
X320000Y484000D03*
X324000Y484000D03*
X328000Y484000D03*
X332000Y484000D03*
X336000Y484000D03*
X340000Y484000D03*
X344000Y484000D03*
X348000Y484000D03*
X368000Y484000D03*
X372000Y484000D03*
X376000Y484000D03*
X380000Y484000D03*
X384000Y484000D03*
X388000Y484000D03*
X392000Y484000D03*
X396000Y484000D03*
X400000Y484000D03*
X404000Y484000D03*
X424000Y484000D03*
X428000Y484000D03*
X432000Y484000D03*
X436000Y484000D03*
X440000Y484000D03*
X444000Y484000D03*
X448000Y484000D03*
X452000Y484000D03*
X456000Y484000D03*
X460000Y484000D03*
X480000Y484000D03*
X484000Y484000D03*
X488000Y484000D03*
X492000Y484000D03*
X496000Y484000D03*
X500000Y484000D03*
X504000Y484000D03*
X508000Y484000D03*
X512000Y484000D03*
X516000Y484000D03*
X536000Y484000D03*
X540000Y484000D03*
X544000Y484000D03*
X548000Y484000D03*
X552000Y484000D03*
X556000Y484000D03*
X560000Y484000D03*
X564000Y484000D03*
X568000Y484000D03*
X572000Y484000D03*
X592000Y484000D03*
X596000Y484000D03*
X600000Y484000D03*
X604000Y484000D03*
X608000Y484000D03*
X612000Y484000D03*
X616000Y484000D03*
X620000Y484000D03*
X624000Y484000D03*
X628000Y484000D03*
X648000Y484000D03*
X652000Y484000D03*
X656000Y484000D03*
X660000Y484000D03*
X664000Y484000D03*
X668000Y484000D03*
X672000Y484000D03*
X676000Y484000D03*
X680000Y484000D03*
X684000Y484000D03*
X704000Y484000D03*
X708000Y484000D03*
X712000Y484000D03*
X716000Y484000D03*
X720000Y484000D03*
X724000Y484000D03*
X728000Y484000D03*
X732000Y484000D03*
X736000Y484000D03*
X740000Y484000D03*
X200000Y488000D03*
X204000Y488000D03*
X208000Y488000D03*
X212000Y488000D03*
X216000Y488000D03*
X220000Y488000D03*
X224000Y488000D03*
X228000Y488000D03*
X232000Y488000D03*
X236000Y488000D03*
X256000Y488000D03*
X260000Y488000D03*
X264000Y488000D03*
X268000Y488000D03*
X272000Y488000D03*
X276000Y488000D03*
X280000Y488000D03*
X284000Y488000D03*
X288000Y488000D03*
X292000Y488000D03*
X312000Y488000D03*
X316000Y488000D03*
X320000Y488000D03*
X324000Y488000D03*
X328000Y488000D03*
X332000Y488000D03*
X336000Y488000D03*
X340000Y488000D03*
X344000Y488000D03*
X348000Y488000D03*
X368000Y488000D03*
X372000Y488000D03*
X376000Y488000D03*
X380000Y488000D03*
X384000Y488000D03*
X388000Y488000D03*
X392000Y488000D03*
X396000Y488000D03*
X400000Y488000D03*
X404000Y488000D03*
X424000Y488000D03*
X428000Y488000D03*
X432000Y488000D03*
X436000Y488000D03*
X440000Y488000D03*
X444000Y488000D03*
X448000Y488000D03*
X452000Y488000D03*
X456000Y488000D03*
X460000Y488000D03*
X480000Y488000D03*
X484000Y488000D03*
X488000Y488000D03*
X492000Y488000D03*
X496000Y488000D03*
X500000Y488000D03*
X504000Y488000D03*
X508000Y488000D03*
X512000Y488000D03*
X516000Y488000D03*
X536000Y488000D03*
X540000Y488000D03*
X544000Y488000D03*
X548000Y488000D03*
X552000Y488000D03*
X556000Y488000D03*
X560000Y488000D03*
X564000Y488000D03*
X568000Y488000D03*
X572000Y488000D03*
X592000Y488000D03*
X596000Y488000D03*
X600000Y488000D03*
X604000Y488000D03*
X608000Y488000D03*
X612000Y488000D03*
X616000Y488000D03*
X620000Y488000D03*
X624000Y488000D03*
X628000Y488000D03*
X648000Y488000D03*
X652000Y488000D03*
X656000Y488000D03*
X660000Y488000D03*
X664000Y488000D03*
X668000Y488000D03*
X672000Y488000D03*
X676000Y488000D03*
X680000Y488000D03*
X684000Y488000D03*
X704000Y488000D03*
X708000Y488000D03*
X712000Y488000D03*
X716000Y488000D03*
X720000Y488000D03*
X724000Y488000D03*
X728000Y488000D03*
X732000Y488000D03*
X736000Y488000D03*
X740000Y488000D03*
X200000Y492000D03*
X204000Y492000D03*
X208000Y492000D03*
X212000Y492000D03*
X216000Y492000D03*
X220000Y492000D03*
X224000Y492000D03*
X228000Y492000D03*
X232000Y492000D03*
X236000Y492000D03*
X256000Y492000D03*
X260000Y492000D03*
X264000Y492000D03*
X268000Y492000D03*
X272000Y492000D03*
X276000Y492000D03*
X280000Y492000D03*
X284000Y492000D03*
X288000Y492000D03*
X292000Y492000D03*
X312000Y492000D03*
X316000Y492000D03*
X320000Y492000D03*
X324000Y492000D03*
X328000Y492000D03*
X332000Y492000D03*
X336000Y492000D03*
X340000Y492000D03*
X344000Y492000D03*
X348000Y492000D03*
X368000Y492000D03*
X372000Y492000D03*
X376000Y492000D03*
X380000Y492000D03*
X384000Y492000D03*
X388000Y492000D03*
X392000Y492000D03*
X396000Y492000D03*
X400000Y492000D03*
X404000Y492000D03*
X424000Y492000D03*
X428000Y492000D03*
X432000Y492000D03*
X436000Y492000D03*
X440000Y492000D03*
X444000Y492000D03*
X448000Y492000D03*
X452000Y492000D03*
X456000Y492000D03*
X460000Y492000D03*
X480000Y492000D03*
X484000Y492000D03*
X488000Y492000D03*
X492000Y492000D03*
X496000Y492000D03*
X500000Y492000D03*
X504000Y492000D03*
X508000Y492000D03*
X512000Y492000D03*
X516000Y492000D03*
X536000Y492000D03*
X540000Y492000D03*
X544000Y492000D03*
X548000Y492000D03*
X552000Y492000D03*
X556000Y492000D03*
X560000Y492000D03*
X564000Y492000D03*
X568000Y492000D03*
X572000Y492000D03*
X592000Y492000D03*
X596000Y492000D03*
X600000Y492000D03*
X604000Y492000D03*
X608000Y492000D03*
X612000Y492000D03*
X616000Y492000D03*
X620000Y492000D03*
X624000Y492000D03*
X628000Y492000D03*
X648000Y492000D03*
X652000Y492000D03*
X656000Y492000D03*
X660000Y492000D03*
X664000Y492000D03*
X668000Y492000D03*
X672000Y492000D03*
X676000Y492000D03*
X680000Y492000D03*
X684000Y492000D03*
X704000Y492000D03*
X708000Y492000D03*
X712000Y492000D03*
X716000Y492000D03*
X720000Y492000D03*
X724000Y492000D03*
X728000Y492000D03*
X732000Y492000D03*
X736000Y492000D03*
X740000Y492000D03*
X200000Y496000D03*
X204000Y496000D03*
X208000Y496000D03*
X212000Y496000D03*
X216000Y496000D03*
X220000Y496000D03*
X224000Y496000D03*
X228000Y496000D03*
X232000Y496000D03*
X236000Y496000D03*
X256000Y496000D03*
X260000Y496000D03*
X264000Y496000D03*
X268000Y496000D03*
X272000Y496000D03*
X276000Y496000D03*
X280000Y496000D03*
X284000Y496000D03*
X288000Y496000D03*
X292000Y496000D03*
X312000Y496000D03*
X316000Y496000D03*
X320000Y496000D03*
X324000Y496000D03*
X328000Y496000D03*
X332000Y496000D03*
X336000Y496000D03*
X340000Y496000D03*
X344000Y496000D03*
X348000Y496000D03*
X368000Y496000D03*
X372000Y496000D03*
X376000Y496000D03*
X380000Y496000D03*
X384000Y496000D03*
X388000Y496000D03*
X392000Y496000D03*
X396000Y496000D03*
X400000Y496000D03*
X404000Y496000D03*
X424000Y496000D03*
X428000Y496000D03*
X432000Y496000D03*
X436000Y496000D03*
X440000Y496000D03*
X444000Y496000D03*
X448000Y496000D03*
X452000Y496000D03*
X456000Y496000D03*
X460000Y496000D03*
X480000Y496000D03*
X484000Y496000D03*
X488000Y496000D03*
X492000Y496000D03*
X496000Y496000D03*
X500000Y496000D03*
X504000Y496000D03*
X508000Y496000D03*
X512000Y496000D03*
X516000Y496000D03*
X536000Y496000D03*
X540000Y496000D03*
X544000Y496000D03*
X548000Y496000D03*
X552000Y496000D03*
X556000Y496000D03*
X560000Y496000D03*
X564000Y496000D03*
X568000Y496000D03*
X572000Y496000D03*
X592000Y496000D03*
X596000Y496000D03*
X600000Y496000D03*
X604000Y496000D03*
X608000Y496000D03*
X612000Y496000D03*
X616000Y496000D03*
X620000Y496000D03*
X624000Y496000D03*
X628000Y496000D03*
X648000Y496000D03*
X652000Y496000D03*
X656000Y496000D03*
X660000Y496000D03*
X664000Y496000D03*
X668000Y496000D03*
X672000Y496000D03*
X676000Y496000D03*
X680000Y496000D03*
X684000Y496000D03*
X704000Y496000D03*
X708000Y496000D03*
X712000Y496000D03*
X716000Y496000D03*
X720000Y496000D03*
X724000Y496000D03*
X728000Y496000D03*
X732000Y496000D03*
X736000Y496000D03*
X740000Y496000D03*
X200000Y500000D03*
X204000Y500000D03*
X208000Y500000D03*
X212000Y500000D03*
X216000Y500000D03*
X220000Y500000D03*
X224000Y500000D03*
X228000Y500000D03*
X232000Y500000D03*
X236000Y500000D03*
X256000Y500000D03*
X260000Y500000D03*
X264000Y500000D03*
X268000Y500000D03*
X272000Y500000D03*
X276000Y500000D03*
X280000Y500000D03*
X284000Y500000D03*
X288000Y500000D03*
X292000Y500000D03*
X312000Y500000D03*
X316000Y500000D03*
X320000Y500000D03*
X324000Y500000D03*
X328000Y500000D03*
X332000Y500000D03*
X336000Y500000D03*
X340000Y500000D03*
X344000Y500000D03*
X348000Y500000D03*
X368000Y500000D03*
X372000Y500000D03*
X376000Y500000D03*
X380000Y500000D03*
X384000Y500000D03*
X388000Y500000D03*
X392000Y500000D03*
X396000Y500000D03*
X400000Y500000D03*
X404000Y500000D03*
X424000Y500000D03*
X428000Y500000D03*
X432000Y500000D03*
X436000Y500000D03*
X440000Y500000D03*
X444000Y500000D03*
X448000Y500000D03*
X452000Y500000D03*
X456000Y500000D03*
X460000Y500000D03*
X480000Y500000D03*
X484000Y500000D03*
X488000Y500000D03*
X492000Y500000D03*
X496000Y500000D03*
X500000Y500000D03*
X504000Y500000D03*
X508000Y500000D03*
X512000Y500000D03*
X516000Y500000D03*
X536000Y500000D03*
X540000Y500000D03*
X544000Y500000D03*
X548000Y500000D03*
X552000Y500000D03*
X556000Y500000D03*
X560000Y500000D03*
X564000Y500000D03*
X568000Y500000D03*
X572000Y500000D03*
X592000Y500000D03*
X596000Y500000D03*
X600000Y500000D03*
X604000Y500000D03*
X608000Y500000D03*
X612000Y500000D03*
X616000Y500000D03*
X620000Y500000D03*
X624000Y500000D03*
X628000Y500000D03*
X648000Y500000D03*
X652000Y500000D03*
X656000Y500000D03*
X660000Y500000D03*
X664000Y500000D03*
X668000Y500000D03*
X672000Y500000D03*
X676000Y500000D03*
X680000Y500000D03*
X684000Y500000D03*
X704000Y500000D03*
X708000Y500000D03*
X712000Y500000D03*
X716000Y500000D03*
X720000Y500000D03*
X724000Y500000D03*
X728000Y500000D03*
X732000Y500000D03*
X736000Y500000D03*
X740000Y500000D03*
X200000Y504000D03*
X204000Y504000D03*
X208000Y504000D03*
X212000Y504000D03*
X216000Y504000D03*
X220000Y504000D03*
X224000Y504000D03*
X228000Y504000D03*
X232000Y504000D03*
X236000Y504000D03*
X256000Y504000D03*
X260000Y504000D03*
X264000Y504000D03*
X268000Y504000D03*
X272000Y504000D03*
X276000Y504000D03*
X280000Y504000D03*
X284000Y504000D03*
X288000Y504000D03*
X292000Y504000D03*
X312000Y504000D03*
X316000Y504000D03*
X320000Y504000D03*
X324000Y504000D03*
X328000Y504000D03*
X332000Y504000D03*
X336000Y504000D03*
X340000Y504000D03*
X344000Y504000D03*
X348000Y504000D03*
X368000Y504000D03*
X372000Y504000D03*
X376000Y504000D03*
X380000Y504000D03*
X384000Y504000D03*
X388000Y504000D03*
X392000Y504000D03*
X396000Y504000D03*
X400000Y504000D03*
X404000Y504000D03*
X424000Y504000D03*
X428000Y504000D03*
X432000Y504000D03*
X436000Y504000D03*
X440000Y504000D03*
X444000Y504000D03*
X448000Y504000D03*
X452000Y504000D03*
X456000Y504000D03*
X460000Y504000D03*
X480000Y504000D03*
X484000Y504000D03*
X488000Y504000D03*
X492000Y504000D03*
X496000Y504000D03*
X500000Y504000D03*
X504000Y504000D03*
X508000Y504000D03*
X512000Y504000D03*
X516000Y504000D03*
X536000Y504000D03*
X540000Y504000D03*
X544000Y504000D03*
X548000Y504000D03*
X552000Y504000D03*
X556000Y504000D03*
X560000Y504000D03*
X564000Y504000D03*
X568000Y504000D03*
X572000Y504000D03*
X592000Y504000D03*
X596000Y504000D03*
X600000Y504000D03*
X604000Y504000D03*
X608000Y504000D03*
X612000Y504000D03*
X616000Y504000D03*
X620000Y504000D03*
X624000Y504000D03*
X628000Y504000D03*
X648000Y504000D03*
X652000Y504000D03*
X656000Y504000D03*
X660000Y504000D03*
X664000Y504000D03*
X668000Y504000D03*
X672000Y504000D03*
X676000Y504000D03*
X680000Y504000D03*
X684000Y504000D03*
X704000Y504000D03*
X708000Y504000D03*
X712000Y504000D03*
X716000Y504000D03*
X720000Y504000D03*
X724000Y504000D03*
X728000Y504000D03*
X732000Y504000D03*
X736000Y504000D03*
X740000Y504000D03*
X200000Y508000D03*
X204000Y508000D03*
X208000Y508000D03*
X212000Y508000D03*
X216000Y508000D03*
X220000Y508000D03*
X224000Y508000D03*
X228000Y508000D03*
X232000Y508000D03*
X236000Y508000D03*
X256000Y508000D03*
X260000Y508000D03*
X264000Y508000D03*
X268000Y508000D03*
X272000Y508000D03*
X276000Y508000D03*
X280000Y508000D03*
X284000Y508000D03*
X288000Y508000D03*
X292000Y508000D03*
X312000Y508000D03*
X316000Y508000D03*
X320000Y508000D03*
X324000Y508000D03*
X328000Y508000D03*
X332000Y508000D03*
X336000Y508000D03*
X340000Y508000D03*
X344000Y508000D03*
X348000Y508000D03*
X368000Y508000D03*
X372000Y508000D03*
X376000Y508000D03*
X380000Y508000D03*
X384000Y508000D03*
X388000Y508000D03*
X392000Y508000D03*
X396000Y508000D03*
X400000Y508000D03*
X404000Y508000D03*
X424000Y508000D03*
X428000Y508000D03*
X432000Y508000D03*
X436000Y508000D03*
X440000Y508000D03*
X444000Y508000D03*
X448000Y508000D03*
X452000Y508000D03*
X456000Y508000D03*
X460000Y508000D03*
X480000Y508000D03*
X484000Y508000D03*
X488000Y508000D03*
X492000Y508000D03*
X496000Y508000D03*
X500000Y508000D03*
X504000Y508000D03*
X508000Y508000D03*
X512000Y508000D03*
X516000Y508000D03*
X536000Y508000D03*
X540000Y508000D03*
X544000Y508000D03*
X548000Y508000D03*
X552000Y508000D03*
X556000Y508000D03*
X560000Y508000D03*
X564000Y508000D03*
X568000Y508000D03*
X572000Y508000D03*
X592000Y508000D03*
X596000Y508000D03*
X600000Y508000D03*
X604000Y508000D03*
X608000Y508000D03*
X612000Y508000D03*
X616000Y508000D03*
X620000Y508000D03*
X624000Y508000D03*
X628000Y508000D03*
X648000Y508000D03*
X652000Y508000D03*
X656000Y508000D03*
X660000Y508000D03*
X664000Y508000D03*
X668000Y508000D03*
X672000Y508000D03*
X676000Y508000D03*
X680000Y508000D03*
X684000Y508000D03*
X704000Y508000D03*
X708000Y508000D03*
X712000Y508000D03*
X716000Y508000D03*
X720000Y508000D03*
X724000Y508000D03*
X728000Y508000D03*
X732000Y508000D03*
X736000Y508000D03*
X740000Y508000D03*
X200000Y512000D03*
X204000Y512000D03*
X208000Y512000D03*
X212000Y512000D03*
X216000Y512000D03*
X220000Y512000D03*
X224000Y512000D03*
X228000Y512000D03*
X232000Y512000D03*
X236000Y512000D03*
X256000Y512000D03*
X260000Y512000D03*
X264000Y512000D03*
X268000Y512000D03*
X272000Y512000D03*
X276000Y512000D03*
X280000Y512000D03*
X284000Y512000D03*
X288000Y512000D03*
X292000Y512000D03*
X312000Y512000D03*
X316000Y512000D03*
X320000Y512000D03*
X324000Y512000D03*
X328000Y512000D03*
X332000Y512000D03*
X336000Y512000D03*
X340000Y512000D03*
X344000Y512000D03*
X348000Y512000D03*
X368000Y512000D03*
X372000Y512000D03*
X376000Y512000D03*
X380000Y512000D03*
X384000Y512000D03*
X388000Y512000D03*
X392000Y512000D03*
X396000Y512000D03*
X400000Y512000D03*
X404000Y512000D03*
X424000Y512000D03*
X428000Y512000D03*
X432000Y512000D03*
X436000Y512000D03*
X440000Y512000D03*
X444000Y512000D03*
X448000Y512000D03*
X452000Y512000D03*
X456000Y512000D03*
X460000Y512000D03*
X480000Y512000D03*
X484000Y512000D03*
X488000Y512000D03*
X492000Y512000D03*
X496000Y512000D03*
X500000Y512000D03*
X504000Y512000D03*
X508000Y512000D03*
X512000Y512000D03*
X516000Y512000D03*
X536000Y512000D03*
X540000Y512000D03*
X544000Y512000D03*
X548000Y512000D03*
X552000Y512000D03*
X556000Y512000D03*
X560000Y512000D03*
X564000Y512000D03*
X568000Y512000D03*
X572000Y512000D03*
X592000Y512000D03*
X596000Y512000D03*
X600000Y512000D03*
X604000Y512000D03*
X608000Y512000D03*
X612000Y512000D03*
X616000Y512000D03*
X620000Y512000D03*
X624000Y512000D03*
X628000Y512000D03*
X648000Y512000D03*
X652000Y512000D03*
X656000Y512000D03*
X660000Y512000D03*
X664000Y512000D03*
X668000Y512000D03*
X672000Y512000D03*
X676000Y512000D03*
X680000Y512000D03*
X684000Y512000D03*
X704000Y512000D03*
X708000Y512000D03*
X712000Y512000D03*
X716000Y512000D03*
X720000Y512000D03*
X724000Y512000D03*
X728000Y512000D03*
X732000Y512000D03*
X736000Y512000D03*
X740000Y512000D03*
X200000Y516000D03*
X204000Y516000D03*
X208000Y516000D03*
X212000Y516000D03*
X216000Y516000D03*
X220000Y516000D03*
X224000Y516000D03*
X228000Y516000D03*
X232000Y516000D03*
X236000Y516000D03*
X256000Y516000D03*
X260000Y516000D03*
X264000Y516000D03*
X268000Y516000D03*
X272000Y516000D03*
X276000Y516000D03*
X280000Y516000D03*
X284000Y516000D03*
X288000Y516000D03*
X292000Y516000D03*
X312000Y516000D03*
X316000Y516000D03*
X320000Y516000D03*
X324000Y516000D03*
X328000Y516000D03*
X332000Y516000D03*
X336000Y516000D03*
X340000Y516000D03*
X344000Y516000D03*
X348000Y516000D03*
X368000Y516000D03*
X372000Y516000D03*
X376000Y516000D03*
X380000Y516000D03*
X384000Y516000D03*
X388000Y516000D03*
X392000Y516000D03*
X396000Y516000D03*
X400000Y516000D03*
X404000Y516000D03*
X424000Y516000D03*
X428000Y516000D03*
X432000Y516000D03*
X436000Y516000D03*
X440000Y516000D03*
X444000Y516000D03*
X448000Y516000D03*
X452000Y516000D03*
X456000Y516000D03*
X460000Y516000D03*
X480000Y516000D03*
X484000Y516000D03*
X488000Y516000D03*
X492000Y516000D03*
X496000Y516000D03*
X500000Y516000D03*
X504000Y516000D03*
X508000Y516000D03*
X512000Y516000D03*
X516000Y516000D03*
X536000Y516000D03*
X540000Y516000D03*
X544000Y516000D03*
X548000Y516000D03*
X552000Y516000D03*
X556000Y516000D03*
X560000Y516000D03*
X564000Y516000D03*
X568000Y516000D03*
X572000Y516000D03*
X592000Y516000D03*
X596000Y516000D03*
X600000Y516000D03*
X604000Y516000D03*
X608000Y516000D03*
X612000Y516000D03*
X616000Y516000D03*
X620000Y516000D03*
X624000Y516000D03*
X628000Y516000D03*
X648000Y516000D03*
X652000Y516000D03*
X656000Y516000D03*
X660000Y516000D03*
X664000Y516000D03*
X668000Y516000D03*
X672000Y516000D03*
X676000Y516000D03*
X680000Y516000D03*
X684000Y516000D03*
X704000Y516000D03*
X708000Y516000D03*
X712000Y516000D03*
X716000Y516000D03*
X720000Y516000D03*
X724000Y516000D03*
X728000Y516000D03*
X732000Y516000D03*
X736000Y516000D03*
X740000Y516000D03*
X200000Y536000D03*
X204000Y536000D03*
X208000Y536000D03*
X212000Y536000D03*
X216000Y536000D03*
X220000Y536000D03*
X224000Y536000D03*
X228000Y536000D03*
X232000Y536000D03*
X236000Y536000D03*
X256000Y536000D03*
X260000Y536000D03*
X264000Y536000D03*
X268000Y536000D03*
X272000Y536000D03*
X276000Y536000D03*
X280000Y536000D03*
X284000Y536000D03*
X288000Y536000D03*
X292000Y536000D03*
X312000Y536000D03*
X316000Y536000D03*
X320000Y536000D03*
X324000Y536000D03*
X328000Y536000D03*
X332000Y536000D03*
X336000Y536000D03*
X340000Y536000D03*
X344000Y536000D03*
X348000Y536000D03*
X368000Y536000D03*
X372000Y536000D03*
X376000Y536000D03*
X380000Y536000D03*
X384000Y536000D03*
X388000Y536000D03*
X392000Y536000D03*
X396000Y536000D03*
X400000Y536000D03*
X404000Y536000D03*
X424000Y536000D03*
X428000Y536000D03*
X432000Y536000D03*
X436000Y536000D03*
X440000Y536000D03*
X444000Y536000D03*
X448000Y536000D03*
X452000Y536000D03*
X456000Y536000D03*
X460000Y536000D03*
X480000Y536000D03*
X484000Y536000D03*
X488000Y536000D03*
X492000Y536000D03*
X496000Y536000D03*
X500000Y536000D03*
X504000Y536000D03*
X508000Y536000D03*
X512000Y536000D03*
X516000Y536000D03*
X536000Y536000D03*
X540000Y536000D03*
X544000Y536000D03*
X548000Y536000D03*
X552000Y536000D03*
X556000Y536000D03*
X560000Y536000D03*
X564000Y536000D03*
X568000Y536000D03*
X572000Y536000D03*
X592000Y536000D03*
X596000Y536000D03*
X600000Y536000D03*
X604000Y536000D03*
X608000Y536000D03*
X612000Y536000D03*
X616000Y536000D03*
X620000Y536000D03*
X624000Y536000D03*
X628000Y536000D03*
X648000Y536000D03*
X652000Y536000D03*
X656000Y536000D03*
X660000Y536000D03*
X664000Y536000D03*
X668000Y536000D03*
X672000Y536000D03*
X676000Y536000D03*
X680000Y536000D03*
X684000Y536000D03*
X704000Y536000D03*
X708000Y536000D03*
X712000Y536000D03*
X716000Y536000D03*
X720000Y536000D03*
X724000Y536000D03*
X728000Y536000D03*
X732000Y536000D03*
X736000Y536000D03*
X740000Y536000D03*
X200000Y540000D03*
X204000Y540000D03*
X208000Y540000D03*
X212000Y540000D03*
X216000Y540000D03*
X220000Y540000D03*
X224000Y540000D03*
X228000Y540000D03*
X232000Y540000D03*
X236000Y540000D03*
X256000Y540000D03*
X260000Y540000D03*
X264000Y540000D03*
X268000Y540000D03*
X272000Y540000D03*
X276000Y540000D03*
X280000Y540000D03*
X284000Y540000D03*
X288000Y540000D03*
X292000Y540000D03*
X312000Y540000D03*
X316000Y540000D03*
X320000Y540000D03*
X324000Y540000D03*
X328000Y540000D03*
X332000Y540000D03*
X336000Y540000D03*
X340000Y540000D03*
X344000Y540000D03*
X348000Y540000D03*
X368000Y540000D03*
X372000Y540000D03*
X376000Y540000D03*
X380000Y540000D03*
X384000Y540000D03*
X388000Y540000D03*
X392000Y540000D03*
X396000Y540000D03*
X400000Y540000D03*
X404000Y540000D03*
X424000Y540000D03*
X428000Y540000D03*
X432000Y540000D03*
X436000Y540000D03*
X440000Y540000D03*
X444000Y540000D03*
X448000Y540000D03*
X452000Y540000D03*
X456000Y540000D03*
X460000Y540000D03*
X480000Y540000D03*
X484000Y540000D03*
X488000Y540000D03*
X492000Y540000D03*
X496000Y540000D03*
X500000Y540000D03*
X504000Y540000D03*
X508000Y540000D03*
X512000Y540000D03*
X516000Y540000D03*
X536000Y540000D03*
X540000Y540000D03*
X544000Y540000D03*
X548000Y540000D03*
X552000Y540000D03*
X556000Y540000D03*
X560000Y540000D03*
X564000Y540000D03*
X568000Y540000D03*
X572000Y540000D03*
X592000Y540000D03*
X596000Y540000D03*
X600000Y540000D03*
X604000Y540000D03*
X608000Y540000D03*
X612000Y540000D03*
X616000Y540000D03*
X620000Y540000D03*
X624000Y540000D03*
X628000Y540000D03*
X648000Y540000D03*
X652000Y540000D03*
X656000Y540000D03*
X660000Y540000D03*
X664000Y540000D03*
X668000Y540000D03*
X672000Y540000D03*
X676000Y540000D03*
X680000Y540000D03*
X684000Y540000D03*
X704000Y540000D03*
X708000Y540000D03*
X712000Y540000D03*
X716000Y540000D03*
X720000Y540000D03*
X724000Y540000D03*
X728000Y540000D03*
X732000Y540000D03*
X736000Y540000D03*
X740000Y540000D03*
X200000Y544000D03*
X204000Y544000D03*
X208000Y544000D03*
X212000Y544000D03*
X216000Y544000D03*
X220000Y544000D03*
X224000Y544000D03*
X228000Y544000D03*
X232000Y544000D03*
X236000Y544000D03*
X256000Y544000D03*
X260000Y544000D03*
X264000Y544000D03*
X268000Y544000D03*
X272000Y544000D03*
X276000Y544000D03*
X280000Y544000D03*
X284000Y544000D03*
X288000Y544000D03*
X292000Y544000D03*
X312000Y544000D03*
X316000Y544000D03*
X320000Y544000D03*
X324000Y544000D03*
X328000Y544000D03*
X332000Y544000D03*
X336000Y544000D03*
X340000Y544000D03*
X344000Y544000D03*
X348000Y544000D03*
X368000Y544000D03*
X372000Y544000D03*
X376000Y544000D03*
X380000Y544000D03*
X384000Y544000D03*
X388000Y544000D03*
X392000Y544000D03*
X396000Y544000D03*
X400000Y544000D03*
X404000Y544000D03*
X424000Y544000D03*
X428000Y544000D03*
X432000Y544000D03*
X436000Y544000D03*
X440000Y544000D03*
X444000Y544000D03*
X448000Y544000D03*
X452000Y544000D03*
X456000Y544000D03*
X460000Y544000D03*
X480000Y544000D03*
X484000Y544000D03*
X488000Y544000D03*
X492000Y544000D03*
X496000Y544000D03*
X500000Y544000D03*
X504000Y544000D03*
X508000Y544000D03*
X512000Y544000D03*
X516000Y544000D03*
X536000Y544000D03*
X540000Y544000D03*
X544000Y544000D03*
X548000Y544000D03*
X552000Y544000D03*
X556000Y544000D03*
X560000Y544000D03*
X564000Y544000D03*
X568000Y544000D03*
X572000Y544000D03*
X592000Y544000D03*
X596000Y544000D03*
X600000Y544000D03*
X604000Y544000D03*
X608000Y544000D03*
X612000Y544000D03*
X616000Y544000D03*
X620000Y544000D03*
X624000Y544000D03*
X628000Y544000D03*
X648000Y544000D03*
X652000Y544000D03*
X656000Y544000D03*
X660000Y544000D03*
X664000Y544000D03*
X668000Y544000D03*
X672000Y544000D03*
X676000Y544000D03*
X680000Y544000D03*
X684000Y544000D03*
X704000Y544000D03*
X708000Y544000D03*
X712000Y544000D03*
X716000Y544000D03*
X720000Y544000D03*
X724000Y544000D03*
X728000Y544000D03*
X732000Y544000D03*
X736000Y544000D03*
X740000Y544000D03*
X200000Y548000D03*
X204000Y548000D03*
X208000Y548000D03*
X212000Y548000D03*
X216000Y548000D03*
X220000Y548000D03*
X224000Y548000D03*
X228000Y548000D03*
X232000Y548000D03*
X236000Y548000D03*
X256000Y548000D03*
X260000Y548000D03*
X264000Y548000D03*
X268000Y548000D03*
X272000Y548000D03*
X276000Y548000D03*
X280000Y548000D03*
X284000Y548000D03*
X288000Y548000D03*
X292000Y548000D03*
X312000Y548000D03*
X316000Y548000D03*
X320000Y548000D03*
X324000Y548000D03*
X328000Y548000D03*
X332000Y548000D03*
X336000Y548000D03*
X340000Y548000D03*
X344000Y548000D03*
X348000Y548000D03*
X368000Y548000D03*
X372000Y548000D03*
X376000Y548000D03*
X380000Y548000D03*
X384000Y548000D03*
X388000Y548000D03*
X392000Y548000D03*
X396000Y548000D03*
X400000Y548000D03*
X404000Y548000D03*
X424000Y548000D03*
X428000Y548000D03*
X432000Y548000D03*
X436000Y548000D03*
X440000Y548000D03*
X444000Y548000D03*
X448000Y548000D03*
X452000Y548000D03*
X456000Y548000D03*
X460000Y548000D03*
X480000Y548000D03*
X484000Y548000D03*
X488000Y548000D03*
X492000Y548000D03*
X496000Y548000D03*
X500000Y548000D03*
X504000Y548000D03*
X508000Y548000D03*
X512000Y548000D03*
X516000Y548000D03*
X536000Y548000D03*
X540000Y548000D03*
X544000Y548000D03*
X548000Y548000D03*
X552000Y548000D03*
X556000Y548000D03*
X560000Y548000D03*
X564000Y548000D03*
X568000Y548000D03*
X572000Y548000D03*
X592000Y548000D03*
X596000Y548000D03*
X600000Y548000D03*
X604000Y548000D03*
X608000Y548000D03*
X612000Y548000D03*
X616000Y548000D03*
X620000Y548000D03*
X624000Y548000D03*
X628000Y548000D03*
X648000Y548000D03*
X652000Y548000D03*
X656000Y548000D03*
X660000Y548000D03*
X664000Y548000D03*
X668000Y548000D03*
X672000Y548000D03*
X676000Y548000D03*
X680000Y548000D03*
X684000Y548000D03*
X704000Y548000D03*
X708000Y548000D03*
X712000Y548000D03*
X716000Y548000D03*
X720000Y548000D03*
X724000Y548000D03*
X728000Y548000D03*
X732000Y548000D03*
X736000Y548000D03*
X740000Y548000D03*
X200000Y552000D03*
X204000Y552000D03*
X208000Y552000D03*
X212000Y552000D03*
X216000Y552000D03*
X220000Y552000D03*
X224000Y552000D03*
X228000Y552000D03*
X232000Y552000D03*
X236000Y552000D03*
X256000Y552000D03*
X260000Y552000D03*
X264000Y552000D03*
X268000Y552000D03*
X272000Y552000D03*
X276000Y552000D03*
X280000Y552000D03*
X284000Y552000D03*
X288000Y552000D03*
X292000Y552000D03*
X312000Y552000D03*
X316000Y552000D03*
X320000Y552000D03*
X324000Y552000D03*
X328000Y552000D03*
X332000Y552000D03*
X336000Y552000D03*
X340000Y552000D03*
X344000Y552000D03*
X348000Y552000D03*
X368000Y552000D03*
X372000Y552000D03*
X376000Y552000D03*
X380000Y552000D03*
X384000Y552000D03*
X388000Y552000D03*
X392000Y552000D03*
X396000Y552000D03*
X400000Y552000D03*
X404000Y552000D03*
X424000Y552000D03*
X428000Y552000D03*
X432000Y552000D03*
X436000Y552000D03*
X440000Y552000D03*
X444000Y552000D03*
X448000Y552000D03*
X452000Y552000D03*
X456000Y552000D03*
X460000Y552000D03*
X480000Y552000D03*
X484000Y552000D03*
X488000Y552000D03*
X492000Y552000D03*
X496000Y552000D03*
X500000Y552000D03*
X504000Y552000D03*
X508000Y552000D03*
X512000Y552000D03*
X516000Y552000D03*
X536000Y552000D03*
X540000Y552000D03*
X544000Y552000D03*
X548000Y552000D03*
X552000Y552000D03*
X556000Y552000D03*
X560000Y552000D03*
X564000Y552000D03*
X568000Y552000D03*
X572000Y552000D03*
X592000Y552000D03*
X596000Y552000D03*
X600000Y552000D03*
X604000Y552000D03*
X608000Y552000D03*
X612000Y552000D03*
X616000Y552000D03*
X620000Y552000D03*
X624000Y552000D03*
X628000Y552000D03*
X648000Y552000D03*
X652000Y552000D03*
X656000Y552000D03*
X660000Y552000D03*
X664000Y552000D03*
X668000Y552000D03*
X672000Y552000D03*
X676000Y552000D03*
X680000Y552000D03*
X684000Y552000D03*
X704000Y552000D03*
X708000Y552000D03*
X712000Y552000D03*
X716000Y552000D03*
X720000Y552000D03*
X724000Y552000D03*
X728000Y552000D03*
X732000Y552000D03*
X736000Y552000D03*
X740000Y552000D03*
X200000Y556000D03*
X204000Y556000D03*
X208000Y556000D03*
X212000Y556000D03*
X216000Y556000D03*
X220000Y556000D03*
X224000Y556000D03*
X228000Y556000D03*
X232000Y556000D03*
X236000Y556000D03*
X256000Y556000D03*
X260000Y556000D03*
X264000Y556000D03*
X268000Y556000D03*
X272000Y556000D03*
X276000Y556000D03*
X280000Y556000D03*
X284000Y556000D03*
X288000Y556000D03*
X292000Y556000D03*
X312000Y556000D03*
X316000Y556000D03*
X320000Y556000D03*
X324000Y556000D03*
X328000Y556000D03*
X332000Y556000D03*
X336000Y556000D03*
X340000Y556000D03*
X344000Y556000D03*
X348000Y556000D03*
X368000Y556000D03*
X372000Y556000D03*
X376000Y556000D03*
X380000Y556000D03*
X384000Y556000D03*
X388000Y556000D03*
X392000Y556000D03*
X396000Y556000D03*
X400000Y556000D03*
X404000Y556000D03*
X424000Y556000D03*
X428000Y556000D03*
X432000Y556000D03*
X436000Y556000D03*
X440000Y556000D03*
X444000Y556000D03*
X448000Y556000D03*
X452000Y556000D03*
X456000Y556000D03*
X460000Y556000D03*
X480000Y556000D03*
X484000Y556000D03*
X488000Y556000D03*
X492000Y556000D03*
X496000Y556000D03*
X500000Y556000D03*
X504000Y556000D03*
X508000Y556000D03*
X512000Y556000D03*
X516000Y556000D03*
X536000Y556000D03*
X540000Y556000D03*
X544000Y556000D03*
X548000Y556000D03*
X552000Y556000D03*
X556000Y556000D03*
X560000Y556000D03*
X564000Y556000D03*
X568000Y556000D03*
X572000Y556000D03*
X592000Y556000D03*
X596000Y556000D03*
X600000Y556000D03*
X604000Y556000D03*
X608000Y556000D03*
X612000Y556000D03*
X616000Y556000D03*
X620000Y556000D03*
X624000Y556000D03*
X628000Y556000D03*
X648000Y556000D03*
X652000Y556000D03*
X656000Y556000D03*
X660000Y556000D03*
X664000Y556000D03*
X668000Y556000D03*
X672000Y556000D03*
X676000Y556000D03*
X680000Y556000D03*
X684000Y556000D03*
X704000Y556000D03*
X708000Y556000D03*
X712000Y556000D03*
X716000Y556000D03*
X720000Y556000D03*
X724000Y556000D03*
X728000Y556000D03*
X732000Y556000D03*
X736000Y556000D03*
X740000Y556000D03*
X200000Y560000D03*
X204000Y560000D03*
X208000Y560000D03*
X212000Y560000D03*
X216000Y560000D03*
X220000Y560000D03*
X224000Y560000D03*
X228000Y560000D03*
X232000Y560000D03*
X236000Y560000D03*
X256000Y560000D03*
X260000Y560000D03*
X264000Y560000D03*
X268000Y560000D03*
X272000Y560000D03*
X276000Y560000D03*
X280000Y560000D03*
X284000Y560000D03*
X288000Y560000D03*
X292000Y560000D03*
X312000Y560000D03*
X316000Y560000D03*
X320000Y560000D03*
X324000Y560000D03*
X328000Y560000D03*
X332000Y560000D03*
X336000Y560000D03*
X340000Y560000D03*
X344000Y560000D03*
X348000Y560000D03*
X368000Y560000D03*
X372000Y560000D03*
X376000Y560000D03*
X380000Y560000D03*
X384000Y560000D03*
X388000Y560000D03*
X392000Y560000D03*
X396000Y560000D03*
X400000Y560000D03*
X404000Y560000D03*
X424000Y560000D03*
X428000Y560000D03*
X432000Y560000D03*
X436000Y560000D03*
X440000Y560000D03*
X444000Y560000D03*
X448000Y560000D03*
X452000Y560000D03*
X456000Y560000D03*
X460000Y560000D03*
X480000Y560000D03*
X484000Y560000D03*
X488000Y560000D03*
X492000Y560000D03*
X496000Y560000D03*
X500000Y560000D03*
X504000Y560000D03*
X508000Y560000D03*
X512000Y560000D03*
X516000Y560000D03*
X536000Y560000D03*
X540000Y560000D03*
X544000Y560000D03*
X548000Y560000D03*
X552000Y560000D03*
X556000Y560000D03*
X560000Y560000D03*
X564000Y560000D03*
X568000Y560000D03*
X572000Y560000D03*
X592000Y560000D03*
X596000Y560000D03*
X600000Y560000D03*
X604000Y560000D03*
X608000Y560000D03*
X612000Y560000D03*
X616000Y560000D03*
X620000Y560000D03*
X624000Y560000D03*
X628000Y560000D03*
X648000Y560000D03*
X652000Y560000D03*
X656000Y560000D03*
X660000Y560000D03*
X664000Y560000D03*
X668000Y560000D03*
X672000Y560000D03*
X676000Y560000D03*
X680000Y560000D03*
X684000Y560000D03*
X704000Y560000D03*
X708000Y560000D03*
X712000Y560000D03*
X716000Y560000D03*
X720000Y560000D03*
X724000Y560000D03*
X728000Y560000D03*
X732000Y560000D03*
X736000Y560000D03*
X740000Y560000D03*
X200000Y564000D03*
X204000Y564000D03*
X208000Y564000D03*
X212000Y564000D03*
X216000Y564000D03*
X220000Y564000D03*
X224000Y564000D03*
X228000Y564000D03*
X232000Y564000D03*
X236000Y564000D03*
X256000Y564000D03*
X260000Y564000D03*
X264000Y564000D03*
X268000Y564000D03*
X272000Y564000D03*
X276000Y564000D03*
X280000Y564000D03*
X284000Y564000D03*
X288000Y564000D03*
X292000Y564000D03*
X312000Y564000D03*
X316000Y564000D03*
X320000Y564000D03*
X324000Y564000D03*
X328000Y564000D03*
X332000Y564000D03*
X336000Y564000D03*
X340000Y564000D03*
X344000Y564000D03*
X348000Y564000D03*
X368000Y564000D03*
X372000Y564000D03*
X376000Y564000D03*
X380000Y564000D03*
X384000Y564000D03*
X388000Y564000D03*
X392000Y564000D03*
X396000Y564000D03*
X400000Y564000D03*
X404000Y564000D03*
X424000Y564000D03*
X428000Y564000D03*
X432000Y564000D03*
X436000Y564000D03*
X440000Y564000D03*
X444000Y564000D03*
X448000Y564000D03*
X452000Y564000D03*
X456000Y564000D03*
X460000Y564000D03*
X480000Y564000D03*
X484000Y564000D03*
X488000Y564000D03*
X492000Y564000D03*
X496000Y564000D03*
X500000Y564000D03*
X504000Y564000D03*
X508000Y564000D03*
X512000Y564000D03*
X516000Y564000D03*
X536000Y564000D03*
X540000Y564000D03*
X544000Y564000D03*
X548000Y564000D03*
X552000Y564000D03*
X556000Y564000D03*
X560000Y564000D03*
X564000Y564000D03*
X568000Y564000D03*
X572000Y564000D03*
X592000Y564000D03*
X596000Y564000D03*
X600000Y564000D03*
X604000Y564000D03*
X608000Y564000D03*
X612000Y564000D03*
X616000Y564000D03*
X620000Y564000D03*
X624000Y564000D03*
X628000Y564000D03*
X648000Y564000D03*
X652000Y564000D03*
X656000Y564000D03*
X660000Y564000D03*
X664000Y564000D03*
X668000Y564000D03*
X672000Y564000D03*
X676000Y564000D03*
X680000Y564000D03*
X684000Y564000D03*
X704000Y564000D03*
X708000Y564000D03*
X712000Y564000D03*
X716000Y564000D03*
X720000Y564000D03*
X724000Y564000D03*
X728000Y564000D03*
X732000Y564000D03*
X736000Y564000D03*
X740000Y564000D03*
X200000Y568000D03*
X204000Y568000D03*
X208000Y568000D03*
X212000Y568000D03*
X216000Y568000D03*
X220000Y568000D03*
X224000Y568000D03*
X228000Y568000D03*
X232000Y568000D03*
X236000Y568000D03*
X256000Y568000D03*
X260000Y568000D03*
X264000Y568000D03*
X268000Y568000D03*
X272000Y568000D03*
X276000Y568000D03*
X280000Y568000D03*
X284000Y568000D03*
X288000Y568000D03*
X292000Y568000D03*
X312000Y568000D03*
X316000Y568000D03*
X320000Y568000D03*
X324000Y568000D03*
X328000Y568000D03*
X332000Y568000D03*
X336000Y568000D03*
X340000Y568000D03*
X344000Y568000D03*
X348000Y568000D03*
X368000Y568000D03*
X372000Y568000D03*
X376000Y568000D03*
X380000Y568000D03*
X384000Y568000D03*
X388000Y568000D03*
X392000Y568000D03*
X396000Y568000D03*
X400000Y568000D03*
X404000Y568000D03*
X424000Y568000D03*
X428000Y568000D03*
X432000Y568000D03*
X436000Y568000D03*
X440000Y568000D03*
X444000Y568000D03*
X448000Y568000D03*
X452000Y568000D03*
X456000Y568000D03*
X460000Y568000D03*
X480000Y568000D03*
X484000Y568000D03*
X488000Y568000D03*
X492000Y568000D03*
X496000Y568000D03*
X500000Y568000D03*
X504000Y568000D03*
X508000Y568000D03*
X512000Y568000D03*
X516000Y568000D03*
X536000Y568000D03*
X540000Y568000D03*
X544000Y568000D03*
X548000Y568000D03*
X552000Y568000D03*
X556000Y568000D03*
X560000Y568000D03*
X564000Y568000D03*
X568000Y568000D03*
X572000Y568000D03*
X592000Y568000D03*
X596000Y568000D03*
X600000Y568000D03*
X604000Y568000D03*
X608000Y568000D03*
X612000Y568000D03*
X616000Y568000D03*
X620000Y568000D03*
X624000Y568000D03*
X628000Y568000D03*
X648000Y568000D03*
X652000Y568000D03*
X656000Y568000D03*
X660000Y568000D03*
X664000Y568000D03*
X668000Y568000D03*
X672000Y568000D03*
X676000Y568000D03*
X680000Y568000D03*
X684000Y568000D03*
X704000Y568000D03*
X708000Y568000D03*
X712000Y568000D03*
X716000Y568000D03*
X720000Y568000D03*
X724000Y568000D03*
X728000Y568000D03*
X732000Y568000D03*
X736000Y568000D03*
X740000Y568000D03*
X200000Y572000D03*
X204000Y572000D03*
X208000Y572000D03*
X212000Y572000D03*
X216000Y572000D03*
X220000Y572000D03*
X224000Y572000D03*
X228000Y572000D03*
X232000Y572000D03*
X236000Y572000D03*
X256000Y572000D03*
X260000Y572000D03*
X264000Y572000D03*
X268000Y572000D03*
X272000Y572000D03*
X276000Y572000D03*
X280000Y572000D03*
X284000Y572000D03*
X288000Y572000D03*
X292000Y572000D03*
X312000Y572000D03*
X316000Y572000D03*
X320000Y572000D03*
X324000Y572000D03*
X328000Y572000D03*
X332000Y572000D03*
X336000Y572000D03*
X340000Y572000D03*
X344000Y572000D03*
X348000Y572000D03*
X368000Y572000D03*
X372000Y572000D03*
X376000Y572000D03*
X380000Y572000D03*
X384000Y572000D03*
X388000Y572000D03*
X392000Y572000D03*
X396000Y572000D03*
X400000Y572000D03*
X404000Y572000D03*
X424000Y572000D03*
X428000Y572000D03*
X432000Y572000D03*
X436000Y572000D03*
X440000Y572000D03*
X444000Y572000D03*
X448000Y572000D03*
X452000Y572000D03*
X456000Y572000D03*
X460000Y572000D03*
X480000Y572000D03*
X484000Y572000D03*
X488000Y572000D03*
X492000Y572000D03*
X496000Y572000D03*
X500000Y572000D03*
X504000Y572000D03*
X508000Y572000D03*
X512000Y572000D03*
X516000Y572000D03*
X536000Y572000D03*
X540000Y572000D03*
X544000Y572000D03*
X548000Y572000D03*
X552000Y572000D03*
X556000Y572000D03*
X560000Y572000D03*
X564000Y572000D03*
X568000Y572000D03*
X572000Y572000D03*
X592000Y572000D03*
X596000Y572000D03*
X600000Y572000D03*
X604000Y572000D03*
X608000Y572000D03*
X612000Y572000D03*
X616000Y572000D03*
X620000Y572000D03*
X624000Y572000D03*
X628000Y572000D03*
X648000Y572000D03*
X652000Y572000D03*
X656000Y572000D03*
X660000Y572000D03*
X664000Y572000D03*
X668000Y572000D03*
X672000Y572000D03*
X676000Y572000D03*
X680000Y572000D03*
X684000Y572000D03*
X704000Y572000D03*
X708000Y572000D03*
X712000Y572000D03*
X716000Y572000D03*
X720000Y572000D03*
X724000Y572000D03*
X728000Y572000D03*
X732000Y572000D03*
X736000Y572000D03*
X740000Y572000D03*
X200000Y592000D03*
X204000Y592000D03*
X208000Y592000D03*
X212000Y592000D03*
X216000Y592000D03*
X220000Y592000D03*
X224000Y592000D03*
X228000Y592000D03*
X232000Y592000D03*
X236000Y592000D03*
X256000Y592000D03*
X260000Y592000D03*
X264000Y592000D03*
X268000Y592000D03*
X272000Y592000D03*
X276000Y592000D03*
X280000Y592000D03*
X284000Y592000D03*
X288000Y592000D03*
X292000Y592000D03*
X312000Y592000D03*
X316000Y592000D03*
X320000Y592000D03*
X324000Y592000D03*
X328000Y592000D03*
X332000Y592000D03*
X336000Y592000D03*
X340000Y592000D03*
X344000Y592000D03*
X348000Y592000D03*
X368000Y592000D03*
X372000Y592000D03*
X376000Y592000D03*
X380000Y592000D03*
X384000Y592000D03*
X388000Y592000D03*
X392000Y592000D03*
X396000Y592000D03*
X400000Y592000D03*
X404000Y592000D03*
X424000Y592000D03*
X428000Y592000D03*
X432000Y592000D03*
X436000Y592000D03*
X440000Y592000D03*
X444000Y592000D03*
X448000Y592000D03*
X452000Y592000D03*
X456000Y592000D03*
X460000Y592000D03*
X480000Y592000D03*
X484000Y592000D03*
X488000Y592000D03*
X492000Y592000D03*
X496000Y592000D03*
X500000Y592000D03*
X504000Y592000D03*
X508000Y592000D03*
X512000Y592000D03*
X516000Y592000D03*
X536000Y592000D03*
X540000Y592000D03*
X544000Y592000D03*
X548000Y592000D03*
X552000Y592000D03*
X556000Y592000D03*
X560000Y592000D03*
X564000Y592000D03*
X568000Y592000D03*
X572000Y592000D03*
X592000Y592000D03*
X596000Y592000D03*
X600000Y592000D03*
X604000Y592000D03*
X608000Y592000D03*
X612000Y592000D03*
X616000Y592000D03*
X620000Y592000D03*
X624000Y592000D03*
X628000Y592000D03*
X648000Y592000D03*
X652000Y592000D03*
X656000Y592000D03*
X660000Y592000D03*
X664000Y592000D03*
X668000Y592000D03*
X672000Y592000D03*
X676000Y592000D03*
X680000Y592000D03*
X684000Y592000D03*
X704000Y592000D03*
X708000Y592000D03*
X712000Y592000D03*
X716000Y592000D03*
X720000Y592000D03*
X724000Y592000D03*
X728000Y592000D03*
X732000Y592000D03*
X736000Y592000D03*
X740000Y592000D03*
X200000Y596000D03*
X204000Y596000D03*
X208000Y596000D03*
X212000Y596000D03*
X216000Y596000D03*
X220000Y596000D03*
X224000Y596000D03*
X228000Y596000D03*
X232000Y596000D03*
X236000Y596000D03*
X256000Y596000D03*
X260000Y596000D03*
X264000Y596000D03*
X268000Y596000D03*
X272000Y596000D03*
X276000Y596000D03*
X280000Y596000D03*
X284000Y596000D03*
X288000Y596000D03*
X292000Y596000D03*
X312000Y596000D03*
X316000Y596000D03*
X320000Y596000D03*
X324000Y596000D03*
X328000Y596000D03*
X332000Y596000D03*
X336000Y596000D03*
X340000Y596000D03*
X344000Y596000D03*
X348000Y596000D03*
X368000Y596000D03*
X372000Y596000D03*
X376000Y596000D03*
X380000Y596000D03*
X384000Y596000D03*
X388000Y596000D03*
X392000Y596000D03*
X396000Y596000D03*
X400000Y596000D03*
X404000Y596000D03*
X424000Y596000D03*
X428000Y596000D03*
X432000Y596000D03*
X436000Y596000D03*
X440000Y596000D03*
X444000Y596000D03*
X448000Y596000D03*
X452000Y596000D03*
X456000Y596000D03*
X460000Y596000D03*
X480000Y596000D03*
X484000Y596000D03*
X488000Y596000D03*
X492000Y596000D03*
X496000Y596000D03*
X500000Y596000D03*
X504000Y596000D03*
X508000Y596000D03*
X512000Y596000D03*
X516000Y596000D03*
X536000Y596000D03*
X540000Y596000D03*
X544000Y596000D03*
X548000Y596000D03*
X552000Y596000D03*
X556000Y596000D03*
X560000Y596000D03*
X564000Y596000D03*
X568000Y596000D03*
X572000Y596000D03*
X592000Y596000D03*
X596000Y596000D03*
X600000Y596000D03*
X604000Y596000D03*
X608000Y596000D03*
X612000Y596000D03*
X616000Y596000D03*
X620000Y596000D03*
X624000Y596000D03*
X628000Y596000D03*
X648000Y596000D03*
X652000Y596000D03*
X656000Y596000D03*
X660000Y596000D03*
X664000Y596000D03*
X668000Y596000D03*
X672000Y596000D03*
X676000Y596000D03*
X680000Y596000D03*
X684000Y596000D03*
X704000Y596000D03*
X708000Y596000D03*
X712000Y596000D03*
X716000Y596000D03*
X720000Y596000D03*
X724000Y596000D03*
X728000Y596000D03*
X732000Y596000D03*
X736000Y596000D03*
X740000Y596000D03*
X200000Y600000D03*
X204000Y600000D03*
X208000Y600000D03*
X212000Y600000D03*
X216000Y600000D03*
X220000Y600000D03*
X224000Y600000D03*
X228000Y600000D03*
X232000Y600000D03*
X236000Y600000D03*
X256000Y600000D03*
X260000Y600000D03*
X264000Y600000D03*
X268000Y600000D03*
X272000Y600000D03*
X276000Y600000D03*
X280000Y600000D03*
X284000Y600000D03*
X288000Y600000D03*
X292000Y600000D03*
X312000Y600000D03*
X316000Y600000D03*
X320000Y600000D03*
X324000Y600000D03*
X328000Y600000D03*
X332000Y600000D03*
X336000Y600000D03*
X340000Y600000D03*
X344000Y600000D03*
X348000Y600000D03*
X368000Y600000D03*
X372000Y600000D03*
X376000Y600000D03*
X380000Y600000D03*
X384000Y600000D03*
X388000Y600000D03*
X392000Y600000D03*
X396000Y600000D03*
X400000Y600000D03*
X404000Y600000D03*
X424000Y600000D03*
X428000Y600000D03*
X432000Y600000D03*
X436000Y600000D03*
X440000Y600000D03*
X444000Y600000D03*
X448000Y600000D03*
X452000Y600000D03*
X456000Y600000D03*
X460000Y600000D03*
X480000Y600000D03*
X484000Y600000D03*
X488000Y600000D03*
X492000Y600000D03*
X496000Y600000D03*
X500000Y600000D03*
X504000Y600000D03*
X508000Y600000D03*
X512000Y600000D03*
X516000Y600000D03*
X536000Y600000D03*
X540000Y600000D03*
X544000Y600000D03*
X548000Y600000D03*
X552000Y600000D03*
X556000Y600000D03*
X560000Y600000D03*
X564000Y600000D03*
X568000Y600000D03*
X572000Y600000D03*
X592000Y600000D03*
X596000Y600000D03*
X600000Y600000D03*
X604000Y600000D03*
X608000Y600000D03*
X612000Y600000D03*
X616000Y600000D03*
X620000Y600000D03*
X624000Y600000D03*
X628000Y600000D03*
X648000Y600000D03*
X652000Y600000D03*
X656000Y600000D03*
X660000Y600000D03*
X664000Y600000D03*
X668000Y600000D03*
X672000Y600000D03*
X676000Y600000D03*
X680000Y600000D03*
X684000Y600000D03*
X704000Y600000D03*
X708000Y600000D03*
X712000Y600000D03*
X716000Y600000D03*
X720000Y600000D03*
X724000Y600000D03*
X728000Y600000D03*
X732000Y600000D03*
X736000Y600000D03*
X740000Y600000D03*
X200000Y604000D03*
X204000Y604000D03*
X208000Y604000D03*
X212000Y604000D03*
X216000Y604000D03*
X220000Y604000D03*
X224000Y604000D03*
X228000Y604000D03*
X232000Y604000D03*
X236000Y604000D03*
X256000Y604000D03*
X260000Y604000D03*
X264000Y604000D03*
X268000Y604000D03*
X272000Y604000D03*
X276000Y604000D03*
X280000Y604000D03*
X284000Y604000D03*
X288000Y604000D03*
X292000Y604000D03*
X312000Y604000D03*
X316000Y604000D03*
X320000Y604000D03*
X324000Y604000D03*
X328000Y604000D03*
X332000Y604000D03*
X336000Y604000D03*
X340000Y604000D03*
X344000Y604000D03*
X348000Y604000D03*
X368000Y604000D03*
X372000Y604000D03*
X376000Y604000D03*
X380000Y604000D03*
X384000Y604000D03*
X388000Y604000D03*
X392000Y604000D03*
X396000Y604000D03*
X400000Y604000D03*
X404000Y604000D03*
X424000Y604000D03*
X428000Y604000D03*
X432000Y604000D03*
X436000Y604000D03*
X440000Y604000D03*
X444000Y604000D03*
X448000Y604000D03*
X452000Y604000D03*
X456000Y604000D03*
X460000Y604000D03*
X480000Y604000D03*
X484000Y604000D03*
X488000Y604000D03*
X492000Y604000D03*
X496000Y604000D03*
X500000Y604000D03*
X504000Y604000D03*
X508000Y604000D03*
X512000Y604000D03*
X516000Y604000D03*
X536000Y604000D03*
X540000Y604000D03*
X544000Y604000D03*
X548000Y604000D03*
X552000Y604000D03*
X556000Y604000D03*
X560000Y604000D03*
X564000Y604000D03*
X568000Y604000D03*
X572000Y604000D03*
X592000Y604000D03*
X596000Y604000D03*
X600000Y604000D03*
X604000Y604000D03*
X608000Y604000D03*
X612000Y604000D03*
X616000Y604000D03*
X620000Y604000D03*
X624000Y604000D03*
X628000Y604000D03*
X648000Y604000D03*
X652000Y604000D03*
X656000Y604000D03*
X660000Y604000D03*
X664000Y604000D03*
X668000Y604000D03*
X672000Y604000D03*
X676000Y604000D03*
X680000Y604000D03*
X684000Y604000D03*
X704000Y604000D03*
X708000Y604000D03*
X712000Y604000D03*
X716000Y604000D03*
X720000Y604000D03*
X724000Y604000D03*
X728000Y604000D03*
X732000Y604000D03*
X736000Y604000D03*
X740000Y604000D03*
X200000Y608000D03*
X204000Y608000D03*
X208000Y608000D03*
X212000Y608000D03*
X216000Y608000D03*
X220000Y608000D03*
X224000Y608000D03*
X228000Y608000D03*
X232000Y608000D03*
X236000Y608000D03*
X256000Y608000D03*
X260000Y608000D03*
X264000Y608000D03*
X268000Y608000D03*
X272000Y608000D03*
X276000Y608000D03*
X280000Y608000D03*
X284000Y608000D03*
X288000Y608000D03*
X292000Y608000D03*
X312000Y608000D03*
X316000Y608000D03*
X320000Y608000D03*
X324000Y608000D03*
X328000Y608000D03*
X332000Y608000D03*
X336000Y608000D03*
X340000Y608000D03*
X344000Y608000D03*
X348000Y608000D03*
X368000Y608000D03*
X372000Y608000D03*
X376000Y608000D03*
X380000Y608000D03*
X384000Y608000D03*
X388000Y608000D03*
X392000Y608000D03*
X396000Y608000D03*
X400000Y608000D03*
X404000Y608000D03*
X424000Y608000D03*
X428000Y608000D03*
X432000Y608000D03*
X436000Y608000D03*
X440000Y608000D03*
X444000Y608000D03*
X448000Y608000D03*
X452000Y608000D03*
X456000Y608000D03*
X460000Y608000D03*
X480000Y608000D03*
X484000Y608000D03*
X488000Y608000D03*
X492000Y608000D03*
X496000Y608000D03*
X500000Y608000D03*
X504000Y608000D03*
X508000Y608000D03*
X512000Y608000D03*
X516000Y608000D03*
X536000Y608000D03*
X540000Y608000D03*
X544000Y608000D03*
X548000Y608000D03*
X552000Y608000D03*
X556000Y608000D03*
X560000Y608000D03*
X564000Y608000D03*
X568000Y608000D03*
X572000Y608000D03*
X592000Y608000D03*
X596000Y608000D03*
X600000Y608000D03*
X604000Y608000D03*
X608000Y608000D03*
X612000Y608000D03*
X616000Y608000D03*
X620000Y608000D03*
X624000Y608000D03*
X628000Y608000D03*
X648000Y608000D03*
X652000Y608000D03*
X656000Y608000D03*
X660000Y608000D03*
X664000Y608000D03*
X668000Y608000D03*
X672000Y608000D03*
X676000Y608000D03*
X680000Y608000D03*
X684000Y608000D03*
X704000Y608000D03*
X708000Y608000D03*
X712000Y608000D03*
X716000Y608000D03*
X720000Y608000D03*
X724000Y608000D03*
X728000Y608000D03*
X732000Y608000D03*
X736000Y608000D03*
X740000Y608000D03*
X200000Y612000D03*
X204000Y612000D03*
X208000Y612000D03*
X212000Y612000D03*
X216000Y612000D03*
X220000Y612000D03*
X224000Y612000D03*
X228000Y612000D03*
X232000Y612000D03*
X236000Y612000D03*
X256000Y612000D03*
X260000Y612000D03*
X264000Y612000D03*
X268000Y612000D03*
X272000Y612000D03*
X276000Y612000D03*
X280000Y612000D03*
X284000Y612000D03*
X288000Y612000D03*
X292000Y612000D03*
X312000Y612000D03*
X316000Y612000D03*
X320000Y612000D03*
X324000Y612000D03*
X328000Y612000D03*
X332000Y612000D03*
X336000Y612000D03*
X340000Y612000D03*
X344000Y612000D03*
X348000Y612000D03*
X368000Y612000D03*
X372000Y612000D03*
X376000Y612000D03*
X380000Y612000D03*
X384000Y612000D03*
X388000Y612000D03*
X392000Y612000D03*
X396000Y612000D03*
X400000Y612000D03*
X404000Y612000D03*
X424000Y612000D03*
X428000Y612000D03*
X432000Y612000D03*
X436000Y612000D03*
X440000Y612000D03*
X444000Y612000D03*
X448000Y612000D03*
X452000Y612000D03*
X456000Y612000D03*
X460000Y612000D03*
X480000Y612000D03*
X484000Y612000D03*
X488000Y612000D03*
X492000Y612000D03*
X496000Y612000D03*
X500000Y612000D03*
X504000Y612000D03*
X508000Y612000D03*
X512000Y612000D03*
X516000Y612000D03*
X536000Y612000D03*
X540000Y612000D03*
X544000Y612000D03*
X548000Y612000D03*
X552000Y612000D03*
X556000Y612000D03*
X560000Y612000D03*
X564000Y612000D03*
X568000Y612000D03*
X572000Y612000D03*
X592000Y612000D03*
X596000Y612000D03*
X600000Y612000D03*
X604000Y612000D03*
X608000Y612000D03*
X612000Y612000D03*
X616000Y612000D03*
X620000Y612000D03*
X624000Y612000D03*
X628000Y612000D03*
X648000Y612000D03*
X652000Y612000D03*
X656000Y612000D03*
X660000Y612000D03*
X664000Y612000D03*
X668000Y612000D03*
X672000Y612000D03*
X676000Y612000D03*
X680000Y612000D03*
X684000Y612000D03*
X704000Y612000D03*
X708000Y612000D03*
X712000Y612000D03*
X716000Y612000D03*
X720000Y612000D03*
X724000Y612000D03*
X728000Y612000D03*
X732000Y612000D03*
X736000Y612000D03*
X740000Y612000D03*
X200000Y616000D03*
X204000Y616000D03*
X208000Y616000D03*
X212000Y616000D03*
X216000Y616000D03*
X220000Y616000D03*
X224000Y616000D03*
X228000Y616000D03*
X232000Y616000D03*
X236000Y616000D03*
X256000Y616000D03*
X260000Y616000D03*
X264000Y616000D03*
X268000Y616000D03*
X272000Y616000D03*
X276000Y616000D03*
X280000Y616000D03*
X284000Y616000D03*
X288000Y616000D03*
X292000Y616000D03*
X312000Y616000D03*
X316000Y616000D03*
X320000Y616000D03*
X324000Y616000D03*
X328000Y616000D03*
X332000Y616000D03*
X336000Y616000D03*
X340000Y616000D03*
X344000Y616000D03*
X348000Y616000D03*
X368000Y616000D03*
X372000Y616000D03*
X376000Y616000D03*
X380000Y616000D03*
X384000Y616000D03*
X388000Y616000D03*
X392000Y616000D03*
X396000Y616000D03*
X400000Y616000D03*
X404000Y616000D03*
X424000Y616000D03*
X428000Y616000D03*
X432000Y616000D03*
X436000Y616000D03*
X440000Y616000D03*
X444000Y616000D03*
X448000Y616000D03*
X452000Y616000D03*
X456000Y616000D03*
X460000Y616000D03*
X480000Y616000D03*
X484000Y616000D03*
X488000Y616000D03*
X492000Y616000D03*
X496000Y616000D03*
X500000Y616000D03*
X504000Y616000D03*
X508000Y616000D03*
X512000Y616000D03*
X516000Y616000D03*
X536000Y616000D03*
X540000Y616000D03*
X544000Y616000D03*
X548000Y616000D03*
X552000Y616000D03*
X556000Y616000D03*
X560000Y616000D03*
X564000Y616000D03*
X568000Y616000D03*
X572000Y616000D03*
X592000Y616000D03*
X596000Y616000D03*
X600000Y616000D03*
X604000Y616000D03*
X608000Y616000D03*
X612000Y616000D03*
X616000Y616000D03*
X620000Y616000D03*
X624000Y616000D03*
X628000Y616000D03*
X648000Y616000D03*
X652000Y616000D03*
X656000Y616000D03*
X660000Y616000D03*
X664000Y616000D03*
X668000Y616000D03*
X672000Y616000D03*
X676000Y616000D03*
X680000Y616000D03*
X684000Y616000D03*
X704000Y616000D03*
X708000Y616000D03*
X712000Y616000D03*
X716000Y616000D03*
X720000Y616000D03*
X724000Y616000D03*
X728000Y616000D03*
X732000Y616000D03*
X736000Y616000D03*
X740000Y616000D03*
X200000Y620000D03*
X204000Y620000D03*
X208000Y620000D03*
X212000Y620000D03*
X216000Y620000D03*
X220000Y620000D03*
X224000Y620000D03*
X228000Y620000D03*
X232000Y620000D03*
X236000Y620000D03*
X256000Y620000D03*
X260000Y620000D03*
X264000Y620000D03*
X268000Y620000D03*
X272000Y620000D03*
X276000Y620000D03*
X280000Y620000D03*
X284000Y620000D03*
X288000Y620000D03*
X292000Y620000D03*
X312000Y620000D03*
X316000Y620000D03*
X320000Y620000D03*
X324000Y620000D03*
X328000Y620000D03*
X332000Y620000D03*
X336000Y620000D03*
X340000Y620000D03*
X344000Y620000D03*
X348000Y620000D03*
X368000Y620000D03*
X372000Y620000D03*
X376000Y620000D03*
X380000Y620000D03*
X384000Y620000D03*
X388000Y620000D03*
X392000Y620000D03*
X396000Y620000D03*
X400000Y620000D03*
X404000Y620000D03*
X424000Y620000D03*
X428000Y620000D03*
X432000Y620000D03*
X436000Y620000D03*
X440000Y620000D03*
X444000Y620000D03*
X448000Y620000D03*
X452000Y620000D03*
X456000Y620000D03*
X460000Y620000D03*
X480000Y620000D03*
X484000Y620000D03*
X488000Y620000D03*
X492000Y620000D03*
X496000Y620000D03*
X500000Y620000D03*
X504000Y620000D03*
X508000Y620000D03*
X512000Y620000D03*
X516000Y620000D03*
X536000Y620000D03*
X540000Y620000D03*
X544000Y620000D03*
X548000Y620000D03*
X552000Y620000D03*
X556000Y620000D03*
X560000Y620000D03*
X564000Y620000D03*
X568000Y620000D03*
X572000Y620000D03*
X592000Y620000D03*
X596000Y620000D03*
X600000Y620000D03*
X604000Y620000D03*
X608000Y620000D03*
X612000Y620000D03*
X616000Y620000D03*
X620000Y620000D03*
X624000Y620000D03*
X628000Y620000D03*
X648000Y620000D03*
X652000Y620000D03*
X656000Y620000D03*
X660000Y620000D03*
X664000Y620000D03*
X668000Y620000D03*
X672000Y620000D03*
X676000Y620000D03*
X680000Y620000D03*
X684000Y620000D03*
X704000Y620000D03*
X708000Y620000D03*
X712000Y620000D03*
X716000Y620000D03*
X720000Y620000D03*
X724000Y620000D03*
X728000Y620000D03*
X732000Y620000D03*
X736000Y620000D03*
X740000Y620000D03*
X200000Y624000D03*
X204000Y624000D03*
X208000Y624000D03*
X212000Y624000D03*
X216000Y624000D03*
X220000Y624000D03*
X224000Y624000D03*
X228000Y624000D03*
X232000Y624000D03*
X236000Y624000D03*
X256000Y624000D03*
X260000Y624000D03*
X264000Y624000D03*
X268000Y624000D03*
X272000Y624000D03*
X276000Y624000D03*
X280000Y624000D03*
X284000Y624000D03*
X288000Y624000D03*
X292000Y624000D03*
X312000Y624000D03*
X316000Y624000D03*
X320000Y624000D03*
X324000Y624000D03*
X328000Y624000D03*
X332000Y624000D03*
X336000Y624000D03*
X340000Y624000D03*
X344000Y624000D03*
X348000Y624000D03*
X368000Y624000D03*
X372000Y624000D03*
X376000Y624000D03*
X380000Y624000D03*
X384000Y624000D03*
X388000Y624000D03*
X392000Y624000D03*
X396000Y624000D03*
X400000Y624000D03*
X404000Y624000D03*
X424000Y624000D03*
X428000Y624000D03*
X432000Y624000D03*
X436000Y624000D03*
X440000Y624000D03*
X444000Y624000D03*
X448000Y624000D03*
X452000Y624000D03*
X456000Y624000D03*
X460000Y624000D03*
X480000Y624000D03*
X484000Y624000D03*
X488000Y624000D03*
X492000Y624000D03*
X496000Y624000D03*
X500000Y624000D03*
X504000Y624000D03*
X508000Y624000D03*
X512000Y624000D03*
X516000Y624000D03*
X536000Y624000D03*
X540000Y624000D03*
X544000Y624000D03*
X548000Y624000D03*
X552000Y624000D03*
X556000Y624000D03*
X560000Y624000D03*
X564000Y624000D03*
X568000Y624000D03*
X572000Y624000D03*
X592000Y624000D03*
X596000Y624000D03*
X600000Y624000D03*
X604000Y624000D03*
X608000Y624000D03*
X612000Y624000D03*
X616000Y624000D03*
X620000Y624000D03*
X624000Y624000D03*
X628000Y624000D03*
X648000Y624000D03*
X652000Y624000D03*
X656000Y624000D03*
X660000Y624000D03*
X664000Y624000D03*
X668000Y624000D03*
X672000Y624000D03*
X676000Y624000D03*
X680000Y624000D03*
X684000Y624000D03*
X704000Y624000D03*
X708000Y624000D03*
X712000Y624000D03*
X716000Y624000D03*
X720000Y624000D03*
X724000Y624000D03*
X728000Y624000D03*
X732000Y624000D03*
X736000Y624000D03*
X740000Y624000D03*
X200000Y628000D03*
X204000Y628000D03*
X208000Y628000D03*
X212000Y628000D03*
X216000Y628000D03*
X220000Y628000D03*
X224000Y628000D03*
X228000Y628000D03*
X232000Y628000D03*
X236000Y628000D03*
X256000Y628000D03*
X260000Y628000D03*
X264000Y628000D03*
X268000Y628000D03*
X272000Y628000D03*
X276000Y628000D03*
X280000Y628000D03*
X284000Y628000D03*
X288000Y628000D03*
X292000Y628000D03*
X312000Y628000D03*
X316000Y628000D03*
X320000Y628000D03*
X324000Y628000D03*
X328000Y628000D03*
X332000Y628000D03*
X336000Y628000D03*
X340000Y628000D03*
X344000Y628000D03*
X348000Y628000D03*
X368000Y628000D03*
X372000Y628000D03*
X376000Y628000D03*
X380000Y628000D03*
X384000Y628000D03*
X388000Y628000D03*
X392000Y628000D03*
X396000Y628000D03*
X400000Y628000D03*
X404000Y628000D03*
X424000Y628000D03*
X428000Y628000D03*
X432000Y628000D03*
X436000Y628000D03*
X440000Y628000D03*
X444000Y628000D03*
X448000Y628000D03*
X452000Y628000D03*
X456000Y628000D03*
X460000Y628000D03*
X480000Y628000D03*
X484000Y628000D03*
X488000Y628000D03*
X492000Y628000D03*
X496000Y628000D03*
X500000Y628000D03*
X504000Y628000D03*
X508000Y628000D03*
X512000Y628000D03*
X516000Y628000D03*
X536000Y628000D03*
X540000Y628000D03*
X544000Y628000D03*
X548000Y628000D03*
X552000Y628000D03*
X556000Y628000D03*
X560000Y628000D03*
X564000Y628000D03*
X568000Y628000D03*
X572000Y628000D03*
X592000Y628000D03*
X596000Y628000D03*
X600000Y628000D03*
X604000Y628000D03*
X608000Y628000D03*
X612000Y628000D03*
X616000Y628000D03*
X620000Y628000D03*
X624000Y628000D03*
X628000Y628000D03*
X648000Y628000D03*
X652000Y628000D03*
X656000Y628000D03*
X660000Y628000D03*
X664000Y628000D03*
X668000Y628000D03*
X672000Y628000D03*
X676000Y628000D03*
X680000Y628000D03*
X684000Y628000D03*
X704000Y628000D03*
X708000Y628000D03*
X712000Y628000D03*
X716000Y628000D03*
X720000Y628000D03*
X724000Y628000D03*
X728000Y628000D03*
X732000Y628000D03*
X736000Y628000D03*
X740000Y628000D03*
X200000Y648000D03*
X204000Y648000D03*
X208000Y648000D03*
X212000Y648000D03*
X216000Y648000D03*
X220000Y648000D03*
X224000Y648000D03*
X228000Y648000D03*
X232000Y648000D03*
X236000Y648000D03*
X256000Y648000D03*
X260000Y648000D03*
X264000Y648000D03*
X268000Y648000D03*
X272000Y648000D03*
X276000Y648000D03*
X280000Y648000D03*
X284000Y648000D03*
X288000Y648000D03*
X292000Y648000D03*
X312000Y648000D03*
X316000Y648000D03*
X320000Y648000D03*
X324000Y648000D03*
X328000Y648000D03*
X332000Y648000D03*
X336000Y648000D03*
X340000Y648000D03*
X344000Y648000D03*
X348000Y648000D03*
X368000Y648000D03*
X372000Y648000D03*
X376000Y648000D03*
X380000Y648000D03*
X384000Y648000D03*
X388000Y648000D03*
X392000Y648000D03*
X396000Y648000D03*
X400000Y648000D03*
X404000Y648000D03*
X424000Y648000D03*
X428000Y648000D03*
X432000Y648000D03*
X436000Y648000D03*
X440000Y648000D03*
X444000Y648000D03*
X448000Y648000D03*
X452000Y648000D03*
X456000Y648000D03*
X460000Y648000D03*
X480000Y648000D03*
X484000Y648000D03*
X488000Y648000D03*
X492000Y648000D03*
X496000Y648000D03*
X500000Y648000D03*
X504000Y648000D03*
X508000Y648000D03*
X512000Y648000D03*
X516000Y648000D03*
X536000Y648000D03*
X540000Y648000D03*
X544000Y648000D03*
X548000Y648000D03*
X552000Y648000D03*
X556000Y648000D03*
X560000Y648000D03*
X564000Y648000D03*
X568000Y648000D03*
X572000Y648000D03*
X592000Y648000D03*
X596000Y648000D03*
X600000Y648000D03*
X604000Y648000D03*
X608000Y648000D03*
X612000Y648000D03*
X616000Y648000D03*
X620000Y648000D03*
X624000Y648000D03*
X628000Y648000D03*
X648000Y648000D03*
X652000Y648000D03*
X656000Y648000D03*
X660000Y648000D03*
X664000Y648000D03*
X668000Y648000D03*
X672000Y648000D03*
X676000Y648000D03*
X680000Y648000D03*
X684000Y648000D03*
X704000Y648000D03*
X708000Y648000D03*
X712000Y648000D03*
X716000Y648000D03*
X720000Y648000D03*
X724000Y648000D03*
X728000Y648000D03*
X732000Y648000D03*
X736000Y648000D03*
X740000Y648000D03*
X200000Y652000D03*
X204000Y652000D03*
X208000Y652000D03*
X212000Y652000D03*
X216000Y652000D03*
X220000Y652000D03*
X224000Y652000D03*
X228000Y652000D03*
X232000Y652000D03*
X236000Y652000D03*
X256000Y652000D03*
X260000Y652000D03*
X264000Y652000D03*
X268000Y652000D03*
X272000Y652000D03*
X276000Y652000D03*
X280000Y652000D03*
X284000Y652000D03*
X288000Y652000D03*
X292000Y652000D03*
X312000Y652000D03*
X316000Y652000D03*
X320000Y652000D03*
X324000Y652000D03*
X328000Y652000D03*
X332000Y652000D03*
X336000Y652000D03*
X340000Y652000D03*
X344000Y652000D03*
X348000Y652000D03*
X368000Y652000D03*
X372000Y652000D03*
X376000Y652000D03*
X380000Y652000D03*
X384000Y652000D03*
X388000Y652000D03*
X392000Y652000D03*
X396000Y652000D03*
X400000Y652000D03*
X404000Y652000D03*
X424000Y652000D03*
X428000Y652000D03*
X432000Y652000D03*
X436000Y652000D03*
X440000Y652000D03*
X444000Y652000D03*
X448000Y652000D03*
X452000Y652000D03*
X456000Y652000D03*
X460000Y652000D03*
X480000Y652000D03*
X484000Y652000D03*
X488000Y652000D03*
X492000Y652000D03*
X496000Y652000D03*
X500000Y652000D03*
X504000Y652000D03*
X508000Y652000D03*
X512000Y652000D03*
X516000Y652000D03*
X536000Y652000D03*
X540000Y652000D03*
X544000Y652000D03*
X548000Y652000D03*
X552000Y652000D03*
X556000Y652000D03*
X560000Y652000D03*
X564000Y652000D03*
X568000Y652000D03*
X572000Y652000D03*
X592000Y652000D03*
X596000Y652000D03*
X600000Y652000D03*
X604000Y652000D03*
X608000Y652000D03*
X612000Y652000D03*
X616000Y652000D03*
X620000Y652000D03*
X624000Y652000D03*
X628000Y652000D03*
X648000Y652000D03*
X652000Y652000D03*
X656000Y652000D03*
X660000Y652000D03*
X664000Y652000D03*
X668000Y652000D03*
X672000Y652000D03*
X676000Y652000D03*
X680000Y652000D03*
X684000Y652000D03*
X704000Y652000D03*
X708000Y652000D03*
X712000Y652000D03*
X716000Y652000D03*
X720000Y652000D03*
X724000Y652000D03*
X728000Y652000D03*
X732000Y652000D03*
X736000Y652000D03*
X740000Y652000D03*
X200000Y656000D03*
X204000Y656000D03*
X208000Y656000D03*
X212000Y656000D03*
X216000Y656000D03*
X220000Y656000D03*
X224000Y656000D03*
X228000Y656000D03*
X232000Y656000D03*
X236000Y656000D03*
X256000Y656000D03*
X260000Y656000D03*
X264000Y656000D03*
X268000Y656000D03*
X272000Y656000D03*
X276000Y656000D03*
X280000Y656000D03*
X284000Y656000D03*
X288000Y656000D03*
X292000Y656000D03*
X312000Y656000D03*
X316000Y656000D03*
X320000Y656000D03*
X324000Y656000D03*
X328000Y656000D03*
X332000Y656000D03*
X336000Y656000D03*
X340000Y656000D03*
X344000Y656000D03*
X348000Y656000D03*
X368000Y656000D03*
X372000Y656000D03*
X376000Y656000D03*
X380000Y656000D03*
X384000Y656000D03*
X388000Y656000D03*
X392000Y656000D03*
X396000Y656000D03*
X400000Y656000D03*
X404000Y656000D03*
X424000Y656000D03*
X428000Y656000D03*
X432000Y656000D03*
X436000Y656000D03*
X440000Y656000D03*
X444000Y656000D03*
X448000Y656000D03*
X452000Y656000D03*
X456000Y656000D03*
X460000Y656000D03*
X480000Y656000D03*
X484000Y656000D03*
X488000Y656000D03*
X492000Y656000D03*
X496000Y656000D03*
X500000Y656000D03*
X504000Y656000D03*
X508000Y656000D03*
X512000Y656000D03*
X516000Y656000D03*
X536000Y656000D03*
X540000Y656000D03*
X544000Y656000D03*
X548000Y656000D03*
X552000Y656000D03*
X556000Y656000D03*
X560000Y656000D03*
X564000Y656000D03*
X568000Y656000D03*
X572000Y656000D03*
X592000Y656000D03*
X596000Y656000D03*
X600000Y656000D03*
X604000Y656000D03*
X608000Y656000D03*
X612000Y656000D03*
X616000Y656000D03*
X620000Y656000D03*
X624000Y656000D03*
X628000Y656000D03*
X648000Y656000D03*
X652000Y656000D03*
X656000Y656000D03*
X660000Y656000D03*
X664000Y656000D03*
X668000Y656000D03*
X672000Y656000D03*
X676000Y656000D03*
X680000Y656000D03*
X684000Y656000D03*
X704000Y656000D03*
X708000Y656000D03*
X712000Y656000D03*
X716000Y656000D03*
X720000Y656000D03*
X724000Y656000D03*
X728000Y656000D03*
X732000Y656000D03*
X736000Y656000D03*
X740000Y656000D03*
X200000Y660000D03*
X204000Y660000D03*
X208000Y660000D03*
X212000Y660000D03*
X216000Y660000D03*
X220000Y660000D03*
X224000Y660000D03*
X228000Y660000D03*
X232000Y660000D03*
X236000Y660000D03*
X256000Y660000D03*
X260000Y660000D03*
X264000Y660000D03*
X268000Y660000D03*
X272000Y660000D03*
X276000Y660000D03*
X280000Y660000D03*
X284000Y660000D03*
X288000Y660000D03*
X292000Y660000D03*
X312000Y660000D03*
X316000Y660000D03*
X320000Y660000D03*
X324000Y660000D03*
X328000Y660000D03*
X332000Y660000D03*
X336000Y660000D03*
X340000Y660000D03*
X344000Y660000D03*
X348000Y660000D03*
X368000Y660000D03*
X372000Y660000D03*
X376000Y660000D03*
X380000Y660000D03*
X384000Y660000D03*
X388000Y660000D03*
X392000Y660000D03*
X396000Y660000D03*
X400000Y660000D03*
X404000Y660000D03*
X424000Y660000D03*
X428000Y660000D03*
X432000Y660000D03*
X436000Y660000D03*
X440000Y660000D03*
X444000Y660000D03*
X448000Y660000D03*
X452000Y660000D03*
X456000Y660000D03*
X460000Y660000D03*
X480000Y660000D03*
X484000Y660000D03*
X488000Y660000D03*
X492000Y660000D03*
X496000Y660000D03*
X500000Y660000D03*
X504000Y660000D03*
X508000Y660000D03*
X512000Y660000D03*
X516000Y660000D03*
X536000Y660000D03*
X540000Y660000D03*
X544000Y660000D03*
X548000Y660000D03*
X552000Y660000D03*
X556000Y660000D03*
X560000Y660000D03*
X564000Y660000D03*
X568000Y660000D03*
X572000Y660000D03*
X592000Y660000D03*
X596000Y660000D03*
X600000Y660000D03*
X604000Y660000D03*
X608000Y660000D03*
X612000Y660000D03*
X616000Y660000D03*
X620000Y660000D03*
X624000Y660000D03*
X628000Y660000D03*
X648000Y660000D03*
X652000Y660000D03*
X656000Y660000D03*
X660000Y660000D03*
X664000Y660000D03*
X668000Y660000D03*
X672000Y660000D03*
X676000Y660000D03*
X680000Y660000D03*
X684000Y660000D03*
X704000Y660000D03*
X708000Y660000D03*
X712000Y660000D03*
X716000Y660000D03*
X720000Y660000D03*
X724000Y660000D03*
X728000Y660000D03*
X732000Y660000D03*
X736000Y660000D03*
X740000Y660000D03*
X200000Y664000D03*
X204000Y664000D03*
X208000Y664000D03*
X212000Y664000D03*
X216000Y664000D03*
X220000Y664000D03*
X224000Y664000D03*
X228000Y664000D03*
X232000Y664000D03*
X236000Y664000D03*
X256000Y664000D03*
X260000Y664000D03*
X264000Y664000D03*
X268000Y664000D03*
X272000Y664000D03*
X276000Y664000D03*
X280000Y664000D03*
X284000Y664000D03*
X288000Y664000D03*
X292000Y664000D03*
X312000Y664000D03*
X316000Y664000D03*
X320000Y664000D03*
X324000Y664000D03*
X328000Y664000D03*
X332000Y664000D03*
X336000Y664000D03*
X340000Y664000D03*
X344000Y664000D03*
X348000Y664000D03*
X368000Y664000D03*
X372000Y664000D03*
X376000Y664000D03*
X380000Y664000D03*
X384000Y664000D03*
X388000Y664000D03*
X392000Y664000D03*
X396000Y664000D03*
X400000Y664000D03*
X404000Y664000D03*
X424000Y664000D03*
X428000Y664000D03*
X432000Y664000D03*
X436000Y664000D03*
X440000Y664000D03*
X444000Y664000D03*
X448000Y664000D03*
X452000Y664000D03*
X456000Y664000D03*
X460000Y664000D03*
X480000Y664000D03*
X484000Y664000D03*
X488000Y664000D03*
X492000Y664000D03*
X496000Y664000D03*
X500000Y664000D03*
X504000Y664000D03*
X508000Y664000D03*
X512000Y664000D03*
X516000Y664000D03*
X536000Y664000D03*
X540000Y664000D03*
X544000Y664000D03*
X548000Y664000D03*
X552000Y664000D03*
X556000Y664000D03*
X560000Y664000D03*
X564000Y664000D03*
X568000Y664000D03*
X572000Y664000D03*
X592000Y664000D03*
X596000Y664000D03*
X600000Y664000D03*
X604000Y664000D03*
X608000Y664000D03*
X612000Y664000D03*
X616000Y664000D03*
X620000Y664000D03*
X624000Y664000D03*
X628000Y664000D03*
X648000Y664000D03*
X652000Y664000D03*
X656000Y664000D03*
X660000Y664000D03*
X664000Y664000D03*
X668000Y664000D03*
X672000Y664000D03*
X676000Y664000D03*
X680000Y664000D03*
X684000Y664000D03*
X704000Y664000D03*
X708000Y664000D03*
X712000Y664000D03*
X716000Y664000D03*
X720000Y664000D03*
X724000Y664000D03*
X728000Y664000D03*
X732000Y664000D03*
X736000Y664000D03*
X740000Y664000D03*
X200000Y668000D03*
X204000Y668000D03*
X208000Y668000D03*
X212000Y668000D03*
X216000Y668000D03*
X220000Y668000D03*
X224000Y668000D03*
X228000Y668000D03*
X232000Y668000D03*
X236000Y668000D03*
X256000Y668000D03*
X260000Y668000D03*
X264000Y668000D03*
X268000Y668000D03*
X272000Y668000D03*
X276000Y668000D03*
X280000Y668000D03*
X284000Y668000D03*
X288000Y668000D03*
X292000Y668000D03*
X312000Y668000D03*
X316000Y668000D03*
X320000Y668000D03*
X324000Y668000D03*
X328000Y668000D03*
X332000Y668000D03*
X336000Y668000D03*
X340000Y668000D03*
X344000Y668000D03*
X348000Y668000D03*
X368000Y668000D03*
X372000Y668000D03*
X376000Y668000D03*
X380000Y668000D03*
X384000Y668000D03*
X388000Y668000D03*
X392000Y668000D03*
X396000Y668000D03*
X400000Y668000D03*
X404000Y668000D03*
X424000Y668000D03*
X428000Y668000D03*
X432000Y668000D03*
X436000Y668000D03*
X440000Y668000D03*
X444000Y668000D03*
X448000Y668000D03*
X452000Y668000D03*
X456000Y668000D03*
X460000Y668000D03*
X480000Y668000D03*
X484000Y668000D03*
X488000Y668000D03*
X492000Y668000D03*
X496000Y668000D03*
X500000Y668000D03*
X504000Y668000D03*
X508000Y668000D03*
X512000Y668000D03*
X516000Y668000D03*
X536000Y668000D03*
X540000Y668000D03*
X544000Y668000D03*
X548000Y668000D03*
X552000Y668000D03*
X556000Y668000D03*
X560000Y668000D03*
X564000Y668000D03*
X568000Y668000D03*
X572000Y668000D03*
X592000Y668000D03*
X596000Y668000D03*
X600000Y668000D03*
X604000Y668000D03*
X608000Y668000D03*
X612000Y668000D03*
X616000Y668000D03*
X620000Y668000D03*
X624000Y668000D03*
X628000Y668000D03*
X648000Y668000D03*
X652000Y668000D03*
X656000Y668000D03*
X660000Y668000D03*
X664000Y668000D03*
X668000Y668000D03*
X672000Y668000D03*
X676000Y668000D03*
X680000Y668000D03*
X684000Y668000D03*
X704000Y668000D03*
X708000Y668000D03*
X712000Y668000D03*
X716000Y668000D03*
X720000Y668000D03*
X724000Y668000D03*
X728000Y668000D03*
X732000Y668000D03*
X736000Y668000D03*
X740000Y668000D03*
X200000Y672000D03*
X204000Y672000D03*
X208000Y672000D03*
X212000Y672000D03*
X216000Y672000D03*
X220000Y672000D03*
X224000Y672000D03*
X228000Y672000D03*
X232000Y672000D03*
X236000Y672000D03*
X256000Y672000D03*
X260000Y672000D03*
X264000Y672000D03*
X268000Y672000D03*
X272000Y672000D03*
X276000Y672000D03*
X280000Y672000D03*
X284000Y672000D03*
X288000Y672000D03*
X292000Y672000D03*
X312000Y672000D03*
X316000Y672000D03*
X320000Y672000D03*
X324000Y672000D03*
X328000Y672000D03*
X332000Y672000D03*
X336000Y672000D03*
X340000Y672000D03*
X344000Y672000D03*
X348000Y672000D03*
X368000Y672000D03*
X372000Y672000D03*
X376000Y672000D03*
X380000Y672000D03*
X384000Y672000D03*
X388000Y672000D03*
X392000Y672000D03*
X396000Y672000D03*
X400000Y672000D03*
X404000Y672000D03*
X424000Y672000D03*
X428000Y672000D03*
X432000Y672000D03*
X436000Y672000D03*
X440000Y672000D03*
X444000Y672000D03*
X448000Y672000D03*
X452000Y672000D03*
X456000Y672000D03*
X460000Y672000D03*
X480000Y672000D03*
X484000Y672000D03*
X488000Y672000D03*
X492000Y672000D03*
X496000Y672000D03*
X500000Y672000D03*
X504000Y672000D03*
X508000Y672000D03*
X512000Y672000D03*
X516000Y672000D03*
X536000Y672000D03*
X540000Y672000D03*
X544000Y672000D03*
X548000Y672000D03*
X552000Y672000D03*
X556000Y672000D03*
X560000Y672000D03*
X564000Y672000D03*
X568000Y672000D03*
X572000Y672000D03*
X592000Y672000D03*
X596000Y672000D03*
X600000Y672000D03*
X604000Y672000D03*
X608000Y672000D03*
X612000Y672000D03*
X616000Y672000D03*
X620000Y672000D03*
X624000Y672000D03*
X628000Y672000D03*
X648000Y672000D03*
X652000Y672000D03*
X656000Y672000D03*
X660000Y672000D03*
X664000Y672000D03*
X668000Y672000D03*
X672000Y672000D03*
X676000Y672000D03*
X680000Y672000D03*
X684000Y672000D03*
X704000Y672000D03*
X708000Y672000D03*
X712000Y672000D03*
X716000Y672000D03*
X720000Y672000D03*
X724000Y672000D03*
X728000Y672000D03*
X732000Y672000D03*
X736000Y672000D03*
X740000Y672000D03*
X200000Y676000D03*
X204000Y676000D03*
X208000Y676000D03*
X212000Y676000D03*
X216000Y676000D03*
X220000Y676000D03*
X224000Y676000D03*
X228000Y676000D03*
X232000Y676000D03*
X236000Y676000D03*
X256000Y676000D03*
X260000Y676000D03*
X264000Y676000D03*
X268000Y676000D03*
X272000Y676000D03*
X276000Y676000D03*
X280000Y676000D03*
X284000Y676000D03*
X288000Y676000D03*
X292000Y676000D03*
X312000Y676000D03*
X316000Y676000D03*
X320000Y676000D03*
X324000Y676000D03*
X328000Y676000D03*
X332000Y676000D03*
X336000Y676000D03*
X340000Y676000D03*
X344000Y676000D03*
X348000Y676000D03*
X368000Y676000D03*
X372000Y676000D03*
X376000Y676000D03*
X380000Y676000D03*
X384000Y676000D03*
X388000Y676000D03*
X392000Y676000D03*
X396000Y676000D03*
X400000Y676000D03*
X404000Y676000D03*
X424000Y676000D03*
X428000Y676000D03*
X432000Y676000D03*
X436000Y676000D03*
X440000Y676000D03*
X444000Y676000D03*
X448000Y676000D03*
X452000Y676000D03*
X456000Y676000D03*
X460000Y676000D03*
X480000Y676000D03*
X484000Y676000D03*
X488000Y676000D03*
X492000Y676000D03*
X496000Y676000D03*
X500000Y676000D03*
X504000Y676000D03*
X508000Y676000D03*
X512000Y676000D03*
X516000Y676000D03*
X536000Y676000D03*
X540000Y676000D03*
X544000Y676000D03*
X548000Y676000D03*
X552000Y676000D03*
X556000Y676000D03*
X560000Y676000D03*
X564000Y676000D03*
X568000Y676000D03*
X572000Y676000D03*
X592000Y676000D03*
X596000Y676000D03*
X600000Y676000D03*
X604000Y676000D03*
X608000Y676000D03*
X612000Y676000D03*
X616000Y676000D03*
X620000Y676000D03*
X624000Y676000D03*
X628000Y676000D03*
X648000Y676000D03*
X652000Y676000D03*
X656000Y676000D03*
X660000Y676000D03*
X664000Y676000D03*
X668000Y676000D03*
X672000Y676000D03*
X676000Y676000D03*
X680000Y676000D03*
X684000Y676000D03*
X704000Y676000D03*
X708000Y676000D03*
X712000Y676000D03*
X716000Y676000D03*
X720000Y676000D03*
X724000Y676000D03*
X728000Y676000D03*
X732000Y676000D03*
X736000Y676000D03*
X740000Y676000D03*
X200000Y680000D03*
X204000Y680000D03*
X208000Y680000D03*
X212000Y680000D03*
X216000Y680000D03*
X220000Y680000D03*
X224000Y680000D03*
X228000Y680000D03*
X232000Y680000D03*
X236000Y680000D03*
X256000Y680000D03*
X260000Y680000D03*
X264000Y680000D03*
X268000Y680000D03*
X272000Y680000D03*
X276000Y680000D03*
X280000Y680000D03*
X284000Y680000D03*
X288000Y680000D03*
X292000Y680000D03*
X312000Y680000D03*
X316000Y680000D03*
X320000Y680000D03*
X324000Y680000D03*
X328000Y680000D03*
X332000Y680000D03*
X336000Y680000D03*
X340000Y680000D03*
X344000Y680000D03*
X348000Y680000D03*
X368000Y680000D03*
X372000Y680000D03*
X376000Y680000D03*
X380000Y680000D03*
X384000Y680000D03*
X388000Y680000D03*
X392000Y680000D03*
X396000Y680000D03*
X400000Y680000D03*
X404000Y680000D03*
X424000Y680000D03*
X428000Y680000D03*
X432000Y680000D03*
X436000Y680000D03*
X440000Y680000D03*
X444000Y680000D03*
X448000Y680000D03*
X452000Y680000D03*
X456000Y680000D03*
X460000Y680000D03*
X480000Y680000D03*
X484000Y680000D03*
X488000Y680000D03*
X492000Y680000D03*
X496000Y680000D03*
X500000Y680000D03*
X504000Y680000D03*
X508000Y680000D03*
X512000Y680000D03*
X516000Y680000D03*
X536000Y680000D03*
X540000Y680000D03*
X544000Y680000D03*
X548000Y680000D03*
X552000Y680000D03*
X556000Y680000D03*
X560000Y680000D03*
X564000Y680000D03*
X568000Y680000D03*
X572000Y680000D03*
X592000Y680000D03*
X596000Y680000D03*
X600000Y680000D03*
X604000Y680000D03*
X608000Y680000D03*
X612000Y680000D03*
X616000Y680000D03*
X620000Y680000D03*
X624000Y680000D03*
X628000Y680000D03*
X648000Y680000D03*
X652000Y680000D03*
X656000Y680000D03*
X660000Y680000D03*
X664000Y680000D03*
X668000Y680000D03*
X672000Y680000D03*
X676000Y680000D03*
X680000Y680000D03*
X684000Y680000D03*
X704000Y680000D03*
X708000Y680000D03*
X712000Y680000D03*
X716000Y680000D03*
X720000Y680000D03*
X724000Y680000D03*
X728000Y680000D03*
X732000Y680000D03*
X736000Y680000D03*
X740000Y680000D03*
X200000Y684000D03*
X204000Y684000D03*
X208000Y684000D03*
X212000Y684000D03*
X216000Y684000D03*
X220000Y684000D03*
X224000Y684000D03*
X228000Y684000D03*
X232000Y684000D03*
X236000Y684000D03*
X256000Y684000D03*
X260000Y684000D03*
X264000Y684000D03*
X268000Y684000D03*
X272000Y684000D03*
X276000Y684000D03*
X280000Y684000D03*
X284000Y684000D03*
X288000Y684000D03*
X292000Y684000D03*
X312000Y684000D03*
X316000Y684000D03*
X320000Y684000D03*
X324000Y684000D03*
X328000Y684000D03*
X332000Y684000D03*
X336000Y684000D03*
X340000Y684000D03*
X344000Y684000D03*
X348000Y684000D03*
X368000Y684000D03*
X372000Y684000D03*
X376000Y684000D03*
X380000Y684000D03*
X384000Y684000D03*
X388000Y684000D03*
X392000Y684000D03*
X396000Y684000D03*
X400000Y684000D03*
X404000Y684000D03*
X424000Y684000D03*
X428000Y684000D03*
X432000Y684000D03*
X436000Y684000D03*
X440000Y684000D03*
X444000Y684000D03*
X448000Y684000D03*
X452000Y684000D03*
X456000Y684000D03*
X460000Y684000D03*
X480000Y684000D03*
X484000Y684000D03*
X488000Y684000D03*
X492000Y684000D03*
X496000Y684000D03*
X500000Y684000D03*
X504000Y684000D03*
X508000Y684000D03*
X512000Y684000D03*
X516000Y684000D03*
X536000Y684000D03*
X540000Y684000D03*
X544000Y684000D03*
X548000Y684000D03*
X552000Y684000D03*
X556000Y684000D03*
X560000Y684000D03*
X564000Y684000D03*
X568000Y684000D03*
X572000Y684000D03*
X592000Y684000D03*
X596000Y684000D03*
X600000Y684000D03*
X604000Y684000D03*
X608000Y684000D03*
X612000Y684000D03*
X616000Y684000D03*
X620000Y684000D03*
X624000Y684000D03*
X628000Y684000D03*
X648000Y684000D03*
X652000Y684000D03*
X656000Y684000D03*
X660000Y684000D03*
X664000Y684000D03*
X668000Y684000D03*
X672000Y684000D03*
X676000Y684000D03*
X680000Y684000D03*
X684000Y684000D03*
X704000Y684000D03*
X708000Y684000D03*
X712000Y684000D03*
X716000Y684000D03*
X720000Y684000D03*
X724000Y684000D03*
X728000Y684000D03*
X732000Y684000D03*
X736000Y684000D03*
X740000Y684000D03*
X200000Y704000D03*
X204000Y704000D03*
X208000Y704000D03*
X212000Y704000D03*
X216000Y704000D03*
X220000Y704000D03*
X224000Y704000D03*
X228000Y704000D03*
X232000Y704000D03*
X236000Y704000D03*
X256000Y704000D03*
X260000Y704000D03*
X264000Y704000D03*
X268000Y704000D03*
X272000Y704000D03*
X276000Y704000D03*
X280000Y704000D03*
X284000Y704000D03*
X288000Y704000D03*
X292000Y704000D03*
X312000Y704000D03*
X316000Y704000D03*
X320000Y704000D03*
X324000Y704000D03*
X328000Y704000D03*
X332000Y704000D03*
X336000Y704000D03*
X340000Y704000D03*
X344000Y704000D03*
X348000Y704000D03*
X368000Y704000D03*
X372000Y704000D03*
X376000Y704000D03*
X380000Y704000D03*
X384000Y704000D03*
X388000Y704000D03*
X392000Y704000D03*
X396000Y704000D03*
X400000Y704000D03*
X404000Y704000D03*
X424000Y704000D03*
X428000Y704000D03*
X432000Y704000D03*
X436000Y704000D03*
X440000Y704000D03*
X444000Y704000D03*
X448000Y704000D03*
X452000Y704000D03*
X456000Y704000D03*
X460000Y704000D03*
X480000Y704000D03*
X484000Y704000D03*
X488000Y704000D03*
X492000Y704000D03*
X496000Y704000D03*
X500000Y704000D03*
X504000Y704000D03*
X508000Y704000D03*
X512000Y704000D03*
X516000Y704000D03*
X536000Y704000D03*
X540000Y704000D03*
X544000Y704000D03*
X548000Y704000D03*
X552000Y704000D03*
X556000Y704000D03*
X560000Y704000D03*
X564000Y704000D03*
X568000Y704000D03*
X572000Y704000D03*
X592000Y704000D03*
X596000Y704000D03*
X600000Y704000D03*
X604000Y704000D03*
X608000Y704000D03*
X612000Y704000D03*
X616000Y704000D03*
X620000Y704000D03*
X624000Y704000D03*
X628000Y704000D03*
X648000Y704000D03*
X652000Y704000D03*
X656000Y704000D03*
X660000Y704000D03*
X664000Y704000D03*
X668000Y704000D03*
X672000Y704000D03*
X676000Y704000D03*
X680000Y704000D03*
X684000Y704000D03*
X704000Y704000D03*
X708000Y704000D03*
X712000Y704000D03*
X716000Y704000D03*
X720000Y704000D03*
X724000Y704000D03*
X728000Y704000D03*
X732000Y704000D03*
X736000Y704000D03*
X740000Y704000D03*
X200000Y708000D03*
X204000Y708000D03*
X208000Y708000D03*
X212000Y708000D03*
X216000Y708000D03*
X220000Y708000D03*
X224000Y708000D03*
X228000Y708000D03*
X232000Y708000D03*
X236000Y708000D03*
X256000Y708000D03*
X260000Y708000D03*
X264000Y708000D03*
X268000Y708000D03*
X272000Y708000D03*
X276000Y708000D03*
X280000Y708000D03*
X284000Y708000D03*
X288000Y708000D03*
X292000Y708000D03*
X312000Y708000D03*
X316000Y708000D03*
X320000Y708000D03*
X324000Y708000D03*
X328000Y708000D03*
X332000Y708000D03*
X336000Y708000D03*
X340000Y708000D03*
X344000Y708000D03*
X348000Y708000D03*
X368000Y708000D03*
X372000Y708000D03*
X376000Y708000D03*
X380000Y708000D03*
X384000Y708000D03*
X388000Y708000D03*
X392000Y708000D03*
X396000Y708000D03*
X400000Y708000D03*
X404000Y708000D03*
X424000Y708000D03*
X428000Y708000D03*
X432000Y708000D03*
X436000Y708000D03*
X440000Y708000D03*
X444000Y708000D03*
X448000Y708000D03*
X452000Y708000D03*
X456000Y708000D03*
X460000Y708000D03*
X480000Y708000D03*
X484000Y708000D03*
X488000Y708000D03*
X492000Y708000D03*
X496000Y708000D03*
X500000Y708000D03*
X504000Y708000D03*
X508000Y708000D03*
X512000Y708000D03*
X516000Y708000D03*
X536000Y708000D03*
X540000Y708000D03*
X544000Y708000D03*
X548000Y708000D03*
X552000Y708000D03*
X556000Y708000D03*
X560000Y708000D03*
X564000Y708000D03*
X568000Y708000D03*
X572000Y708000D03*
X592000Y708000D03*
X596000Y708000D03*
X600000Y708000D03*
X604000Y708000D03*
X608000Y708000D03*
X612000Y708000D03*
X616000Y708000D03*
X620000Y708000D03*
X624000Y708000D03*
X628000Y708000D03*
X648000Y708000D03*
X652000Y708000D03*
X656000Y708000D03*
X660000Y708000D03*
X664000Y708000D03*
X668000Y708000D03*
X672000Y708000D03*
X676000Y708000D03*
X680000Y708000D03*
X684000Y708000D03*
X704000Y708000D03*
X708000Y708000D03*
X712000Y708000D03*
X716000Y708000D03*
X720000Y708000D03*
X724000Y708000D03*
X728000Y708000D03*
X732000Y708000D03*
X736000Y708000D03*
X740000Y708000D03*
X200000Y712000D03*
X204000Y712000D03*
X208000Y712000D03*
X212000Y712000D03*
X216000Y712000D03*
X220000Y712000D03*
X224000Y712000D03*
X228000Y712000D03*
X232000Y712000D03*
X236000Y712000D03*
X256000Y712000D03*
X260000Y712000D03*
X264000Y712000D03*
X268000Y712000D03*
X272000Y712000D03*
X276000Y712000D03*
X280000Y712000D03*
X284000Y712000D03*
X288000Y712000D03*
X292000Y712000D03*
X312000Y712000D03*
X316000Y712000D03*
X320000Y712000D03*
X324000Y712000D03*
X328000Y712000D03*
X332000Y712000D03*
X336000Y712000D03*
X340000Y712000D03*
X344000Y712000D03*
X348000Y712000D03*
X368000Y712000D03*
X372000Y712000D03*
X376000Y712000D03*
X380000Y712000D03*
X384000Y712000D03*
X388000Y712000D03*
X392000Y712000D03*
X396000Y712000D03*
X400000Y712000D03*
X404000Y712000D03*
X424000Y712000D03*
X428000Y712000D03*
X432000Y712000D03*
X436000Y712000D03*
X440000Y712000D03*
X444000Y712000D03*
X448000Y712000D03*
X452000Y712000D03*
X456000Y712000D03*
X460000Y712000D03*
X480000Y712000D03*
X484000Y712000D03*
X488000Y712000D03*
X492000Y712000D03*
X496000Y712000D03*
X500000Y712000D03*
X504000Y712000D03*
X508000Y712000D03*
X512000Y712000D03*
X516000Y712000D03*
X536000Y712000D03*
X540000Y712000D03*
X544000Y712000D03*
X548000Y712000D03*
X552000Y712000D03*
X556000Y712000D03*
X560000Y712000D03*
X564000Y712000D03*
X568000Y712000D03*
X572000Y712000D03*
X592000Y712000D03*
X596000Y712000D03*
X600000Y712000D03*
X604000Y712000D03*
X608000Y712000D03*
X612000Y712000D03*
X616000Y712000D03*
X620000Y712000D03*
X624000Y712000D03*
X628000Y712000D03*
X648000Y712000D03*
X652000Y712000D03*
X656000Y712000D03*
X660000Y712000D03*
X664000Y712000D03*
X668000Y712000D03*
X672000Y712000D03*
X676000Y712000D03*
X680000Y712000D03*
X684000Y712000D03*
X704000Y712000D03*
X708000Y712000D03*
X712000Y712000D03*
X716000Y712000D03*
X720000Y712000D03*
X724000Y712000D03*
X728000Y712000D03*
X732000Y712000D03*
X736000Y712000D03*
X740000Y712000D03*
X200000Y716000D03*
X204000Y716000D03*
X208000Y716000D03*
X212000Y716000D03*
X216000Y716000D03*
X220000Y716000D03*
X224000Y716000D03*
X228000Y716000D03*
X232000Y716000D03*
X236000Y716000D03*
X256000Y716000D03*
X260000Y716000D03*
X264000Y716000D03*
X268000Y716000D03*
X272000Y716000D03*
X276000Y716000D03*
X280000Y716000D03*
X284000Y716000D03*
X288000Y716000D03*
X292000Y716000D03*
X312000Y716000D03*
X316000Y716000D03*
X320000Y716000D03*
X324000Y716000D03*
X328000Y716000D03*
X332000Y716000D03*
X336000Y716000D03*
X340000Y716000D03*
X344000Y716000D03*
X348000Y716000D03*
X368000Y716000D03*
X372000Y716000D03*
X376000Y716000D03*
X380000Y716000D03*
X384000Y716000D03*
X388000Y716000D03*
X392000Y716000D03*
X396000Y716000D03*
X400000Y716000D03*
X404000Y716000D03*
X424000Y716000D03*
X428000Y716000D03*
X432000Y716000D03*
X436000Y716000D03*
X440000Y716000D03*
X444000Y716000D03*
X448000Y716000D03*
X452000Y716000D03*
X456000Y716000D03*
X460000Y716000D03*
X480000Y716000D03*
X484000Y716000D03*
X488000Y716000D03*
X492000Y716000D03*
X496000Y716000D03*
X500000Y716000D03*
X504000Y716000D03*
X508000Y716000D03*
X512000Y716000D03*
X516000Y716000D03*
X536000Y716000D03*
X540000Y716000D03*
X544000Y716000D03*
X548000Y716000D03*
X552000Y716000D03*
X556000Y716000D03*
X560000Y716000D03*
X564000Y716000D03*
X568000Y716000D03*
X572000Y716000D03*
X592000Y716000D03*
X596000Y716000D03*
X600000Y716000D03*
X604000Y716000D03*
X608000Y716000D03*
X612000Y716000D03*
X616000Y716000D03*
X620000Y716000D03*
X624000Y716000D03*
X628000Y716000D03*
X648000Y716000D03*
X652000Y716000D03*
X656000Y716000D03*
X660000Y716000D03*
X664000Y716000D03*
X668000Y716000D03*
X672000Y716000D03*
X676000Y716000D03*
X680000Y716000D03*
X684000Y716000D03*
X704000Y716000D03*
X708000Y716000D03*
X712000Y716000D03*
X716000Y716000D03*
X720000Y716000D03*
X724000Y716000D03*
X728000Y716000D03*
X732000Y716000D03*
X736000Y716000D03*
X740000Y716000D03*
X200000Y720000D03*
X204000Y720000D03*
X208000Y720000D03*
X212000Y720000D03*
X216000Y720000D03*
X220000Y720000D03*
X224000Y720000D03*
X228000Y720000D03*
X232000Y720000D03*
X236000Y720000D03*
X256000Y720000D03*
X260000Y720000D03*
X264000Y720000D03*
X268000Y720000D03*
X272000Y720000D03*
X276000Y720000D03*
X280000Y720000D03*
X284000Y720000D03*
X288000Y720000D03*
X292000Y720000D03*
X312000Y720000D03*
X316000Y720000D03*
X320000Y720000D03*
X324000Y720000D03*
X328000Y720000D03*
X332000Y720000D03*
X336000Y720000D03*
X340000Y720000D03*
X344000Y720000D03*
X348000Y720000D03*
X368000Y720000D03*
X372000Y720000D03*
X376000Y720000D03*
X380000Y720000D03*
X384000Y720000D03*
X388000Y720000D03*
X392000Y720000D03*
X396000Y720000D03*
X400000Y720000D03*
X404000Y720000D03*
X424000Y720000D03*
X428000Y720000D03*
X432000Y720000D03*
X436000Y720000D03*
X440000Y720000D03*
X444000Y720000D03*
X448000Y720000D03*
X452000Y720000D03*
X456000Y720000D03*
X460000Y720000D03*
X480000Y720000D03*
X484000Y720000D03*
X488000Y720000D03*
X492000Y720000D03*
X496000Y720000D03*
X500000Y720000D03*
X504000Y720000D03*
X508000Y720000D03*
X512000Y720000D03*
X516000Y720000D03*
X536000Y720000D03*
X540000Y720000D03*
X544000Y720000D03*
X548000Y720000D03*
X552000Y720000D03*
X556000Y720000D03*
X560000Y720000D03*
X564000Y720000D03*
X568000Y720000D03*
X572000Y720000D03*
X592000Y720000D03*
X596000Y720000D03*
X600000Y720000D03*
X604000Y720000D03*
X608000Y720000D03*
X612000Y720000D03*
X616000Y720000D03*
X620000Y720000D03*
X624000Y720000D03*
X628000Y720000D03*
X648000Y720000D03*
X652000Y720000D03*
X656000Y720000D03*
X660000Y720000D03*
X664000Y720000D03*
X668000Y720000D03*
X672000Y720000D03*
X676000Y720000D03*
X680000Y720000D03*
X684000Y720000D03*
X704000Y720000D03*
X708000Y720000D03*
X712000Y720000D03*
X716000Y720000D03*
X720000Y720000D03*
X724000Y720000D03*
X728000Y720000D03*
X732000Y720000D03*
X736000Y720000D03*
X740000Y720000D03*
X200000Y724000D03*
X204000Y724000D03*
X208000Y724000D03*
X212000Y724000D03*
X216000Y724000D03*
X220000Y724000D03*
X224000Y724000D03*
X228000Y724000D03*
X232000Y724000D03*
X236000Y724000D03*
X256000Y724000D03*
X260000Y724000D03*
X264000Y724000D03*
X268000Y724000D03*
X272000Y724000D03*
X276000Y724000D03*
X280000Y724000D03*
X284000Y724000D03*
X288000Y724000D03*
X292000Y724000D03*
X312000Y724000D03*
X316000Y724000D03*
X320000Y724000D03*
X324000Y724000D03*
X328000Y724000D03*
X332000Y724000D03*
X336000Y724000D03*
X340000Y724000D03*
X344000Y724000D03*
X348000Y724000D03*
X368000Y724000D03*
X372000Y724000D03*
X376000Y724000D03*
X380000Y724000D03*
X384000Y724000D03*
X388000Y724000D03*
X392000Y724000D03*
X396000Y724000D03*
X400000Y724000D03*
X404000Y724000D03*
X424000Y724000D03*
X428000Y724000D03*
X432000Y724000D03*
X436000Y724000D03*
X440000Y724000D03*
X444000Y724000D03*
X448000Y724000D03*
X452000Y724000D03*
X456000Y724000D03*
X460000Y724000D03*
X480000Y724000D03*
X484000Y724000D03*
X488000Y724000D03*
X492000Y724000D03*
X496000Y724000D03*
X500000Y724000D03*
X504000Y724000D03*
X508000Y724000D03*
X512000Y724000D03*
X516000Y724000D03*
X536000Y724000D03*
X540000Y724000D03*
X544000Y724000D03*
X548000Y724000D03*
X552000Y724000D03*
X556000Y724000D03*
X560000Y724000D03*
X564000Y724000D03*
X568000Y724000D03*
X572000Y724000D03*
X592000Y724000D03*
X596000Y724000D03*
X600000Y724000D03*
X604000Y724000D03*
X608000Y724000D03*
X612000Y724000D03*
X616000Y724000D03*
X620000Y724000D03*
X624000Y724000D03*
X628000Y724000D03*
X648000Y724000D03*
X652000Y724000D03*
X656000Y724000D03*
X660000Y724000D03*
X664000Y724000D03*
X668000Y724000D03*
X672000Y724000D03*
X676000Y724000D03*
X680000Y724000D03*
X684000Y724000D03*
X704000Y724000D03*
X708000Y724000D03*
X712000Y724000D03*
X716000Y724000D03*
X720000Y724000D03*
X724000Y724000D03*
X728000Y724000D03*
X732000Y724000D03*
X736000Y724000D03*
X740000Y724000D03*
X200000Y728000D03*
X204000Y728000D03*
X208000Y728000D03*
X212000Y728000D03*
X216000Y728000D03*
X220000Y728000D03*
X224000Y728000D03*
X228000Y728000D03*
X232000Y728000D03*
X236000Y728000D03*
X256000Y728000D03*
X260000Y728000D03*
X264000Y728000D03*
X268000Y728000D03*
X272000Y728000D03*
X276000Y728000D03*
X280000Y728000D03*
X284000Y728000D03*
X288000Y728000D03*
X292000Y728000D03*
X312000Y728000D03*
X316000Y728000D03*
X320000Y728000D03*
X324000Y728000D03*
X328000Y728000D03*
X332000Y728000D03*
X336000Y728000D03*
X340000Y728000D03*
X344000Y728000D03*
X348000Y728000D03*
X368000Y728000D03*
X372000Y728000D03*
X376000Y728000D03*
X380000Y728000D03*
X384000Y728000D03*
X388000Y728000D03*
X392000Y728000D03*
X396000Y728000D03*
X400000Y728000D03*
X404000Y728000D03*
X424000Y728000D03*
X428000Y728000D03*
X432000Y728000D03*
X436000Y728000D03*
X440000Y728000D03*
X444000Y728000D03*
X448000Y728000D03*
X452000Y728000D03*
X456000Y728000D03*
X460000Y728000D03*
X480000Y728000D03*
X484000Y728000D03*
X488000Y728000D03*
X492000Y728000D03*
X496000Y728000D03*
X500000Y728000D03*
X504000Y728000D03*
X508000Y728000D03*
X512000Y728000D03*
X516000Y728000D03*
X536000Y728000D03*
X540000Y728000D03*
X544000Y728000D03*
X548000Y728000D03*
X552000Y728000D03*
X556000Y728000D03*
X560000Y728000D03*
X564000Y728000D03*
X568000Y728000D03*
X572000Y728000D03*
X592000Y728000D03*
X596000Y728000D03*
X600000Y728000D03*
X604000Y728000D03*
X608000Y728000D03*
X612000Y728000D03*
X616000Y728000D03*
X620000Y728000D03*
X624000Y728000D03*
X628000Y728000D03*
X648000Y728000D03*
X652000Y728000D03*
X656000Y728000D03*
X660000Y728000D03*
X664000Y728000D03*
X668000Y728000D03*
X672000Y728000D03*
X676000Y728000D03*
X680000Y728000D03*
X684000Y728000D03*
X704000Y728000D03*
X708000Y728000D03*
X712000Y728000D03*
X716000Y728000D03*
X720000Y728000D03*
X724000Y728000D03*
X728000Y728000D03*
X732000Y728000D03*
X736000Y728000D03*
X740000Y728000D03*
X200000Y732000D03*
X204000Y732000D03*
X208000Y732000D03*
X212000Y732000D03*
X216000Y732000D03*
X220000Y732000D03*
X224000Y732000D03*
X228000Y732000D03*
X232000Y732000D03*
X236000Y732000D03*
X256000Y732000D03*
X260000Y732000D03*
X264000Y732000D03*
X268000Y732000D03*
X272000Y732000D03*
X276000Y732000D03*
X280000Y732000D03*
X284000Y732000D03*
X288000Y732000D03*
X292000Y732000D03*
X312000Y732000D03*
X316000Y732000D03*
X320000Y732000D03*
X324000Y732000D03*
X328000Y732000D03*
X332000Y732000D03*
X336000Y732000D03*
X340000Y732000D03*
X344000Y732000D03*
X348000Y732000D03*
X368000Y732000D03*
X372000Y732000D03*
X376000Y732000D03*
X380000Y732000D03*
X384000Y732000D03*
X388000Y732000D03*
X392000Y732000D03*
X396000Y732000D03*
X400000Y732000D03*
X404000Y732000D03*
X424000Y732000D03*
X428000Y732000D03*
X432000Y732000D03*
X436000Y732000D03*
X440000Y732000D03*
X444000Y732000D03*
X448000Y732000D03*
X452000Y732000D03*
X456000Y732000D03*
X460000Y732000D03*
X480000Y732000D03*
X484000Y732000D03*
X488000Y732000D03*
X492000Y732000D03*
X496000Y732000D03*
X500000Y732000D03*
X504000Y732000D03*
X508000Y732000D03*
X512000Y732000D03*
X516000Y732000D03*
X536000Y732000D03*
X540000Y732000D03*
X544000Y732000D03*
X548000Y732000D03*
X552000Y732000D03*
X556000Y732000D03*
X560000Y732000D03*
X564000Y732000D03*
X568000Y732000D03*
X572000Y732000D03*
X592000Y732000D03*
X596000Y732000D03*
X600000Y732000D03*
X604000Y732000D03*
X608000Y732000D03*
X612000Y732000D03*
X616000Y732000D03*
X620000Y732000D03*
X624000Y732000D03*
X628000Y732000D03*
X648000Y732000D03*
X652000Y732000D03*
X656000Y732000D03*
X660000Y732000D03*
X664000Y732000D03*
X668000Y732000D03*
X672000Y732000D03*
X676000Y732000D03*
X680000Y732000D03*
X684000Y732000D03*
X704000Y732000D03*
X708000Y732000D03*
X712000Y732000D03*
X716000Y732000D03*
X720000Y732000D03*
X724000Y732000D03*
X728000Y732000D03*
X732000Y732000D03*
X736000Y732000D03*
X740000Y732000D03*
X200000Y736000D03*
X204000Y736000D03*
X208000Y736000D03*
X212000Y736000D03*
X216000Y736000D03*
X220000Y736000D03*
X224000Y736000D03*
X228000Y736000D03*
X232000Y736000D03*
X236000Y736000D03*
X256000Y736000D03*
X260000Y736000D03*
X264000Y736000D03*
X268000Y736000D03*
X272000Y736000D03*
X276000Y736000D03*
X280000Y736000D03*
X284000Y736000D03*
X288000Y736000D03*
X292000Y736000D03*
X312000Y736000D03*
X316000Y736000D03*
X320000Y736000D03*
X324000Y736000D03*
X328000Y736000D03*
X332000Y736000D03*
X336000Y736000D03*
X340000Y736000D03*
X344000Y736000D03*
X348000Y736000D03*
X368000Y736000D03*
X372000Y736000D03*
X376000Y736000D03*
X380000Y736000D03*
X384000Y736000D03*
X388000Y736000D03*
X392000Y736000D03*
X396000Y736000D03*
X400000Y736000D03*
X404000Y736000D03*
X424000Y736000D03*
X428000Y736000D03*
X432000Y736000D03*
X436000Y736000D03*
X440000Y736000D03*
X444000Y736000D03*
X448000Y736000D03*
X452000Y736000D03*
X456000Y736000D03*
X460000Y736000D03*
X480000Y736000D03*
X484000Y736000D03*
X488000Y736000D03*
X492000Y736000D03*
X496000Y736000D03*
X500000Y736000D03*
X504000Y736000D03*
X508000Y736000D03*
X512000Y736000D03*
X516000Y736000D03*
X536000Y736000D03*
X540000Y736000D03*
X544000Y736000D03*
X548000Y736000D03*
X552000Y736000D03*
X556000Y736000D03*
X560000Y736000D03*
X564000Y736000D03*
X568000Y736000D03*
X572000Y736000D03*
X592000Y736000D03*
X596000Y736000D03*
X600000Y736000D03*
X604000Y736000D03*
X608000Y736000D03*
X612000Y736000D03*
X616000Y736000D03*
X620000Y736000D03*
X624000Y736000D03*
X628000Y736000D03*
X648000Y736000D03*
X652000Y736000D03*
X656000Y736000D03*
X660000Y736000D03*
X664000Y736000D03*
X668000Y736000D03*
X672000Y736000D03*
X676000Y736000D03*
X680000Y736000D03*
X684000Y736000D03*
X704000Y736000D03*
X708000Y736000D03*
X712000Y736000D03*
X716000Y736000D03*
X720000Y736000D03*
X724000Y736000D03*
X728000Y736000D03*
X732000Y736000D03*
X736000Y736000D03*
X740000Y736000D03*
X200000Y740000D03*
X204000Y740000D03*
X208000Y740000D03*
X212000Y740000D03*
X216000Y740000D03*
X220000Y740000D03*
X224000Y740000D03*
X228000Y740000D03*
X232000Y740000D03*
X236000Y740000D03*
X256000Y740000D03*
X260000Y740000D03*
X264000Y740000D03*
X268000Y740000D03*
X272000Y740000D03*
X276000Y740000D03*
X280000Y740000D03*
X284000Y740000D03*
X288000Y740000D03*
X292000Y740000D03*
X312000Y740000D03*
X316000Y740000D03*
X320000Y740000D03*
X324000Y740000D03*
X328000Y740000D03*
X332000Y740000D03*
X336000Y740000D03*
X340000Y740000D03*
X344000Y740000D03*
X348000Y740000D03*
X368000Y740000D03*
X372000Y740000D03*
X376000Y740000D03*
X380000Y740000D03*
X384000Y740000D03*
X388000Y740000D03*
X392000Y740000D03*
X396000Y740000D03*
X400000Y740000D03*
X404000Y740000D03*
X424000Y740000D03*
X428000Y740000D03*
X432000Y740000D03*
X436000Y740000D03*
X440000Y740000D03*
X444000Y740000D03*
X448000Y740000D03*
X452000Y740000D03*
X456000Y740000D03*
X460000Y740000D03*
X480000Y740000D03*
X484000Y740000D03*
X488000Y740000D03*
X492000Y740000D03*
X496000Y740000D03*
X500000Y740000D03*
X504000Y740000D03*
X508000Y740000D03*
X512000Y740000D03*
X516000Y740000D03*
X536000Y740000D03*
X540000Y740000D03*
X544000Y740000D03*
X548000Y740000D03*
X552000Y740000D03*
X556000Y740000D03*
X560000Y740000D03*
X564000Y740000D03*
X568000Y740000D03*
X572000Y740000D03*
X592000Y740000D03*
X596000Y740000D03*
X600000Y740000D03*
X604000Y740000D03*
X608000Y740000D03*
X612000Y740000D03*
X616000Y740000D03*
X620000Y740000D03*
X624000Y740000D03*
X628000Y740000D03*
X648000Y740000D03*
X652000Y740000D03*
X656000Y740000D03*
X660000Y740000D03*
X664000Y740000D03*
X668000Y740000D03*
X672000Y740000D03*
X676000Y740000D03*
X680000Y740000D03*
X684000Y740000D03*
X704000Y740000D03*
X708000Y740000D03*
X712000Y740000D03*
X716000Y740000D03*
X720000Y740000D03*
X724000Y740000D03*
X728000Y740000D03*
X732000Y740000D03*
X736000Y740000D03*
X740000Y740000D03*
M02*
